G04*
G04 #@! TF.GenerationSoftware,Altium Limited,Altium Designer,20.2.4 (192)*
G04*
G04 Layer_Physical_Order=1*
G04 Layer_Color=255*
%FSLAX25Y25*%
%MOIN*%
G70*
G04*
G04 #@! TF.SameCoordinates,24DCAFF0-FA00-4C88-9C66-18B03F94A83E*
G04*
G04*
G04 #@! TF.FilePolarity,Positive*
G04*
G01*
G75*
%ADD10C,0.00787*%
%ADD11C,0.00984*%
D10*
X83464Y302122D02*
X90784D01*
X253130Y281890D02*
X256299D01*
X249016Y277776D02*
X253130Y281890D01*
X249016Y264081D02*
Y277776D01*
X247244Y286964D02*
X256256D01*
X256299Y287008D01*
X249016Y260931D02*
Y264081D01*
X265420Y260931D02*
X265512Y261024D01*
X249016Y260931D02*
X265420D01*
X10079Y250787D02*
X10091Y250775D01*
X42913D01*
X10258Y302220D02*
X45719D01*
X186024Y241830D02*
Y242185D01*
X90157Y251728D02*
X98228D01*
X82283Y251630D02*
X90059D01*
X90157Y251728D01*
X172321Y249710D02*
X172600Y249431D01*
X172321Y249710D02*
Y257458D01*
X168742Y261038D02*
X172321Y257458D01*
X166284Y261038D02*
X168742D01*
X185968Y247004D02*
X189764D01*
X189764Y247004D01*
X171795Y241389D02*
X176219Y245813D01*
Y245813D01*
X182654Y239098D02*
X184055Y237697D01*
Y233913D02*
Y237697D01*
X171795Y239098D02*
X182654D01*
X186024Y233913D02*
Y241830D01*
X185968Y241886D02*
X186024Y241830D01*
X247244Y286964D02*
X247319Y287040D01*
X238976Y281101D02*
Y283027D01*
X235236Y274563D02*
Y277361D01*
X238976Y281101D01*
X212740Y275208D02*
X229472D01*
X230118Y274563D01*
X195910D02*
X200283D01*
X200929Y275208D01*
X189163Y279041D02*
X195270D01*
X195910Y279681D01*
X162205Y278893D02*
X179173D01*
X179320Y279041D01*
X162150Y267140D02*
Y273720D01*
X162205Y273775D01*
X152706Y259995D02*
X154704D01*
X155747Y261038D01*
X158016D01*
X133661Y254681D02*
X137100D01*
X137298Y254879D01*
X137840D01*
X133661Y262731D02*
X133836Y262556D01*
X137847D01*
X128242Y254379D02*
X128543Y254681D01*
X122638Y254379D02*
X128242D01*
X118841Y255173D02*
X121844D01*
X122638Y254379D01*
X123811Y262731D02*
X128543D01*
X121962Y260882D02*
X123811Y262731D01*
X118841Y260882D02*
X121962D01*
X113120Y258027D02*
X117561D01*
X106821Y251728D02*
X113120Y258027D01*
X103346Y251728D02*
X106821D01*
X64567Y249760D02*
X69094D01*
X70472Y251138D01*
Y251630D01*
X58464Y251531D02*
X59449Y250547D01*
X61373D01*
X62161Y249760D01*
X57539Y302220D02*
X58425Y303106D01*
X48868Y302220D02*
X57539D01*
X45719D02*
X48868D01*
X46063Y250775D02*
X52590D01*
X53346Y251531D01*
X42913Y250775D02*
X46063D01*
X238976Y290901D02*
Y294166D01*
X229643Y303500D02*
X238976Y294166D01*
X107438Y303500D02*
X229643D01*
X92556D02*
X102320D01*
X63543Y303106D02*
X70276D01*
X70768Y302614D01*
X184984Y243225D02*
X186024Y242185D01*
D11*
X137741Y254781D02*
X137840Y254879D01*
M02*
