%TF.GenerationSoftware,Altium Limited,Altium Designer,20.2.4 (192)*%
G04 Layer_Physical_Order=2*
G04 Layer_Color=36540*
%FSLAX25Y25*%
%MOIN*%
%TF.SameCoordinates,DD73C85C-3220-4851-94E8-9B28512026BA*%
%TF.FilePolarity,Positive*%
%TF.FileFunction,Copper,L2,Inr,Signal*%
%TF.Part,Single*%
G01*
G75*
%TA.AperFunction,ComponentPad*%
G04:AMPARAMS|DCode=108|XSize=74.8mil|YSize=49.21mil|CornerRadius=12.3mil|HoleSize=0mil|Usage=FLASHONLY|Rotation=0.000|XOffset=0mil|YOffset=0mil|HoleType=Round|Shape=RoundedRectangle|*
%AMROUNDEDRECTD108*
21,1,0.07480,0.02461,0,0,0.0*
21,1,0.05020,0.04921,0,0,0.0*
1,1,0.02461,0.02510,-0.01230*
1,1,0.02461,-0.02510,-0.01230*
1,1,0.02461,-0.02510,0.01230*
1,1,0.02461,0.02510,0.01230*
%
%ADD108ROUNDEDRECTD108*%
%ADD109C,0.04134*%
%ADD110C,0.14961*%
%TA.AperFunction,ViaPad*%
%ADD113C,0.02400*%
%ADD114C,0.02598*%
%ADD115C,0.03150*%
%ADD116C,0.05000*%
%ADD117C,0.02362*%
%ADD118C,0.02756*%
G36*
X275197Y11810D02*
X0D01*
Y381888D01*
X275197D01*
Y11810D01*
D02*
G37*
%LPC*%
G36*
X159843Y370217D02*
X158998Y370049D01*
X158281Y369571D01*
X157803Y368854D01*
X157635Y368010D01*
X157803Y367165D01*
X158281Y366448D01*
X158998Y365970D01*
X159843Y365802D01*
X160687Y365970D01*
X161404Y366448D01*
X161882Y367165D01*
X162050Y368010D01*
X161882Y368854D01*
X161404Y369571D01*
X160687Y370049D01*
X159843Y370217D01*
D02*
G37*
G36*
X186811Y367125D02*
X185966Y366957D01*
X185250Y366478D01*
X184771Y365762D01*
X184603Y364917D01*
X184771Y364072D01*
X185250Y363356D01*
X185966Y362877D01*
X186811Y362709D01*
X187656Y362877D01*
X188372Y363356D01*
X188851Y364072D01*
X189019Y364917D01*
X188851Y365762D01*
X188372Y366478D01*
X187656Y366957D01*
X186811Y367125D01*
D02*
G37*
G36*
X222133Y339141D02*
X221288Y338973D01*
X220572Y338494D01*
X220093Y337778D01*
X219925Y336933D01*
X220093Y336088D01*
X220572Y335372D01*
X221288Y334893D01*
X222133Y334725D01*
X222978Y334893D01*
X223694Y335372D01*
X224173Y336088D01*
X224341Y336933D01*
X224173Y337778D01*
X223694Y338494D01*
X222978Y338973D01*
X222133Y339141D01*
D02*
G37*
G36*
X218898Y324605D02*
X218053Y324437D01*
X217337Y323959D01*
X216858Y323242D01*
X216690Y322397D01*
X216858Y321552D01*
X217337Y320836D01*
X218053Y320358D01*
X218898Y320190D01*
X219742Y320358D01*
X220459Y320836D01*
X220937Y321552D01*
X221105Y322397D01*
X220937Y323242D01*
X220459Y323959D01*
X219742Y324437D01*
X218898Y324605D01*
D02*
G37*
G36*
X91339Y293428D02*
X90532Y293322D01*
X89780Y293010D01*
X89134Y292515D01*
X88639Y291869D01*
X88328Y291118D01*
X88221Y290311D01*
X88328Y289504D01*
X88639Y288752D01*
X89134Y288107D01*
X89780Y287611D01*
X90532Y287300D01*
X91339Y287194D01*
X92145Y287300D01*
X92897Y287611D01*
X93543Y288107D01*
X94038Y288752D01*
X94350Y289504D01*
X94456Y290311D01*
X94350Y291118D01*
X94038Y291869D01*
X93543Y292515D01*
X92897Y293010D01*
X92145Y293322D01*
X91339Y293428D01*
D02*
G37*
G36*
X139357Y279477D02*
X138512Y279309D01*
X137796Y278831D01*
X137317Y278114D01*
X137149Y277269D01*
X137317Y276425D01*
X137796Y275708D01*
X138512Y275230D01*
X139357Y275062D01*
X140202Y275230D01*
X140918Y275708D01*
X141396Y276425D01*
X141565Y277269D01*
X141396Y278114D01*
X140918Y278831D01*
X140202Y279309D01*
X139357Y279477D01*
D02*
G37*
G36*
X145669Y278400D02*
X144824Y278233D01*
X144108Y277754D01*
X143630Y277038D01*
X143462Y276193D01*
X143630Y275348D01*
X144108Y274632D01*
X144824Y274153D01*
X145669Y273985D01*
X146514Y274153D01*
X147230Y274632D01*
X147709Y275348D01*
X147877Y276193D01*
X147709Y277038D01*
X147230Y277754D01*
X146514Y278233D01*
X145669Y278400D01*
D02*
G37*
G36*
X239173Y269487D02*
X238328Y269319D01*
X237612Y268840D01*
X237134Y268124D01*
X236965Y267279D01*
X237134Y266434D01*
X237612Y265718D01*
X238328Y265240D01*
X239173Y265072D01*
X240018Y265240D01*
X240734Y265718D01*
X241213Y266434D01*
X241381Y267279D01*
X241213Y268124D01*
X240734Y268840D01*
X240018Y269319D01*
X239173Y269487D01*
D02*
G37*
G36*
X202953Y262300D02*
X202108Y262132D01*
X201392Y261653D01*
X200913Y260937D01*
X200745Y260092D01*
X200913Y259247D01*
X201392Y258531D01*
X202108Y258052D01*
X202953Y257884D01*
X203798Y258052D01*
X204514Y258531D01*
X204993Y259247D01*
X205160Y260092D01*
X204993Y260937D01*
X204514Y261653D01*
X203798Y262132D01*
X202953Y262300D01*
D02*
G37*
G36*
X164567Y254576D02*
X163876Y254439D01*
X163290Y254047D01*
X162898Y253461D01*
X162761Y252770D01*
X162898Y252079D01*
X163290Y251493D01*
X163876Y251101D01*
X164567Y250964D01*
X165258Y251101D01*
X165844Y251493D01*
X166236Y252079D01*
X166373Y252770D01*
X166236Y253461D01*
X165844Y254047D01*
X165258Y254439D01*
X164567Y254576D01*
D02*
G37*
G36*
X177953Y254330D02*
X177108Y254162D01*
X176392Y253683D01*
X175913Y252967D01*
X175745Y252122D01*
X175913Y251277D01*
X176392Y250561D01*
X177108Y250082D01*
X177953Y249914D01*
X178798Y250082D01*
X179514Y250561D01*
X179992Y251277D01*
X180160Y252122D01*
X179992Y252967D01*
X179514Y253683D01*
X178798Y254162D01*
X177953Y254330D01*
D02*
G37*
G36*
X151968Y250589D02*
X151123Y250421D01*
X150407Y249942D01*
X149928Y249226D01*
X149760Y248381D01*
X149928Y247536D01*
X150407Y246820D01*
X151123Y246342D01*
X151968Y246174D01*
X152813Y246342D01*
X153529Y246820D01*
X154008Y247536D01*
X154176Y248381D01*
X154008Y249226D01*
X153529Y249942D01*
X152813Y250421D01*
X151968Y250589D01*
D02*
G37*
G36*
X200929Y247991D02*
X200238Y247854D01*
X199652Y247462D01*
X199260Y246876D01*
X199123Y246185D01*
X199260Y245494D01*
X199652Y244908D01*
X200238Y244516D01*
X200929Y244379D01*
X201621Y244516D01*
X202206Y244908D01*
X202598Y245494D01*
X202736Y246185D01*
X202598Y246876D01*
X202206Y247462D01*
X201621Y247854D01*
X200929Y247991D01*
D02*
G37*
G36*
X153543Y245243D02*
X152698Y245075D01*
X151982Y244597D01*
X151504Y243880D01*
X151336Y243035D01*
X151504Y242191D01*
X151982Y241474D01*
X152698Y240996D01*
X153543Y240828D01*
X154388Y240996D01*
X155104Y241474D01*
X155583Y242191D01*
X155751Y243035D01*
X155583Y243880D01*
X155104Y244597D01*
X154388Y245075D01*
X153543Y245243D01*
D02*
G37*
G36*
X197583Y243911D02*
X196891Y243774D01*
X196305Y243382D01*
X195914Y242796D01*
X195776Y242105D01*
X195914Y241413D01*
X196305Y240827D01*
X196891Y240436D01*
X197583Y240298D01*
X198274Y240436D01*
X198860Y240827D01*
X199252Y241413D01*
X199389Y242105D01*
X199252Y242796D01*
X198860Y243382D01*
X198274Y243774D01*
X197583Y243911D01*
D02*
G37*
G36*
X134252Y242321D02*
X133407Y242153D01*
X132691Y241675D01*
X132212Y240958D01*
X132044Y240114D01*
X132212Y239269D01*
X132691Y238552D01*
X133407Y238074D01*
X134252Y237906D01*
X135097Y238074D01*
X135813Y238552D01*
X136291Y239269D01*
X136459Y240114D01*
X136291Y240958D01*
X135813Y241675D01*
X135097Y242153D01*
X134252Y242321D01*
D02*
G37*
G36*
X161221Y245432D02*
X160376Y245264D01*
X159659Y244786D01*
X159181Y244070D01*
X159013Y243225D01*
X159181Y242380D01*
X159659Y241664D01*
X160376Y241185D01*
X161081Y241045D01*
X161208Y240811D01*
X161262Y240649D01*
X161275Y240535D01*
X160930Y240018D01*
X160792Y239327D01*
X160930Y238635D01*
X161321Y238049D01*
X161907Y237658D01*
X162598Y237520D01*
X163290Y237658D01*
X163876Y238049D01*
X164267Y238635D01*
X164405Y239327D01*
X164334Y239680D01*
X164732Y240111D01*
X165424Y240248D01*
X166010Y240640D01*
X166401Y241226D01*
X166539Y241917D01*
X166401Y242608D01*
X166010Y243194D01*
X165424Y243586D01*
X164732Y243723D01*
X164041Y243586D01*
X163887Y243483D01*
X163331Y243713D01*
X163260Y244070D01*
X162782Y244786D01*
X162065Y245264D01*
X161221Y245432D01*
D02*
G37*
G36*
X32787Y240661D02*
X31942Y240493D01*
X31225Y240014D01*
X30747Y239298D01*
X30579Y238453D01*
X30747Y237608D01*
X31225Y236892D01*
X31942Y236414D01*
X32787Y236245D01*
X33632Y236414D01*
X34348Y236892D01*
X34826Y237608D01*
X34994Y238453D01*
X34826Y239298D01*
X34348Y240014D01*
X33632Y240493D01*
X32787Y240661D01*
D02*
G37*
G36*
X131102Y237401D02*
X130257Y237232D01*
X129541Y236754D01*
X129063Y236038D01*
X128895Y235193D01*
X129063Y234348D01*
X129541Y233632D01*
X130257Y233153D01*
X131102Y232985D01*
X131947Y233153D01*
X132664Y233632D01*
X133142Y234348D01*
X133310Y235193D01*
X133142Y236038D01*
X132664Y236754D01*
X131947Y237232D01*
X131102Y237401D01*
D02*
G37*
G36*
X114173Y234447D02*
X113328Y234279D01*
X112612Y233801D01*
X112133Y233085D01*
X111965Y232240D01*
X112112Y231503D01*
X111864Y231233D01*
X111713Y231141D01*
X110925Y231298D01*
X110080Y231130D01*
X109364Y230651D01*
X108886Y229935D01*
X108717Y229090D01*
X108886Y228245D01*
X109364Y227529D01*
X110080Y227051D01*
X110925Y226883D01*
X111770Y227051D01*
X112486Y227529D01*
X112965Y228245D01*
X113133Y229090D01*
X112986Y229827D01*
X113234Y230097D01*
X113385Y230188D01*
X114173Y230032D01*
X115018Y230200D01*
X115734Y230679D01*
X116213Y231395D01*
X116381Y232240D01*
X116213Y233085D01*
X115734Y233801D01*
X115018Y234279D01*
X114173Y234447D01*
D02*
G37*
G36*
X104331Y230314D02*
X103486Y230146D01*
X102770Y229667D01*
X102291Y228951D01*
X102123Y228106D01*
X102291Y227261D01*
X102770Y226545D01*
X103486Y226066D01*
X104331Y225898D01*
X105176Y226066D01*
X105892Y226545D01*
X106370Y227261D01*
X106538Y228106D01*
X106370Y228951D01*
X105892Y229667D01*
X105176Y230146D01*
X104331Y230314D01*
D02*
G37*
G36*
X97638Y228739D02*
X96793Y228571D01*
X96077Y228092D01*
X95598Y227376D01*
X95430Y226531D01*
X95598Y225686D01*
X96077Y224970D01*
X95796Y224559D01*
X95121Y225010D01*
X94276Y225179D01*
X93431Y225010D01*
X92714Y224532D01*
X92236Y223816D01*
X92068Y222971D01*
X92236Y222126D01*
X92714Y221410D01*
X93431Y220931D01*
X94276Y220763D01*
X95121Y220931D01*
X95837Y221410D01*
X96315Y222126D01*
X96483Y222971D01*
X96315Y223816D01*
X95837Y224532D01*
X96118Y224943D01*
X96793Y224492D01*
X97638Y224324D01*
X98483Y224492D01*
X99199Y224970D01*
X99677Y225686D01*
X99846Y226531D01*
X99677Y227376D01*
X99199Y228092D01*
X98483Y228571D01*
X97638Y228739D01*
D02*
G37*
G36*
X79866Y227085D02*
X79021Y226917D01*
X78305Y226438D01*
X77826Y225722D01*
X77658Y224877D01*
X77826Y224032D01*
X78305Y223316D01*
X79021Y222837D01*
X79866Y222669D01*
X80711Y222837D01*
X81427Y223316D01*
X81906Y224032D01*
X82074Y224877D01*
X81906Y225722D01*
X81427Y226438D01*
X80711Y226917D01*
X79866Y227085D01*
D02*
G37*
G36*
X7984Y225592D02*
X5974D01*
Y222587D01*
X10258D01*
Y223318D01*
X10085Y224188D01*
X9592Y224926D01*
X8854Y225419D01*
X7984Y225592D01*
D02*
G37*
G36*
X4974D02*
X2964D01*
X2094Y225419D01*
X1357Y224926D01*
X864Y224188D01*
X690Y223318D01*
Y222587D01*
X4974D01*
Y225592D01*
D02*
G37*
G36*
X170024Y223976D02*
X169332Y223838D01*
X168746Y223446D01*
X168355Y222860D01*
X168217Y222169D01*
X168355Y221478D01*
X168746Y220892D01*
X169332Y220500D01*
X170024Y220363D01*
X170715Y220500D01*
X171301Y220892D01*
X171693Y221478D01*
X171830Y222169D01*
X171693Y222860D01*
X171301Y223446D01*
X170715Y223838D01*
X170024Y223976D01*
D02*
G37*
G36*
X204866Y223188D02*
X204175Y223051D01*
X203589Y222659D01*
X203197Y222073D01*
X203060Y221382D01*
X203197Y220690D01*
X203589Y220104D01*
X204175Y219713D01*
X204866Y219575D01*
X205557Y219713D01*
X206143Y220104D01*
X206535Y220690D01*
X206673Y221382D01*
X206535Y222073D01*
X206143Y222659D01*
X205557Y223051D01*
X204866Y223188D01*
D02*
G37*
G36*
X10258Y221587D02*
X5974D01*
Y218583D01*
X7984D01*
X8854Y218756D01*
X9592Y219249D01*
X10085Y219987D01*
X10258Y220857D01*
Y221587D01*
D02*
G37*
G36*
X4974D02*
X690D01*
Y220857D01*
X864Y219987D01*
X1357Y219249D01*
X2094Y218756D01*
X2964Y218583D01*
X4974D01*
Y221587D01*
D02*
G37*
G36*
X60236Y222833D02*
X59391Y222666D01*
X58675Y222187D01*
X58197Y221471D01*
X58028Y220626D01*
X58197Y219781D01*
X58675Y219065D01*
X59391Y218586D01*
X60236Y218418D01*
X61081Y218586D01*
X61797Y219065D01*
X62276Y219781D01*
X62444Y220626D01*
X62276Y221471D01*
X61797Y222187D01*
X61081Y222666D01*
X60236Y222833D01*
D02*
G37*
G36*
X44685Y219684D02*
X43840Y219516D01*
X43124Y219037D01*
X42645Y218321D01*
X42477Y217476D01*
X42645Y216631D01*
X43124Y215915D01*
X43840Y215437D01*
X44685Y215268D01*
X45530Y215437D01*
X46246Y215915D01*
X46725Y216631D01*
X46893Y217476D01*
X46725Y218321D01*
X46246Y219037D01*
X45530Y219516D01*
X44685Y219684D01*
D02*
G37*
G36*
X18494Y217773D02*
Y215245D01*
X21022D01*
X20982Y215546D01*
X20673Y216292D01*
X20181Y216932D01*
X19541Y217424D01*
X18795Y217733D01*
X18494Y217773D01*
D02*
G37*
G36*
X17494D02*
X17193Y217733D01*
X16447Y217424D01*
X15807Y216932D01*
X15315Y216292D01*
X15006Y215546D01*
X14966Y215245D01*
X17494D01*
Y217773D01*
D02*
G37*
G36*
X21022Y214245D02*
X18494D01*
Y211717D01*
X18795Y211757D01*
X19541Y212066D01*
X20181Y212558D01*
X20673Y213198D01*
X20982Y213944D01*
X21022Y214245D01*
D02*
G37*
G36*
X17494D02*
X14966D01*
X15006Y213944D01*
X15315Y213198D01*
X15807Y212558D01*
X16447Y212066D01*
X17193Y211757D01*
X17494Y211717D01*
Y214245D01*
D02*
G37*
G36*
X54921Y215452D02*
X54076Y215283D01*
X53360Y214805D01*
X52882Y214089D01*
X52714Y213244D01*
X52882Y212399D01*
X53360Y211683D01*
X54076Y211204D01*
X54921Y211036D01*
X55766Y211204D01*
X56482Y211683D01*
X56961Y212399D01*
X57129Y213244D01*
X56961Y214089D01*
X56482Y214805D01*
X55766Y215283D01*
X54921Y215452D01*
D02*
G37*
G36*
X80315Y212006D02*
X79470Y211839D01*
X78754Y211360D01*
X78275Y210644D01*
X78158Y210053D01*
X77636Y209800D01*
X77420Y209945D01*
X76575Y210113D01*
X75730Y209945D01*
X75014Y209466D01*
X74535Y208750D01*
X74367Y207905D01*
X74535Y207060D01*
X75014Y206344D01*
X75730Y205865D01*
X76575Y205697D01*
X77420Y205865D01*
X78136Y206344D01*
X78614Y207060D01*
X78732Y207651D01*
X79254Y207903D01*
X79470Y207759D01*
X80315Y207591D01*
X81160Y207759D01*
X81876Y208238D01*
X82354Y208954D01*
X82522Y209799D01*
X82354Y210644D01*
X81876Y211360D01*
X81160Y211839D01*
X80315Y212006D01*
D02*
G37*
G36*
X24409Y213975D02*
X23564Y213807D01*
X22848Y213328D01*
X22370Y212612D01*
X22202Y211767D01*
X22370Y210922D01*
X22848Y210206D01*
X23564Y209728D01*
X24409Y209559D01*
X25254Y209728D01*
X25971Y210206D01*
X26449Y210922D01*
X26617Y211767D01*
X26449Y212612D01*
X25971Y213328D01*
X25254Y213807D01*
X24409Y213975D01*
D02*
G37*
G36*
X100394Y212960D02*
X99549Y212792D01*
X98833Y212313D01*
X98354Y211597D01*
X98186Y210752D01*
X98354Y209907D01*
X98833Y209191D01*
X99549Y208712D01*
X100394Y208544D01*
X101239Y208712D01*
X101955Y209191D01*
X102433Y209907D01*
X102602Y210752D01*
X102433Y211597D01*
X101955Y212313D01*
X101239Y212792D01*
X100394Y212960D01*
D02*
G37*
G36*
X196795Y207330D02*
X196104Y207192D01*
X195518Y206801D01*
X195126Y206214D01*
X194989Y205523D01*
X195126Y204832D01*
X195518Y204246D01*
X196104Y203854D01*
X196795Y203717D01*
X197487Y203854D01*
X198073Y204246D01*
X198464Y204832D01*
X198602Y205523D01*
X198464Y206214D01*
X198073Y206801D01*
X197487Y207192D01*
X196795Y207330D01*
D02*
G37*
G36*
X31496Y207282D02*
X30651Y207114D01*
X29935Y206636D01*
X29456Y205920D01*
X29288Y205075D01*
X29456Y204230D01*
X29935Y203514D01*
X30651Y203035D01*
X31496Y202867D01*
X32341Y203035D01*
X33057Y203514D01*
X33536Y204230D01*
X33704Y205075D01*
X33536Y205920D01*
X33057Y206636D01*
X32341Y207114D01*
X31496Y207282D01*
D02*
G37*
G36*
X142126Y206443D02*
X141281Y206275D01*
X140565Y205797D01*
X140086Y205081D01*
X139918Y204236D01*
X140086Y203391D01*
X140565Y202675D01*
X141281Y202196D01*
X142126Y202028D01*
X142971Y202196D01*
X143687Y202675D01*
X144165Y203391D01*
X144334Y204236D01*
X144165Y205081D01*
X143687Y205797D01*
X142971Y206275D01*
X142126Y206443D01*
D02*
G37*
G36*
X180260Y204881D02*
X179569Y204744D01*
X178983Y204352D01*
X178591Y203766D01*
X178454Y203075D01*
X178591Y202383D01*
X178983Y201797D01*
X179569Y201406D01*
X180260Y201268D01*
X180951Y201406D01*
X181537Y201797D01*
X181929Y202383D01*
X182066Y203075D01*
X181929Y203766D01*
X181537Y204352D01*
X180951Y204744D01*
X180260Y204881D01*
D02*
G37*
G36*
X70472Y203700D02*
X69627Y203532D01*
X68911Y203053D01*
X68433Y202337D01*
X68265Y201492D01*
X68433Y200647D01*
X68911Y199931D01*
X69627Y199452D01*
X70472Y199284D01*
X71317Y199452D01*
X72034Y199931D01*
X72512Y200647D01*
X72680Y201492D01*
X72512Y202337D01*
X72034Y203053D01*
X71317Y203532D01*
X70472Y203700D01*
D02*
G37*
G36*
X52756Y203345D02*
X51911Y203177D01*
X51195Y202698D01*
X50716Y201982D01*
X50548Y201137D01*
X50716Y200292D01*
X51195Y199576D01*
X51911Y199098D01*
X52756Y198930D01*
X53601Y199098D01*
X54317Y199576D01*
X54795Y200292D01*
X54963Y201137D01*
X54795Y201982D01*
X54317Y202698D01*
X53601Y203177D01*
X52756Y203345D01*
D02*
G37*
G36*
X78716Y204452D02*
X77910Y204345D01*
X77158Y204034D01*
X76512Y203539D01*
X76017Y202893D01*
X75705Y202141D01*
X75599Y201334D01*
X75705Y200528D01*
X76017Y199776D01*
X76512Y199130D01*
X77158Y198635D01*
X77910Y198323D01*
X78716Y198217D01*
X79523Y198323D01*
X80275Y198635D01*
X80921Y199130D01*
X81416Y199776D01*
X81727Y200528D01*
X81834Y201334D01*
X81727Y202141D01*
X81416Y202893D01*
X80921Y203539D01*
X80275Y204034D01*
X79523Y204345D01*
X78716Y204452D01*
D02*
G37*
G36*
X18494Y200253D02*
Y197725D01*
X21022D01*
X20982Y198026D01*
X20673Y198772D01*
X20181Y199413D01*
X19541Y199904D01*
X18795Y200213D01*
X18494Y200253D01*
D02*
G37*
G36*
X17494D02*
X17193Y200213D01*
X16447Y199904D01*
X15807Y199413D01*
X15315Y198772D01*
X15006Y198026D01*
X14966Y197725D01*
X17494D01*
Y200253D01*
D02*
G37*
G36*
X215748Y197826D02*
X215057Y197688D01*
X214471Y197297D01*
X214079Y196711D01*
X213942Y196019D01*
X214079Y195328D01*
X214471Y194742D01*
X215057Y194351D01*
X215748Y194213D01*
X216439Y194351D01*
X217025Y194742D01*
X217417Y195328D01*
X217554Y196019D01*
X217417Y196711D01*
X217025Y197297D01*
X216439Y197688D01*
X215748Y197826D01*
D02*
G37*
G36*
X21022Y196725D02*
X18494D01*
Y194198D01*
X18795Y194237D01*
X19541Y194546D01*
X20181Y195038D01*
X20673Y195679D01*
X20982Y196425D01*
X21022Y196725D01*
D02*
G37*
G36*
X17494D02*
X14966D01*
X15006Y196425D01*
X15315Y195679D01*
X15807Y195038D01*
X16447Y194546D01*
X17193Y194237D01*
X17494Y194198D01*
Y196725D01*
D02*
G37*
G36*
X123819Y198540D02*
X122974Y198372D01*
X122258Y197893D01*
X121779Y197177D01*
X121611Y196332D01*
X121779Y195487D01*
X122258Y194771D01*
X122974Y194292D01*
X123819Y194124D01*
X124664Y194292D01*
X125380Y194771D01*
X125859Y195487D01*
X126027Y196332D01*
X125859Y197177D01*
X125380Y197893D01*
X124664Y198372D01*
X123819Y198540D01*
D02*
G37*
G36*
X202953Y197629D02*
X202261Y197492D01*
X201676Y197100D01*
X201284Y196514D01*
X201146Y195823D01*
X201284Y195131D01*
X201676Y194545D01*
X202261Y194154D01*
X202953Y194016D01*
X203644Y194154D01*
X204230Y194545D01*
X204622Y195131D01*
X204759Y195823D01*
X204622Y196514D01*
X204230Y197100D01*
X203644Y197492D01*
X202953Y197629D01*
D02*
G37*
G36*
X211559Y197432D02*
X210868Y197295D01*
X210282Y196903D01*
X209890Y196317D01*
X209753Y195626D01*
X209890Y194934D01*
X210282Y194349D01*
X210868Y193957D01*
X211559Y193819D01*
X212250Y193957D01*
X212836Y194349D01*
X213228Y194934D01*
X213365Y195626D01*
X213228Y196317D01*
X212836Y196903D01*
X212250Y197295D01*
X211559Y197432D01*
D02*
G37*
G36*
X207087Y197038D02*
X206395Y196901D01*
X205809Y196509D01*
X205418Y195923D01*
X205280Y195232D01*
X205418Y194541D01*
X205809Y193955D01*
X206395Y193563D01*
X207087Y193426D01*
X207778Y193563D01*
X208364Y193955D01*
X208755Y194541D01*
X208893Y195232D01*
X208755Y195923D01*
X208364Y196509D01*
X207778Y196901D01*
X207087Y197038D01*
D02*
G37*
G36*
X51968Y196456D02*
X51124Y196288D01*
X50407Y195809D01*
X49929Y195093D01*
X49761Y194248D01*
X49929Y193403D01*
X50407Y192687D01*
X51124Y192208D01*
X51968Y192040D01*
X52813Y192208D01*
X53530Y192687D01*
X54008Y193403D01*
X54176Y194248D01*
X54008Y195093D01*
X53530Y195809D01*
X52813Y196288D01*
X51968Y196456D01*
D02*
G37*
G36*
X72441Y195274D02*
X71596Y195106D01*
X70880Y194628D01*
X70401Y193912D01*
X70233Y193067D01*
X70401Y192222D01*
X70880Y191506D01*
X71596Y191027D01*
X72441Y190859D01*
X73286Y191027D01*
X74002Y191506D01*
X74481Y192222D01*
X74649Y193067D01*
X74481Y193912D01*
X74002Y194628D01*
X73286Y195106D01*
X72441Y195274D01*
D02*
G37*
G36*
X7984Y193387D02*
X5974D01*
Y190383D01*
X10258D01*
Y191113D01*
X10085Y191983D01*
X9592Y192721D01*
X8854Y193214D01*
X7984Y193387D01*
D02*
G37*
G36*
X4974D02*
X2964D01*
X2094Y193214D01*
X1357Y192721D01*
X864Y191983D01*
X690Y191113D01*
Y190383D01*
X4974D01*
Y193387D01*
D02*
G37*
G36*
X190551Y194290D02*
X189706Y194122D01*
X188990Y193643D01*
X188512Y192927D01*
X188344Y192082D01*
X188512Y191237D01*
X188990Y190521D01*
X189706Y190043D01*
X190551Y189874D01*
X191396Y190043D01*
X192112Y190521D01*
X192591Y191237D01*
X192759Y192082D01*
X192591Y192927D01*
X192112Y193643D01*
X191396Y194122D01*
X190551Y194290D01*
D02*
G37*
G36*
X172638Y193109D02*
X171793Y192941D01*
X171077Y192463D01*
X170598Y191746D01*
X170430Y190901D01*
X170598Y190057D01*
X171077Y189340D01*
X171793Y188862D01*
X172638Y188694D01*
X173483Y188862D01*
X174199Y189340D01*
X174678Y190057D01*
X174846Y190901D01*
X174678Y191746D01*
X174199Y192463D01*
X173483Y192941D01*
X172638Y193109D01*
D02*
G37*
G36*
X42913Y192715D02*
X42068Y192547D01*
X41352Y192069D01*
X40874Y191352D01*
X40706Y190508D01*
X40874Y189663D01*
X41352Y188946D01*
X42068Y188468D01*
X42913Y188300D01*
X43758Y188468D01*
X44475Y188946D01*
X44953Y189663D01*
X45121Y190508D01*
X44953Y191352D01*
X44475Y192069D01*
X43758Y192547D01*
X42913Y192715D01*
D02*
G37*
G36*
X102362Y189959D02*
X101517Y189791D01*
X100801Y189313D01*
X100322Y188596D01*
X100154Y187752D01*
X100202Y187509D01*
X99849Y187155D01*
X99606Y187204D01*
X98761Y187036D01*
X98045Y186557D01*
X97567Y185841D01*
X97399Y184996D01*
X97567Y184151D01*
X98045Y183435D01*
X98761Y182956D01*
X99606Y182788D01*
X100451Y182956D01*
X101167Y183435D01*
X101646Y184151D01*
X101814Y184996D01*
X101766Y185239D01*
X102119Y185592D01*
X102362Y185544D01*
X103207Y185712D01*
X103923Y186190D01*
X104402Y186907D01*
X104570Y187752D01*
X104402Y188596D01*
X103923Y189313D01*
X103207Y189791D01*
X102362Y189959D01*
D02*
G37*
G36*
X10258Y189383D02*
X5974D01*
Y186378D01*
X7984D01*
X8854Y186551D01*
X9592Y187045D01*
X10085Y187782D01*
X10258Y188652D01*
Y189383D01*
D02*
G37*
G36*
X4974D02*
X690D01*
Y188652D01*
X864Y187782D01*
X1357Y187045D01*
X2094Y186551D01*
X2964Y186378D01*
X4974D01*
Y189383D01*
D02*
G37*
G36*
X64567Y188778D02*
X63722Y188610D01*
X63006Y188132D01*
X62527Y187416D01*
X62359Y186571D01*
X62527Y185726D01*
X63006Y185010D01*
X63722Y184531D01*
X64567Y184363D01*
X65412Y184531D01*
X66128Y185010D01*
X66607Y185726D01*
X66775Y186571D01*
X66607Y187416D01*
X66128Y188132D01*
X65412Y188610D01*
X64567Y188778D01*
D02*
G37*
G36*
X194685Y180814D02*
X193994Y180676D01*
X193408Y180284D01*
X193016Y179698D01*
X192879Y179007D01*
X193016Y178316D01*
X193408Y177730D01*
X193994Y177338D01*
X194685Y177201D01*
X195376Y177338D01*
X195962Y177730D01*
X196354Y178316D01*
X196491Y179007D01*
X196354Y179698D01*
X195962Y180284D01*
X195376Y180676D01*
X194685Y180814D01*
D02*
G37*
G36*
X85826Y181298D02*
X84982Y181130D01*
X84265Y180651D01*
X83787Y179935D01*
X83619Y179090D01*
X83787Y178245D01*
X84265Y177529D01*
X84982Y177050D01*
X85826Y176882D01*
X86671Y177050D01*
X87388Y177529D01*
X87866Y178245D01*
X88034Y179090D01*
X87866Y179935D01*
X87388Y180651D01*
X86671Y181130D01*
X85826Y181298D01*
D02*
G37*
G36*
X129528Y177164D02*
X128683Y176996D01*
X127966Y176518D01*
X127488Y175801D01*
X127320Y174957D01*
X127488Y174112D01*
X127966Y173395D01*
X128683Y172917D01*
X129528Y172749D01*
X130372Y172917D01*
X131089Y173395D01*
X131567Y174112D01*
X131735Y174957D01*
X131567Y175801D01*
X131089Y176518D01*
X130372Y176996D01*
X129528Y177164D01*
D02*
G37*
G36*
X110157Y176377D02*
X109313Y176209D01*
X108596Y175730D01*
X108118Y175014D01*
X107950Y174169D01*
X108118Y173324D01*
X108596Y172608D01*
X109313Y172129D01*
X110157Y171961D01*
X111002Y172129D01*
X111719Y172608D01*
X112197Y173324D01*
X112365Y174169D01*
X112197Y175014D01*
X111719Y175730D01*
X111002Y176209D01*
X110157Y176377D01*
D02*
G37*
G36*
X54331Y174802D02*
X53486Y174634D01*
X52770Y174155D01*
X52291Y173439D01*
X52123Y172594D01*
X52291Y171749D01*
X52770Y171033D01*
X53486Y170555D01*
X54331Y170387D01*
X55176Y170555D01*
X55892Y171033D01*
X56370Y171749D01*
X56538Y172594D01*
X56370Y173439D01*
X55892Y174155D01*
X55176Y174634D01*
X54331Y174802D01*
D02*
G37*
G36*
X107205Y169684D02*
X106360Y169516D01*
X105644Y169037D01*
X105165Y168321D01*
X104997Y167476D01*
X105165Y166631D01*
X105644Y165915D01*
X106360Y165436D01*
X107205Y165268D01*
X108050Y165436D01*
X108766Y165915D01*
X109244Y166631D01*
X109412Y167476D01*
X109244Y168321D01*
X108766Y169037D01*
X108050Y169516D01*
X107205Y169684D01*
D02*
G37*
G36*
X162992Y164688D02*
X162185Y164582D01*
X161433Y164270D01*
X160788Y163775D01*
X160292Y163129D01*
X159981Y162377D01*
X159875Y161571D01*
X159981Y160764D01*
X160292Y160012D01*
X160788Y159366D01*
X161433Y158871D01*
X162185Y158560D01*
X162992Y158453D01*
X163799Y158560D01*
X164551Y158871D01*
X165196Y159366D01*
X165692Y160012D01*
X166003Y160764D01*
X166109Y161571D01*
X166003Y162377D01*
X165692Y163129D01*
X165196Y163775D01*
X164551Y164270D01*
X163799Y164582D01*
X162992Y164688D01*
D02*
G37*
G36*
X212332Y160230D02*
X211487Y160062D01*
X210770Y159583D01*
X210292Y158867D01*
X210124Y158022D01*
X210292Y157177D01*
X210770Y156461D01*
X211487Y155982D01*
X212332Y155814D01*
X213176Y155982D01*
X213893Y156461D01*
X214371Y157177D01*
X214539Y158022D01*
X214371Y158867D01*
X213893Y159583D01*
X213176Y160062D01*
X212332Y160230D01*
D02*
G37*
G36*
X178543Y165082D02*
X177736Y164975D01*
X176985Y164664D01*
X176339Y164169D01*
X175844Y163523D01*
X175532Y162771D01*
X175426Y161964D01*
X175532Y161158D01*
X175844Y160406D01*
X176339Y159760D01*
X176985Y159265D01*
X177736Y158953D01*
X178225Y158889D01*
X178369Y158870D01*
Y158366D01*
X178225Y158347D01*
X177736Y158282D01*
X176985Y157971D01*
X176339Y157476D01*
X175844Y156830D01*
X175532Y156078D01*
X175426Y155271D01*
X175532Y154465D01*
X175844Y153713D01*
X176339Y153067D01*
X176985Y152572D01*
X177736Y152260D01*
X178543Y152154D01*
X179350Y152260D01*
X180102Y152572D01*
X180747Y153067D01*
X181243Y153713D01*
X181554Y154465D01*
X181660Y155271D01*
X181554Y156078D01*
X181243Y156830D01*
X180747Y157476D01*
X180102Y157971D01*
X179350Y158282D01*
X178862Y158347D01*
X178717Y158366D01*
Y158870D01*
X178862Y158889D01*
X179350Y158953D01*
X180102Y159265D01*
X180747Y159760D01*
X181243Y160406D01*
X181554Y161158D01*
X181660Y161964D01*
X181554Y162771D01*
X181243Y163523D01*
X180747Y164169D01*
X180102Y164664D01*
X179350Y164975D01*
X178543Y165082D01*
D02*
G37*
G36*
X170473D02*
X169666Y164975D01*
X168914Y164664D01*
X168268Y164169D01*
X167773Y163523D01*
X167461Y162771D01*
X167355Y161964D01*
X167461Y161158D01*
X167773Y160406D01*
X168268Y159760D01*
X168914Y159265D01*
X169666Y158953D01*
X170245Y158877D01*
X170397Y158857D01*
Y158353D01*
X170263Y158335D01*
X169862Y158282D01*
X169111Y157971D01*
X168465Y157476D01*
X167970Y156830D01*
X167658Y156078D01*
X167552Y155271D01*
X167658Y154465D01*
X167970Y153713D01*
X168465Y153067D01*
X169111Y152572D01*
X169862Y152260D01*
X170669Y152154D01*
X171476Y152260D01*
X172228Y152572D01*
X172873Y153067D01*
X173369Y153713D01*
X173680Y154465D01*
X173786Y155271D01*
X173680Y156078D01*
X173369Y156830D01*
X172873Y157476D01*
X172228Y157971D01*
X171476Y158282D01*
X170897Y158359D01*
X170745Y158379D01*
Y158883D01*
X170879Y158901D01*
X171279Y158953D01*
X172031Y159265D01*
X172677Y159760D01*
X173172Y160406D01*
X173483Y161158D01*
X173590Y161964D01*
X173483Y162771D01*
X173172Y163523D01*
X172677Y164169D01*
X172031Y164664D01*
X171279Y164975D01*
X170473Y165082D01*
D02*
G37*
G36*
X88386Y150499D02*
X87579Y150393D01*
X86827Y150081D01*
X86182Y149586D01*
X85686Y148940D01*
X85375Y148188D01*
X85269Y147382D01*
X85375Y146575D01*
X85686Y145823D01*
X86182Y145177D01*
X86827Y144682D01*
X87579Y144371D01*
X88386Y144264D01*
X89193Y144371D01*
X89944Y144682D01*
X90590Y145177D01*
X91085Y145823D01*
X91397Y146575D01*
X91503Y147382D01*
X91397Y148188D01*
X91085Y148940D01*
X90590Y149586D01*
X89944Y150081D01*
X89193Y150393D01*
X88386Y150499D01*
D02*
G37*
G36*
X61456D02*
X60649Y150393D01*
X59898Y150081D01*
X59252Y149586D01*
X58757Y148940D01*
X58445Y148188D01*
X58339Y147382D01*
X58445Y146575D01*
X58757Y145823D01*
X59252Y145177D01*
X59898Y144682D01*
X60649Y144371D01*
X61456Y144264D01*
X62263Y144371D01*
X63015Y144682D01*
X63661Y145177D01*
X64156Y145823D01*
X64467Y146575D01*
X64574Y147382D01*
X64467Y148188D01*
X64156Y148940D01*
X63661Y149586D01*
X63015Y150081D01*
X62263Y150393D01*
X61456Y150499D01*
D02*
G37*
G36*
X128779Y144971D02*
X128103Y144882D01*
X127473Y144621D01*
X126932Y144206D01*
X126517Y143665D01*
X126256Y143034D01*
X126167Y142358D01*
X126256Y141682D01*
X126517Y141051D01*
X126932Y140510D01*
X127473Y140095D01*
X128103Y139834D01*
X128779Y139745D01*
X129456Y139834D01*
X130086Y140095D01*
X130627Y140510D01*
X131042Y141051D01*
X131303Y141682D01*
X131392Y142358D01*
X131303Y143034D01*
X131042Y143665D01*
X130627Y144206D01*
X130086Y144621D01*
X129456Y144882D01*
X128779Y144971D01*
D02*
G37*
G36*
X118780D02*
X118103Y144882D01*
X117473Y144621D01*
X116932Y144206D01*
X116517Y143665D01*
X116256Y143034D01*
X116167Y142358D01*
X116256Y141682D01*
X116517Y141051D01*
X116932Y140510D01*
X117473Y140095D01*
X118103Y139834D01*
X118780Y139745D01*
X119456Y139834D01*
X120086Y140095D01*
X120627Y140510D01*
X121042Y141051D01*
X121303Y141682D01*
X121392Y142358D01*
X121303Y143034D01*
X121042Y143665D01*
X120627Y144206D01*
X120086Y144621D01*
X119456Y144882D01*
X118780Y144971D01*
D02*
G37*
G36*
X108780D02*
X108103Y144882D01*
X107473Y144621D01*
X106932Y144206D01*
X106517Y143665D01*
X106256Y143034D01*
X106167Y142358D01*
X106256Y141682D01*
X106517Y141051D01*
X106932Y140510D01*
X107473Y140095D01*
X108103Y139834D01*
X108780Y139745D01*
X109456Y139834D01*
X110086Y140095D01*
X110627Y140510D01*
X111042Y141051D01*
X111303Y141682D01*
X111392Y142358D01*
X111303Y143034D01*
X111042Y143665D01*
X110627Y144206D01*
X110086Y144621D01*
X109456Y144882D01*
X108780Y144971D01*
D02*
G37*
G36*
X128779Y134971D02*
X128103Y134882D01*
X127473Y134621D01*
X126932Y134206D01*
X126517Y133665D01*
X126256Y133034D01*
X126167Y132358D01*
X126256Y131682D01*
X126517Y131052D01*
X126932Y130510D01*
X127473Y130095D01*
X128103Y129834D01*
X128779Y129745D01*
X129456Y129834D01*
X130086Y130095D01*
X130627Y130510D01*
X131042Y131052D01*
X131303Y131682D01*
X131392Y132358D01*
X131303Y133034D01*
X131042Y133665D01*
X130627Y134206D01*
X130086Y134621D01*
X129456Y134882D01*
X128779Y134971D01*
D02*
G37*
G36*
X118780D02*
X118103Y134882D01*
X117473Y134621D01*
X116932Y134206D01*
X116517Y133665D01*
X116256Y133034D01*
X116167Y132358D01*
X116256Y131682D01*
X116517Y131052D01*
X116932Y130510D01*
X117473Y130095D01*
X118103Y129834D01*
X118780Y129745D01*
X119456Y129834D01*
X120086Y130095D01*
X120627Y130510D01*
X121042Y131052D01*
X121303Y131682D01*
X121392Y132358D01*
X121303Y133034D01*
X121042Y133665D01*
X120627Y134206D01*
X120086Y134621D01*
X119456Y134882D01*
X118780Y134971D01*
D02*
G37*
G36*
X108780D02*
X108103Y134882D01*
X107473Y134621D01*
X106932Y134206D01*
X106517Y133665D01*
X106256Y133034D01*
X106167Y132358D01*
X106256Y131682D01*
X106517Y131052D01*
X106932Y130510D01*
X107473Y130095D01*
X108103Y129834D01*
X108780Y129745D01*
X109456Y129834D01*
X110086Y130095D01*
X110627Y130510D01*
X111042Y131052D01*
X111303Y131682D01*
X111392Y132358D01*
X111303Y133034D01*
X111042Y133665D01*
X110627Y134206D01*
X110086Y134621D01*
X109456Y134882D01*
X108780Y134971D01*
D02*
G37*
G36*
X98779D02*
X98103Y134882D01*
X97473Y134621D01*
X96932Y134206D01*
X96517Y133665D01*
X96256Y133034D01*
X96167Y132358D01*
X96256Y131682D01*
X96517Y131052D01*
X96932Y130510D01*
X97473Y130095D01*
X98103Y129834D01*
X98779Y129745D01*
X99456Y129834D01*
X100086Y130095D01*
X100627Y130510D01*
X101042Y131052D01*
X101303Y131682D01*
X101392Y132358D01*
X101303Y133034D01*
X101042Y133665D01*
X100627Y134206D01*
X100086Y134621D01*
X99456Y134882D01*
X98779Y134971D01*
D02*
G37*
G36*
X232283Y100633D02*
X231439Y100465D01*
X230722Y99986D01*
X230244Y99270D01*
X230076Y98425D01*
X230244Y97580D01*
X230722Y96864D01*
X231439Y96386D01*
X232283Y96217D01*
X233128Y96386D01*
X233845Y96864D01*
X234323Y97580D01*
X234491Y98425D01*
X234323Y99270D01*
X233845Y99986D01*
X233128Y100465D01*
X232283Y100633D01*
D02*
G37*
G36*
X47244D02*
X46399Y100465D01*
X45683Y99986D01*
X45204Y99270D01*
X45036Y98425D01*
X45204Y97580D01*
X45683Y96864D01*
X46399Y96386D01*
X47244Y96217D01*
X48089Y96386D01*
X48805Y96864D01*
X49284Y97580D01*
X49452Y98425D01*
X49284Y99270D01*
X48805Y99986D01*
X48089Y100465D01*
X47244Y100633D01*
D02*
G37*
%LPD*%
D108*
X5474Y189883D02*
D03*
Y222087D02*
D03*
D109*
X17994Y214745D02*
D03*
X17994Y197225D02*
D03*
D110*
X255906Y19685D02*
D03*
X19685D02*
D03*
X255906Y374016D02*
D03*
X19685D02*
D03*
D113*
X206835Y275208D02*
D03*
X202512Y291886D02*
D03*
X205660Y286375D02*
D03*
X208809D02*
D03*
Y283619D02*
D03*
X205660D02*
D03*
Y289131D02*
D03*
X208809D02*
D03*
Y291886D02*
D03*
X202510Y283619D02*
D03*
Y286375D02*
D03*
X205660Y291886D02*
D03*
X202512Y288963D02*
D03*
X211959Y291886D02*
D03*
Y286375D02*
D03*
Y289131D02*
D03*
Y283619D02*
D03*
X85039Y273720D02*
D03*
X81496D02*
D03*
X76378Y251218D02*
D03*
X81496Y259782D02*
D03*
Y265293D02*
D03*
Y262537D02*
D03*
Y268048D02*
D03*
X72215Y265126D02*
D03*
X75197Y268048D02*
D03*
X72047Y262537D02*
D03*
Y259782D02*
D03*
X78347Y268048D02*
D03*
Y265293D02*
D03*
X75197D02*
D03*
Y259782D02*
D03*
X78347D02*
D03*
Y262537D02*
D03*
X75197D02*
D03*
X77362Y296457D02*
D03*
X77362Y305118D02*
D03*
Y302362D02*
D03*
Y307874D02*
D03*
X84350Y318896D02*
D03*
Y316142D02*
D03*
Y310630D02*
D03*
Y313386D02*
D03*
X70276Y318896D02*
D03*
Y316142D02*
D03*
Y310630D02*
D03*
Y313386D02*
D03*
X75732D02*
D03*
X79150D02*
D03*
Y310630D02*
D03*
X75732D02*
D03*
Y316142D02*
D03*
X79150D02*
D03*
Y318896D02*
D03*
X75732D02*
D03*
D114*
X243110Y289327D02*
D03*
Y284602D02*
D03*
X180315Y228697D02*
D03*
X185039D02*
D03*
X189764D02*
D03*
X180315Y223972D02*
D03*
X185039D02*
D03*
X189764D02*
D03*
X180315Y219248D02*
D03*
X185039D02*
D03*
X189764D02*
D03*
D115*
X19089Y228948D02*
D03*
X24409Y245215D02*
D03*
Y255451D02*
D03*
Y236706D02*
D03*
X10214Y232710D02*
D03*
X24409Y264506D02*
D03*
X10214Y268048D02*
D03*
X10258Y320866D02*
D03*
X24409Y316142D02*
D03*
X10258Y283465D02*
D03*
X24409Y288342D02*
D03*
Y307087D02*
D03*
Y296850D02*
D03*
X268779Y358972D02*
D03*
Y338972D02*
D03*
Y318972D02*
D03*
Y298972D02*
D03*
Y278972D02*
D03*
Y238972D02*
D03*
Y218972D02*
D03*
Y198972D02*
D03*
Y178972D02*
D03*
Y158972D02*
D03*
Y138972D02*
D03*
Y118972D02*
D03*
Y78972D02*
D03*
Y58972D02*
D03*
Y38972D02*
D03*
Y18972D02*
D03*
X258780Y358972D02*
D03*
X263779Y348972D02*
D03*
X258780Y338972D02*
D03*
X263779Y328972D02*
D03*
X258780Y318972D02*
D03*
X263779Y308972D02*
D03*
X258780Y298972D02*
D03*
X263779Y288972D02*
D03*
X258780Y238972D02*
D03*
X263779Y228972D02*
D03*
X258780Y218972D02*
D03*
X263779Y208972D02*
D03*
X258780Y198972D02*
D03*
X263779Y188972D02*
D03*
X258780Y178972D02*
D03*
X263779Y168972D02*
D03*
X258780Y158972D02*
D03*
X263779Y148972D02*
D03*
X258780Y138972D02*
D03*
X263779Y128972D02*
D03*
X258780Y118972D02*
D03*
Y78972D02*
D03*
X263779Y68972D02*
D03*
X258780Y58972D02*
D03*
X263779Y48972D02*
D03*
X258780Y38972D02*
D03*
X263779Y28972D02*
D03*
X248780Y358972D02*
D03*
X253780Y348972D02*
D03*
X248780Y338972D02*
D03*
X253780Y328972D02*
D03*
X248780Y318972D02*
D03*
Y298972D02*
D03*
Y238972D02*
D03*
X253780Y228972D02*
D03*
X248780Y218972D02*
D03*
X253780Y208972D02*
D03*
X248780Y198972D02*
D03*
X253780Y188972D02*
D03*
Y148972D02*
D03*
X248780Y138972D02*
D03*
X253780Y128972D02*
D03*
X248780Y118972D02*
D03*
Y78972D02*
D03*
X253780Y68972D02*
D03*
X248780Y58972D02*
D03*
X253780Y48972D02*
D03*
X248780Y38972D02*
D03*
X253780Y28972D02*
D03*
X243779Y368972D02*
D03*
X238779Y358972D02*
D03*
X243779Y348972D02*
D03*
X238779Y338972D02*
D03*
X243779Y328972D02*
D03*
Y308972D02*
D03*
Y268972D02*
D03*
Y248972D02*
D03*
Y228972D02*
D03*
Y208972D02*
D03*
X238779Y198972D02*
D03*
X243779Y188972D02*
D03*
X238779Y178972D02*
D03*
X243779Y148972D02*
D03*
X238779Y138972D02*
D03*
X243779Y128972D02*
D03*
X238779Y118972D02*
D03*
X243779Y108972D02*
D03*
Y88972D02*
D03*
X238779Y78972D02*
D03*
X243779Y68972D02*
D03*
X238779Y58972D02*
D03*
X243779Y48972D02*
D03*
X238779Y38972D02*
D03*
X243779Y28972D02*
D03*
X238779Y18972D02*
D03*
X233780Y368972D02*
D03*
X228780Y358972D02*
D03*
X233780Y348972D02*
D03*
X228780Y338972D02*
D03*
X233780Y328972D02*
D03*
X228780Y298972D02*
D03*
X233780Y268972D02*
D03*
Y248972D02*
D03*
Y228972D02*
D03*
Y188972D02*
D03*
X228780Y178972D02*
D03*
Y158972D02*
D03*
X233780Y148972D02*
D03*
X228780Y138972D02*
D03*
X233780Y128972D02*
D03*
X228780Y118972D02*
D03*
X233780Y108972D02*
D03*
Y88972D02*
D03*
X228780Y78972D02*
D03*
X233780Y68972D02*
D03*
X228780Y58972D02*
D03*
X233780Y48972D02*
D03*
X228780Y38972D02*
D03*
X233780Y28972D02*
D03*
X228780Y18972D02*
D03*
X223780Y368972D02*
D03*
X218779Y358972D02*
D03*
X223780Y348972D02*
D03*
Y308972D02*
D03*
Y268972D02*
D03*
Y188972D02*
D03*
X218779Y158972D02*
D03*
X223780Y148972D02*
D03*
X218779Y138972D02*
D03*
X223780Y128972D02*
D03*
X218779Y118972D02*
D03*
X223780Y108972D02*
D03*
Y88972D02*
D03*
X218779Y78972D02*
D03*
X223780Y68972D02*
D03*
X218779Y58972D02*
D03*
X223780Y48972D02*
D03*
X218779Y38972D02*
D03*
X223780Y28972D02*
D03*
X218779Y18972D02*
D03*
X213779Y368972D02*
D03*
X208780Y358972D02*
D03*
X213779Y348972D02*
D03*
Y328972D02*
D03*
Y308972D02*
D03*
X208780Y138972D02*
D03*
X213779Y128972D02*
D03*
X208780Y118972D02*
D03*
X213779Y108972D02*
D03*
Y88972D02*
D03*
X208780Y78972D02*
D03*
X213779Y68972D02*
D03*
X208780Y58972D02*
D03*
X213779Y48972D02*
D03*
X208780Y38972D02*
D03*
X213779Y28972D02*
D03*
X208780Y18972D02*
D03*
X203780Y368972D02*
D03*
Y348972D02*
D03*
Y328972D02*
D03*
Y308972D02*
D03*
Y268972D02*
D03*
X198779Y138972D02*
D03*
X203780Y128972D02*
D03*
X198779Y118972D02*
D03*
X203780Y108972D02*
D03*
Y88972D02*
D03*
X198779Y78972D02*
D03*
X203780Y68972D02*
D03*
X198779Y58972D02*
D03*
X203780Y48972D02*
D03*
X198779Y38972D02*
D03*
X203780Y28972D02*
D03*
X198779Y18972D02*
D03*
X193780Y368972D02*
D03*
Y348972D02*
D03*
Y328972D02*
D03*
Y308972D02*
D03*
Y288972D02*
D03*
Y268972D02*
D03*
Y168972D02*
D03*
Y148972D02*
D03*
Y128972D02*
D03*
X188779Y118972D02*
D03*
X193780Y108972D02*
D03*
Y88972D02*
D03*
X188779Y78972D02*
D03*
X193780Y68972D02*
D03*
X188779Y58972D02*
D03*
X193780Y48972D02*
D03*
X188779Y38972D02*
D03*
X193780Y28972D02*
D03*
X188779Y18972D02*
D03*
X183780Y348972D02*
D03*
Y328972D02*
D03*
Y308972D02*
D03*
Y288972D02*
D03*
Y268972D02*
D03*
X178779Y138972D02*
D03*
Y118972D02*
D03*
X183780Y108972D02*
D03*
Y88972D02*
D03*
X178779Y78972D02*
D03*
X183780Y68972D02*
D03*
X178779Y58972D02*
D03*
X183780Y48972D02*
D03*
X178779Y38972D02*
D03*
X183780Y28972D02*
D03*
X178779Y18972D02*
D03*
X173779Y328972D02*
D03*
Y308972D02*
D03*
Y288972D02*
D03*
Y268972D02*
D03*
X168780Y198972D02*
D03*
X173779Y148972D02*
D03*
X168780Y138972D02*
D03*
X173779Y128972D02*
D03*
X168780Y118972D02*
D03*
X173779Y108972D02*
D03*
Y88972D02*
D03*
X168780Y78972D02*
D03*
X173779Y68972D02*
D03*
X168780Y58972D02*
D03*
X173779Y48972D02*
D03*
X168780Y38972D02*
D03*
X173779Y28972D02*
D03*
X168780Y18972D02*
D03*
X163779Y348972D02*
D03*
Y328972D02*
D03*
Y308972D02*
D03*
X158780Y298972D02*
D03*
X163779Y288972D02*
D03*
X158780Y198972D02*
D03*
Y178972D02*
D03*
Y138972D02*
D03*
X163779Y128972D02*
D03*
X158780Y118972D02*
D03*
X163779Y108972D02*
D03*
Y88972D02*
D03*
X158780Y78972D02*
D03*
X163779Y68972D02*
D03*
X158780Y58972D02*
D03*
X163779Y48972D02*
D03*
X158780Y38972D02*
D03*
X163779Y28972D02*
D03*
X158780Y18972D02*
D03*
X153779Y368972D02*
D03*
Y308972D02*
D03*
X148779Y298972D02*
D03*
Y278972D02*
D03*
X153779Y268972D02*
D03*
Y228972D02*
D03*
X148779Y218972D02*
D03*
X153779Y208972D02*
D03*
X148779Y178972D02*
D03*
Y138972D02*
D03*
X153779Y128972D02*
D03*
X148779Y118972D02*
D03*
X153779Y108972D02*
D03*
Y88972D02*
D03*
X148779Y78972D02*
D03*
X153779Y68972D02*
D03*
X148779Y58972D02*
D03*
X153779Y48972D02*
D03*
X148779Y38972D02*
D03*
X153779Y28972D02*
D03*
X148779Y18972D02*
D03*
X143780Y368972D02*
D03*
X138779Y298972D02*
D03*
X143780Y288972D02*
D03*
Y228972D02*
D03*
X138779Y218972D02*
D03*
X143780Y168972D02*
D03*
Y128972D02*
D03*
X138779Y118972D02*
D03*
X143780Y108972D02*
D03*
Y88972D02*
D03*
X138779Y78972D02*
D03*
X143780Y68972D02*
D03*
X138779Y58972D02*
D03*
X143780Y48972D02*
D03*
X138779Y38972D02*
D03*
X143780Y28972D02*
D03*
X138779Y18972D02*
D03*
X133780Y368972D02*
D03*
X128779Y358972D02*
D03*
X133780Y308972D02*
D03*
X128779Y298972D02*
D03*
X133780Y288972D02*
D03*
X128779Y278972D02*
D03*
X133780Y248972D02*
D03*
Y208972D02*
D03*
X128779Y198972D02*
D03*
Y178972D02*
D03*
Y118972D02*
D03*
X133780Y108972D02*
D03*
Y88972D02*
D03*
X128779Y78972D02*
D03*
X133780Y68972D02*
D03*
X128779Y58972D02*
D03*
X133780Y48972D02*
D03*
X128779Y38972D02*
D03*
X133780Y28972D02*
D03*
X128779Y18972D02*
D03*
X123779Y368972D02*
D03*
X118780Y358972D02*
D03*
X123779Y308972D02*
D03*
X118780Y298972D02*
D03*
X123779Y288972D02*
D03*
X118780Y278972D02*
D03*
X123779Y268972D02*
D03*
Y248972D02*
D03*
X118780Y178972D02*
D03*
Y118972D02*
D03*
X123779Y108972D02*
D03*
Y88972D02*
D03*
X118780Y78972D02*
D03*
X123779Y68972D02*
D03*
X118780Y58972D02*
D03*
X123779Y48972D02*
D03*
X118780Y38972D02*
D03*
X123779Y28972D02*
D03*
X118780Y18972D02*
D03*
X113779Y368972D02*
D03*
X108780Y358972D02*
D03*
X113779Y328972D02*
D03*
X108780Y278972D02*
D03*
X113779Y268972D02*
D03*
X108780Y258972D02*
D03*
X113779Y148972D02*
D03*
X108780Y118972D02*
D03*
X113779Y108972D02*
D03*
Y88972D02*
D03*
X108780Y78972D02*
D03*
X113779Y68972D02*
D03*
X108780Y58972D02*
D03*
X113779Y48972D02*
D03*
X108780Y38972D02*
D03*
X113779Y28972D02*
D03*
X108780Y18972D02*
D03*
X103779Y368972D02*
D03*
X98779Y358972D02*
D03*
Y338972D02*
D03*
X103779Y328972D02*
D03*
X98779Y318972D02*
D03*
X103779Y268972D02*
D03*
X98779Y258972D02*
D03*
Y158972D02*
D03*
Y118972D02*
D03*
X103779Y108972D02*
D03*
Y88972D02*
D03*
X98779Y78972D02*
D03*
X103779Y68972D02*
D03*
X98779Y58972D02*
D03*
X103779Y48972D02*
D03*
X98779Y38972D02*
D03*
X103779Y28972D02*
D03*
X98779Y18972D02*
D03*
X93779Y368972D02*
D03*
X88779Y358972D02*
D03*
X93779Y328972D02*
D03*
Y308972D02*
D03*
Y148972D02*
D03*
X88779Y138972D02*
D03*
Y118972D02*
D03*
X93779Y108972D02*
D03*
Y88972D02*
D03*
X88779Y78972D02*
D03*
X93779Y68972D02*
D03*
X88779Y58972D02*
D03*
X93779Y48972D02*
D03*
X88779Y38972D02*
D03*
X93779Y28972D02*
D03*
X88779Y18972D02*
D03*
X83780Y368972D02*
D03*
X78780Y358972D02*
D03*
Y338972D02*
D03*
X83780Y328972D02*
D03*
X78780Y138972D02*
D03*
Y118972D02*
D03*
X83780Y108972D02*
D03*
Y88972D02*
D03*
X78780Y78972D02*
D03*
X83780Y68972D02*
D03*
X78780Y58972D02*
D03*
X83780Y48972D02*
D03*
X78780Y38972D02*
D03*
X83780Y28972D02*
D03*
X78780Y18972D02*
D03*
X73779Y368972D02*
D03*
X68779Y358972D02*
D03*
X73779Y328972D02*
D03*
Y288972D02*
D03*
Y228972D02*
D03*
X68779Y138972D02*
D03*
Y118972D02*
D03*
X73779Y108972D02*
D03*
Y88972D02*
D03*
X68779Y78972D02*
D03*
X73779Y68972D02*
D03*
X68779Y58972D02*
D03*
X73779Y48972D02*
D03*
X68779Y38972D02*
D03*
X73779Y28972D02*
D03*
X68779Y18972D02*
D03*
X63779Y368972D02*
D03*
X58780Y358972D02*
D03*
Y338972D02*
D03*
X63779Y328972D02*
D03*
X58780Y318972D02*
D03*
X63779Y308972D02*
D03*
Y288972D02*
D03*
X58780Y278972D02*
D03*
Y238972D02*
D03*
X63779Y168972D02*
D03*
X58780Y158972D02*
D03*
Y138972D02*
D03*
Y118972D02*
D03*
X63779Y108972D02*
D03*
Y88972D02*
D03*
X58780Y78972D02*
D03*
X63779Y68972D02*
D03*
X58780Y58972D02*
D03*
X63779Y48972D02*
D03*
X58780Y38972D02*
D03*
X63779Y28972D02*
D03*
X58780Y18972D02*
D03*
X53780Y368972D02*
D03*
X48779Y338972D02*
D03*
X53780Y328972D02*
D03*
X48779Y318972D02*
D03*
X53780Y308972D02*
D03*
Y288972D02*
D03*
X48779Y278972D02*
D03*
X53780Y268972D02*
D03*
X48779Y238972D02*
D03*
X53780Y228972D02*
D03*
X48779Y158972D02*
D03*
X53780Y148972D02*
D03*
Y128972D02*
D03*
X48779Y118972D02*
D03*
X53780Y108972D02*
D03*
Y88972D02*
D03*
X48779Y78972D02*
D03*
X53780Y68972D02*
D03*
X48779Y58972D02*
D03*
X53780Y48972D02*
D03*
X48779Y38972D02*
D03*
X53780Y28972D02*
D03*
X48779Y18972D02*
D03*
X43780Y368972D02*
D03*
X38780Y358972D02*
D03*
X43780Y328972D02*
D03*
X38780Y318972D02*
D03*
X43780Y308972D02*
D03*
Y288972D02*
D03*
X38780Y278972D02*
D03*
X43780Y268972D02*
D03*
X38780Y258972D02*
D03*
X43780Y228972D02*
D03*
X38780Y178972D02*
D03*
X43780Y168972D02*
D03*
X38780Y158972D02*
D03*
Y138972D02*
D03*
X43780Y128972D02*
D03*
X38780Y118972D02*
D03*
X43780Y108972D02*
D03*
Y88972D02*
D03*
X38780Y78972D02*
D03*
X43780Y68972D02*
D03*
X38780Y58972D02*
D03*
X43780Y48972D02*
D03*
X38780Y38972D02*
D03*
X43780Y28972D02*
D03*
X38780Y18972D02*
D03*
X33779Y368972D02*
D03*
X28780Y358972D02*
D03*
Y338972D02*
D03*
X33779Y328972D02*
D03*
Y308972D02*
D03*
X28780Y278972D02*
D03*
X33779Y268972D02*
D03*
Y208972D02*
D03*
X28780Y178972D02*
D03*
X33779Y168972D02*
D03*
Y148972D02*
D03*
X28780Y138972D02*
D03*
X33779Y128972D02*
D03*
X28780Y118972D02*
D03*
X33779Y108972D02*
D03*
Y88972D02*
D03*
X28780Y78972D02*
D03*
X33779Y68972D02*
D03*
X28780Y58972D02*
D03*
X33779Y48972D02*
D03*
X28780Y38972D02*
D03*
X33779Y28972D02*
D03*
X23779Y328972D02*
D03*
X18779Y278972D02*
D03*
Y178972D02*
D03*
Y158972D02*
D03*
X23779Y148972D02*
D03*
X18779Y138972D02*
D03*
X23779Y128972D02*
D03*
X18779Y118972D02*
D03*
X23779Y108972D02*
D03*
Y88972D02*
D03*
X18779Y78972D02*
D03*
X23779Y68972D02*
D03*
X18779Y58972D02*
D03*
X23779Y48972D02*
D03*
X18779Y38972D02*
D03*
X23779Y28972D02*
D03*
X13780Y328972D02*
D03*
X8779Y198972D02*
D03*
X13780Y188972D02*
D03*
X8779Y178972D02*
D03*
X13780Y168972D02*
D03*
X8779Y158972D02*
D03*
X13780Y148972D02*
D03*
X8779Y138972D02*
D03*
X13780Y128972D02*
D03*
X8779Y118972D02*
D03*
Y78972D02*
D03*
X13780Y68972D02*
D03*
X8779Y58972D02*
D03*
X13780Y48972D02*
D03*
X8779Y38972D02*
D03*
X13780Y28972D02*
D03*
X8779Y18972D02*
D03*
X32787Y238453D02*
D03*
X159843Y368010D02*
D03*
X222133Y336933D02*
D03*
X186811Y364917D02*
D03*
X232283Y98425D02*
D03*
X47244D02*
D03*
X220926Y289327D02*
D03*
X188959Y289917D02*
D03*
X218898Y322397D02*
D03*
X239173Y267279D02*
D03*
X99606Y184996D02*
D03*
X135039Y258618D02*
D03*
X202953Y260092D02*
D03*
X145669Y276193D02*
D03*
X139357Y277269D02*
D03*
X177953Y252122D02*
D03*
X131102Y235193D02*
D03*
X134252Y240114D02*
D03*
X190551Y192082D02*
D03*
X79866Y224877D02*
D03*
X153543Y243035D02*
D03*
X161221Y243225D02*
D03*
X124748Y258027D02*
D03*
X94276Y222971D02*
D03*
X54921Y213244D02*
D03*
X60236Y220626D02*
D03*
X151968Y248381D02*
D03*
X142126Y204236D02*
D03*
X110925Y229090D02*
D03*
X104331Y228106D02*
D03*
X114173Y232240D02*
D03*
X43385Y203958D02*
D03*
X101378Y166098D02*
D03*
X107205Y167476D02*
D03*
X52756Y201137D02*
D03*
X212332Y158022D02*
D03*
X100591Y206452D02*
D03*
X85826Y179090D02*
D03*
X129528Y174957D02*
D03*
X100394Y210752D02*
D03*
X123819Y196332D02*
D03*
X110157Y174169D02*
D03*
X102362Y187752D02*
D03*
X80315Y209799D02*
D03*
X76575Y207905D02*
D03*
X54331Y172594D02*
D03*
X72441Y193067D02*
D03*
X64567Y186571D02*
D03*
X51968Y194248D02*
D03*
X70472Y201492D02*
D03*
X97638Y226531D02*
D03*
X31496Y205075D02*
D03*
X44685Y217476D02*
D03*
X24409Y211767D02*
D03*
X42913Y190508D02*
D03*
X172638Y190901D02*
D03*
D116*
X61456Y147382D02*
D03*
X91339Y290311D02*
D03*
X162992Y161571D02*
D03*
X178543Y155271D02*
D03*
X170669D02*
D03*
X103362Y194658D02*
D03*
X78716Y201334D02*
D03*
X178543Y161964D02*
D03*
X170473D02*
D03*
X88386Y147382D02*
D03*
D117*
X194685Y179007D02*
D03*
X164567Y252770D02*
D03*
X164732Y241917D02*
D03*
X218898Y227319D02*
D03*
X194980Y233815D02*
D03*
X207087Y195232D02*
D03*
X202953Y195823D02*
D03*
X211559Y195626D02*
D03*
X215748Y196019D02*
D03*
X162598Y239327D02*
D03*
X196795Y205523D02*
D03*
X180260Y203075D02*
D03*
X204866Y221382D02*
D03*
X200929Y246185D02*
D03*
X197583Y242105D02*
D03*
X170024Y222169D02*
D03*
D118*
X185039Y199366D02*
D03*
%TF.MD5,e307922363a372c0e9b45985b33b5371*%
M02*
