%TF.GenerationSoftware,Altium Limited,Altium Designer,20.2.4 (192)*%
G04 Layer_Color=8388736*
%FSLAX25Y25*%
%MOIN*%
%TF.SameCoordinates,DD73C85C-3220-4851-94E8-9B28512026BA*%
%TF.FilePolarity,Negative*%
%TF.FileFunction,Soldermask,Top*%
%TF.Part,Single*%
G01*
G75*
%TA.AperFunction,SMDPad,CuDef*%
%ADD14R,0.03543X0.02756*%
%ADD15R,0.01181X0.00591*%
%ADD16R,0.00591X0.01181*%
%ADD17R,0.02264X0.01181*%
%ADD18R,0.01181X0.02264*%
%ADD19R,0.09449X0.09449*%
%ADD20R,0.06890X0.02362*%
%ADD21R,0.03937X0.02362*%
%ADD22R,0.02756X0.03543*%
%ADD23R,0.04331X0.03937*%
%ADD24R,0.03543X0.19685*%
%ADD25R,0.03937X0.05512*%
G04:AMPARAMS|DCode=26|XSize=31.5mil|YSize=23.62mil|CornerRadius=5.91mil|HoleSize=0mil|Usage=FLASHONLY|Rotation=90.000|XOffset=0mil|YOffset=0mil|HoleType=Round|Shape=RoundedRectangle|*
%AMROUNDEDRECTD26*
21,1,0.03150,0.01181,0,0,90.0*
21,1,0.01968,0.02362,0,0,90.0*
1,1,0.01181,0.00591,0.00984*
1,1,0.01181,0.00591,-0.00984*
1,1,0.01181,-0.00591,-0.00984*
1,1,0.01181,-0.00591,0.00984*
%
%ADD26ROUNDEDRECTD26*%
%ADD27O,0.01181X0.06890*%
%ADD28O,0.06890X0.01181*%
%ADD29R,0.02362X0.05512*%
%ADD30R,0.07900X0.05900*%
%ADD31R,0.07900X0.15000*%
%ADD32O,0.06890X0.02362*%
%ADD33R,0.07480X0.04232*%
%ADD34R,0.07087X0.07087*%
%ADD35R,0.05906X0.01575*%
%ADD36R,0.02756X0.01968*%
%ADD37R,0.04000X0.04000*%
%ADD38R,0.02559X0.02756*%
%ADD39R,0.01772X0.02756*%
%ADD40R,0.04500X0.01500*%
%ADD41R,0.04724X0.07874*%
G04:AMPARAMS|DCode=42|XSize=78.74mil|YSize=47.24mil|CornerRadius=0mil|HoleSize=0mil|Usage=FLASHONLY|Rotation=270.000|XOffset=0mil|YOffset=0mil|HoleType=Round|Shape=Octagon|*
%AMOCTAGOND42*
4,1,8,-0.01181,-0.03937,0.01181,-0.03937,0.02362,-0.02756,0.02362,0.02756,0.01181,0.03937,-0.01181,0.03937,-0.02362,0.02756,-0.02362,-0.02756,-0.01181,-0.03937,0.0*
%
%ADD42OCTAGOND42*%

%ADD43R,0.07087X0.06299*%
%ADD44R,0.05906X0.05118*%
%ADD45R,0.03937X0.04331*%
%ADD46O,0.02362X0.01181*%
%ADD47R,0.03543X0.08268*%
%ADD48R,0.12992X0.12992*%
%ADD49O,0.00984X0.02559*%
%ADD50O,0.02559X0.00984*%
%ADD51O,0.01181X0.02362*%
%ADD52R,0.01575X0.03150*%
%ADD53R,0.03543X0.05118*%
%TA.AperFunction,ConnectorPad*%
%ADD54R,0.19685X0.06299*%
%ADD55R,0.19685X0.04724*%
%TA.AperFunction,SMDPad,CuDef*%
%ADD56R,0.01496X0.01102*%
G04:AMPARAMS|DCode=57|XSize=27.56mil|YSize=35.43mil|CornerRadius=0mil|HoleSize=0mil|Usage=FLASHONLY|Rotation=225.000|XOffset=0mil|YOffset=0mil|HoleType=Round|Shape=Rectangle|*
%AMROTATEDRECTD57*
4,1,4,-0.00278,0.02227,0.02227,-0.00278,0.00278,-0.02227,-0.02227,0.00278,-0.00278,0.02227,0.0*
%
%ADD57ROTATEDRECTD57*%

%ADD58R,0.06299X0.07087*%
%ADD59R,0.01102X0.01496*%
%ADD60R,0.05118X0.05906*%
%TA.AperFunction,ComponentPad*%
G04:AMPARAMS|DCode=108|XSize=74.8mil|YSize=49.21mil|CornerRadius=12.3mil|HoleSize=0mil|Usage=FLASHONLY|Rotation=0.000|XOffset=0mil|YOffset=0mil|HoleType=Round|Shape=RoundedRectangle|*
%AMROUNDEDRECTD108*
21,1,0.07480,0.02461,0,0,0.0*
21,1,0.05020,0.04921,0,0,0.0*
1,1,0.02461,0.02510,-0.01230*
1,1,0.02461,-0.02510,-0.01230*
1,1,0.02461,-0.02510,0.01230*
1,1,0.02461,0.02510,0.01230*
%
%ADD108ROUNDEDRECTD108*%
%ADD109C,0.04134*%
%ADD111R,0.06000X0.08000*%
%ADD112O,0.06000X0.08000*%
%TA.AperFunction,ViaPad*%
%ADD113C,0.02400*%
%ADD115C,0.03150*%
%ADD116C,0.05000*%
%ADD117C,0.02362*%
%TA.AperFunction,NonConductor*%
%ADD120R,0.08268X0.12795*%
%ADD121R,0.16043X0.14370*%
%TA.AperFunction,ViaPad*%
%ADD122C,0.03556*%
D14*
X128543Y262731D02*
D03*
X133661D02*
D03*
X128543Y254681D02*
D03*
X133661D02*
D03*
X145472Y246807D02*
D03*
X140354D02*
D03*
X201181Y225941D02*
D03*
X206299D02*
D03*
X53346Y251531D02*
D03*
X58464D02*
D03*
X103346Y251728D02*
D03*
X98228D02*
D03*
X232087Y284208D02*
D03*
X226969D02*
D03*
X232087Y288145D02*
D03*
X226969D02*
D03*
X221402Y344216D02*
D03*
X216283D02*
D03*
X171795Y239098D02*
D03*
X166677D02*
D03*
X225787Y292082D02*
D03*
X230906D02*
D03*
X225328Y280228D02*
D03*
X230446D02*
D03*
X235236Y274563D02*
D03*
X230118D02*
D03*
X157677Y162592D02*
D03*
X152559D02*
D03*
X63543Y303106D02*
D03*
X58425D02*
D03*
X107438Y303500D02*
D03*
X102320D02*
D03*
D15*
X118841Y260882D02*
D03*
Y255173D02*
D03*
D16*
X120121Y258027D02*
D03*
X117561D02*
D03*
D17*
X152706Y254878D02*
D03*
X152707Y257439D02*
D03*
X152706Y259995D02*
D03*
X152705Y262556D02*
D03*
X137847D02*
D03*
X137847Y259995D02*
D03*
Y257430D02*
D03*
X137840Y254879D02*
D03*
D18*
X149116Y266140D02*
D03*
X146555Y266148D02*
D03*
X143997Y266148D02*
D03*
X141437Y266148D02*
D03*
X141436Y251279D02*
D03*
X143997Y251279D02*
D03*
X146560Y251288D02*
D03*
X149114Y251284D02*
D03*
D19*
X145275Y258716D02*
D03*
D20*
X180797Y283766D02*
D03*
D21*
X179320Y279041D02*
D03*
D03*
X179320Y274317D02*
D03*
X189163D02*
D03*
X189163Y279041D02*
D03*
X189163Y283766D02*
D03*
D22*
X116142Y284012D02*
D03*
Y289130D02*
D03*
X98425Y270232D02*
D03*
Y265114D02*
D03*
X191929Y207831D02*
D03*
Y202712D02*
D03*
X185968Y247004D02*
D03*
Y241886D02*
D03*
X94130Y265114D02*
D03*
Y270232D02*
D03*
X154580Y238736D02*
D03*
Y233618D02*
D03*
X149606Y236472D02*
D03*
Y231354D02*
D03*
X162205Y278893D02*
D03*
Y273775D02*
D03*
X64567Y249760D02*
D03*
Y244641D02*
D03*
X256299Y281890D02*
D03*
Y287008D02*
D03*
X255817Y303742D02*
D03*
Y308860D02*
D03*
X181890Y247004D02*
D03*
Y252122D02*
D03*
X189764Y252122D02*
D03*
Y247004D02*
D03*
X250000Y308860D02*
D03*
Y303742D02*
D03*
X184984Y207405D02*
D03*
Y202287D02*
D03*
X195910Y274563D02*
D03*
Y279681D02*
D03*
X219563Y253106D02*
D03*
Y258224D02*
D03*
X224016Y252909D02*
D03*
Y258027D02*
D03*
X90157Y270232D02*
D03*
Y265114D02*
D03*
X100042Y296020D02*
D03*
Y290901D02*
D03*
X105118Y283224D02*
D03*
Y288342D02*
D03*
D23*
X155260Y323350D02*
D03*
X148567D02*
D03*
X168252Y234374D02*
D03*
X161559D02*
D03*
X168701Y204287D02*
D03*
X162008D02*
D03*
X208071Y236768D02*
D03*
X201378D02*
D03*
X201378Y230862D02*
D03*
X208071D02*
D03*
X173764Y183618D02*
D03*
X167071Y183618D02*
D03*
X157285Y167279D02*
D03*
X150593D02*
D03*
X54527Y185980D02*
D03*
X47835D02*
D03*
X54527Y178697D02*
D03*
X47835D02*
D03*
X118701Y186767D02*
D03*
X112008D02*
D03*
X110157Y215901D02*
D03*
X116850D02*
D03*
X110039Y221413D02*
D03*
X116732D02*
D03*
X188281Y155665D02*
D03*
X194974D02*
D03*
X141874Y353665D02*
D03*
X148567D02*
D03*
Y358783D02*
D03*
X141874D02*
D03*
X121008Y346579D02*
D03*
X114315D02*
D03*
X155654Y315870D02*
D03*
X148961D02*
D03*
X121402Y340673D02*
D03*
X114709D02*
D03*
X162346Y336736D02*
D03*
X169039D02*
D03*
X185969Y344216D02*
D03*
X192661D02*
D03*
X168701Y210193D02*
D03*
X162008D02*
D03*
X201520Y242445D02*
D03*
X208213D02*
D03*
X211024Y215114D02*
D03*
X204331D02*
D03*
X94357Y170626D02*
D03*
X101050D02*
D03*
X29724Y190114D02*
D03*
X36417D02*
D03*
X29724Y214819D02*
D03*
X36417D02*
D03*
X29724Y195626D02*
D03*
X36417D02*
D03*
X189118Y354846D02*
D03*
X195811D02*
D03*
X207228Y344216D02*
D03*
X200535D02*
D03*
X207228Y337130D02*
D03*
X200535D02*
D03*
X192661D02*
D03*
X185969D02*
D03*
X91270Y179563D02*
D03*
X97963D02*
D03*
D24*
X77362Y309208D02*
D03*
D25*
X71260Y302122D02*
D03*
X83464D02*
D03*
D26*
X166614Y170392D02*
D03*
X171063Y170392D02*
D03*
X171063Y176888D02*
D03*
X166614D02*
D03*
D27*
X89709Y186079D02*
D03*
X87740Y186078D02*
D03*
X85772D02*
D03*
X83803D02*
D03*
X81835D02*
D03*
X79866D02*
D03*
X77898Y186079D02*
D03*
X75929D02*
D03*
X73961Y186078D02*
D03*
X71992D02*
D03*
X70024D02*
D03*
X68055D02*
D03*
Y218165D02*
D03*
X70024Y218165D02*
D03*
X71992D02*
D03*
X73961D02*
D03*
X75929Y218165D02*
D03*
X77898D02*
D03*
X79866D02*
D03*
X81835D02*
D03*
X83803D02*
D03*
X85772Y218165D02*
D03*
X87740D02*
D03*
X89709Y218165D02*
D03*
D28*
X62839Y191295D02*
D03*
Y193263D02*
D03*
Y195232D02*
D03*
X62839Y197201D02*
D03*
Y199169D02*
D03*
Y201137D02*
D03*
X62839Y203106D02*
D03*
Y205075D02*
D03*
X62839Y207043D02*
D03*
Y209012D02*
D03*
Y210980D02*
D03*
Y212948D02*
D03*
X94925D02*
D03*
Y210980D02*
D03*
Y209012D02*
D03*
Y207043D02*
D03*
Y205075D02*
D03*
Y203106D02*
D03*
Y201137D02*
D03*
Y199169D02*
D03*
Y197201D02*
D03*
Y195232D02*
D03*
Y193263D02*
D03*
Y191295D02*
D03*
D29*
X50984Y360389D02*
D03*
X43504D02*
D03*
X47244Y352909D02*
D03*
D30*
X212332Y158022D02*
D03*
Y167122D02*
D03*
Y176222D02*
D03*
D31*
X237132Y167122D02*
D03*
D32*
X152406Y331598D02*
D03*
Y336598D02*
D03*
Y341598D02*
D03*
Y346598D02*
D03*
X131736Y331598D02*
D03*
Y336598D02*
D03*
Y341598D02*
D03*
Y346598D02*
D03*
D33*
X5474Y193633D02*
D03*
Y218337D02*
D03*
D34*
X6183Y201458D02*
D03*
Y210513D02*
D03*
D35*
X17010Y200867D02*
D03*
Y203426D02*
D03*
Y205985D02*
D03*
Y208544D02*
D03*
X17010Y211103D02*
D03*
D36*
X27224Y201334D02*
D03*
Y205075D02*
D03*
Y208815D02*
D03*
X37657D02*
D03*
Y205075D02*
D03*
Y201334D02*
D03*
D37*
X171135Y358683D02*
D03*
X179936Y362583D02*
D03*
Y354983D02*
D03*
X69685Y170392D02*
D03*
Y162592D02*
D03*
X75984Y170392D02*
D03*
Y162592D02*
D03*
X82102Y170392D02*
D03*
Y162592D02*
D03*
D38*
X204724Y200153D02*
D03*
Y206452D02*
D03*
X214173Y200153D02*
D03*
Y206452D02*
D03*
D39*
X207874Y200153D02*
D03*
Y206452D02*
D03*
X211024Y200153D02*
D03*
Y206452D02*
D03*
D40*
X157874Y156750D02*
D03*
Y154190D02*
D03*
Y151630D02*
D03*
Y149070D02*
D03*
X140551Y149068D02*
D03*
X140551Y151628D02*
D03*
X140551Y154188D02*
D03*
Y156748D02*
D03*
D41*
X118110Y208618D02*
D03*
X118110Y194051D02*
D03*
X109449Y194051D02*
D03*
D42*
Y208618D02*
D03*
D43*
X248031Y172004D02*
D03*
Y183027D02*
D03*
D44*
X135433Y163539D02*
D03*
Y171019D02*
D03*
X91571Y302516D02*
D03*
Y295035D02*
D03*
X140496Y323153D02*
D03*
Y315673D02*
D03*
X124409Y171019D02*
D03*
Y163539D02*
D03*
X213779Y266886D02*
D03*
Y259405D02*
D03*
X177504Y344413D02*
D03*
Y336933D02*
D03*
D45*
X110039Y289277D02*
D03*
Y282584D02*
D03*
X219291Y215311D02*
D03*
Y222004D02*
D03*
X90157Y251728D02*
D03*
Y258421D02*
D03*
X196850Y205468D02*
D03*
Y198775D02*
D03*
X180260Y203075D02*
D03*
Y196382D02*
D03*
X194433Y238901D02*
D03*
Y245594D02*
D03*
X160181Y223941D02*
D03*
Y217248D02*
D03*
X175197Y207634D02*
D03*
Y200941D02*
D03*
X166087Y223941D02*
D03*
Y217248D02*
D03*
X164370Y155665D02*
D03*
X164370Y148972D02*
D03*
X183071Y155271D02*
D03*
Y148579D02*
D03*
X132228Y316854D02*
D03*
Y323547D02*
D03*
X66087Y340083D02*
D03*
Y346775D02*
D03*
X87347Y340083D02*
D03*
Y346775D02*
D03*
X69504Y147382D02*
D03*
Y154075D02*
D03*
X75803Y147382D02*
D03*
Y154075D02*
D03*
X82102Y147382D02*
D03*
Y154075D02*
D03*
X108606Y346382D02*
D03*
Y339689D02*
D03*
X42126Y348350D02*
D03*
Y341657D02*
D03*
X207732Y259602D02*
D03*
Y252909D02*
D03*
X247244Y158815D02*
D03*
Y165508D02*
D03*
D46*
X238976Y290901D02*
D03*
Y288933D02*
D03*
Y286964D02*
D03*
Y284996D02*
D03*
Y283027D02*
D03*
X247244D02*
D03*
Y284996D02*
D03*
Y286964D02*
D03*
Y288933D02*
D03*
Y290901D02*
D03*
X158016Y263006D02*
D03*
Y261038D02*
D03*
Y259069D02*
D03*
X166284D02*
D03*
Y261038D02*
D03*
Y263006D02*
D03*
D47*
X243110Y286964D02*
D03*
D48*
X185039Y223972D02*
D03*
D49*
X191929Y214031D02*
D03*
X189961D02*
D03*
X187992D02*
D03*
X186024D02*
D03*
X184055D02*
D03*
X182087D02*
D03*
X180118D02*
D03*
X178150D02*
D03*
Y233913D02*
D03*
X180118D02*
D03*
X182087D02*
D03*
X184055D02*
D03*
X186024D02*
D03*
X187992D02*
D03*
X189961D02*
D03*
X191929D02*
D03*
D50*
X175098Y217083D02*
D03*
Y219051D02*
D03*
Y221020D02*
D03*
Y222988D02*
D03*
Y224956D02*
D03*
Y226925D02*
D03*
Y228893D02*
D03*
Y230862D02*
D03*
X194980D02*
D03*
Y228893D02*
D03*
Y226925D02*
D03*
Y224956D02*
D03*
Y222988D02*
D03*
Y221020D02*
D03*
Y219051D02*
D03*
Y217083D02*
D03*
D51*
X164118Y267140D02*
D03*
X162150D02*
D03*
X160181D02*
D03*
Y254935D02*
D03*
X162150D02*
D03*
X164118D02*
D03*
D52*
X162937Y261038D02*
D03*
D53*
X70472Y251630D02*
D03*
X82283D02*
D03*
X76378D02*
D03*
X206835Y275208D02*
D03*
X212740D02*
D03*
X200929D02*
D03*
D54*
X265118Y87520D02*
D03*
Y109331D02*
D03*
X10079Y261693D02*
D03*
Y239882D02*
D03*
X10258Y313126D02*
D03*
Y291315D02*
D03*
X265118Y250118D02*
D03*
Y271929D02*
D03*
X10079Y359269D02*
D03*
Y337458D02*
D03*
Y109331D02*
D03*
Y87520D02*
D03*
D55*
X265118Y98425D02*
D03*
X10079Y250787D02*
D03*
X10258Y302220D02*
D03*
X265118Y261024D02*
D03*
X10079Y348363D02*
D03*
Y98425D02*
D03*
D56*
X48868Y302220D02*
D03*
X45719D02*
D03*
Y300252D02*
D03*
X48868D02*
D03*
X46063Y248807D02*
D03*
X42913D02*
D03*
Y250775D02*
D03*
X46063D02*
D03*
D57*
X172600Y249431D02*
D03*
X176219Y245813D02*
D03*
D58*
X205512Y148775D02*
D03*
X216535D02*
D03*
D59*
X249016Y260931D02*
D03*
Y264081D02*
D03*
X247047D02*
D03*
Y260931D02*
D03*
D60*
X156835Y358783D02*
D03*
X164315D02*
D03*
X58803Y346185D02*
D03*
X51323D02*
D03*
X80063Y345791D02*
D03*
X72583D02*
D03*
X100929Y346185D02*
D03*
X93449D02*
D03*
X189173Y183421D02*
D03*
X181693D02*
D03*
X162346Y190901D02*
D03*
X154866D02*
D03*
X188491Y161767D02*
D03*
X195971D02*
D03*
D108*
X5474Y189883D02*
D03*
Y222087D02*
D03*
D109*
X17994Y214745D02*
D03*
X17994Y197225D02*
D03*
D111*
X98779Y142358D02*
D03*
D112*
Y132358D02*
D03*
X108780Y142358D02*
D03*
Y132358D02*
D03*
X118780Y142358D02*
D03*
Y132358D02*
D03*
X128779Y142358D02*
D03*
Y132358D02*
D03*
D113*
X206835Y275208D02*
D03*
X202512Y291886D02*
D03*
X205660Y286375D02*
D03*
X208809D02*
D03*
Y283619D02*
D03*
X205660D02*
D03*
Y289131D02*
D03*
X208809D02*
D03*
Y291886D02*
D03*
X202510Y283619D02*
D03*
Y286375D02*
D03*
X205660Y291886D02*
D03*
X202512Y288963D02*
D03*
X211959Y291886D02*
D03*
Y286375D02*
D03*
Y289131D02*
D03*
Y283619D02*
D03*
X85039Y273720D02*
D03*
X81496D02*
D03*
X76378Y251218D02*
D03*
X81496Y259782D02*
D03*
Y265293D02*
D03*
Y262537D02*
D03*
Y268048D02*
D03*
X72215Y265126D02*
D03*
X75197Y268048D02*
D03*
X72047Y262537D02*
D03*
Y259782D02*
D03*
X78347Y268048D02*
D03*
Y265293D02*
D03*
X75197D02*
D03*
Y259782D02*
D03*
X78347D02*
D03*
Y262537D02*
D03*
X75197D02*
D03*
X77362Y296457D02*
D03*
X77362Y305118D02*
D03*
Y302362D02*
D03*
Y307874D02*
D03*
X84350Y318896D02*
D03*
Y316142D02*
D03*
Y310630D02*
D03*
Y313386D02*
D03*
X70276Y318896D02*
D03*
Y316142D02*
D03*
Y310630D02*
D03*
Y313386D02*
D03*
X75732D02*
D03*
X79150D02*
D03*
Y310630D02*
D03*
X75732D02*
D03*
Y316142D02*
D03*
X79150D02*
D03*
Y318896D02*
D03*
X75732D02*
D03*
D115*
X19089Y228948D02*
D03*
X24409Y245215D02*
D03*
Y255451D02*
D03*
Y236706D02*
D03*
X10214Y232710D02*
D03*
X24409Y264506D02*
D03*
X10214Y268048D02*
D03*
X10258Y320866D02*
D03*
X24409Y316142D02*
D03*
X10258Y283465D02*
D03*
X24409Y288342D02*
D03*
Y307087D02*
D03*
Y296850D02*
D03*
X268779Y358972D02*
D03*
Y338972D02*
D03*
Y318972D02*
D03*
Y298972D02*
D03*
Y278972D02*
D03*
Y238972D02*
D03*
Y218972D02*
D03*
Y198972D02*
D03*
Y178972D02*
D03*
Y158972D02*
D03*
Y138972D02*
D03*
Y118972D02*
D03*
Y78972D02*
D03*
Y58972D02*
D03*
Y38972D02*
D03*
Y18972D02*
D03*
X258780Y358972D02*
D03*
X263779Y348972D02*
D03*
X258780Y338972D02*
D03*
X263779Y328972D02*
D03*
X258780Y318972D02*
D03*
X263779Y308972D02*
D03*
X258780Y298972D02*
D03*
X263779Y288972D02*
D03*
X258780Y238972D02*
D03*
X263779Y228972D02*
D03*
X258780Y218972D02*
D03*
X263779Y208972D02*
D03*
X258780Y198972D02*
D03*
X263779Y188972D02*
D03*
X258780Y178972D02*
D03*
X263779Y168972D02*
D03*
X258780Y158972D02*
D03*
X263779Y148972D02*
D03*
X258780Y138972D02*
D03*
X263779Y128972D02*
D03*
X258780Y118972D02*
D03*
Y78972D02*
D03*
X263779Y68972D02*
D03*
X258780Y58972D02*
D03*
X263779Y48972D02*
D03*
X258780Y38972D02*
D03*
X263779Y28972D02*
D03*
X248780Y358972D02*
D03*
X253780Y348972D02*
D03*
X248780Y338972D02*
D03*
X253780Y328972D02*
D03*
X248780Y318972D02*
D03*
Y298972D02*
D03*
Y238972D02*
D03*
X253780Y228972D02*
D03*
X248780Y218972D02*
D03*
X253780Y208972D02*
D03*
X248780Y198972D02*
D03*
X253780Y188972D02*
D03*
Y148972D02*
D03*
X248780Y138972D02*
D03*
X253780Y128972D02*
D03*
X248780Y118972D02*
D03*
Y78972D02*
D03*
X253780Y68972D02*
D03*
X248780Y58972D02*
D03*
X253780Y48972D02*
D03*
X248780Y38972D02*
D03*
X253780Y28972D02*
D03*
X243779Y368972D02*
D03*
X238779Y358972D02*
D03*
X243779Y348972D02*
D03*
X238779Y338972D02*
D03*
X243779Y328972D02*
D03*
Y308972D02*
D03*
Y268972D02*
D03*
Y248972D02*
D03*
Y228972D02*
D03*
Y208972D02*
D03*
X238779Y198972D02*
D03*
X243779Y188972D02*
D03*
X238779Y178972D02*
D03*
X243779Y148972D02*
D03*
X238779Y138972D02*
D03*
X243779Y128972D02*
D03*
X238779Y118972D02*
D03*
X243779Y108972D02*
D03*
Y88972D02*
D03*
X238779Y78972D02*
D03*
X243779Y68972D02*
D03*
X238779Y58972D02*
D03*
X243779Y48972D02*
D03*
X238779Y38972D02*
D03*
X243779Y28972D02*
D03*
X238779Y18972D02*
D03*
X233780Y368972D02*
D03*
X228780Y358972D02*
D03*
X233780Y348972D02*
D03*
X228780Y338972D02*
D03*
X233780Y328972D02*
D03*
X228780Y298972D02*
D03*
X233780Y268972D02*
D03*
Y248972D02*
D03*
Y228972D02*
D03*
Y188972D02*
D03*
X228780Y178972D02*
D03*
Y158972D02*
D03*
X233780Y148972D02*
D03*
X228780Y138972D02*
D03*
X233780Y128972D02*
D03*
X228780Y118972D02*
D03*
X233780Y108972D02*
D03*
Y88972D02*
D03*
X228780Y78972D02*
D03*
X233780Y68972D02*
D03*
X228780Y58972D02*
D03*
X233780Y48972D02*
D03*
X228780Y38972D02*
D03*
X233780Y28972D02*
D03*
X228780Y18972D02*
D03*
X223780Y368972D02*
D03*
X218779Y358972D02*
D03*
X223780Y348972D02*
D03*
Y308972D02*
D03*
Y268972D02*
D03*
Y188972D02*
D03*
X218779Y158972D02*
D03*
X223780Y148972D02*
D03*
X218779Y138972D02*
D03*
X223780Y128972D02*
D03*
X218779Y118972D02*
D03*
X223780Y108972D02*
D03*
Y88972D02*
D03*
X218779Y78972D02*
D03*
X223780Y68972D02*
D03*
X218779Y58972D02*
D03*
X223780Y48972D02*
D03*
X218779Y38972D02*
D03*
X223780Y28972D02*
D03*
X218779Y18972D02*
D03*
X213779Y368972D02*
D03*
X208780Y358972D02*
D03*
X213779Y348972D02*
D03*
Y328972D02*
D03*
Y308972D02*
D03*
X208780Y138972D02*
D03*
X213779Y128972D02*
D03*
X208780Y118972D02*
D03*
X213779Y108972D02*
D03*
Y88972D02*
D03*
X208780Y78972D02*
D03*
X213779Y68972D02*
D03*
X208780Y58972D02*
D03*
X213779Y48972D02*
D03*
X208780Y38972D02*
D03*
X213779Y28972D02*
D03*
X208780Y18972D02*
D03*
X203780Y368972D02*
D03*
Y348972D02*
D03*
Y328972D02*
D03*
Y308972D02*
D03*
Y268972D02*
D03*
X198779Y138972D02*
D03*
X203780Y128972D02*
D03*
X198779Y118972D02*
D03*
X203780Y108972D02*
D03*
Y88972D02*
D03*
X198779Y78972D02*
D03*
X203780Y68972D02*
D03*
X198779Y58972D02*
D03*
X203780Y48972D02*
D03*
X198779Y38972D02*
D03*
X203780Y28972D02*
D03*
X198779Y18972D02*
D03*
X193780Y368972D02*
D03*
Y348972D02*
D03*
Y328972D02*
D03*
Y308972D02*
D03*
Y288972D02*
D03*
Y268972D02*
D03*
Y168972D02*
D03*
Y148972D02*
D03*
Y128972D02*
D03*
X188779Y118972D02*
D03*
X193780Y108972D02*
D03*
Y88972D02*
D03*
X188779Y78972D02*
D03*
X193780Y68972D02*
D03*
X188779Y58972D02*
D03*
X193780Y48972D02*
D03*
X188779Y38972D02*
D03*
X193780Y28972D02*
D03*
X188779Y18972D02*
D03*
X183780Y348972D02*
D03*
Y328972D02*
D03*
Y308972D02*
D03*
Y288972D02*
D03*
Y268972D02*
D03*
X178779Y138972D02*
D03*
Y118972D02*
D03*
X183780Y108972D02*
D03*
Y88972D02*
D03*
X178779Y78972D02*
D03*
X183780Y68972D02*
D03*
X178779Y58972D02*
D03*
X183780Y48972D02*
D03*
X178779Y38972D02*
D03*
X183780Y28972D02*
D03*
X178779Y18972D02*
D03*
X173779Y328972D02*
D03*
Y308972D02*
D03*
Y288972D02*
D03*
Y268972D02*
D03*
X168780Y198972D02*
D03*
X173779Y148972D02*
D03*
X168780Y138972D02*
D03*
X173779Y128972D02*
D03*
X168780Y118972D02*
D03*
X173779Y108972D02*
D03*
Y88972D02*
D03*
X168780Y78972D02*
D03*
X173779Y68972D02*
D03*
X168780Y58972D02*
D03*
X173779Y48972D02*
D03*
X168780Y38972D02*
D03*
X173779Y28972D02*
D03*
X168780Y18972D02*
D03*
X163779Y348972D02*
D03*
Y328972D02*
D03*
Y308972D02*
D03*
X158780Y298972D02*
D03*
X163779Y288972D02*
D03*
X158780Y198972D02*
D03*
Y178972D02*
D03*
Y138972D02*
D03*
X163779Y128972D02*
D03*
X158780Y118972D02*
D03*
X163779Y108972D02*
D03*
Y88972D02*
D03*
X158780Y78972D02*
D03*
X163779Y68972D02*
D03*
X158780Y58972D02*
D03*
X163779Y48972D02*
D03*
X158780Y38972D02*
D03*
X163779Y28972D02*
D03*
X158780Y18972D02*
D03*
X153779Y368972D02*
D03*
Y308972D02*
D03*
X148779Y298972D02*
D03*
Y278972D02*
D03*
X153779Y268972D02*
D03*
Y228972D02*
D03*
X148779Y218972D02*
D03*
X153779Y208972D02*
D03*
X148779Y178972D02*
D03*
Y138972D02*
D03*
X153779Y128972D02*
D03*
X148779Y118972D02*
D03*
X153779Y108972D02*
D03*
Y88972D02*
D03*
X148779Y78972D02*
D03*
X153779Y68972D02*
D03*
X148779Y58972D02*
D03*
X153779Y48972D02*
D03*
X148779Y38972D02*
D03*
X153779Y28972D02*
D03*
X148779Y18972D02*
D03*
X143780Y368972D02*
D03*
X138779Y298972D02*
D03*
X143780Y288972D02*
D03*
Y228972D02*
D03*
X138779Y218972D02*
D03*
X143780Y168972D02*
D03*
Y128972D02*
D03*
X138779Y118972D02*
D03*
X143780Y108972D02*
D03*
Y88972D02*
D03*
X138779Y78972D02*
D03*
X143780Y68972D02*
D03*
X138779Y58972D02*
D03*
X143780Y48972D02*
D03*
X138779Y38972D02*
D03*
X143780Y28972D02*
D03*
X138779Y18972D02*
D03*
X133780Y368972D02*
D03*
X128779Y358972D02*
D03*
X133780Y308972D02*
D03*
X128779Y298972D02*
D03*
X133780Y288972D02*
D03*
X128779Y278972D02*
D03*
X133780Y248972D02*
D03*
Y208972D02*
D03*
X128779Y198972D02*
D03*
Y178972D02*
D03*
Y118972D02*
D03*
X133780Y108972D02*
D03*
Y88972D02*
D03*
X128779Y78972D02*
D03*
X133780Y68972D02*
D03*
X128779Y58972D02*
D03*
X133780Y48972D02*
D03*
X128779Y38972D02*
D03*
X133780Y28972D02*
D03*
X128779Y18972D02*
D03*
X123779Y368972D02*
D03*
X118780Y358972D02*
D03*
X123779Y308972D02*
D03*
X118780Y298972D02*
D03*
X123779Y288972D02*
D03*
X118780Y278972D02*
D03*
X123779Y268972D02*
D03*
Y248972D02*
D03*
X118780Y178972D02*
D03*
Y118972D02*
D03*
X123779Y108972D02*
D03*
Y88972D02*
D03*
X118780Y78972D02*
D03*
X123779Y68972D02*
D03*
X118780Y58972D02*
D03*
X123779Y48972D02*
D03*
X118780Y38972D02*
D03*
X123779Y28972D02*
D03*
X118780Y18972D02*
D03*
X113779Y368972D02*
D03*
X108780Y358972D02*
D03*
X113779Y328972D02*
D03*
X108780Y278972D02*
D03*
X113779Y268972D02*
D03*
X108780Y258972D02*
D03*
X113779Y148972D02*
D03*
X108780Y118972D02*
D03*
X113779Y108972D02*
D03*
Y88972D02*
D03*
X108780Y78972D02*
D03*
X113779Y68972D02*
D03*
X108780Y58972D02*
D03*
X113779Y48972D02*
D03*
X108780Y38972D02*
D03*
X113779Y28972D02*
D03*
X108780Y18972D02*
D03*
X103779Y368972D02*
D03*
X98779Y358972D02*
D03*
Y338972D02*
D03*
X103779Y328972D02*
D03*
X98779Y318972D02*
D03*
X103779Y268972D02*
D03*
X98779Y258972D02*
D03*
Y158972D02*
D03*
Y118972D02*
D03*
X103779Y108972D02*
D03*
Y88972D02*
D03*
X98779Y78972D02*
D03*
X103779Y68972D02*
D03*
X98779Y58972D02*
D03*
X103779Y48972D02*
D03*
X98779Y38972D02*
D03*
X103779Y28972D02*
D03*
X98779Y18972D02*
D03*
X93779Y368972D02*
D03*
X88779Y358972D02*
D03*
X93779Y328972D02*
D03*
Y308972D02*
D03*
Y148972D02*
D03*
X88779Y138972D02*
D03*
Y118972D02*
D03*
X93779Y108972D02*
D03*
Y88972D02*
D03*
X88779Y78972D02*
D03*
X93779Y68972D02*
D03*
X88779Y58972D02*
D03*
X93779Y48972D02*
D03*
X88779Y38972D02*
D03*
X93779Y28972D02*
D03*
X88779Y18972D02*
D03*
X83780Y368972D02*
D03*
X78780Y358972D02*
D03*
Y338972D02*
D03*
X83780Y328972D02*
D03*
X78780Y138972D02*
D03*
Y118972D02*
D03*
X83780Y108972D02*
D03*
Y88972D02*
D03*
X78780Y78972D02*
D03*
X83780Y68972D02*
D03*
X78780Y58972D02*
D03*
X83780Y48972D02*
D03*
X78780Y38972D02*
D03*
X83780Y28972D02*
D03*
X78780Y18972D02*
D03*
X73779Y368972D02*
D03*
X68779Y358972D02*
D03*
X73779Y328972D02*
D03*
Y288972D02*
D03*
Y228972D02*
D03*
X68779Y138972D02*
D03*
Y118972D02*
D03*
X73779Y108972D02*
D03*
Y88972D02*
D03*
X68779Y78972D02*
D03*
X73779Y68972D02*
D03*
X68779Y58972D02*
D03*
X73779Y48972D02*
D03*
X68779Y38972D02*
D03*
X73779Y28972D02*
D03*
X68779Y18972D02*
D03*
X63779Y368972D02*
D03*
X58780Y358972D02*
D03*
Y338972D02*
D03*
X63779Y328972D02*
D03*
X58780Y318972D02*
D03*
X63779Y308972D02*
D03*
Y288972D02*
D03*
X58780Y278972D02*
D03*
Y238972D02*
D03*
X63779Y168972D02*
D03*
X58780Y158972D02*
D03*
Y138972D02*
D03*
Y118972D02*
D03*
X63779Y108972D02*
D03*
Y88972D02*
D03*
X58780Y78972D02*
D03*
X63779Y68972D02*
D03*
X58780Y58972D02*
D03*
X63779Y48972D02*
D03*
X58780Y38972D02*
D03*
X63779Y28972D02*
D03*
X58780Y18972D02*
D03*
X53780Y368972D02*
D03*
X48779Y338972D02*
D03*
X53780Y328972D02*
D03*
X48779Y318972D02*
D03*
X53780Y308972D02*
D03*
Y288972D02*
D03*
X48779Y278972D02*
D03*
X53780Y268972D02*
D03*
X48779Y238972D02*
D03*
X53780Y228972D02*
D03*
X48779Y158972D02*
D03*
X53780Y148972D02*
D03*
Y128972D02*
D03*
X48779Y118972D02*
D03*
X53780Y108972D02*
D03*
Y88972D02*
D03*
X48779Y78972D02*
D03*
X53780Y68972D02*
D03*
X48779Y58972D02*
D03*
X53780Y48972D02*
D03*
X48779Y38972D02*
D03*
X53780Y28972D02*
D03*
X48779Y18972D02*
D03*
X43780Y368972D02*
D03*
X38780Y358972D02*
D03*
X43780Y328972D02*
D03*
X38780Y318972D02*
D03*
X43780Y308972D02*
D03*
Y288972D02*
D03*
X38780Y278972D02*
D03*
X43780Y268972D02*
D03*
X38780Y258972D02*
D03*
X43780Y228972D02*
D03*
X38780Y178972D02*
D03*
X43780Y168972D02*
D03*
X38780Y158972D02*
D03*
Y138972D02*
D03*
X43780Y128972D02*
D03*
X38780Y118972D02*
D03*
X43780Y108972D02*
D03*
Y88972D02*
D03*
X38780Y78972D02*
D03*
X43780Y68972D02*
D03*
X38780Y58972D02*
D03*
X43780Y48972D02*
D03*
X38780Y38972D02*
D03*
X43780Y28972D02*
D03*
X38780Y18972D02*
D03*
X33779Y368972D02*
D03*
X28780Y358972D02*
D03*
Y338972D02*
D03*
X33779Y328972D02*
D03*
Y308972D02*
D03*
X28780Y278972D02*
D03*
X33779Y268972D02*
D03*
Y208972D02*
D03*
X28780Y178972D02*
D03*
X33779Y168972D02*
D03*
Y148972D02*
D03*
X28780Y138972D02*
D03*
X33779Y128972D02*
D03*
X28780Y118972D02*
D03*
X33779Y108972D02*
D03*
Y88972D02*
D03*
X28780Y78972D02*
D03*
X33779Y68972D02*
D03*
X28780Y58972D02*
D03*
X33779Y48972D02*
D03*
X28780Y38972D02*
D03*
X33779Y28972D02*
D03*
X23779Y328972D02*
D03*
X18779Y278972D02*
D03*
Y178972D02*
D03*
Y158972D02*
D03*
X23779Y148972D02*
D03*
X18779Y138972D02*
D03*
X23779Y128972D02*
D03*
X18779Y118972D02*
D03*
X23779Y108972D02*
D03*
Y88972D02*
D03*
X18779Y78972D02*
D03*
X23779Y68972D02*
D03*
X18779Y58972D02*
D03*
X23779Y48972D02*
D03*
X18779Y38972D02*
D03*
X23779Y28972D02*
D03*
X13780Y328972D02*
D03*
X8779Y198972D02*
D03*
X13780Y188972D02*
D03*
X8779Y178972D02*
D03*
X13780Y168972D02*
D03*
X8779Y158972D02*
D03*
X13780Y148972D02*
D03*
X8779Y138972D02*
D03*
X13780Y128972D02*
D03*
X8779Y118972D02*
D03*
Y78972D02*
D03*
X13780Y68972D02*
D03*
X8779Y58972D02*
D03*
X13780Y48972D02*
D03*
X8779Y38972D02*
D03*
X13780Y28972D02*
D03*
X8779Y18972D02*
D03*
X32787Y238453D02*
D03*
X159843Y368010D02*
D03*
X222133Y336933D02*
D03*
X186811Y364917D02*
D03*
X232283Y98425D02*
D03*
X47244D02*
D03*
X220926Y289327D02*
D03*
X188959Y289917D02*
D03*
X218898Y322397D02*
D03*
X239173Y267279D02*
D03*
X99606Y184996D02*
D03*
X135039Y258618D02*
D03*
X202953Y260092D02*
D03*
X145669Y276193D02*
D03*
X139357Y277269D02*
D03*
X177953Y252122D02*
D03*
X131102Y235193D02*
D03*
X134252Y240114D02*
D03*
X190551Y192082D02*
D03*
X79866Y224877D02*
D03*
X153543Y243035D02*
D03*
X161221Y243225D02*
D03*
X124748Y258027D02*
D03*
X94276Y222971D02*
D03*
X54921Y213244D02*
D03*
X60236Y220626D02*
D03*
X151968Y248381D02*
D03*
X142126Y204236D02*
D03*
X110925Y229090D02*
D03*
X104331Y228106D02*
D03*
X114173Y232240D02*
D03*
X43385Y203958D02*
D03*
X101378Y166098D02*
D03*
X107205Y167476D02*
D03*
X52756Y201137D02*
D03*
X212332Y158022D02*
D03*
X100591Y206452D02*
D03*
X85826Y179090D02*
D03*
X129528Y174957D02*
D03*
X100394Y210752D02*
D03*
X123819Y196332D02*
D03*
X110157Y174169D02*
D03*
X102362Y187752D02*
D03*
X80315Y209799D02*
D03*
X76575Y207905D02*
D03*
X54331Y172594D02*
D03*
X72441Y193067D02*
D03*
X64567Y186571D02*
D03*
X51968Y194248D02*
D03*
X70472Y201492D02*
D03*
X97638Y226531D02*
D03*
X31496Y205075D02*
D03*
X44685Y217476D02*
D03*
X24409Y211767D02*
D03*
X42913Y190508D02*
D03*
X172638Y190901D02*
D03*
D116*
X61456Y147382D02*
D03*
X91339Y290311D02*
D03*
X162992Y161571D02*
D03*
X178543Y155271D02*
D03*
X170669D02*
D03*
X103362Y194658D02*
D03*
X78716Y201334D02*
D03*
X178543Y161964D02*
D03*
X170473D02*
D03*
X88386Y147382D02*
D03*
D117*
X194685Y179007D02*
D03*
X164567Y252770D02*
D03*
X164732Y241917D02*
D03*
X218898Y227319D02*
D03*
X194980Y233815D02*
D03*
X207087Y195232D02*
D03*
X202953Y195823D02*
D03*
X211559Y195626D02*
D03*
X215748Y196019D02*
D03*
X162598Y239327D02*
D03*
X196795Y205523D02*
D03*
X180260Y203075D02*
D03*
X204866Y221382D02*
D03*
X200929Y246185D02*
D03*
X197583Y242105D02*
D03*
X170024Y222169D02*
D03*
D120*
X77362Y314819D02*
D03*
D121*
X76329Y263834D02*
D03*
X206785Y287413D02*
D03*
D122*
X185039Y199366D02*
D03*
%TF.MD5,89272f4a87ee775bd53175ddeda235da*%
M02*
