%TF.GenerationSoftware,Altium Limited,Altium Designer,20.2.4 (192)*%
G04 Layer_Color=16711935*
%FSLAX25Y25*%
%MOIN*%
%TF.SameCoordinates,A525E99E-696F-4D77-ADFC-FB6725D68D10*%
%TF.FilePolarity,Positive*%
%TF.FileFunction,Other,Mechanical_13*%
%TF.Part,Single*%
G01*
G75*
%TA.AperFunction,NonConductor*%
%ADD130C,0.00787*%
%ADD132C,0.00394*%
%ADD134C,0.00197*%
D130*
X435Y185906D02*
X435Y226064D01*
D132*
X244882Y289130D02*
G03*
X244882Y289130I-1969J0D01*
G01*
X164512Y263400D02*
G03*
X164512Y263400I-1969J0D01*
G01*
X90890Y192082D02*
G03*
X90890Y192082I-1969J0D01*
G01*
X193110Y217870D02*
G03*
X193110Y217870I-1969J0D01*
G01*
X140004Y345102D02*
G03*
X140004Y345102I-1969J0D01*
G01*
X239173Y281059D02*
Y292870D01*
X247047Y281059D02*
Y292870D01*
X239173D02*
X247047D01*
X239173Y281059D02*
X247047D01*
X158016Y267140D02*
X166284D01*
X158016Y254935D02*
X166284D01*
Y267140D01*
X158016Y254935D02*
Y267140D01*
X65102Y215901D02*
X92661D01*
X65102Y188342D02*
X92661D01*
X65102D02*
Y215901D01*
X92661D02*
X92661Y188342D01*
X175197Y233815D02*
X194882D01*
X175197Y214130D02*
X194882D01*
X175197D02*
Y233815D01*
X194882Y214130D02*
Y233815D01*
X134295Y329354D02*
X149846D01*
X134295Y348842D02*
X149846D01*
Y329354D02*
Y348842D01*
X134295Y329354D02*
Y348842D01*
X41339Y359405D02*
X53149D01*
X41339Y353893D02*
X53149D01*
Y359405D01*
X41339Y353893D02*
Y359405D01*
D134*
X-1494Y187481D02*
X-1494Y185906D01*
X-313Y186694D01*
X-1494Y187481D02*
X-313Y186694D01*
X-8581Y186300D02*
Y187087D01*
X-8187D01*
X-8056Y186956D01*
Y186694D01*
X-8187Y186562D01*
X-8581D01*
X-7269Y186956D02*
X-7400Y187087D01*
X-7662D01*
X-7794Y186956D01*
Y186431D01*
X-7662Y186300D01*
X-7400D01*
X-7269Y186431D01*
X-7006Y187087D02*
Y186300D01*
X-6613D01*
X-6482Y186431D01*
Y186562D01*
X-6613Y186694D01*
X-7006D01*
X-6613D01*
X-6482Y186825D01*
Y186956D01*
X-6613Y187087D01*
X-7006D01*
X-4907D02*
X-5432D01*
Y186300D01*
X-4907D01*
X-5432Y186694D02*
X-5170D01*
X-4120Y187087D02*
Y186300D01*
X-4514D01*
X-4645Y186431D01*
Y186694D01*
X-4514Y186825D01*
X-4120D01*
X-3596Y186038D02*
X-3464D01*
X-3333Y186169D01*
Y186825D01*
X-3727D01*
X-3858Y186694D01*
Y186431D01*
X-3727Y186300D01*
X-3333D01*
X-2677D02*
X-2940D01*
X-3071Y186431D01*
Y186694D01*
X-2940Y186825D01*
X-2677D01*
X-2546Y186694D01*
Y186562D01*
X-3071D01*
%TF.MD5,43f5bd7bf603041c9b1b3b3a3c2c79dc*%
M02*
