%TF.GenerationSoftware,Altium Limited,Altium Designer,20.2.4 (192)*%
G04 Layer_Color=2752767*
%FSLAX25Y25*%
%MOIN*%
%TF.SameCoordinates,DD73C85C-3220-4851-94E8-9B28512026BA*%
%TF.FilePolarity,Positive*%
%TF.FileFunction,Drawing*%
%TF.Part,Single*%
G01*
G75*
%TA.AperFunction,NonConductor*%
%ADD125C,0.00500*%
%ADD145C,0.00667*%
D125*
X3474Y187883D02*
Y191883D01*
X7474D01*
Y187883D01*
X3474D01*
Y220087D02*
Y224087D01*
X7474D01*
Y220087D01*
X3474D01*
X255906Y17685D02*
X253906Y21685D01*
X257906D01*
X255906Y17685D01*
X19685D02*
X17685Y21685D01*
X21685D01*
X19685Y17685D01*
X255906Y372016D02*
X253906Y376016D01*
X257906D01*
X255906Y372016D01*
X19685D02*
X17685Y376016D01*
X21685D01*
X19685Y372016D01*
X98779Y140358D02*
X99779Y141358D01*
X100779D01*
X99779Y142358D01*
X100779Y143358D01*
X99779D01*
X98779Y144358D01*
X97780Y143358D01*
X96780D01*
X97780Y142358D01*
X96780Y141358D01*
X97780D01*
X98779Y140358D01*
Y130358D02*
X99779Y131358D01*
X100779D01*
X99779Y132358D01*
X100779Y133358D01*
X99779D01*
X98779Y134358D01*
X97780Y133358D01*
X96780D01*
X97780Y132358D01*
X96780Y131358D01*
X97780D01*
X98779Y130358D01*
X108780Y140358D02*
X109780Y141358D01*
X110780D01*
X109780Y142358D01*
X110780Y143358D01*
X109780D01*
X108780Y144358D01*
X107780Y143358D01*
X106780D01*
X107780Y142358D01*
X106780Y141358D01*
X107780D01*
X108780Y140358D01*
Y130358D02*
X109780Y131358D01*
X110780D01*
X109780Y132358D01*
X110780Y133358D01*
X109780D01*
X108780Y134358D01*
X107780Y133358D01*
X106780D01*
X107780Y132358D01*
X106780Y131358D01*
X107780D01*
X108780Y130358D01*
X118780Y140358D02*
X119780Y141358D01*
X120780D01*
X119780Y142358D01*
X120780Y143358D01*
X119780D01*
X118780Y144358D01*
X117780Y143358D01*
X116779D01*
X117780Y142358D01*
X116779Y141358D01*
X117780D01*
X118780Y140358D01*
Y130358D02*
X119780Y131358D01*
X120780D01*
X119780Y132358D01*
X120780Y133358D01*
X119780D01*
X118780Y134358D01*
X117780Y133358D01*
X116779D01*
X117780Y132358D01*
X116779Y131358D01*
X117780D01*
X118780Y130358D01*
X128779Y140358D02*
X129780Y141358D01*
X130780D01*
X129780Y142358D01*
X130780Y143358D01*
X129780D01*
X128779Y144358D01*
X127779Y143358D01*
X126779D01*
X127779Y142358D01*
X126779Y141358D01*
X127779D01*
X128779Y140358D01*
Y130358D02*
X129780Y131358D01*
X130780D01*
X129780Y132358D01*
X130780Y133358D01*
X129780D01*
X128779Y134358D01*
X127779Y133358D01*
X126779D01*
X127779Y132358D01*
X126779Y131358D01*
X127779D01*
X128779Y130358D01*
X204835Y273208D02*
X205835Y275208D01*
X204835Y277208D01*
X206835Y276208D01*
X208835Y277208D01*
X207835Y275208D01*
X208835Y273208D01*
X206835Y274208D01*
X204835Y273208D01*
X242110Y288327D02*
Y287327D01*
X244110D01*
Y288327D01*
X245110D01*
Y290326D01*
X244110D01*
Y291326D01*
X242110D01*
Y290326D01*
X241110D01*
Y288327D01*
X242110D01*
Y283602D02*
Y282602D01*
X244110D01*
Y283602D01*
X245110D01*
Y285602D01*
X244110D01*
Y286602D01*
X242110D01*
Y285602D01*
X241110D01*
Y283602D01*
X242110D01*
X179315Y227697D02*
Y226697D01*
X181315D01*
Y227697D01*
X182315D01*
Y229697D01*
X181315D01*
Y230697D01*
X179315D01*
Y229697D01*
X178315D01*
Y227697D01*
X179315D01*
X184039D02*
Y226697D01*
X186039D01*
Y227697D01*
X187039D01*
Y229697D01*
X186039D01*
Y230697D01*
X184039D01*
Y229697D01*
X183039D01*
Y227697D01*
X184039D01*
X188764D02*
Y226697D01*
X190764D01*
Y227697D01*
X191764D01*
Y229697D01*
X190764D01*
Y230697D01*
X188764D01*
Y229697D01*
X187764D01*
Y227697D01*
X188764D01*
X179315Y222972D02*
Y221972D01*
X181315D01*
Y222972D01*
X182315D01*
Y224972D01*
X181315D01*
Y225972D01*
X179315D01*
Y224972D01*
X178315D01*
Y222972D01*
X179315D01*
X184039D02*
Y221972D01*
X186039D01*
Y222972D01*
X187039D01*
Y224972D01*
X186039D01*
Y225972D01*
X184039D01*
Y224972D01*
X183039D01*
Y222972D01*
X184039D01*
X188764D02*
Y221972D01*
X190764D01*
Y222972D01*
X191764D01*
Y224972D01*
X190764D01*
Y225972D01*
X188764D01*
Y224972D01*
X187764D01*
Y222972D01*
X188764D01*
X179315Y218248D02*
Y217248D01*
X181315D01*
Y218248D01*
X182315D01*
Y220248D01*
X181315D01*
Y221248D01*
X179315D01*
Y220248D01*
X178315D01*
Y218248D01*
X179315D01*
X184039D02*
Y217248D01*
X186039D01*
Y218248D01*
X187039D01*
Y220248D01*
X186039D01*
Y221248D01*
X184039D01*
Y220248D01*
X183039D01*
Y218248D01*
X184039D01*
X188764D02*
Y217248D01*
X190764D01*
Y218248D01*
X191764D01*
Y220248D01*
X190764D01*
Y221248D01*
X188764D01*
Y220248D01*
X187764D01*
Y218248D01*
X188764D01*
X17089Y226948D02*
X18089D01*
X19089Y227948D01*
X20089Y226948D01*
X21089D01*
Y227948D01*
X20089Y228948D01*
X21089Y229948D01*
Y230948D01*
X20089D01*
X19089Y229948D01*
X18089Y230948D01*
X17089D01*
Y229948D01*
X18089Y228948D01*
X17089Y227948D01*
Y226948D01*
X22410Y243215D02*
X23410D01*
X24409Y244215D01*
X25409Y243215D01*
X26409D01*
Y244215D01*
X25409Y245215D01*
X26409Y246215D01*
Y247215D01*
X25409D01*
X24409Y246215D01*
X23410Y247215D01*
X22410D01*
Y246215D01*
X23410Y245215D01*
X22410Y244215D01*
Y243215D01*
Y253451D02*
X23410D01*
X24409Y254451D01*
X25409Y253451D01*
X26409D01*
Y254451D01*
X25409Y255451D01*
X26409Y256451D01*
Y257451D01*
X25409D01*
X24409Y256451D01*
X23410Y257451D01*
X22410D01*
Y256451D01*
X23410Y255451D01*
X22410Y254451D01*
Y253451D01*
Y234706D02*
X23410D01*
X24409Y235706D01*
X25409Y234706D01*
X26409D01*
Y235706D01*
X25409Y236706D01*
X26409Y237706D01*
Y238706D01*
X25409D01*
X24409Y237706D01*
X23410Y238706D01*
X22410D01*
Y237706D01*
X23410Y236706D01*
X22410Y235706D01*
Y234706D01*
X8214Y230710D02*
X9214D01*
X10214Y231710D01*
X11214Y230710D01*
X12214D01*
Y231710D01*
X11214Y232710D01*
X12214Y233710D01*
Y234710D01*
X11214D01*
X10214Y233710D01*
X9214Y234710D01*
X8214D01*
Y233710D01*
X9214Y232710D01*
X8214Y231710D01*
Y230710D01*
X22410Y262506D02*
X23410D01*
X24409Y263506D01*
X25409Y262506D01*
X26409D01*
Y263506D01*
X25409Y264506D01*
X26409Y265506D01*
Y266506D01*
X25409D01*
X24409Y265506D01*
X23410Y266506D01*
X22410D01*
Y265506D01*
X23410Y264506D01*
X22410Y263506D01*
Y262506D01*
X8214Y266048D02*
X9214D01*
X10214Y267048D01*
X11214Y266048D01*
X12214D01*
Y267048D01*
X11214Y268048D01*
X12214Y269048D01*
Y270048D01*
X11214D01*
X10214Y269048D01*
X9214Y270048D01*
X8214D01*
Y269048D01*
X9214Y268048D01*
X8214Y267048D01*
Y266048D01*
X8258Y318866D02*
X9258D01*
X10258Y319866D01*
X11258Y318866D01*
X12258D01*
Y319866D01*
X11258Y320866D01*
X12258Y321866D01*
Y322866D01*
X11258D01*
X10258Y321866D01*
X9258Y322866D01*
X8258D01*
Y321866D01*
X9258Y320866D01*
X8258Y319866D01*
Y318866D01*
X22410Y314142D02*
X23410D01*
X24409Y315142D01*
X25409Y314142D01*
X26409D01*
Y315142D01*
X25409Y316142D01*
X26409Y317142D01*
Y318142D01*
X25409D01*
X24409Y317142D01*
X23410Y318142D01*
X22410D01*
Y317142D01*
X23410Y316142D01*
X22410Y315142D01*
Y314142D01*
X8258Y281465D02*
X9258D01*
X10258Y282465D01*
X11258Y281465D01*
X12258D01*
Y282465D01*
X11258Y283465D01*
X12258Y284465D01*
Y285465D01*
X11258D01*
X10258Y284465D01*
X9258Y285465D01*
X8258D01*
Y284465D01*
X9258Y283465D01*
X8258Y282465D01*
Y281465D01*
X22410Y286342D02*
X23410D01*
X24409Y287342D01*
X25409Y286342D01*
X26409D01*
Y287342D01*
X25409Y288342D01*
X26409Y289342D01*
Y290342D01*
X25409D01*
X24409Y289342D01*
X23410Y290342D01*
X22410D01*
Y289342D01*
X23410Y288342D01*
X22410Y287342D01*
Y286342D01*
Y305087D02*
X23410D01*
X24409Y306087D01*
X25409Y305087D01*
X26409D01*
Y306087D01*
X25409Y307087D01*
X26409Y308087D01*
Y309087D01*
X25409D01*
X24409Y308087D01*
X23410Y309087D01*
X22410D01*
Y308087D01*
X23410Y307087D01*
X22410Y306087D01*
Y305087D01*
Y294850D02*
X23410D01*
X24409Y295850D01*
X25409Y294850D01*
X26409D01*
Y295850D01*
X25409Y296850D01*
X26409Y297850D01*
Y298850D01*
X25409D01*
X24409Y297850D01*
X23410Y298850D01*
X22410D01*
Y297850D01*
X23410Y296850D01*
X22410Y295850D01*
Y294850D01*
X266779Y356972D02*
X267779D01*
X268779Y357972D01*
X269779Y356972D01*
X270779D01*
Y357972D01*
X269779Y358972D01*
X270779Y359972D01*
Y360972D01*
X269779D01*
X268779Y359972D01*
X267779Y360972D01*
X266779D01*
Y359972D01*
X267779Y358972D01*
X266779Y357972D01*
Y356972D01*
Y336972D02*
X267779D01*
X268779Y337972D01*
X269779Y336972D01*
X270779D01*
Y337972D01*
X269779Y338972D01*
X270779Y339972D01*
Y340972D01*
X269779D01*
X268779Y339972D01*
X267779Y340972D01*
X266779D01*
Y339972D01*
X267779Y338972D01*
X266779Y337972D01*
Y336972D01*
Y316972D02*
X267779D01*
X268779Y317972D01*
X269779Y316972D01*
X270779D01*
Y317972D01*
X269779Y318972D01*
X270779Y319972D01*
Y320972D01*
X269779D01*
X268779Y319972D01*
X267779Y320972D01*
X266779D01*
Y319972D01*
X267779Y318972D01*
X266779Y317972D01*
Y316972D01*
Y296972D02*
X267779D01*
X268779Y297972D01*
X269779Y296972D01*
X270779D01*
Y297972D01*
X269779Y298972D01*
X270779Y299972D01*
Y300972D01*
X269779D01*
X268779Y299972D01*
X267779Y300972D01*
X266779D01*
Y299972D01*
X267779Y298972D01*
X266779Y297972D01*
Y296972D01*
Y276972D02*
X267779D01*
X268779Y277972D01*
X269779Y276972D01*
X270779D01*
Y277972D01*
X269779Y278972D01*
X270779Y279972D01*
Y280972D01*
X269779D01*
X268779Y279972D01*
X267779Y280972D01*
X266779D01*
Y279972D01*
X267779Y278972D01*
X266779Y277972D01*
Y276972D01*
Y236972D02*
X267779D01*
X268779Y237972D01*
X269779Y236972D01*
X270779D01*
Y237972D01*
X269779Y238972D01*
X270779Y239972D01*
Y240972D01*
X269779D01*
X268779Y239972D01*
X267779Y240972D01*
X266779D01*
Y239972D01*
X267779Y238972D01*
X266779Y237972D01*
Y236972D01*
Y216972D02*
X267779D01*
X268779Y217972D01*
X269779Y216972D01*
X270779D01*
Y217972D01*
X269779Y218972D01*
X270779Y219972D01*
Y220972D01*
X269779D01*
X268779Y219972D01*
X267779Y220972D01*
X266779D01*
Y219972D01*
X267779Y218972D01*
X266779Y217972D01*
Y216972D01*
Y196972D02*
X267779D01*
X268779Y197972D01*
X269779Y196972D01*
X270779D01*
Y197972D01*
X269779Y198972D01*
X270779Y199972D01*
Y200972D01*
X269779D01*
X268779Y199972D01*
X267779Y200972D01*
X266779D01*
Y199972D01*
X267779Y198972D01*
X266779Y197972D01*
Y196972D01*
Y176972D02*
X267779D01*
X268779Y177972D01*
X269779Y176972D01*
X270779D01*
Y177972D01*
X269779Y178972D01*
X270779Y179972D01*
Y180972D01*
X269779D01*
X268779Y179972D01*
X267779Y180972D01*
X266779D01*
Y179972D01*
X267779Y178972D01*
X266779Y177972D01*
Y176972D01*
Y156972D02*
X267779D01*
X268779Y157972D01*
X269779Y156972D01*
X270779D01*
Y157972D01*
X269779Y158972D01*
X270779Y159972D01*
Y160972D01*
X269779D01*
X268779Y159972D01*
X267779Y160972D01*
X266779D01*
Y159972D01*
X267779Y158972D01*
X266779Y157972D01*
Y156972D01*
Y136972D02*
X267779D01*
X268779Y137972D01*
X269779Y136972D01*
X270779D01*
Y137972D01*
X269779Y138972D01*
X270779Y139972D01*
Y140972D01*
X269779D01*
X268779Y139972D01*
X267779Y140972D01*
X266779D01*
Y139972D01*
X267779Y138972D01*
X266779Y137972D01*
Y136972D01*
Y116972D02*
X267779D01*
X268779Y117972D01*
X269779Y116972D01*
X270779D01*
Y117972D01*
X269779Y118972D01*
X270779Y119972D01*
Y120972D01*
X269779D01*
X268779Y119972D01*
X267779Y120972D01*
X266779D01*
Y119972D01*
X267779Y118972D01*
X266779Y117972D01*
Y116972D01*
Y76972D02*
X267779D01*
X268779Y77972D01*
X269779Y76972D01*
X270779D01*
Y77972D01*
X269779Y78972D01*
X270779Y79972D01*
Y80972D01*
X269779D01*
X268779Y79972D01*
X267779Y80972D01*
X266779D01*
Y79972D01*
X267779Y78972D01*
X266779Y77972D01*
Y76972D01*
Y56972D02*
X267779D01*
X268779Y57972D01*
X269779Y56972D01*
X270779D01*
Y57972D01*
X269779Y58972D01*
X270779Y59972D01*
Y60972D01*
X269779D01*
X268779Y59972D01*
X267779Y60972D01*
X266779D01*
Y59972D01*
X267779Y58972D01*
X266779Y57972D01*
Y56972D01*
Y36972D02*
X267779D01*
X268779Y37972D01*
X269779Y36972D01*
X270779D01*
Y37972D01*
X269779Y38972D01*
X270779Y39972D01*
Y40972D01*
X269779D01*
X268779Y39972D01*
X267779Y40972D01*
X266779D01*
Y39972D01*
X267779Y38972D01*
X266779Y37972D01*
Y36972D01*
Y16972D02*
X267779D01*
X268779Y17972D01*
X269779Y16972D01*
X270779D01*
Y17972D01*
X269779Y18972D01*
X270779Y19972D01*
Y20972D01*
X269779D01*
X268779Y19972D01*
X267779Y20972D01*
X266779D01*
Y19972D01*
X267779Y18972D01*
X266779Y17972D01*
Y16972D01*
X256780Y356972D02*
X257780D01*
X258780Y357972D01*
X259780Y356972D01*
X260780D01*
Y357972D01*
X259780Y358972D01*
X260780Y359972D01*
Y360972D01*
X259780D01*
X258780Y359972D01*
X257780Y360972D01*
X256780D01*
Y359972D01*
X257780Y358972D01*
X256780Y357972D01*
Y356972D01*
X261779Y346972D02*
X262779D01*
X263779Y347972D01*
X264779Y346972D01*
X265779D01*
Y347972D01*
X264779Y348972D01*
X265779Y349972D01*
Y350972D01*
X264779D01*
X263779Y349972D01*
X262779Y350972D01*
X261779D01*
Y349972D01*
X262779Y348972D01*
X261779Y347972D01*
Y346972D01*
X256780Y336972D02*
X257780D01*
X258780Y337972D01*
X259780Y336972D01*
X260780D01*
Y337972D01*
X259780Y338972D01*
X260780Y339972D01*
Y340972D01*
X259780D01*
X258780Y339972D01*
X257780Y340972D01*
X256780D01*
Y339972D01*
X257780Y338972D01*
X256780Y337972D01*
Y336972D01*
X261779Y326972D02*
X262779D01*
X263779Y327972D01*
X264779Y326972D01*
X265779D01*
Y327972D01*
X264779Y328972D01*
X265779Y329972D01*
Y330972D01*
X264779D01*
X263779Y329972D01*
X262779Y330972D01*
X261779D01*
Y329972D01*
X262779Y328972D01*
X261779Y327972D01*
Y326972D01*
X256780Y316972D02*
X257780D01*
X258780Y317972D01*
X259780Y316972D01*
X260780D01*
Y317972D01*
X259780Y318972D01*
X260780Y319972D01*
Y320972D01*
X259780D01*
X258780Y319972D01*
X257780Y320972D01*
X256780D01*
Y319972D01*
X257780Y318972D01*
X256780Y317972D01*
Y316972D01*
X261779Y306972D02*
X262779D01*
X263779Y307972D01*
X264779Y306972D01*
X265779D01*
Y307972D01*
X264779Y308972D01*
X265779Y309972D01*
Y310972D01*
X264779D01*
X263779Y309972D01*
X262779Y310972D01*
X261779D01*
Y309972D01*
X262779Y308972D01*
X261779Y307972D01*
Y306972D01*
X256780Y296972D02*
X257780D01*
X258780Y297972D01*
X259780Y296972D01*
X260780D01*
Y297972D01*
X259780Y298972D01*
X260780Y299972D01*
Y300972D01*
X259780D01*
X258780Y299972D01*
X257780Y300972D01*
X256780D01*
Y299972D01*
X257780Y298972D01*
X256780Y297972D01*
Y296972D01*
X261779Y286972D02*
X262779D01*
X263779Y287972D01*
X264779Y286972D01*
X265779D01*
Y287972D01*
X264779Y288972D01*
X265779Y289972D01*
Y290972D01*
X264779D01*
X263779Y289972D01*
X262779Y290972D01*
X261779D01*
Y289972D01*
X262779Y288972D01*
X261779Y287972D01*
Y286972D01*
X256780Y236972D02*
X257780D01*
X258780Y237972D01*
X259780Y236972D01*
X260780D01*
Y237972D01*
X259780Y238972D01*
X260780Y239972D01*
Y240972D01*
X259780D01*
X258780Y239972D01*
X257780Y240972D01*
X256780D01*
Y239972D01*
X257780Y238972D01*
X256780Y237972D01*
Y236972D01*
X261779Y226972D02*
X262779D01*
X263779Y227972D01*
X264779Y226972D01*
X265779D01*
Y227972D01*
X264779Y228972D01*
X265779Y229972D01*
Y230972D01*
X264779D01*
X263779Y229972D01*
X262779Y230972D01*
X261779D01*
Y229972D01*
X262779Y228972D01*
X261779Y227972D01*
Y226972D01*
X256780Y216972D02*
X257780D01*
X258780Y217972D01*
X259780Y216972D01*
X260780D01*
Y217972D01*
X259780Y218972D01*
X260780Y219972D01*
Y220972D01*
X259780D01*
X258780Y219972D01*
X257780Y220972D01*
X256780D01*
Y219972D01*
X257780Y218972D01*
X256780Y217972D01*
Y216972D01*
X261779Y206972D02*
X262779D01*
X263779Y207972D01*
X264779Y206972D01*
X265779D01*
Y207972D01*
X264779Y208972D01*
X265779Y209972D01*
Y210972D01*
X264779D01*
X263779Y209972D01*
X262779Y210972D01*
X261779D01*
Y209972D01*
X262779Y208972D01*
X261779Y207972D01*
Y206972D01*
X256780Y196972D02*
X257780D01*
X258780Y197972D01*
X259780Y196972D01*
X260780D01*
Y197972D01*
X259780Y198972D01*
X260780Y199972D01*
Y200972D01*
X259780D01*
X258780Y199972D01*
X257780Y200972D01*
X256780D01*
Y199972D01*
X257780Y198972D01*
X256780Y197972D01*
Y196972D01*
X261779Y186972D02*
X262779D01*
X263779Y187972D01*
X264779Y186972D01*
X265779D01*
Y187972D01*
X264779Y188972D01*
X265779Y189972D01*
Y190972D01*
X264779D01*
X263779Y189972D01*
X262779Y190972D01*
X261779D01*
Y189972D01*
X262779Y188972D01*
X261779Y187972D01*
Y186972D01*
X256780Y176972D02*
X257780D01*
X258780Y177972D01*
X259780Y176972D01*
X260780D01*
Y177972D01*
X259780Y178972D01*
X260780Y179972D01*
Y180972D01*
X259780D01*
X258780Y179972D01*
X257780Y180972D01*
X256780D01*
Y179972D01*
X257780Y178972D01*
X256780Y177972D01*
Y176972D01*
X261779Y166972D02*
X262779D01*
X263779Y167972D01*
X264779Y166972D01*
X265779D01*
Y167972D01*
X264779Y168972D01*
X265779Y169972D01*
Y170972D01*
X264779D01*
X263779Y169972D01*
X262779Y170972D01*
X261779D01*
Y169972D01*
X262779Y168972D01*
X261779Y167972D01*
Y166972D01*
X256780Y156972D02*
X257780D01*
X258780Y157972D01*
X259780Y156972D01*
X260780D01*
Y157972D01*
X259780Y158972D01*
X260780Y159972D01*
Y160972D01*
X259780D01*
X258780Y159972D01*
X257780Y160972D01*
X256780D01*
Y159972D01*
X257780Y158972D01*
X256780Y157972D01*
Y156972D01*
X261779Y146972D02*
X262779D01*
X263779Y147972D01*
X264779Y146972D01*
X265779D01*
Y147972D01*
X264779Y148972D01*
X265779Y149972D01*
Y150972D01*
X264779D01*
X263779Y149972D01*
X262779Y150972D01*
X261779D01*
Y149972D01*
X262779Y148972D01*
X261779Y147972D01*
Y146972D01*
X256780Y136972D02*
X257780D01*
X258780Y137972D01*
X259780Y136972D01*
X260780D01*
Y137972D01*
X259780Y138972D01*
X260780Y139972D01*
Y140972D01*
X259780D01*
X258780Y139972D01*
X257780Y140972D01*
X256780D01*
Y139972D01*
X257780Y138972D01*
X256780Y137972D01*
Y136972D01*
X261779Y126972D02*
X262779D01*
X263779Y127972D01*
X264779Y126972D01*
X265779D01*
Y127972D01*
X264779Y128972D01*
X265779Y129972D01*
Y130972D01*
X264779D01*
X263779Y129972D01*
X262779Y130972D01*
X261779D01*
Y129972D01*
X262779Y128972D01*
X261779Y127972D01*
Y126972D01*
X256780Y116972D02*
X257780D01*
X258780Y117972D01*
X259780Y116972D01*
X260780D01*
Y117972D01*
X259780Y118972D01*
X260780Y119972D01*
Y120972D01*
X259780D01*
X258780Y119972D01*
X257780Y120972D01*
X256780D01*
Y119972D01*
X257780Y118972D01*
X256780Y117972D01*
Y116972D01*
Y76972D02*
X257780D01*
X258780Y77972D01*
X259780Y76972D01*
X260780D01*
Y77972D01*
X259780Y78972D01*
X260780Y79972D01*
Y80972D01*
X259780D01*
X258780Y79972D01*
X257780Y80972D01*
X256780D01*
Y79972D01*
X257780Y78972D01*
X256780Y77972D01*
Y76972D01*
X261779Y66972D02*
X262779D01*
X263779Y67972D01*
X264779Y66972D01*
X265779D01*
Y67972D01*
X264779Y68972D01*
X265779Y69972D01*
Y70972D01*
X264779D01*
X263779Y69972D01*
X262779Y70972D01*
X261779D01*
Y69972D01*
X262779Y68972D01*
X261779Y67972D01*
Y66972D01*
X256780Y56972D02*
X257780D01*
X258780Y57972D01*
X259780Y56972D01*
X260780D01*
Y57972D01*
X259780Y58972D01*
X260780Y59972D01*
Y60972D01*
X259780D01*
X258780Y59972D01*
X257780Y60972D01*
X256780D01*
Y59972D01*
X257780Y58972D01*
X256780Y57972D01*
Y56972D01*
X261779Y46972D02*
X262779D01*
X263779Y47972D01*
X264779Y46972D01*
X265779D01*
Y47972D01*
X264779Y48972D01*
X265779Y49972D01*
Y50972D01*
X264779D01*
X263779Y49972D01*
X262779Y50972D01*
X261779D01*
Y49972D01*
X262779Y48972D01*
X261779Y47972D01*
Y46972D01*
X256780Y36972D02*
X257780D01*
X258780Y37972D01*
X259780Y36972D01*
X260780D01*
Y37972D01*
X259780Y38972D01*
X260780Y39972D01*
Y40972D01*
X259780D01*
X258780Y39972D01*
X257780Y40972D01*
X256780D01*
Y39972D01*
X257780Y38972D01*
X256780Y37972D01*
Y36972D01*
X261779Y26972D02*
X262779D01*
X263779Y27972D01*
X264779Y26972D01*
X265779D01*
Y27972D01*
X264779Y28972D01*
X265779Y29972D01*
Y30972D01*
X264779D01*
X263779Y29972D01*
X262779Y30972D01*
X261779D01*
Y29972D01*
X262779Y28972D01*
X261779Y27972D01*
Y26972D01*
X246779Y356972D02*
X247779D01*
X248780Y357972D01*
X249780Y356972D01*
X250780D01*
Y357972D01*
X249780Y358972D01*
X250780Y359972D01*
Y360972D01*
X249780D01*
X248780Y359972D01*
X247779Y360972D01*
X246779D01*
Y359972D01*
X247779Y358972D01*
X246779Y357972D01*
Y356972D01*
X251780Y346972D02*
X252780D01*
X253780Y347972D01*
X254780Y346972D01*
X255780D01*
Y347972D01*
X254780Y348972D01*
X255780Y349972D01*
Y350972D01*
X254780D01*
X253780Y349972D01*
X252780Y350972D01*
X251780D01*
Y349972D01*
X252780Y348972D01*
X251780Y347972D01*
Y346972D01*
X246779Y336972D02*
X247779D01*
X248780Y337972D01*
X249780Y336972D01*
X250780D01*
Y337972D01*
X249780Y338972D01*
X250780Y339972D01*
Y340972D01*
X249780D01*
X248780Y339972D01*
X247779Y340972D01*
X246779D01*
Y339972D01*
X247779Y338972D01*
X246779Y337972D01*
Y336972D01*
X251780Y326972D02*
X252780D01*
X253780Y327972D01*
X254780Y326972D01*
X255780D01*
Y327972D01*
X254780Y328972D01*
X255780Y329972D01*
Y330972D01*
X254780D01*
X253780Y329972D01*
X252780Y330972D01*
X251780D01*
Y329972D01*
X252780Y328972D01*
X251780Y327972D01*
Y326972D01*
X246779Y316972D02*
X247779D01*
X248780Y317972D01*
X249780Y316972D01*
X250780D01*
Y317972D01*
X249780Y318972D01*
X250780Y319972D01*
Y320972D01*
X249780D01*
X248780Y319972D01*
X247779Y320972D01*
X246779D01*
Y319972D01*
X247779Y318972D01*
X246779Y317972D01*
Y316972D01*
Y296972D02*
X247779D01*
X248780Y297972D01*
X249780Y296972D01*
X250780D01*
Y297972D01*
X249780Y298972D01*
X250780Y299972D01*
Y300972D01*
X249780D01*
X248780Y299972D01*
X247779Y300972D01*
X246779D01*
Y299972D01*
X247779Y298972D01*
X246779Y297972D01*
Y296972D01*
Y236972D02*
X247779D01*
X248780Y237972D01*
X249780Y236972D01*
X250780D01*
Y237972D01*
X249780Y238972D01*
X250780Y239972D01*
Y240972D01*
X249780D01*
X248780Y239972D01*
X247779Y240972D01*
X246779D01*
Y239972D01*
X247779Y238972D01*
X246779Y237972D01*
Y236972D01*
X251780Y226972D02*
X252780D01*
X253780Y227972D01*
X254780Y226972D01*
X255780D01*
Y227972D01*
X254780Y228972D01*
X255780Y229972D01*
Y230972D01*
X254780D01*
X253780Y229972D01*
X252780Y230972D01*
X251780D01*
Y229972D01*
X252780Y228972D01*
X251780Y227972D01*
Y226972D01*
X246779Y216972D02*
X247779D01*
X248780Y217972D01*
X249780Y216972D01*
X250780D01*
Y217972D01*
X249780Y218972D01*
X250780Y219972D01*
Y220972D01*
X249780D01*
X248780Y219972D01*
X247779Y220972D01*
X246779D01*
Y219972D01*
X247779Y218972D01*
X246779Y217972D01*
Y216972D01*
X251780Y206972D02*
X252780D01*
X253780Y207972D01*
X254780Y206972D01*
X255780D01*
Y207972D01*
X254780Y208972D01*
X255780Y209972D01*
Y210972D01*
X254780D01*
X253780Y209972D01*
X252780Y210972D01*
X251780D01*
Y209972D01*
X252780Y208972D01*
X251780Y207972D01*
Y206972D01*
X246779Y196972D02*
X247779D01*
X248780Y197972D01*
X249780Y196972D01*
X250780D01*
Y197972D01*
X249780Y198972D01*
X250780Y199972D01*
Y200972D01*
X249780D01*
X248780Y199972D01*
X247779Y200972D01*
X246779D01*
Y199972D01*
X247779Y198972D01*
X246779Y197972D01*
Y196972D01*
X251780Y186972D02*
X252780D01*
X253780Y187972D01*
X254780Y186972D01*
X255780D01*
Y187972D01*
X254780Y188972D01*
X255780Y189972D01*
Y190972D01*
X254780D01*
X253780Y189972D01*
X252780Y190972D01*
X251780D01*
Y189972D01*
X252780Y188972D01*
X251780Y187972D01*
Y186972D01*
Y146972D02*
X252780D01*
X253780Y147972D01*
X254780Y146972D01*
X255780D01*
Y147972D01*
X254780Y148972D01*
X255780Y149972D01*
Y150972D01*
X254780D01*
X253780Y149972D01*
X252780Y150972D01*
X251780D01*
Y149972D01*
X252780Y148972D01*
X251780Y147972D01*
Y146972D01*
X246779Y136972D02*
X247779D01*
X248780Y137972D01*
X249780Y136972D01*
X250780D01*
Y137972D01*
X249780Y138972D01*
X250780Y139972D01*
Y140972D01*
X249780D01*
X248780Y139972D01*
X247779Y140972D01*
X246779D01*
Y139972D01*
X247779Y138972D01*
X246779Y137972D01*
Y136972D01*
X251780Y126972D02*
X252780D01*
X253780Y127972D01*
X254780Y126972D01*
X255780D01*
Y127972D01*
X254780Y128972D01*
X255780Y129972D01*
Y130972D01*
X254780D01*
X253780Y129972D01*
X252780Y130972D01*
X251780D01*
Y129972D01*
X252780Y128972D01*
X251780Y127972D01*
Y126972D01*
X246779Y116972D02*
X247779D01*
X248780Y117972D01*
X249780Y116972D01*
X250780D01*
Y117972D01*
X249780Y118972D01*
X250780Y119972D01*
Y120972D01*
X249780D01*
X248780Y119972D01*
X247779Y120972D01*
X246779D01*
Y119972D01*
X247779Y118972D01*
X246779Y117972D01*
Y116972D01*
Y76972D02*
X247779D01*
X248780Y77972D01*
X249780Y76972D01*
X250780D01*
Y77972D01*
X249780Y78972D01*
X250780Y79972D01*
Y80972D01*
X249780D01*
X248780Y79972D01*
X247779Y80972D01*
X246779D01*
Y79972D01*
X247779Y78972D01*
X246779Y77972D01*
Y76972D01*
X251780Y66972D02*
X252780D01*
X253780Y67972D01*
X254780Y66972D01*
X255780D01*
Y67972D01*
X254780Y68972D01*
X255780Y69972D01*
Y70972D01*
X254780D01*
X253780Y69972D01*
X252780Y70972D01*
X251780D01*
Y69972D01*
X252780Y68972D01*
X251780Y67972D01*
Y66972D01*
X246779Y56972D02*
X247779D01*
X248780Y57972D01*
X249780Y56972D01*
X250780D01*
Y57972D01*
X249780Y58972D01*
X250780Y59972D01*
Y60972D01*
X249780D01*
X248780Y59972D01*
X247779Y60972D01*
X246779D01*
Y59972D01*
X247779Y58972D01*
X246779Y57972D01*
Y56972D01*
X251780Y46972D02*
X252780D01*
X253780Y47972D01*
X254780Y46972D01*
X255780D01*
Y47972D01*
X254780Y48972D01*
X255780Y49972D01*
Y50972D01*
X254780D01*
X253780Y49972D01*
X252780Y50972D01*
X251780D01*
Y49972D01*
X252780Y48972D01*
X251780Y47972D01*
Y46972D01*
X246779Y36972D02*
X247779D01*
X248780Y37972D01*
X249780Y36972D01*
X250780D01*
Y37972D01*
X249780Y38972D01*
X250780Y39972D01*
Y40972D01*
X249780D01*
X248780Y39972D01*
X247779Y40972D01*
X246779D01*
Y39972D01*
X247779Y38972D01*
X246779Y37972D01*
Y36972D01*
X251780Y26972D02*
X252780D01*
X253780Y27972D01*
X254780Y26972D01*
X255780D01*
Y27972D01*
X254780Y28972D01*
X255780Y29972D01*
Y30972D01*
X254780D01*
X253780Y29972D01*
X252780Y30972D01*
X251780D01*
Y29972D01*
X252780Y28972D01*
X251780Y27972D01*
Y26972D01*
X241779Y366972D02*
X242779D01*
X243779Y367972D01*
X244779Y366972D01*
X245779D01*
Y367972D01*
X244779Y368972D01*
X245779Y369972D01*
Y370972D01*
X244779D01*
X243779Y369972D01*
X242779Y370972D01*
X241779D01*
Y369972D01*
X242779Y368972D01*
X241779Y367972D01*
Y366972D01*
X236779Y356972D02*
X237779D01*
X238779Y357972D01*
X239779Y356972D01*
X240779D01*
Y357972D01*
X239779Y358972D01*
X240779Y359972D01*
Y360972D01*
X239779D01*
X238779Y359972D01*
X237779Y360972D01*
X236779D01*
Y359972D01*
X237779Y358972D01*
X236779Y357972D01*
Y356972D01*
X241779Y346972D02*
X242779D01*
X243779Y347972D01*
X244779Y346972D01*
X245779D01*
Y347972D01*
X244779Y348972D01*
X245779Y349972D01*
Y350972D01*
X244779D01*
X243779Y349972D01*
X242779Y350972D01*
X241779D01*
Y349972D01*
X242779Y348972D01*
X241779Y347972D01*
Y346972D01*
X236779Y336972D02*
X237779D01*
X238779Y337972D01*
X239779Y336972D01*
X240779D01*
Y337972D01*
X239779Y338972D01*
X240779Y339972D01*
Y340972D01*
X239779D01*
X238779Y339972D01*
X237779Y340972D01*
X236779D01*
Y339972D01*
X237779Y338972D01*
X236779Y337972D01*
Y336972D01*
X241779Y326972D02*
X242779D01*
X243779Y327972D01*
X244779Y326972D01*
X245779D01*
Y327972D01*
X244779Y328972D01*
X245779Y329972D01*
Y330972D01*
X244779D01*
X243779Y329972D01*
X242779Y330972D01*
X241779D01*
Y329972D01*
X242779Y328972D01*
X241779Y327972D01*
Y326972D01*
Y306972D02*
X242779D01*
X243779Y307972D01*
X244779Y306972D01*
X245779D01*
Y307972D01*
X244779Y308972D01*
X245779Y309972D01*
Y310972D01*
X244779D01*
X243779Y309972D01*
X242779Y310972D01*
X241779D01*
Y309972D01*
X242779Y308972D01*
X241779Y307972D01*
Y306972D01*
Y266972D02*
X242779D01*
X243779Y267972D01*
X244779Y266972D01*
X245779D01*
Y267972D01*
X244779Y268972D01*
X245779Y269972D01*
Y270972D01*
X244779D01*
X243779Y269972D01*
X242779Y270972D01*
X241779D01*
Y269972D01*
X242779Y268972D01*
X241779Y267972D01*
Y266972D01*
Y246972D02*
X242779D01*
X243779Y247972D01*
X244779Y246972D01*
X245779D01*
Y247972D01*
X244779Y248972D01*
X245779Y249972D01*
Y250972D01*
X244779D01*
X243779Y249972D01*
X242779Y250972D01*
X241779D01*
Y249972D01*
X242779Y248972D01*
X241779Y247972D01*
Y246972D01*
Y226972D02*
X242779D01*
X243779Y227972D01*
X244779Y226972D01*
X245779D01*
Y227972D01*
X244779Y228972D01*
X245779Y229972D01*
Y230972D01*
X244779D01*
X243779Y229972D01*
X242779Y230972D01*
X241779D01*
Y229972D01*
X242779Y228972D01*
X241779Y227972D01*
Y226972D01*
Y206972D02*
X242779D01*
X243779Y207972D01*
X244779Y206972D01*
X245779D01*
Y207972D01*
X244779Y208972D01*
X245779Y209972D01*
Y210972D01*
X244779D01*
X243779Y209972D01*
X242779Y210972D01*
X241779D01*
Y209972D01*
X242779Y208972D01*
X241779Y207972D01*
Y206972D01*
X236779Y196972D02*
X237779D01*
X238779Y197972D01*
X239779Y196972D01*
X240779D01*
Y197972D01*
X239779Y198972D01*
X240779Y199972D01*
Y200972D01*
X239779D01*
X238779Y199972D01*
X237779Y200972D01*
X236779D01*
Y199972D01*
X237779Y198972D01*
X236779Y197972D01*
Y196972D01*
X241779Y186972D02*
X242779D01*
X243779Y187972D01*
X244779Y186972D01*
X245779D01*
Y187972D01*
X244779Y188972D01*
X245779Y189972D01*
Y190972D01*
X244779D01*
X243779Y189972D01*
X242779Y190972D01*
X241779D01*
Y189972D01*
X242779Y188972D01*
X241779Y187972D01*
Y186972D01*
X236779Y176972D02*
X237779D01*
X238779Y177972D01*
X239779Y176972D01*
X240779D01*
Y177972D01*
X239779Y178972D01*
X240779Y179972D01*
Y180972D01*
X239779D01*
X238779Y179972D01*
X237779Y180972D01*
X236779D01*
Y179972D01*
X237779Y178972D01*
X236779Y177972D01*
Y176972D01*
X241779Y146972D02*
X242779D01*
X243779Y147972D01*
X244779Y146972D01*
X245779D01*
Y147972D01*
X244779Y148972D01*
X245779Y149972D01*
Y150972D01*
X244779D01*
X243779Y149972D01*
X242779Y150972D01*
X241779D01*
Y149972D01*
X242779Y148972D01*
X241779Y147972D01*
Y146972D01*
X236779Y136972D02*
X237779D01*
X238779Y137972D01*
X239779Y136972D01*
X240779D01*
Y137972D01*
X239779Y138972D01*
X240779Y139972D01*
Y140972D01*
X239779D01*
X238779Y139972D01*
X237779Y140972D01*
X236779D01*
Y139972D01*
X237779Y138972D01*
X236779Y137972D01*
Y136972D01*
X241779Y126972D02*
X242779D01*
X243779Y127972D01*
X244779Y126972D01*
X245779D01*
Y127972D01*
X244779Y128972D01*
X245779Y129972D01*
Y130972D01*
X244779D01*
X243779Y129972D01*
X242779Y130972D01*
X241779D01*
Y129972D01*
X242779Y128972D01*
X241779Y127972D01*
Y126972D01*
X236779Y116972D02*
X237779D01*
X238779Y117972D01*
X239779Y116972D01*
X240779D01*
Y117972D01*
X239779Y118972D01*
X240779Y119972D01*
Y120972D01*
X239779D01*
X238779Y119972D01*
X237779Y120972D01*
X236779D01*
Y119972D01*
X237779Y118972D01*
X236779Y117972D01*
Y116972D01*
X241779Y106972D02*
X242779D01*
X243779Y107972D01*
X244779Y106972D01*
X245779D01*
Y107972D01*
X244779Y108972D01*
X245779Y109972D01*
Y110972D01*
X244779D01*
X243779Y109972D01*
X242779Y110972D01*
X241779D01*
Y109972D01*
X242779Y108972D01*
X241779Y107972D01*
Y106972D01*
Y86972D02*
X242779D01*
X243779Y87972D01*
X244779Y86972D01*
X245779D01*
Y87972D01*
X244779Y88972D01*
X245779Y89972D01*
Y90972D01*
X244779D01*
X243779Y89972D01*
X242779Y90972D01*
X241779D01*
Y89972D01*
X242779Y88972D01*
X241779Y87972D01*
Y86972D01*
X236779Y76972D02*
X237779D01*
X238779Y77972D01*
X239779Y76972D01*
X240779D01*
Y77972D01*
X239779Y78972D01*
X240779Y79972D01*
Y80972D01*
X239779D01*
X238779Y79972D01*
X237779Y80972D01*
X236779D01*
Y79972D01*
X237779Y78972D01*
X236779Y77972D01*
Y76972D01*
X241779Y66972D02*
X242779D01*
X243779Y67972D01*
X244779Y66972D01*
X245779D01*
Y67972D01*
X244779Y68972D01*
X245779Y69972D01*
Y70972D01*
X244779D01*
X243779Y69972D01*
X242779Y70972D01*
X241779D01*
Y69972D01*
X242779Y68972D01*
X241779Y67972D01*
Y66972D01*
X236779Y56972D02*
X237779D01*
X238779Y57972D01*
X239779Y56972D01*
X240779D01*
Y57972D01*
X239779Y58972D01*
X240779Y59972D01*
Y60972D01*
X239779D01*
X238779Y59972D01*
X237779Y60972D01*
X236779D01*
Y59972D01*
X237779Y58972D01*
X236779Y57972D01*
Y56972D01*
X241779Y46972D02*
X242779D01*
X243779Y47972D01*
X244779Y46972D01*
X245779D01*
Y47972D01*
X244779Y48972D01*
X245779Y49972D01*
Y50972D01*
X244779D01*
X243779Y49972D01*
X242779Y50972D01*
X241779D01*
Y49972D01*
X242779Y48972D01*
X241779Y47972D01*
Y46972D01*
X236779Y36972D02*
X237779D01*
X238779Y37972D01*
X239779Y36972D01*
X240779D01*
Y37972D01*
X239779Y38972D01*
X240779Y39972D01*
Y40972D01*
X239779D01*
X238779Y39972D01*
X237779Y40972D01*
X236779D01*
Y39972D01*
X237779Y38972D01*
X236779Y37972D01*
Y36972D01*
X241779Y26972D02*
X242779D01*
X243779Y27972D01*
X244779Y26972D01*
X245779D01*
Y27972D01*
X244779Y28972D01*
X245779Y29972D01*
Y30972D01*
X244779D01*
X243779Y29972D01*
X242779Y30972D01*
X241779D01*
Y29972D01*
X242779Y28972D01*
X241779Y27972D01*
Y26972D01*
X236779Y16972D02*
X237779D01*
X238779Y17972D01*
X239779Y16972D01*
X240779D01*
Y17972D01*
X239779Y18972D01*
X240779Y19972D01*
Y20972D01*
X239779D01*
X238779Y19972D01*
X237779Y20972D01*
X236779D01*
Y19972D01*
X237779Y18972D01*
X236779Y17972D01*
Y16972D01*
X231780Y366972D02*
X232780D01*
X233780Y367972D01*
X234780Y366972D01*
X235780D01*
Y367972D01*
X234780Y368972D01*
X235780Y369972D01*
Y370972D01*
X234780D01*
X233780Y369972D01*
X232780Y370972D01*
X231780D01*
Y369972D01*
X232780Y368972D01*
X231780Y367972D01*
Y366972D01*
X226780Y356972D02*
X227780D01*
X228780Y357972D01*
X229780Y356972D01*
X230780D01*
Y357972D01*
X229780Y358972D01*
X230780Y359972D01*
Y360972D01*
X229780D01*
X228780Y359972D01*
X227780Y360972D01*
X226780D01*
Y359972D01*
X227780Y358972D01*
X226780Y357972D01*
Y356972D01*
X231780Y346972D02*
X232780D01*
X233780Y347972D01*
X234780Y346972D01*
X235780D01*
Y347972D01*
X234780Y348972D01*
X235780Y349972D01*
Y350972D01*
X234780D01*
X233780Y349972D01*
X232780Y350972D01*
X231780D01*
Y349972D01*
X232780Y348972D01*
X231780Y347972D01*
Y346972D01*
X226780Y336972D02*
X227780D01*
X228780Y337972D01*
X229780Y336972D01*
X230780D01*
Y337972D01*
X229780Y338972D01*
X230780Y339972D01*
Y340972D01*
X229780D01*
X228780Y339972D01*
X227780Y340972D01*
X226780D01*
Y339972D01*
X227780Y338972D01*
X226780Y337972D01*
Y336972D01*
X231780Y326972D02*
X232780D01*
X233780Y327972D01*
X234780Y326972D01*
X235780D01*
Y327972D01*
X234780Y328972D01*
X235780Y329972D01*
Y330972D01*
X234780D01*
X233780Y329972D01*
X232780Y330972D01*
X231780D01*
Y329972D01*
X232780Y328972D01*
X231780Y327972D01*
Y326972D01*
X226780Y296972D02*
X227780D01*
X228780Y297972D01*
X229780Y296972D01*
X230780D01*
Y297972D01*
X229780Y298972D01*
X230780Y299972D01*
Y300972D01*
X229780D01*
X228780Y299972D01*
X227780Y300972D01*
X226780D01*
Y299972D01*
X227780Y298972D01*
X226780Y297972D01*
Y296972D01*
X231780Y266972D02*
X232780D01*
X233780Y267972D01*
X234780Y266972D01*
X235780D01*
Y267972D01*
X234780Y268972D01*
X235780Y269972D01*
Y270972D01*
X234780D01*
X233780Y269972D01*
X232780Y270972D01*
X231780D01*
Y269972D01*
X232780Y268972D01*
X231780Y267972D01*
Y266972D01*
Y246972D02*
X232780D01*
X233780Y247972D01*
X234780Y246972D01*
X235780D01*
Y247972D01*
X234780Y248972D01*
X235780Y249972D01*
Y250972D01*
X234780D01*
X233780Y249972D01*
X232780Y250972D01*
X231780D01*
Y249972D01*
X232780Y248972D01*
X231780Y247972D01*
Y246972D01*
Y226972D02*
X232780D01*
X233780Y227972D01*
X234780Y226972D01*
X235780D01*
Y227972D01*
X234780Y228972D01*
X235780Y229972D01*
Y230972D01*
X234780D01*
X233780Y229972D01*
X232780Y230972D01*
X231780D01*
Y229972D01*
X232780Y228972D01*
X231780Y227972D01*
Y226972D01*
Y186972D02*
X232780D01*
X233780Y187972D01*
X234780Y186972D01*
X235780D01*
Y187972D01*
X234780Y188972D01*
X235780Y189972D01*
Y190972D01*
X234780D01*
X233780Y189972D01*
X232780Y190972D01*
X231780D01*
Y189972D01*
X232780Y188972D01*
X231780Y187972D01*
Y186972D01*
X226780Y176972D02*
X227780D01*
X228780Y177972D01*
X229780Y176972D01*
X230780D01*
Y177972D01*
X229780Y178972D01*
X230780Y179972D01*
Y180972D01*
X229780D01*
X228780Y179972D01*
X227780Y180972D01*
X226780D01*
Y179972D01*
X227780Y178972D01*
X226780Y177972D01*
Y176972D01*
Y156972D02*
X227780D01*
X228780Y157972D01*
X229780Y156972D01*
X230780D01*
Y157972D01*
X229780Y158972D01*
X230780Y159972D01*
Y160972D01*
X229780D01*
X228780Y159972D01*
X227780Y160972D01*
X226780D01*
Y159972D01*
X227780Y158972D01*
X226780Y157972D01*
Y156972D01*
X231780Y146972D02*
X232780D01*
X233780Y147972D01*
X234780Y146972D01*
X235780D01*
Y147972D01*
X234780Y148972D01*
X235780Y149972D01*
Y150972D01*
X234780D01*
X233780Y149972D01*
X232780Y150972D01*
X231780D01*
Y149972D01*
X232780Y148972D01*
X231780Y147972D01*
Y146972D01*
X226780Y136972D02*
X227780D01*
X228780Y137972D01*
X229780Y136972D01*
X230780D01*
Y137972D01*
X229780Y138972D01*
X230780Y139972D01*
Y140972D01*
X229780D01*
X228780Y139972D01*
X227780Y140972D01*
X226780D01*
Y139972D01*
X227780Y138972D01*
X226780Y137972D01*
Y136972D01*
X231780Y126972D02*
X232780D01*
X233780Y127972D01*
X234780Y126972D01*
X235780D01*
Y127972D01*
X234780Y128972D01*
X235780Y129972D01*
Y130972D01*
X234780D01*
X233780Y129972D01*
X232780Y130972D01*
X231780D01*
Y129972D01*
X232780Y128972D01*
X231780Y127972D01*
Y126972D01*
X226780Y116972D02*
X227780D01*
X228780Y117972D01*
X229780Y116972D01*
X230780D01*
Y117972D01*
X229780Y118972D01*
X230780Y119972D01*
Y120972D01*
X229780D01*
X228780Y119972D01*
X227780Y120972D01*
X226780D01*
Y119972D01*
X227780Y118972D01*
X226780Y117972D01*
Y116972D01*
X231780Y106972D02*
X232780D01*
X233780Y107972D01*
X234780Y106972D01*
X235780D01*
Y107972D01*
X234780Y108972D01*
X235780Y109972D01*
Y110972D01*
X234780D01*
X233780Y109972D01*
X232780Y110972D01*
X231780D01*
Y109972D01*
X232780Y108972D01*
X231780Y107972D01*
Y106972D01*
Y86972D02*
X232780D01*
X233780Y87972D01*
X234780Y86972D01*
X235780D01*
Y87972D01*
X234780Y88972D01*
X235780Y89972D01*
Y90972D01*
X234780D01*
X233780Y89972D01*
X232780Y90972D01*
X231780D01*
Y89972D01*
X232780Y88972D01*
X231780Y87972D01*
Y86972D01*
X226780Y76972D02*
X227780D01*
X228780Y77972D01*
X229780Y76972D01*
X230780D01*
Y77972D01*
X229780Y78972D01*
X230780Y79972D01*
Y80972D01*
X229780D01*
X228780Y79972D01*
X227780Y80972D01*
X226780D01*
Y79972D01*
X227780Y78972D01*
X226780Y77972D01*
Y76972D01*
X231780Y66972D02*
X232780D01*
X233780Y67972D01*
X234780Y66972D01*
X235780D01*
Y67972D01*
X234780Y68972D01*
X235780Y69972D01*
Y70972D01*
X234780D01*
X233780Y69972D01*
X232780Y70972D01*
X231780D01*
Y69972D01*
X232780Y68972D01*
X231780Y67972D01*
Y66972D01*
X226780Y56972D02*
X227780D01*
X228780Y57972D01*
X229780Y56972D01*
X230780D01*
Y57972D01*
X229780Y58972D01*
X230780Y59972D01*
Y60972D01*
X229780D01*
X228780Y59972D01*
X227780Y60972D01*
X226780D01*
Y59972D01*
X227780Y58972D01*
X226780Y57972D01*
Y56972D01*
X231780Y46972D02*
X232780D01*
X233780Y47972D01*
X234780Y46972D01*
X235780D01*
Y47972D01*
X234780Y48972D01*
X235780Y49972D01*
Y50972D01*
X234780D01*
X233780Y49972D01*
X232780Y50972D01*
X231780D01*
Y49972D01*
X232780Y48972D01*
X231780Y47972D01*
Y46972D01*
X226780Y36972D02*
X227780D01*
X228780Y37972D01*
X229780Y36972D01*
X230780D01*
Y37972D01*
X229780Y38972D01*
X230780Y39972D01*
Y40972D01*
X229780D01*
X228780Y39972D01*
X227780Y40972D01*
X226780D01*
Y39972D01*
X227780Y38972D01*
X226780Y37972D01*
Y36972D01*
X231780Y26972D02*
X232780D01*
X233780Y27972D01*
X234780Y26972D01*
X235780D01*
Y27972D01*
X234780Y28972D01*
X235780Y29972D01*
Y30972D01*
X234780D01*
X233780Y29972D01*
X232780Y30972D01*
X231780D01*
Y29972D01*
X232780Y28972D01*
X231780Y27972D01*
Y26972D01*
X226780Y16972D02*
X227780D01*
X228780Y17972D01*
X229780Y16972D01*
X230780D01*
Y17972D01*
X229780Y18972D01*
X230780Y19972D01*
Y20972D01*
X229780D01*
X228780Y19972D01*
X227780Y20972D01*
X226780D01*
Y19972D01*
X227780Y18972D01*
X226780Y17972D01*
Y16972D01*
X221779Y366972D02*
X222779D01*
X223780Y367972D01*
X224780Y366972D01*
X225780D01*
Y367972D01*
X224780Y368972D01*
X225780Y369972D01*
Y370972D01*
X224780D01*
X223780Y369972D01*
X222779Y370972D01*
X221779D01*
Y369972D01*
X222779Y368972D01*
X221779Y367972D01*
Y366972D01*
X216779Y356972D02*
X217779D01*
X218779Y357972D01*
X219779Y356972D01*
X220779D01*
Y357972D01*
X219779Y358972D01*
X220779Y359972D01*
Y360972D01*
X219779D01*
X218779Y359972D01*
X217779Y360972D01*
X216779D01*
Y359972D01*
X217779Y358972D01*
X216779Y357972D01*
Y356972D01*
X221779Y346972D02*
X222779D01*
X223780Y347972D01*
X224780Y346972D01*
X225780D01*
Y347972D01*
X224780Y348972D01*
X225780Y349972D01*
Y350972D01*
X224780D01*
X223780Y349972D01*
X222779Y350972D01*
X221779D01*
Y349972D01*
X222779Y348972D01*
X221779Y347972D01*
Y346972D01*
Y306972D02*
X222779D01*
X223780Y307972D01*
X224780Y306972D01*
X225780D01*
Y307972D01*
X224780Y308972D01*
X225780Y309972D01*
Y310972D01*
X224780D01*
X223780Y309972D01*
X222779Y310972D01*
X221779D01*
Y309972D01*
X222779Y308972D01*
X221779Y307972D01*
Y306972D01*
Y266972D02*
X222779D01*
X223780Y267972D01*
X224780Y266972D01*
X225780D01*
Y267972D01*
X224780Y268972D01*
X225780Y269972D01*
Y270972D01*
X224780D01*
X223780Y269972D01*
X222779Y270972D01*
X221779D01*
Y269972D01*
X222779Y268972D01*
X221779Y267972D01*
Y266972D01*
Y186972D02*
X222779D01*
X223780Y187972D01*
X224780Y186972D01*
X225780D01*
Y187972D01*
X224780Y188972D01*
X225780Y189972D01*
Y190972D01*
X224780D01*
X223780Y189972D01*
X222779Y190972D01*
X221779D01*
Y189972D01*
X222779Y188972D01*
X221779Y187972D01*
Y186972D01*
X216779Y156972D02*
X217779D01*
X218779Y157972D01*
X219779Y156972D01*
X220779D01*
Y157972D01*
X219779Y158972D01*
X220779Y159972D01*
Y160972D01*
X219779D01*
X218779Y159972D01*
X217779Y160972D01*
X216779D01*
Y159972D01*
X217779Y158972D01*
X216779Y157972D01*
Y156972D01*
X221779Y146972D02*
X222779D01*
X223780Y147972D01*
X224780Y146972D01*
X225780D01*
Y147972D01*
X224780Y148972D01*
X225780Y149972D01*
Y150972D01*
X224780D01*
X223780Y149972D01*
X222779Y150972D01*
X221779D01*
Y149972D01*
X222779Y148972D01*
X221779Y147972D01*
Y146972D01*
X216779Y136972D02*
X217779D01*
X218779Y137972D01*
X219779Y136972D01*
X220779D01*
Y137972D01*
X219779Y138972D01*
X220779Y139972D01*
Y140972D01*
X219779D01*
X218779Y139972D01*
X217779Y140972D01*
X216779D01*
Y139972D01*
X217779Y138972D01*
X216779Y137972D01*
Y136972D01*
X221779Y126972D02*
X222779D01*
X223780Y127972D01*
X224780Y126972D01*
X225780D01*
Y127972D01*
X224780Y128972D01*
X225780Y129972D01*
Y130972D01*
X224780D01*
X223780Y129972D01*
X222779Y130972D01*
X221779D01*
Y129972D01*
X222779Y128972D01*
X221779Y127972D01*
Y126972D01*
X216779Y116972D02*
X217779D01*
X218779Y117972D01*
X219779Y116972D01*
X220779D01*
Y117972D01*
X219779Y118972D01*
X220779Y119972D01*
Y120972D01*
X219779D01*
X218779Y119972D01*
X217779Y120972D01*
X216779D01*
Y119972D01*
X217779Y118972D01*
X216779Y117972D01*
Y116972D01*
X221779Y106972D02*
X222779D01*
X223780Y107972D01*
X224780Y106972D01*
X225780D01*
Y107972D01*
X224780Y108972D01*
X225780Y109972D01*
Y110972D01*
X224780D01*
X223780Y109972D01*
X222779Y110972D01*
X221779D01*
Y109972D01*
X222779Y108972D01*
X221779Y107972D01*
Y106972D01*
Y86972D02*
X222779D01*
X223780Y87972D01*
X224780Y86972D01*
X225780D01*
Y87972D01*
X224780Y88972D01*
X225780Y89972D01*
Y90972D01*
X224780D01*
X223780Y89972D01*
X222779Y90972D01*
X221779D01*
Y89972D01*
X222779Y88972D01*
X221779Y87972D01*
Y86972D01*
X216779Y76972D02*
X217779D01*
X218779Y77972D01*
X219779Y76972D01*
X220779D01*
Y77972D01*
X219779Y78972D01*
X220779Y79972D01*
Y80972D01*
X219779D01*
X218779Y79972D01*
X217779Y80972D01*
X216779D01*
Y79972D01*
X217779Y78972D01*
X216779Y77972D01*
Y76972D01*
X221779Y66972D02*
X222779D01*
X223780Y67972D01*
X224780Y66972D01*
X225780D01*
Y67972D01*
X224780Y68972D01*
X225780Y69972D01*
Y70972D01*
X224780D01*
X223780Y69972D01*
X222779Y70972D01*
X221779D01*
Y69972D01*
X222779Y68972D01*
X221779Y67972D01*
Y66972D01*
X216779Y56972D02*
X217779D01*
X218779Y57972D01*
X219779Y56972D01*
X220779D01*
Y57972D01*
X219779Y58972D01*
X220779Y59972D01*
Y60972D01*
X219779D01*
X218779Y59972D01*
X217779Y60972D01*
X216779D01*
Y59972D01*
X217779Y58972D01*
X216779Y57972D01*
Y56972D01*
X221779Y46972D02*
X222779D01*
X223780Y47972D01*
X224780Y46972D01*
X225780D01*
Y47972D01*
X224780Y48972D01*
X225780Y49972D01*
Y50972D01*
X224780D01*
X223780Y49972D01*
X222779Y50972D01*
X221779D01*
Y49972D01*
X222779Y48972D01*
X221779Y47972D01*
Y46972D01*
X216779Y36972D02*
X217779D01*
X218779Y37972D01*
X219779Y36972D01*
X220779D01*
Y37972D01*
X219779Y38972D01*
X220779Y39972D01*
Y40972D01*
X219779D01*
X218779Y39972D01*
X217779Y40972D01*
X216779D01*
Y39972D01*
X217779Y38972D01*
X216779Y37972D01*
Y36972D01*
X221779Y26972D02*
X222779D01*
X223780Y27972D01*
X224780Y26972D01*
X225780D01*
Y27972D01*
X224780Y28972D01*
X225780Y29972D01*
Y30972D01*
X224780D01*
X223780Y29972D01*
X222779Y30972D01*
X221779D01*
Y29972D01*
X222779Y28972D01*
X221779Y27972D01*
Y26972D01*
X216779Y16972D02*
X217779D01*
X218779Y17972D01*
X219779Y16972D01*
X220779D01*
Y17972D01*
X219779Y18972D01*
X220779Y19972D01*
Y20972D01*
X219779D01*
X218779Y19972D01*
X217779Y20972D01*
X216779D01*
Y19972D01*
X217779Y18972D01*
X216779Y17972D01*
Y16972D01*
X211779Y366972D02*
X212779D01*
X213779Y367972D01*
X214779Y366972D01*
X215779D01*
Y367972D01*
X214779Y368972D01*
X215779Y369972D01*
Y370972D01*
X214779D01*
X213779Y369972D01*
X212779Y370972D01*
X211779D01*
Y369972D01*
X212779Y368972D01*
X211779Y367972D01*
Y366972D01*
X206780Y356972D02*
X207780D01*
X208780Y357972D01*
X209780Y356972D01*
X210780D01*
Y357972D01*
X209780Y358972D01*
X210780Y359972D01*
Y360972D01*
X209780D01*
X208780Y359972D01*
X207780Y360972D01*
X206780D01*
Y359972D01*
X207780Y358972D01*
X206780Y357972D01*
Y356972D01*
X211779Y346972D02*
X212779D01*
X213779Y347972D01*
X214779Y346972D01*
X215779D01*
Y347972D01*
X214779Y348972D01*
X215779Y349972D01*
Y350972D01*
X214779D01*
X213779Y349972D01*
X212779Y350972D01*
X211779D01*
Y349972D01*
X212779Y348972D01*
X211779Y347972D01*
Y346972D01*
Y326972D02*
X212779D01*
X213779Y327972D01*
X214779Y326972D01*
X215779D01*
Y327972D01*
X214779Y328972D01*
X215779Y329972D01*
Y330972D01*
X214779D01*
X213779Y329972D01*
X212779Y330972D01*
X211779D01*
Y329972D01*
X212779Y328972D01*
X211779Y327972D01*
Y326972D01*
Y306972D02*
X212779D01*
X213779Y307972D01*
X214779Y306972D01*
X215779D01*
Y307972D01*
X214779Y308972D01*
X215779Y309972D01*
Y310972D01*
X214779D01*
X213779Y309972D01*
X212779Y310972D01*
X211779D01*
Y309972D01*
X212779Y308972D01*
X211779Y307972D01*
Y306972D01*
X206780Y136972D02*
X207780D01*
X208780Y137972D01*
X209780Y136972D01*
X210780D01*
Y137972D01*
X209780Y138972D01*
X210780Y139972D01*
Y140972D01*
X209780D01*
X208780Y139972D01*
X207780Y140972D01*
X206780D01*
Y139972D01*
X207780Y138972D01*
X206780Y137972D01*
Y136972D01*
X211779Y126972D02*
X212779D01*
X213779Y127972D01*
X214779Y126972D01*
X215779D01*
Y127972D01*
X214779Y128972D01*
X215779Y129972D01*
Y130972D01*
X214779D01*
X213779Y129972D01*
X212779Y130972D01*
X211779D01*
Y129972D01*
X212779Y128972D01*
X211779Y127972D01*
Y126972D01*
X206780Y116972D02*
X207780D01*
X208780Y117972D01*
X209780Y116972D01*
X210780D01*
Y117972D01*
X209780Y118972D01*
X210780Y119972D01*
Y120972D01*
X209780D01*
X208780Y119972D01*
X207780Y120972D01*
X206780D01*
Y119972D01*
X207780Y118972D01*
X206780Y117972D01*
Y116972D01*
X211779Y106972D02*
X212779D01*
X213779Y107972D01*
X214779Y106972D01*
X215779D01*
Y107972D01*
X214779Y108972D01*
X215779Y109972D01*
Y110972D01*
X214779D01*
X213779Y109972D01*
X212779Y110972D01*
X211779D01*
Y109972D01*
X212779Y108972D01*
X211779Y107972D01*
Y106972D01*
Y86972D02*
X212779D01*
X213779Y87972D01*
X214779Y86972D01*
X215779D01*
Y87972D01*
X214779Y88972D01*
X215779Y89972D01*
Y90972D01*
X214779D01*
X213779Y89972D01*
X212779Y90972D01*
X211779D01*
Y89972D01*
X212779Y88972D01*
X211779Y87972D01*
Y86972D01*
X206780Y76972D02*
X207780D01*
X208780Y77972D01*
X209780Y76972D01*
X210780D01*
Y77972D01*
X209780Y78972D01*
X210780Y79972D01*
Y80972D01*
X209780D01*
X208780Y79972D01*
X207780Y80972D01*
X206780D01*
Y79972D01*
X207780Y78972D01*
X206780Y77972D01*
Y76972D01*
X211779Y66972D02*
X212779D01*
X213779Y67972D01*
X214779Y66972D01*
X215779D01*
Y67972D01*
X214779Y68972D01*
X215779Y69972D01*
Y70972D01*
X214779D01*
X213779Y69972D01*
X212779Y70972D01*
X211779D01*
Y69972D01*
X212779Y68972D01*
X211779Y67972D01*
Y66972D01*
X206780Y56972D02*
X207780D01*
X208780Y57972D01*
X209780Y56972D01*
X210780D01*
Y57972D01*
X209780Y58972D01*
X210780Y59972D01*
Y60972D01*
X209780D01*
X208780Y59972D01*
X207780Y60972D01*
X206780D01*
Y59972D01*
X207780Y58972D01*
X206780Y57972D01*
Y56972D01*
X211779Y46972D02*
X212779D01*
X213779Y47972D01*
X214779Y46972D01*
X215779D01*
Y47972D01*
X214779Y48972D01*
X215779Y49972D01*
Y50972D01*
X214779D01*
X213779Y49972D01*
X212779Y50972D01*
X211779D01*
Y49972D01*
X212779Y48972D01*
X211779Y47972D01*
Y46972D01*
X206780Y36972D02*
X207780D01*
X208780Y37972D01*
X209780Y36972D01*
X210780D01*
Y37972D01*
X209780Y38972D01*
X210780Y39972D01*
Y40972D01*
X209780D01*
X208780Y39972D01*
X207780Y40972D01*
X206780D01*
Y39972D01*
X207780Y38972D01*
X206780Y37972D01*
Y36972D01*
X211779Y26972D02*
X212779D01*
X213779Y27972D01*
X214779Y26972D01*
X215779D01*
Y27972D01*
X214779Y28972D01*
X215779Y29972D01*
Y30972D01*
X214779D01*
X213779Y29972D01*
X212779Y30972D01*
X211779D01*
Y29972D01*
X212779Y28972D01*
X211779Y27972D01*
Y26972D01*
X206780Y16972D02*
X207780D01*
X208780Y17972D01*
X209780Y16972D01*
X210780D01*
Y17972D01*
X209780Y18972D01*
X210780Y19972D01*
Y20972D01*
X209780D01*
X208780Y19972D01*
X207780Y20972D01*
X206780D01*
Y19972D01*
X207780Y18972D01*
X206780Y17972D01*
Y16972D01*
X201780Y366972D02*
X202780D01*
X203780Y367972D01*
X204780Y366972D01*
X205780D01*
Y367972D01*
X204780Y368972D01*
X205780Y369972D01*
Y370972D01*
X204780D01*
X203780Y369972D01*
X202780Y370972D01*
X201780D01*
Y369972D01*
X202780Y368972D01*
X201780Y367972D01*
Y366972D01*
Y346972D02*
X202780D01*
X203780Y347972D01*
X204780Y346972D01*
X205780D01*
Y347972D01*
X204780Y348972D01*
X205780Y349972D01*
Y350972D01*
X204780D01*
X203780Y349972D01*
X202780Y350972D01*
X201780D01*
Y349972D01*
X202780Y348972D01*
X201780Y347972D01*
Y346972D01*
Y326972D02*
X202780D01*
X203780Y327972D01*
X204780Y326972D01*
X205780D01*
Y327972D01*
X204780Y328972D01*
X205780Y329972D01*
Y330972D01*
X204780D01*
X203780Y329972D01*
X202780Y330972D01*
X201780D01*
Y329972D01*
X202780Y328972D01*
X201780Y327972D01*
Y326972D01*
Y306972D02*
X202780D01*
X203780Y307972D01*
X204780Y306972D01*
X205780D01*
Y307972D01*
X204780Y308972D01*
X205780Y309972D01*
Y310972D01*
X204780D01*
X203780Y309972D01*
X202780Y310972D01*
X201780D01*
Y309972D01*
X202780Y308972D01*
X201780Y307972D01*
Y306972D01*
Y266972D02*
X202780D01*
X203780Y267972D01*
X204780Y266972D01*
X205780D01*
Y267972D01*
X204780Y268972D01*
X205780Y269972D01*
Y270972D01*
X204780D01*
X203780Y269972D01*
X202780Y270972D01*
X201780D01*
Y269972D01*
X202780Y268972D01*
X201780Y267972D01*
Y266972D01*
X196780Y136972D02*
X197780D01*
X198779Y137972D01*
X199779Y136972D01*
X200780D01*
Y137972D01*
X199779Y138972D01*
X200780Y139972D01*
Y140972D01*
X199779D01*
X198779Y139972D01*
X197780Y140972D01*
X196780D01*
Y139972D01*
X197780Y138972D01*
X196780Y137972D01*
Y136972D01*
X201780Y126972D02*
X202780D01*
X203780Y127972D01*
X204780Y126972D01*
X205780D01*
Y127972D01*
X204780Y128972D01*
X205780Y129972D01*
Y130972D01*
X204780D01*
X203780Y129972D01*
X202780Y130972D01*
X201780D01*
Y129972D01*
X202780Y128972D01*
X201780Y127972D01*
Y126972D01*
X196780Y116972D02*
X197780D01*
X198779Y117972D01*
X199779Y116972D01*
X200780D01*
Y117972D01*
X199779Y118972D01*
X200780Y119972D01*
Y120972D01*
X199779D01*
X198779Y119972D01*
X197780Y120972D01*
X196780D01*
Y119972D01*
X197780Y118972D01*
X196780Y117972D01*
Y116972D01*
X201780Y106972D02*
X202780D01*
X203780Y107972D01*
X204780Y106972D01*
X205780D01*
Y107972D01*
X204780Y108972D01*
X205780Y109972D01*
Y110972D01*
X204780D01*
X203780Y109972D01*
X202780Y110972D01*
X201780D01*
Y109972D01*
X202780Y108972D01*
X201780Y107972D01*
Y106972D01*
Y86972D02*
X202780D01*
X203780Y87972D01*
X204780Y86972D01*
X205780D01*
Y87972D01*
X204780Y88972D01*
X205780Y89972D01*
Y90972D01*
X204780D01*
X203780Y89972D01*
X202780Y90972D01*
X201780D01*
Y89972D01*
X202780Y88972D01*
X201780Y87972D01*
Y86972D01*
X196780Y76972D02*
X197780D01*
X198779Y77972D01*
X199779Y76972D01*
X200780D01*
Y77972D01*
X199779Y78972D01*
X200780Y79972D01*
Y80972D01*
X199779D01*
X198779Y79972D01*
X197780Y80972D01*
X196780D01*
Y79972D01*
X197780Y78972D01*
X196780Y77972D01*
Y76972D01*
X201780Y66972D02*
X202780D01*
X203780Y67972D01*
X204780Y66972D01*
X205780D01*
Y67972D01*
X204780Y68972D01*
X205780Y69972D01*
Y70972D01*
X204780D01*
X203780Y69972D01*
X202780Y70972D01*
X201780D01*
Y69972D01*
X202780Y68972D01*
X201780Y67972D01*
Y66972D01*
X196780Y56972D02*
X197780D01*
X198779Y57972D01*
X199779Y56972D01*
X200780D01*
Y57972D01*
X199779Y58972D01*
X200780Y59972D01*
Y60972D01*
X199779D01*
X198779Y59972D01*
X197780Y60972D01*
X196780D01*
Y59972D01*
X197780Y58972D01*
X196780Y57972D01*
Y56972D01*
X201780Y46972D02*
X202780D01*
X203780Y47972D01*
X204780Y46972D01*
X205780D01*
Y47972D01*
X204780Y48972D01*
X205780Y49972D01*
Y50972D01*
X204780D01*
X203780Y49972D01*
X202780Y50972D01*
X201780D01*
Y49972D01*
X202780Y48972D01*
X201780Y47972D01*
Y46972D01*
X196780Y36972D02*
X197780D01*
X198779Y37972D01*
X199779Y36972D01*
X200780D01*
Y37972D01*
X199779Y38972D01*
X200780Y39972D01*
Y40972D01*
X199779D01*
X198779Y39972D01*
X197780Y40972D01*
X196780D01*
Y39972D01*
X197780Y38972D01*
X196780Y37972D01*
Y36972D01*
X201780Y26972D02*
X202780D01*
X203780Y27972D01*
X204780Y26972D01*
X205780D01*
Y27972D01*
X204780Y28972D01*
X205780Y29972D01*
Y30972D01*
X204780D01*
X203780Y29972D01*
X202780Y30972D01*
X201780D01*
Y29972D01*
X202780Y28972D01*
X201780Y27972D01*
Y26972D01*
X196780Y16972D02*
X197780D01*
X198779Y17972D01*
X199779Y16972D01*
X200780D01*
Y17972D01*
X199779Y18972D01*
X200780Y19972D01*
Y20972D01*
X199779D01*
X198779Y19972D01*
X197780Y20972D01*
X196780D01*
Y19972D01*
X197780Y18972D01*
X196780Y17972D01*
Y16972D01*
X191779Y366972D02*
X192780D01*
X193780Y367972D01*
X194780Y366972D01*
X195780D01*
Y367972D01*
X194780Y368972D01*
X195780Y369972D01*
Y370972D01*
X194780D01*
X193780Y369972D01*
X192780Y370972D01*
X191779D01*
Y369972D01*
X192780Y368972D01*
X191779Y367972D01*
Y366972D01*
Y346972D02*
X192780D01*
X193780Y347972D01*
X194780Y346972D01*
X195780D01*
Y347972D01*
X194780Y348972D01*
X195780Y349972D01*
Y350972D01*
X194780D01*
X193780Y349972D01*
X192780Y350972D01*
X191779D01*
Y349972D01*
X192780Y348972D01*
X191779Y347972D01*
Y346972D01*
Y326972D02*
X192780D01*
X193780Y327972D01*
X194780Y326972D01*
X195780D01*
Y327972D01*
X194780Y328972D01*
X195780Y329972D01*
Y330972D01*
X194780D01*
X193780Y329972D01*
X192780Y330972D01*
X191779D01*
Y329972D01*
X192780Y328972D01*
X191779Y327972D01*
Y326972D01*
Y306972D02*
X192780D01*
X193780Y307972D01*
X194780Y306972D01*
X195780D01*
Y307972D01*
X194780Y308972D01*
X195780Y309972D01*
Y310972D01*
X194780D01*
X193780Y309972D01*
X192780Y310972D01*
X191779D01*
Y309972D01*
X192780Y308972D01*
X191779Y307972D01*
Y306972D01*
Y286972D02*
X192780D01*
X193780Y287972D01*
X194780Y286972D01*
X195780D01*
Y287972D01*
X194780Y288972D01*
X195780Y289972D01*
Y290972D01*
X194780D01*
X193780Y289972D01*
X192780Y290972D01*
X191779D01*
Y289972D01*
X192780Y288972D01*
X191779Y287972D01*
Y286972D01*
Y266972D02*
X192780D01*
X193780Y267972D01*
X194780Y266972D01*
X195780D01*
Y267972D01*
X194780Y268972D01*
X195780Y269972D01*
Y270972D01*
X194780D01*
X193780Y269972D01*
X192780Y270972D01*
X191779D01*
Y269972D01*
X192780Y268972D01*
X191779Y267972D01*
Y266972D01*
Y166972D02*
X192780D01*
X193780Y167972D01*
X194780Y166972D01*
X195780D01*
Y167972D01*
X194780Y168972D01*
X195780Y169972D01*
Y170972D01*
X194780D01*
X193780Y169972D01*
X192780Y170972D01*
X191779D01*
Y169972D01*
X192780Y168972D01*
X191779Y167972D01*
Y166972D01*
Y146972D02*
X192780D01*
X193780Y147972D01*
X194780Y146972D01*
X195780D01*
Y147972D01*
X194780Y148972D01*
X195780Y149972D01*
Y150972D01*
X194780D01*
X193780Y149972D01*
X192780Y150972D01*
X191779D01*
Y149972D01*
X192780Y148972D01*
X191779Y147972D01*
Y146972D01*
Y126972D02*
X192780D01*
X193780Y127972D01*
X194780Y126972D01*
X195780D01*
Y127972D01*
X194780Y128972D01*
X195780Y129972D01*
Y130972D01*
X194780D01*
X193780Y129972D01*
X192780Y130972D01*
X191779D01*
Y129972D01*
X192780Y128972D01*
X191779Y127972D01*
Y126972D01*
X186779Y116972D02*
X187779D01*
X188779Y117972D01*
X189779Y116972D01*
X190779D01*
Y117972D01*
X189779Y118972D01*
X190779Y119972D01*
Y120972D01*
X189779D01*
X188779Y119972D01*
X187779Y120972D01*
X186779D01*
Y119972D01*
X187779Y118972D01*
X186779Y117972D01*
Y116972D01*
X191779Y106972D02*
X192780D01*
X193780Y107972D01*
X194780Y106972D01*
X195780D01*
Y107972D01*
X194780Y108972D01*
X195780Y109972D01*
Y110972D01*
X194780D01*
X193780Y109972D01*
X192780Y110972D01*
X191779D01*
Y109972D01*
X192780Y108972D01*
X191779Y107972D01*
Y106972D01*
Y86972D02*
X192780D01*
X193780Y87972D01*
X194780Y86972D01*
X195780D01*
Y87972D01*
X194780Y88972D01*
X195780Y89972D01*
Y90972D01*
X194780D01*
X193780Y89972D01*
X192780Y90972D01*
X191779D01*
Y89972D01*
X192780Y88972D01*
X191779Y87972D01*
Y86972D01*
X186779Y76972D02*
X187779D01*
X188779Y77972D01*
X189779Y76972D01*
X190779D01*
Y77972D01*
X189779Y78972D01*
X190779Y79972D01*
Y80972D01*
X189779D01*
X188779Y79972D01*
X187779Y80972D01*
X186779D01*
Y79972D01*
X187779Y78972D01*
X186779Y77972D01*
Y76972D01*
X191779Y66972D02*
X192780D01*
X193780Y67972D01*
X194780Y66972D01*
X195780D01*
Y67972D01*
X194780Y68972D01*
X195780Y69972D01*
Y70972D01*
X194780D01*
X193780Y69972D01*
X192780Y70972D01*
X191779D01*
Y69972D01*
X192780Y68972D01*
X191779Y67972D01*
Y66972D01*
X186779Y56972D02*
X187779D01*
X188779Y57972D01*
X189779Y56972D01*
X190779D01*
Y57972D01*
X189779Y58972D01*
X190779Y59972D01*
Y60972D01*
X189779D01*
X188779Y59972D01*
X187779Y60972D01*
X186779D01*
Y59972D01*
X187779Y58972D01*
X186779Y57972D01*
Y56972D01*
X191779Y46972D02*
X192780D01*
X193780Y47972D01*
X194780Y46972D01*
X195780D01*
Y47972D01*
X194780Y48972D01*
X195780Y49972D01*
Y50972D01*
X194780D01*
X193780Y49972D01*
X192780Y50972D01*
X191779D01*
Y49972D01*
X192780Y48972D01*
X191779Y47972D01*
Y46972D01*
X186779Y36972D02*
X187779D01*
X188779Y37972D01*
X189779Y36972D01*
X190779D01*
Y37972D01*
X189779Y38972D01*
X190779Y39972D01*
Y40972D01*
X189779D01*
X188779Y39972D01*
X187779Y40972D01*
X186779D01*
Y39972D01*
X187779Y38972D01*
X186779Y37972D01*
Y36972D01*
X191779Y26972D02*
X192780D01*
X193780Y27972D01*
X194780Y26972D01*
X195780D01*
Y27972D01*
X194780Y28972D01*
X195780Y29972D01*
Y30972D01*
X194780D01*
X193780Y29972D01*
X192780Y30972D01*
X191779D01*
Y29972D01*
X192780Y28972D01*
X191779Y27972D01*
Y26972D01*
X186779Y16972D02*
X187779D01*
X188779Y17972D01*
X189779Y16972D01*
X190779D01*
Y17972D01*
X189779Y18972D01*
X190779Y19972D01*
Y20972D01*
X189779D01*
X188779Y19972D01*
X187779Y20972D01*
X186779D01*
Y19972D01*
X187779Y18972D01*
X186779Y17972D01*
Y16972D01*
X181780Y346972D02*
X182780D01*
X183780Y347972D01*
X184780Y346972D01*
X185780D01*
Y347972D01*
X184780Y348972D01*
X185780Y349972D01*
Y350972D01*
X184780D01*
X183780Y349972D01*
X182780Y350972D01*
X181780D01*
Y349972D01*
X182780Y348972D01*
X181780Y347972D01*
Y346972D01*
Y326972D02*
X182780D01*
X183780Y327972D01*
X184780Y326972D01*
X185780D01*
Y327972D01*
X184780Y328972D01*
X185780Y329972D01*
Y330972D01*
X184780D01*
X183780Y329972D01*
X182780Y330972D01*
X181780D01*
Y329972D01*
X182780Y328972D01*
X181780Y327972D01*
Y326972D01*
Y306972D02*
X182780D01*
X183780Y307972D01*
X184780Y306972D01*
X185780D01*
Y307972D01*
X184780Y308972D01*
X185780Y309972D01*
Y310972D01*
X184780D01*
X183780Y309972D01*
X182780Y310972D01*
X181780D01*
Y309972D01*
X182780Y308972D01*
X181780Y307972D01*
Y306972D01*
Y286972D02*
X182780D01*
X183780Y287972D01*
X184780Y286972D01*
X185780D01*
Y287972D01*
X184780Y288972D01*
X185780Y289972D01*
Y290972D01*
X184780D01*
X183780Y289972D01*
X182780Y290972D01*
X181780D01*
Y289972D01*
X182780Y288972D01*
X181780Y287972D01*
Y286972D01*
Y266972D02*
X182780D01*
X183780Y267972D01*
X184780Y266972D01*
X185780D01*
Y267972D01*
X184780Y268972D01*
X185780Y269972D01*
Y270972D01*
X184780D01*
X183780Y269972D01*
X182780Y270972D01*
X181780D01*
Y269972D01*
X182780Y268972D01*
X181780Y267972D01*
Y266972D01*
X176779Y136972D02*
X177779D01*
X178779Y137972D01*
X179780Y136972D01*
X180780D01*
Y137972D01*
X179780Y138972D01*
X180780Y139972D01*
Y140972D01*
X179780D01*
X178779Y139972D01*
X177779Y140972D01*
X176779D01*
Y139972D01*
X177779Y138972D01*
X176779Y137972D01*
Y136972D01*
Y116972D02*
X177779D01*
X178779Y117972D01*
X179780Y116972D01*
X180780D01*
Y117972D01*
X179780Y118972D01*
X180780Y119972D01*
Y120972D01*
X179780D01*
X178779Y119972D01*
X177779Y120972D01*
X176779D01*
Y119972D01*
X177779Y118972D01*
X176779Y117972D01*
Y116972D01*
X181780Y106972D02*
X182780D01*
X183780Y107972D01*
X184780Y106972D01*
X185780D01*
Y107972D01*
X184780Y108972D01*
X185780Y109972D01*
Y110972D01*
X184780D01*
X183780Y109972D01*
X182780Y110972D01*
X181780D01*
Y109972D01*
X182780Y108972D01*
X181780Y107972D01*
Y106972D01*
Y86972D02*
X182780D01*
X183780Y87972D01*
X184780Y86972D01*
X185780D01*
Y87972D01*
X184780Y88972D01*
X185780Y89972D01*
Y90972D01*
X184780D01*
X183780Y89972D01*
X182780Y90972D01*
X181780D01*
Y89972D01*
X182780Y88972D01*
X181780Y87972D01*
Y86972D01*
X176779Y76972D02*
X177779D01*
X178779Y77972D01*
X179780Y76972D01*
X180780D01*
Y77972D01*
X179780Y78972D01*
X180780Y79972D01*
Y80972D01*
X179780D01*
X178779Y79972D01*
X177779Y80972D01*
X176779D01*
Y79972D01*
X177779Y78972D01*
X176779Y77972D01*
Y76972D01*
X181780Y66972D02*
X182780D01*
X183780Y67972D01*
X184780Y66972D01*
X185780D01*
Y67972D01*
X184780Y68972D01*
X185780Y69972D01*
Y70972D01*
X184780D01*
X183780Y69972D01*
X182780Y70972D01*
X181780D01*
Y69972D01*
X182780Y68972D01*
X181780Y67972D01*
Y66972D01*
X176779Y56972D02*
X177779D01*
X178779Y57972D01*
X179780Y56972D01*
X180780D01*
Y57972D01*
X179780Y58972D01*
X180780Y59972D01*
Y60972D01*
X179780D01*
X178779Y59972D01*
X177779Y60972D01*
X176779D01*
Y59972D01*
X177779Y58972D01*
X176779Y57972D01*
Y56972D01*
X181780Y46972D02*
X182780D01*
X183780Y47972D01*
X184780Y46972D01*
X185780D01*
Y47972D01*
X184780Y48972D01*
X185780Y49972D01*
Y50972D01*
X184780D01*
X183780Y49972D01*
X182780Y50972D01*
X181780D01*
Y49972D01*
X182780Y48972D01*
X181780Y47972D01*
Y46972D01*
X176779Y36972D02*
X177779D01*
X178779Y37972D01*
X179780Y36972D01*
X180780D01*
Y37972D01*
X179780Y38972D01*
X180780Y39972D01*
Y40972D01*
X179780D01*
X178779Y39972D01*
X177779Y40972D01*
X176779D01*
Y39972D01*
X177779Y38972D01*
X176779Y37972D01*
Y36972D01*
X181780Y26972D02*
X182780D01*
X183780Y27972D01*
X184780Y26972D01*
X185780D01*
Y27972D01*
X184780Y28972D01*
X185780Y29972D01*
Y30972D01*
X184780D01*
X183780Y29972D01*
X182780Y30972D01*
X181780D01*
Y29972D01*
X182780Y28972D01*
X181780Y27972D01*
Y26972D01*
X176779Y16972D02*
X177779D01*
X178779Y17972D01*
X179780Y16972D01*
X180780D01*
Y17972D01*
X179780Y18972D01*
X180780Y19972D01*
Y20972D01*
X179780D01*
X178779Y19972D01*
X177779Y20972D01*
X176779D01*
Y19972D01*
X177779Y18972D01*
X176779Y17972D01*
Y16972D01*
X171780Y326972D02*
X172780D01*
X173779Y327972D01*
X174779Y326972D01*
X175779D01*
Y327972D01*
X174779Y328972D01*
X175779Y329972D01*
Y330972D01*
X174779D01*
X173779Y329972D01*
X172780Y330972D01*
X171780D01*
Y329972D01*
X172780Y328972D01*
X171780Y327972D01*
Y326972D01*
Y306972D02*
X172780D01*
X173779Y307972D01*
X174779Y306972D01*
X175779D01*
Y307972D01*
X174779Y308972D01*
X175779Y309972D01*
Y310972D01*
X174779D01*
X173779Y309972D01*
X172780Y310972D01*
X171780D01*
Y309972D01*
X172780Y308972D01*
X171780Y307972D01*
Y306972D01*
Y286972D02*
X172780D01*
X173779Y287972D01*
X174779Y286972D01*
X175779D01*
Y287972D01*
X174779Y288972D01*
X175779Y289972D01*
Y290972D01*
X174779D01*
X173779Y289972D01*
X172780Y290972D01*
X171780D01*
Y289972D01*
X172780Y288972D01*
X171780Y287972D01*
Y286972D01*
Y266972D02*
X172780D01*
X173779Y267972D01*
X174779Y266972D01*
X175779D01*
Y267972D01*
X174779Y268972D01*
X175779Y269972D01*
Y270972D01*
X174779D01*
X173779Y269972D01*
X172780Y270972D01*
X171780D01*
Y269972D01*
X172780Y268972D01*
X171780Y267972D01*
Y266972D01*
X166779Y196972D02*
X167780D01*
X168780Y197972D01*
X169780Y196972D01*
X170780D01*
Y197972D01*
X169780Y198972D01*
X170780Y199972D01*
Y200972D01*
X169780D01*
X168780Y199972D01*
X167780Y200972D01*
X166779D01*
Y199972D01*
X167780Y198972D01*
X166779Y197972D01*
Y196972D01*
X171780Y146972D02*
X172780D01*
X173779Y147972D01*
X174779Y146972D01*
X175779D01*
Y147972D01*
X174779Y148972D01*
X175779Y149972D01*
Y150972D01*
X174779D01*
X173779Y149972D01*
X172780Y150972D01*
X171780D01*
Y149972D01*
X172780Y148972D01*
X171780Y147972D01*
Y146972D01*
X166779Y136972D02*
X167780D01*
X168780Y137972D01*
X169780Y136972D01*
X170780D01*
Y137972D01*
X169780Y138972D01*
X170780Y139972D01*
Y140972D01*
X169780D01*
X168780Y139972D01*
X167780Y140972D01*
X166779D01*
Y139972D01*
X167780Y138972D01*
X166779Y137972D01*
Y136972D01*
X171780Y126972D02*
X172780D01*
X173779Y127972D01*
X174779Y126972D01*
X175779D01*
Y127972D01*
X174779Y128972D01*
X175779Y129972D01*
Y130972D01*
X174779D01*
X173779Y129972D01*
X172780Y130972D01*
X171780D01*
Y129972D01*
X172780Y128972D01*
X171780Y127972D01*
Y126972D01*
X166779Y116972D02*
X167780D01*
X168780Y117972D01*
X169780Y116972D01*
X170780D01*
Y117972D01*
X169780Y118972D01*
X170780Y119972D01*
Y120972D01*
X169780D01*
X168780Y119972D01*
X167780Y120972D01*
X166779D01*
Y119972D01*
X167780Y118972D01*
X166779Y117972D01*
Y116972D01*
X171780Y106972D02*
X172780D01*
X173779Y107972D01*
X174779Y106972D01*
X175779D01*
Y107972D01*
X174779Y108972D01*
X175779Y109972D01*
Y110972D01*
X174779D01*
X173779Y109972D01*
X172780Y110972D01*
X171780D01*
Y109972D01*
X172780Y108972D01*
X171780Y107972D01*
Y106972D01*
Y86972D02*
X172780D01*
X173779Y87972D01*
X174779Y86972D01*
X175779D01*
Y87972D01*
X174779Y88972D01*
X175779Y89972D01*
Y90972D01*
X174779D01*
X173779Y89972D01*
X172780Y90972D01*
X171780D01*
Y89972D01*
X172780Y88972D01*
X171780Y87972D01*
Y86972D01*
X166779Y76972D02*
X167780D01*
X168780Y77972D01*
X169780Y76972D01*
X170780D01*
Y77972D01*
X169780Y78972D01*
X170780Y79972D01*
Y80972D01*
X169780D01*
X168780Y79972D01*
X167780Y80972D01*
X166779D01*
Y79972D01*
X167780Y78972D01*
X166779Y77972D01*
Y76972D01*
X171780Y66972D02*
X172780D01*
X173779Y67972D01*
X174779Y66972D01*
X175779D01*
Y67972D01*
X174779Y68972D01*
X175779Y69972D01*
Y70972D01*
X174779D01*
X173779Y69972D01*
X172780Y70972D01*
X171780D01*
Y69972D01*
X172780Y68972D01*
X171780Y67972D01*
Y66972D01*
X166779Y56972D02*
X167780D01*
X168780Y57972D01*
X169780Y56972D01*
X170780D01*
Y57972D01*
X169780Y58972D01*
X170780Y59972D01*
Y60972D01*
X169780D01*
X168780Y59972D01*
X167780Y60972D01*
X166779D01*
Y59972D01*
X167780Y58972D01*
X166779Y57972D01*
Y56972D01*
X171780Y46972D02*
X172780D01*
X173779Y47972D01*
X174779Y46972D01*
X175779D01*
Y47972D01*
X174779Y48972D01*
X175779Y49972D01*
Y50972D01*
X174779D01*
X173779Y49972D01*
X172780Y50972D01*
X171780D01*
Y49972D01*
X172780Y48972D01*
X171780Y47972D01*
Y46972D01*
X166779Y36972D02*
X167780D01*
X168780Y37972D01*
X169780Y36972D01*
X170780D01*
Y37972D01*
X169780Y38972D01*
X170780Y39972D01*
Y40972D01*
X169780D01*
X168780Y39972D01*
X167780Y40972D01*
X166779D01*
Y39972D01*
X167780Y38972D01*
X166779Y37972D01*
Y36972D01*
X171780Y26972D02*
X172780D01*
X173779Y27972D01*
X174779Y26972D01*
X175779D01*
Y27972D01*
X174779Y28972D01*
X175779Y29972D01*
Y30972D01*
X174779D01*
X173779Y29972D01*
X172780Y30972D01*
X171780D01*
Y29972D01*
X172780Y28972D01*
X171780Y27972D01*
Y26972D01*
X166779Y16972D02*
X167780D01*
X168780Y17972D01*
X169780Y16972D01*
X170780D01*
Y17972D01*
X169780Y18972D01*
X170780Y19972D01*
Y20972D01*
X169780D01*
X168780Y19972D01*
X167780Y20972D01*
X166779D01*
Y19972D01*
X167780Y18972D01*
X166779Y17972D01*
Y16972D01*
X161779Y346972D02*
X162779D01*
X163779Y347972D01*
X164779Y346972D01*
X165779D01*
Y347972D01*
X164779Y348972D01*
X165779Y349972D01*
Y350972D01*
X164779D01*
X163779Y349972D01*
X162779Y350972D01*
X161779D01*
Y349972D01*
X162779Y348972D01*
X161779Y347972D01*
Y346972D01*
Y326972D02*
X162779D01*
X163779Y327972D01*
X164779Y326972D01*
X165779D01*
Y327972D01*
X164779Y328972D01*
X165779Y329972D01*
Y330972D01*
X164779D01*
X163779Y329972D01*
X162779Y330972D01*
X161779D01*
Y329972D01*
X162779Y328972D01*
X161779Y327972D01*
Y326972D01*
Y306972D02*
X162779D01*
X163779Y307972D01*
X164779Y306972D01*
X165779D01*
Y307972D01*
X164779Y308972D01*
X165779Y309972D01*
Y310972D01*
X164779D01*
X163779Y309972D01*
X162779Y310972D01*
X161779D01*
Y309972D01*
X162779Y308972D01*
X161779Y307972D01*
Y306972D01*
X156780Y296972D02*
X157780D01*
X158780Y297972D01*
X159780Y296972D01*
X160780D01*
Y297972D01*
X159780Y298972D01*
X160780Y299972D01*
Y300972D01*
X159780D01*
X158780Y299972D01*
X157780Y300972D01*
X156780D01*
Y299972D01*
X157780Y298972D01*
X156780Y297972D01*
Y296972D01*
X161779Y286972D02*
X162779D01*
X163779Y287972D01*
X164779Y286972D01*
X165779D01*
Y287972D01*
X164779Y288972D01*
X165779Y289972D01*
Y290972D01*
X164779D01*
X163779Y289972D01*
X162779Y290972D01*
X161779D01*
Y289972D01*
X162779Y288972D01*
X161779Y287972D01*
Y286972D01*
X156780Y196972D02*
X157780D01*
X158780Y197972D01*
X159780Y196972D01*
X160780D01*
Y197972D01*
X159780Y198972D01*
X160780Y199972D01*
Y200972D01*
X159780D01*
X158780Y199972D01*
X157780Y200972D01*
X156780D01*
Y199972D01*
X157780Y198972D01*
X156780Y197972D01*
Y196972D01*
Y176972D02*
X157780D01*
X158780Y177972D01*
X159780Y176972D01*
X160780D01*
Y177972D01*
X159780Y178972D01*
X160780Y179972D01*
Y180972D01*
X159780D01*
X158780Y179972D01*
X157780Y180972D01*
X156780D01*
Y179972D01*
X157780Y178972D01*
X156780Y177972D01*
Y176972D01*
Y136972D02*
X157780D01*
X158780Y137972D01*
X159780Y136972D01*
X160780D01*
Y137972D01*
X159780Y138972D01*
X160780Y139972D01*
Y140972D01*
X159780D01*
X158780Y139972D01*
X157780Y140972D01*
X156780D01*
Y139972D01*
X157780Y138972D01*
X156780Y137972D01*
Y136972D01*
X161779Y126972D02*
X162779D01*
X163779Y127972D01*
X164779Y126972D01*
X165779D01*
Y127972D01*
X164779Y128972D01*
X165779Y129972D01*
Y130972D01*
X164779D01*
X163779Y129972D01*
X162779Y130972D01*
X161779D01*
Y129972D01*
X162779Y128972D01*
X161779Y127972D01*
Y126972D01*
X156780Y116972D02*
X157780D01*
X158780Y117972D01*
X159780Y116972D01*
X160780D01*
Y117972D01*
X159780Y118972D01*
X160780Y119972D01*
Y120972D01*
X159780D01*
X158780Y119972D01*
X157780Y120972D01*
X156780D01*
Y119972D01*
X157780Y118972D01*
X156780Y117972D01*
Y116972D01*
X161779Y106972D02*
X162779D01*
X163779Y107972D01*
X164779Y106972D01*
X165779D01*
Y107972D01*
X164779Y108972D01*
X165779Y109972D01*
Y110972D01*
X164779D01*
X163779Y109972D01*
X162779Y110972D01*
X161779D01*
Y109972D01*
X162779Y108972D01*
X161779Y107972D01*
Y106972D01*
Y86972D02*
X162779D01*
X163779Y87972D01*
X164779Y86972D01*
X165779D01*
Y87972D01*
X164779Y88972D01*
X165779Y89972D01*
Y90972D01*
X164779D01*
X163779Y89972D01*
X162779Y90972D01*
X161779D01*
Y89972D01*
X162779Y88972D01*
X161779Y87972D01*
Y86972D01*
X156780Y76972D02*
X157780D01*
X158780Y77972D01*
X159780Y76972D01*
X160780D01*
Y77972D01*
X159780Y78972D01*
X160780Y79972D01*
Y80972D01*
X159780D01*
X158780Y79972D01*
X157780Y80972D01*
X156780D01*
Y79972D01*
X157780Y78972D01*
X156780Y77972D01*
Y76972D01*
X161779Y66972D02*
X162779D01*
X163779Y67972D01*
X164779Y66972D01*
X165779D01*
Y67972D01*
X164779Y68972D01*
X165779Y69972D01*
Y70972D01*
X164779D01*
X163779Y69972D01*
X162779Y70972D01*
X161779D01*
Y69972D01*
X162779Y68972D01*
X161779Y67972D01*
Y66972D01*
X156780Y56972D02*
X157780D01*
X158780Y57972D01*
X159780Y56972D01*
X160780D01*
Y57972D01*
X159780Y58972D01*
X160780Y59972D01*
Y60972D01*
X159780D01*
X158780Y59972D01*
X157780Y60972D01*
X156780D01*
Y59972D01*
X157780Y58972D01*
X156780Y57972D01*
Y56972D01*
X161779Y46972D02*
X162779D01*
X163779Y47972D01*
X164779Y46972D01*
X165779D01*
Y47972D01*
X164779Y48972D01*
X165779Y49972D01*
Y50972D01*
X164779D01*
X163779Y49972D01*
X162779Y50972D01*
X161779D01*
Y49972D01*
X162779Y48972D01*
X161779Y47972D01*
Y46972D01*
X156780Y36972D02*
X157780D01*
X158780Y37972D01*
X159780Y36972D01*
X160780D01*
Y37972D01*
X159780Y38972D01*
X160780Y39972D01*
Y40972D01*
X159780D01*
X158780Y39972D01*
X157780Y40972D01*
X156780D01*
Y39972D01*
X157780Y38972D01*
X156780Y37972D01*
Y36972D01*
X161779Y26972D02*
X162779D01*
X163779Y27972D01*
X164779Y26972D01*
X165779D01*
Y27972D01*
X164779Y28972D01*
X165779Y29972D01*
Y30972D01*
X164779D01*
X163779Y29972D01*
X162779Y30972D01*
X161779D01*
Y29972D01*
X162779Y28972D01*
X161779Y27972D01*
Y26972D01*
X156780Y16972D02*
X157780D01*
X158780Y17972D01*
X159780Y16972D01*
X160780D01*
Y17972D01*
X159780Y18972D01*
X160780Y19972D01*
Y20972D01*
X159780D01*
X158780Y19972D01*
X157780Y20972D01*
X156780D01*
Y19972D01*
X157780Y18972D01*
X156780Y17972D01*
Y16972D01*
X151779Y366972D02*
X152779D01*
X153779Y367972D01*
X154780Y366972D01*
X155780D01*
Y367972D01*
X154780Y368972D01*
X155780Y369972D01*
Y370972D01*
X154780D01*
X153779Y369972D01*
X152779Y370972D01*
X151779D01*
Y369972D01*
X152779Y368972D01*
X151779Y367972D01*
Y366972D01*
Y306972D02*
X152779D01*
X153779Y307972D01*
X154780Y306972D01*
X155780D01*
Y307972D01*
X154780Y308972D01*
X155780Y309972D01*
Y310972D01*
X154780D01*
X153779Y309972D01*
X152779Y310972D01*
X151779D01*
Y309972D01*
X152779Y308972D01*
X151779Y307972D01*
Y306972D01*
X146780Y296972D02*
X147780D01*
X148779Y297972D01*
X149779Y296972D01*
X150779D01*
Y297972D01*
X149779Y298972D01*
X150779Y299972D01*
Y300972D01*
X149779D01*
X148779Y299972D01*
X147780Y300972D01*
X146780D01*
Y299972D01*
X147780Y298972D01*
X146780Y297972D01*
Y296972D01*
Y276972D02*
X147780D01*
X148779Y277972D01*
X149779Y276972D01*
X150779D01*
Y277972D01*
X149779Y278972D01*
X150779Y279972D01*
Y280972D01*
X149779D01*
X148779Y279972D01*
X147780Y280972D01*
X146780D01*
Y279972D01*
X147780Y278972D01*
X146780Y277972D01*
Y276972D01*
X151779Y266972D02*
X152779D01*
X153779Y267972D01*
X154780Y266972D01*
X155780D01*
Y267972D01*
X154780Y268972D01*
X155780Y269972D01*
Y270972D01*
X154780D01*
X153779Y269972D01*
X152779Y270972D01*
X151779D01*
Y269972D01*
X152779Y268972D01*
X151779Y267972D01*
Y266972D01*
Y226972D02*
X152779D01*
X153779Y227972D01*
X154780Y226972D01*
X155780D01*
Y227972D01*
X154780Y228972D01*
X155780Y229972D01*
Y230972D01*
X154780D01*
X153779Y229972D01*
X152779Y230972D01*
X151779D01*
Y229972D01*
X152779Y228972D01*
X151779Y227972D01*
Y226972D01*
X146780Y216972D02*
X147780D01*
X148779Y217972D01*
X149779Y216972D01*
X150779D01*
Y217972D01*
X149779Y218972D01*
X150779Y219972D01*
Y220972D01*
X149779D01*
X148779Y219972D01*
X147780Y220972D01*
X146780D01*
Y219972D01*
X147780Y218972D01*
X146780Y217972D01*
Y216972D01*
X151779Y206972D02*
X152779D01*
X153779Y207972D01*
X154780Y206972D01*
X155780D01*
Y207972D01*
X154780Y208972D01*
X155780Y209972D01*
Y210972D01*
X154780D01*
X153779Y209972D01*
X152779Y210972D01*
X151779D01*
Y209972D01*
X152779Y208972D01*
X151779Y207972D01*
Y206972D01*
X146780Y176972D02*
X147780D01*
X148779Y177972D01*
X149779Y176972D01*
X150779D01*
Y177972D01*
X149779Y178972D01*
X150779Y179972D01*
Y180972D01*
X149779D01*
X148779Y179972D01*
X147780Y180972D01*
X146780D01*
Y179972D01*
X147780Y178972D01*
X146780Y177972D01*
Y176972D01*
Y136972D02*
X147780D01*
X148779Y137972D01*
X149779Y136972D01*
X150779D01*
Y137972D01*
X149779Y138972D01*
X150779Y139972D01*
Y140972D01*
X149779D01*
X148779Y139972D01*
X147780Y140972D01*
X146780D01*
Y139972D01*
X147780Y138972D01*
X146780Y137972D01*
Y136972D01*
X151779Y126972D02*
X152779D01*
X153779Y127972D01*
X154780Y126972D01*
X155780D01*
Y127972D01*
X154780Y128972D01*
X155780Y129972D01*
Y130972D01*
X154780D01*
X153779Y129972D01*
X152779Y130972D01*
X151779D01*
Y129972D01*
X152779Y128972D01*
X151779Y127972D01*
Y126972D01*
X146780Y116972D02*
X147780D01*
X148779Y117972D01*
X149779Y116972D01*
X150779D01*
Y117972D01*
X149779Y118972D01*
X150779Y119972D01*
Y120972D01*
X149779D01*
X148779Y119972D01*
X147780Y120972D01*
X146780D01*
Y119972D01*
X147780Y118972D01*
X146780Y117972D01*
Y116972D01*
X151779Y106972D02*
X152779D01*
X153779Y107972D01*
X154780Y106972D01*
X155780D01*
Y107972D01*
X154780Y108972D01*
X155780Y109972D01*
Y110972D01*
X154780D01*
X153779Y109972D01*
X152779Y110972D01*
X151779D01*
Y109972D01*
X152779Y108972D01*
X151779Y107972D01*
Y106972D01*
Y86972D02*
X152779D01*
X153779Y87972D01*
X154780Y86972D01*
X155780D01*
Y87972D01*
X154780Y88972D01*
X155780Y89972D01*
Y90972D01*
X154780D01*
X153779Y89972D01*
X152779Y90972D01*
X151779D01*
Y89972D01*
X152779Y88972D01*
X151779Y87972D01*
Y86972D01*
X146780Y76972D02*
X147780D01*
X148779Y77972D01*
X149779Y76972D01*
X150779D01*
Y77972D01*
X149779Y78972D01*
X150779Y79972D01*
Y80972D01*
X149779D01*
X148779Y79972D01*
X147780Y80972D01*
X146780D01*
Y79972D01*
X147780Y78972D01*
X146780Y77972D01*
Y76972D01*
X151779Y66972D02*
X152779D01*
X153779Y67972D01*
X154780Y66972D01*
X155780D01*
Y67972D01*
X154780Y68972D01*
X155780Y69972D01*
Y70972D01*
X154780D01*
X153779Y69972D01*
X152779Y70972D01*
X151779D01*
Y69972D01*
X152779Y68972D01*
X151779Y67972D01*
Y66972D01*
X146780Y56972D02*
X147780D01*
X148779Y57972D01*
X149779Y56972D01*
X150779D01*
Y57972D01*
X149779Y58972D01*
X150779Y59972D01*
Y60972D01*
X149779D01*
X148779Y59972D01*
X147780Y60972D01*
X146780D01*
Y59972D01*
X147780Y58972D01*
X146780Y57972D01*
Y56972D01*
X151779Y46972D02*
X152779D01*
X153779Y47972D01*
X154780Y46972D01*
X155780D01*
Y47972D01*
X154780Y48972D01*
X155780Y49972D01*
Y50972D01*
X154780D01*
X153779Y49972D01*
X152779Y50972D01*
X151779D01*
Y49972D01*
X152779Y48972D01*
X151779Y47972D01*
Y46972D01*
X146780Y36972D02*
X147780D01*
X148779Y37972D01*
X149779Y36972D01*
X150779D01*
Y37972D01*
X149779Y38972D01*
X150779Y39972D01*
Y40972D01*
X149779D01*
X148779Y39972D01*
X147780Y40972D01*
X146780D01*
Y39972D01*
X147780Y38972D01*
X146780Y37972D01*
Y36972D01*
X151779Y26972D02*
X152779D01*
X153779Y27972D01*
X154780Y26972D01*
X155780D01*
Y27972D01*
X154780Y28972D01*
X155780Y29972D01*
Y30972D01*
X154780D01*
X153779Y29972D01*
X152779Y30972D01*
X151779D01*
Y29972D01*
X152779Y28972D01*
X151779Y27972D01*
Y26972D01*
X146780Y16972D02*
X147780D01*
X148779Y17972D01*
X149779Y16972D01*
X150779D01*
Y17972D01*
X149779Y18972D01*
X150779Y19972D01*
Y20972D01*
X149779D01*
X148779Y19972D01*
X147780Y20972D01*
X146780D01*
Y19972D01*
X147780Y18972D01*
X146780Y17972D01*
Y16972D01*
X141779Y366972D02*
X142780D01*
X143780Y367972D01*
X144780Y366972D01*
X145780D01*
Y367972D01*
X144780Y368972D01*
X145780Y369972D01*
Y370972D01*
X144780D01*
X143780Y369972D01*
X142780Y370972D01*
X141779D01*
Y369972D01*
X142780Y368972D01*
X141779Y367972D01*
Y366972D01*
X136779Y296972D02*
X137779D01*
X138779Y297972D01*
X139779Y296972D01*
X140779D01*
Y297972D01*
X139779Y298972D01*
X140779Y299972D01*
Y300972D01*
X139779D01*
X138779Y299972D01*
X137779Y300972D01*
X136779D01*
Y299972D01*
X137779Y298972D01*
X136779Y297972D01*
Y296972D01*
X141779Y286972D02*
X142780D01*
X143780Y287972D01*
X144780Y286972D01*
X145780D01*
Y287972D01*
X144780Y288972D01*
X145780Y289972D01*
Y290972D01*
X144780D01*
X143780Y289972D01*
X142780Y290972D01*
X141779D01*
Y289972D01*
X142780Y288972D01*
X141779Y287972D01*
Y286972D01*
Y226972D02*
X142780D01*
X143780Y227972D01*
X144780Y226972D01*
X145780D01*
Y227972D01*
X144780Y228972D01*
X145780Y229972D01*
Y230972D01*
X144780D01*
X143780Y229972D01*
X142780Y230972D01*
X141779D01*
Y229972D01*
X142780Y228972D01*
X141779Y227972D01*
Y226972D01*
X136779Y216972D02*
X137779D01*
X138779Y217972D01*
X139779Y216972D01*
X140779D01*
Y217972D01*
X139779Y218972D01*
X140779Y219972D01*
Y220972D01*
X139779D01*
X138779Y219972D01*
X137779Y220972D01*
X136779D01*
Y219972D01*
X137779Y218972D01*
X136779Y217972D01*
Y216972D01*
X141779Y166972D02*
X142780D01*
X143780Y167972D01*
X144780Y166972D01*
X145780D01*
Y167972D01*
X144780Y168972D01*
X145780Y169972D01*
Y170972D01*
X144780D01*
X143780Y169972D01*
X142780Y170972D01*
X141779D01*
Y169972D01*
X142780Y168972D01*
X141779Y167972D01*
Y166972D01*
Y126972D02*
X142780D01*
X143780Y127972D01*
X144780Y126972D01*
X145780D01*
Y127972D01*
X144780Y128972D01*
X145780Y129972D01*
Y130972D01*
X144780D01*
X143780Y129972D01*
X142780Y130972D01*
X141779D01*
Y129972D01*
X142780Y128972D01*
X141779Y127972D01*
Y126972D01*
X136779Y116972D02*
X137779D01*
X138779Y117972D01*
X139779Y116972D01*
X140779D01*
Y117972D01*
X139779Y118972D01*
X140779Y119972D01*
Y120972D01*
X139779D01*
X138779Y119972D01*
X137779Y120972D01*
X136779D01*
Y119972D01*
X137779Y118972D01*
X136779Y117972D01*
Y116972D01*
X141779Y106972D02*
X142780D01*
X143780Y107972D01*
X144780Y106972D01*
X145780D01*
Y107972D01*
X144780Y108972D01*
X145780Y109972D01*
Y110972D01*
X144780D01*
X143780Y109972D01*
X142780Y110972D01*
X141779D01*
Y109972D01*
X142780Y108972D01*
X141779Y107972D01*
Y106972D01*
Y86972D02*
X142780D01*
X143780Y87972D01*
X144780Y86972D01*
X145780D01*
Y87972D01*
X144780Y88972D01*
X145780Y89972D01*
Y90972D01*
X144780D01*
X143780Y89972D01*
X142780Y90972D01*
X141779D01*
Y89972D01*
X142780Y88972D01*
X141779Y87972D01*
Y86972D01*
X136779Y76972D02*
X137779D01*
X138779Y77972D01*
X139779Y76972D01*
X140779D01*
Y77972D01*
X139779Y78972D01*
X140779Y79972D01*
Y80972D01*
X139779D01*
X138779Y79972D01*
X137779Y80972D01*
X136779D01*
Y79972D01*
X137779Y78972D01*
X136779Y77972D01*
Y76972D01*
X141779Y66972D02*
X142780D01*
X143780Y67972D01*
X144780Y66972D01*
X145780D01*
Y67972D01*
X144780Y68972D01*
X145780Y69972D01*
Y70972D01*
X144780D01*
X143780Y69972D01*
X142780Y70972D01*
X141779D01*
Y69972D01*
X142780Y68972D01*
X141779Y67972D01*
Y66972D01*
X136779Y56972D02*
X137779D01*
X138779Y57972D01*
X139779Y56972D01*
X140779D01*
Y57972D01*
X139779Y58972D01*
X140779Y59972D01*
Y60972D01*
X139779D01*
X138779Y59972D01*
X137779Y60972D01*
X136779D01*
Y59972D01*
X137779Y58972D01*
X136779Y57972D01*
Y56972D01*
X141779Y46972D02*
X142780D01*
X143780Y47972D01*
X144780Y46972D01*
X145780D01*
Y47972D01*
X144780Y48972D01*
X145780Y49972D01*
Y50972D01*
X144780D01*
X143780Y49972D01*
X142780Y50972D01*
X141779D01*
Y49972D01*
X142780Y48972D01*
X141779Y47972D01*
Y46972D01*
X136779Y36972D02*
X137779D01*
X138779Y37972D01*
X139779Y36972D01*
X140779D01*
Y37972D01*
X139779Y38972D01*
X140779Y39972D01*
Y40972D01*
X139779D01*
X138779Y39972D01*
X137779Y40972D01*
X136779D01*
Y39972D01*
X137779Y38972D01*
X136779Y37972D01*
Y36972D01*
X141779Y26972D02*
X142780D01*
X143780Y27972D01*
X144780Y26972D01*
X145780D01*
Y27972D01*
X144780Y28972D01*
X145780Y29972D01*
Y30972D01*
X144780D01*
X143780Y29972D01*
X142780Y30972D01*
X141779D01*
Y29972D01*
X142780Y28972D01*
X141779Y27972D01*
Y26972D01*
X136779Y16972D02*
X137779D01*
X138779Y17972D01*
X139779Y16972D01*
X140779D01*
Y17972D01*
X139779Y18972D01*
X140779Y19972D01*
Y20972D01*
X139779D01*
X138779Y19972D01*
X137779Y20972D01*
X136779D01*
Y19972D01*
X137779Y18972D01*
X136779Y17972D01*
Y16972D01*
X131780Y366972D02*
X132780D01*
X133780Y367972D01*
X134780Y366972D01*
X135780D01*
Y367972D01*
X134780Y368972D01*
X135780Y369972D01*
Y370972D01*
X134780D01*
X133780Y369972D01*
X132780Y370972D01*
X131780D01*
Y369972D01*
X132780Y368972D01*
X131780Y367972D01*
Y366972D01*
X126779Y356972D02*
X127779D01*
X128779Y357972D01*
X129780Y356972D01*
X130780D01*
Y357972D01*
X129780Y358972D01*
X130780Y359972D01*
Y360972D01*
X129780D01*
X128779Y359972D01*
X127779Y360972D01*
X126779D01*
Y359972D01*
X127779Y358972D01*
X126779Y357972D01*
Y356972D01*
X131780Y306972D02*
X132780D01*
X133780Y307972D01*
X134780Y306972D01*
X135780D01*
Y307972D01*
X134780Y308972D01*
X135780Y309972D01*
Y310972D01*
X134780D01*
X133780Y309972D01*
X132780Y310972D01*
X131780D01*
Y309972D01*
X132780Y308972D01*
X131780Y307972D01*
Y306972D01*
X126779Y296972D02*
X127779D01*
X128779Y297972D01*
X129780Y296972D01*
X130780D01*
Y297972D01*
X129780Y298972D01*
X130780Y299972D01*
Y300972D01*
X129780D01*
X128779Y299972D01*
X127779Y300972D01*
X126779D01*
Y299972D01*
X127779Y298972D01*
X126779Y297972D01*
Y296972D01*
X131780Y286972D02*
X132780D01*
X133780Y287972D01*
X134780Y286972D01*
X135780D01*
Y287972D01*
X134780Y288972D01*
X135780Y289972D01*
Y290972D01*
X134780D01*
X133780Y289972D01*
X132780Y290972D01*
X131780D01*
Y289972D01*
X132780Y288972D01*
X131780Y287972D01*
Y286972D01*
X126779Y276972D02*
X127779D01*
X128779Y277972D01*
X129780Y276972D01*
X130780D01*
Y277972D01*
X129780Y278972D01*
X130780Y279972D01*
Y280972D01*
X129780D01*
X128779Y279972D01*
X127779Y280972D01*
X126779D01*
Y279972D01*
X127779Y278972D01*
X126779Y277972D01*
Y276972D01*
X131780Y246972D02*
X132780D01*
X133780Y247972D01*
X134780Y246972D01*
X135780D01*
Y247972D01*
X134780Y248972D01*
X135780Y249972D01*
Y250972D01*
X134780D01*
X133780Y249972D01*
X132780Y250972D01*
X131780D01*
Y249972D01*
X132780Y248972D01*
X131780Y247972D01*
Y246972D01*
Y206972D02*
X132780D01*
X133780Y207972D01*
X134780Y206972D01*
X135780D01*
Y207972D01*
X134780Y208972D01*
X135780Y209972D01*
Y210972D01*
X134780D01*
X133780Y209972D01*
X132780Y210972D01*
X131780D01*
Y209972D01*
X132780Y208972D01*
X131780Y207972D01*
Y206972D01*
X126779Y196972D02*
X127779D01*
X128779Y197972D01*
X129780Y196972D01*
X130780D01*
Y197972D01*
X129780Y198972D01*
X130780Y199972D01*
Y200972D01*
X129780D01*
X128779Y199972D01*
X127779Y200972D01*
X126779D01*
Y199972D01*
X127779Y198972D01*
X126779Y197972D01*
Y196972D01*
Y176972D02*
X127779D01*
X128779Y177972D01*
X129780Y176972D01*
X130780D01*
Y177972D01*
X129780Y178972D01*
X130780Y179972D01*
Y180972D01*
X129780D01*
X128779Y179972D01*
X127779Y180972D01*
X126779D01*
Y179972D01*
X127779Y178972D01*
X126779Y177972D01*
Y176972D01*
Y116972D02*
X127779D01*
X128779Y117972D01*
X129780Y116972D01*
X130780D01*
Y117972D01*
X129780Y118972D01*
X130780Y119972D01*
Y120972D01*
X129780D01*
X128779Y119972D01*
X127779Y120972D01*
X126779D01*
Y119972D01*
X127779Y118972D01*
X126779Y117972D01*
Y116972D01*
X131780Y106972D02*
X132780D01*
X133780Y107972D01*
X134780Y106972D01*
X135780D01*
Y107972D01*
X134780Y108972D01*
X135780Y109972D01*
Y110972D01*
X134780D01*
X133780Y109972D01*
X132780Y110972D01*
X131780D01*
Y109972D01*
X132780Y108972D01*
X131780Y107972D01*
Y106972D01*
Y86972D02*
X132780D01*
X133780Y87972D01*
X134780Y86972D01*
X135780D01*
Y87972D01*
X134780Y88972D01*
X135780Y89972D01*
Y90972D01*
X134780D01*
X133780Y89972D01*
X132780Y90972D01*
X131780D01*
Y89972D01*
X132780Y88972D01*
X131780Y87972D01*
Y86972D01*
X126779Y76972D02*
X127779D01*
X128779Y77972D01*
X129780Y76972D01*
X130780D01*
Y77972D01*
X129780Y78972D01*
X130780Y79972D01*
Y80972D01*
X129780D01*
X128779Y79972D01*
X127779Y80972D01*
X126779D01*
Y79972D01*
X127779Y78972D01*
X126779Y77972D01*
Y76972D01*
X131780Y66972D02*
X132780D01*
X133780Y67972D01*
X134780Y66972D01*
X135780D01*
Y67972D01*
X134780Y68972D01*
X135780Y69972D01*
Y70972D01*
X134780D01*
X133780Y69972D01*
X132780Y70972D01*
X131780D01*
Y69972D01*
X132780Y68972D01*
X131780Y67972D01*
Y66972D01*
X126779Y56972D02*
X127779D01*
X128779Y57972D01*
X129780Y56972D01*
X130780D01*
Y57972D01*
X129780Y58972D01*
X130780Y59972D01*
Y60972D01*
X129780D01*
X128779Y59972D01*
X127779Y60972D01*
X126779D01*
Y59972D01*
X127779Y58972D01*
X126779Y57972D01*
Y56972D01*
X131780Y46972D02*
X132780D01*
X133780Y47972D01*
X134780Y46972D01*
X135780D01*
Y47972D01*
X134780Y48972D01*
X135780Y49972D01*
Y50972D01*
X134780D01*
X133780Y49972D01*
X132780Y50972D01*
X131780D01*
Y49972D01*
X132780Y48972D01*
X131780Y47972D01*
Y46972D01*
X126779Y36972D02*
X127779D01*
X128779Y37972D01*
X129780Y36972D01*
X130780D01*
Y37972D01*
X129780Y38972D01*
X130780Y39972D01*
Y40972D01*
X129780D01*
X128779Y39972D01*
X127779Y40972D01*
X126779D01*
Y39972D01*
X127779Y38972D01*
X126779Y37972D01*
Y36972D01*
X131780Y26972D02*
X132780D01*
X133780Y27972D01*
X134780Y26972D01*
X135780D01*
Y27972D01*
X134780Y28972D01*
X135780Y29972D01*
Y30972D01*
X134780D01*
X133780Y29972D01*
X132780Y30972D01*
X131780D01*
Y29972D01*
X132780Y28972D01*
X131780Y27972D01*
Y26972D01*
X126779Y16972D02*
X127779D01*
X128779Y17972D01*
X129780Y16972D01*
X130780D01*
Y17972D01*
X129780Y18972D01*
X130780Y19972D01*
Y20972D01*
X129780D01*
X128779Y19972D01*
X127779Y20972D01*
X126779D01*
Y19972D01*
X127779Y18972D01*
X126779Y17972D01*
Y16972D01*
X121780Y366972D02*
X122780D01*
X123779Y367972D01*
X124779Y366972D01*
X125779D01*
Y367972D01*
X124779Y368972D01*
X125779Y369972D01*
Y370972D01*
X124779D01*
X123779Y369972D01*
X122780Y370972D01*
X121780D01*
Y369972D01*
X122780Y368972D01*
X121780Y367972D01*
Y366972D01*
X116779Y356972D02*
X117780D01*
X118780Y357972D01*
X119780Y356972D01*
X120780D01*
Y357972D01*
X119780Y358972D01*
X120780Y359972D01*
Y360972D01*
X119780D01*
X118780Y359972D01*
X117780Y360972D01*
X116779D01*
Y359972D01*
X117780Y358972D01*
X116779Y357972D01*
Y356972D01*
X121780Y306972D02*
X122780D01*
X123779Y307972D01*
X124779Y306972D01*
X125779D01*
Y307972D01*
X124779Y308972D01*
X125779Y309972D01*
Y310972D01*
X124779D01*
X123779Y309972D01*
X122780Y310972D01*
X121780D01*
Y309972D01*
X122780Y308972D01*
X121780Y307972D01*
Y306972D01*
X116779Y296972D02*
X117780D01*
X118780Y297972D01*
X119780Y296972D01*
X120780D01*
Y297972D01*
X119780Y298972D01*
X120780Y299972D01*
Y300972D01*
X119780D01*
X118780Y299972D01*
X117780Y300972D01*
X116779D01*
Y299972D01*
X117780Y298972D01*
X116779Y297972D01*
Y296972D01*
X121780Y286972D02*
X122780D01*
X123779Y287972D01*
X124779Y286972D01*
X125779D01*
Y287972D01*
X124779Y288972D01*
X125779Y289972D01*
Y290972D01*
X124779D01*
X123779Y289972D01*
X122780Y290972D01*
X121780D01*
Y289972D01*
X122780Y288972D01*
X121780Y287972D01*
Y286972D01*
X116779Y276972D02*
X117780D01*
X118780Y277972D01*
X119780Y276972D01*
X120780D01*
Y277972D01*
X119780Y278972D01*
X120780Y279972D01*
Y280972D01*
X119780D01*
X118780Y279972D01*
X117780Y280972D01*
X116779D01*
Y279972D01*
X117780Y278972D01*
X116779Y277972D01*
Y276972D01*
X121780Y266972D02*
X122780D01*
X123779Y267972D01*
X124779Y266972D01*
X125779D01*
Y267972D01*
X124779Y268972D01*
X125779Y269972D01*
Y270972D01*
X124779D01*
X123779Y269972D01*
X122780Y270972D01*
X121780D01*
Y269972D01*
X122780Y268972D01*
X121780Y267972D01*
Y266972D01*
Y246972D02*
X122780D01*
X123779Y247972D01*
X124779Y246972D01*
X125779D01*
Y247972D01*
X124779Y248972D01*
X125779Y249972D01*
Y250972D01*
X124779D01*
X123779Y249972D01*
X122780Y250972D01*
X121780D01*
Y249972D01*
X122780Y248972D01*
X121780Y247972D01*
Y246972D01*
X116779Y176972D02*
X117780D01*
X118780Y177972D01*
X119780Y176972D01*
X120780D01*
Y177972D01*
X119780Y178972D01*
X120780Y179972D01*
Y180972D01*
X119780D01*
X118780Y179972D01*
X117780Y180972D01*
X116779D01*
Y179972D01*
X117780Y178972D01*
X116779Y177972D01*
Y176972D01*
Y116972D02*
X117780D01*
X118780Y117972D01*
X119780Y116972D01*
X120780D01*
Y117972D01*
X119780Y118972D01*
X120780Y119972D01*
Y120972D01*
X119780D01*
X118780Y119972D01*
X117780Y120972D01*
X116779D01*
Y119972D01*
X117780Y118972D01*
X116779Y117972D01*
Y116972D01*
X121780Y106972D02*
X122780D01*
X123779Y107972D01*
X124779Y106972D01*
X125779D01*
Y107972D01*
X124779Y108972D01*
X125779Y109972D01*
Y110972D01*
X124779D01*
X123779Y109972D01*
X122780Y110972D01*
X121780D01*
Y109972D01*
X122780Y108972D01*
X121780Y107972D01*
Y106972D01*
Y86972D02*
X122780D01*
X123779Y87972D01*
X124779Y86972D01*
X125779D01*
Y87972D01*
X124779Y88972D01*
X125779Y89972D01*
Y90972D01*
X124779D01*
X123779Y89972D01*
X122780Y90972D01*
X121780D01*
Y89972D01*
X122780Y88972D01*
X121780Y87972D01*
Y86972D01*
X116779Y76972D02*
X117780D01*
X118780Y77972D01*
X119780Y76972D01*
X120780D01*
Y77972D01*
X119780Y78972D01*
X120780Y79972D01*
Y80972D01*
X119780D01*
X118780Y79972D01*
X117780Y80972D01*
X116779D01*
Y79972D01*
X117780Y78972D01*
X116779Y77972D01*
Y76972D01*
X121780Y66972D02*
X122780D01*
X123779Y67972D01*
X124779Y66972D01*
X125779D01*
Y67972D01*
X124779Y68972D01*
X125779Y69972D01*
Y70972D01*
X124779D01*
X123779Y69972D01*
X122780Y70972D01*
X121780D01*
Y69972D01*
X122780Y68972D01*
X121780Y67972D01*
Y66972D01*
X116779Y56972D02*
X117780D01*
X118780Y57972D01*
X119780Y56972D01*
X120780D01*
Y57972D01*
X119780Y58972D01*
X120780Y59972D01*
Y60972D01*
X119780D01*
X118780Y59972D01*
X117780Y60972D01*
X116779D01*
Y59972D01*
X117780Y58972D01*
X116779Y57972D01*
Y56972D01*
X121780Y46972D02*
X122780D01*
X123779Y47972D01*
X124779Y46972D01*
X125779D01*
Y47972D01*
X124779Y48972D01*
X125779Y49972D01*
Y50972D01*
X124779D01*
X123779Y49972D01*
X122780Y50972D01*
X121780D01*
Y49972D01*
X122780Y48972D01*
X121780Y47972D01*
Y46972D01*
X116779Y36972D02*
X117780D01*
X118780Y37972D01*
X119780Y36972D01*
X120780D01*
Y37972D01*
X119780Y38972D01*
X120780Y39972D01*
Y40972D01*
X119780D01*
X118780Y39972D01*
X117780Y40972D01*
X116779D01*
Y39972D01*
X117780Y38972D01*
X116779Y37972D01*
Y36972D01*
X121780Y26972D02*
X122780D01*
X123779Y27972D01*
X124779Y26972D01*
X125779D01*
Y27972D01*
X124779Y28972D01*
X125779Y29972D01*
Y30972D01*
X124779D01*
X123779Y29972D01*
X122780Y30972D01*
X121780D01*
Y29972D01*
X122780Y28972D01*
X121780Y27972D01*
Y26972D01*
X116779Y16972D02*
X117780D01*
X118780Y17972D01*
X119780Y16972D01*
X120780D01*
Y17972D01*
X119780Y18972D01*
X120780Y19972D01*
Y20972D01*
X119780D01*
X118780Y19972D01*
X117780Y20972D01*
X116779D01*
Y19972D01*
X117780Y18972D01*
X116779Y17972D01*
Y16972D01*
X111779Y366972D02*
X112779D01*
X113779Y367972D01*
X114779Y366972D01*
X115779D01*
Y367972D01*
X114779Y368972D01*
X115779Y369972D01*
Y370972D01*
X114779D01*
X113779Y369972D01*
X112779Y370972D01*
X111779D01*
Y369972D01*
X112779Y368972D01*
X111779Y367972D01*
Y366972D01*
X106780Y356972D02*
X107780D01*
X108780Y357972D01*
X109780Y356972D01*
X110780D01*
Y357972D01*
X109780Y358972D01*
X110780Y359972D01*
Y360972D01*
X109780D01*
X108780Y359972D01*
X107780Y360972D01*
X106780D01*
Y359972D01*
X107780Y358972D01*
X106780Y357972D01*
Y356972D01*
X111779Y326972D02*
X112779D01*
X113779Y327972D01*
X114779Y326972D01*
X115779D01*
Y327972D01*
X114779Y328972D01*
X115779Y329972D01*
Y330972D01*
X114779D01*
X113779Y329972D01*
X112779Y330972D01*
X111779D01*
Y329972D01*
X112779Y328972D01*
X111779Y327972D01*
Y326972D01*
X106780Y276972D02*
X107780D01*
X108780Y277972D01*
X109780Y276972D01*
X110780D01*
Y277972D01*
X109780Y278972D01*
X110780Y279972D01*
Y280972D01*
X109780D01*
X108780Y279972D01*
X107780Y280972D01*
X106780D01*
Y279972D01*
X107780Y278972D01*
X106780Y277972D01*
Y276972D01*
X111779Y266972D02*
X112779D01*
X113779Y267972D01*
X114779Y266972D01*
X115779D01*
Y267972D01*
X114779Y268972D01*
X115779Y269972D01*
Y270972D01*
X114779D01*
X113779Y269972D01*
X112779Y270972D01*
X111779D01*
Y269972D01*
X112779Y268972D01*
X111779Y267972D01*
Y266972D01*
X106780Y256972D02*
X107780D01*
X108780Y257972D01*
X109780Y256972D01*
X110780D01*
Y257972D01*
X109780Y258972D01*
X110780Y259972D01*
Y260972D01*
X109780D01*
X108780Y259972D01*
X107780Y260972D01*
X106780D01*
Y259972D01*
X107780Y258972D01*
X106780Y257972D01*
Y256972D01*
X111779Y146972D02*
X112779D01*
X113779Y147972D01*
X114779Y146972D01*
X115779D01*
Y147972D01*
X114779Y148972D01*
X115779Y149972D01*
Y150972D01*
X114779D01*
X113779Y149972D01*
X112779Y150972D01*
X111779D01*
Y149972D01*
X112779Y148972D01*
X111779Y147972D01*
Y146972D01*
X106780Y116972D02*
X107780D01*
X108780Y117972D01*
X109780Y116972D01*
X110780D01*
Y117972D01*
X109780Y118972D01*
X110780Y119972D01*
Y120972D01*
X109780D01*
X108780Y119972D01*
X107780Y120972D01*
X106780D01*
Y119972D01*
X107780Y118972D01*
X106780Y117972D01*
Y116972D01*
X111779Y106972D02*
X112779D01*
X113779Y107972D01*
X114779Y106972D01*
X115779D01*
Y107972D01*
X114779Y108972D01*
X115779Y109972D01*
Y110972D01*
X114779D01*
X113779Y109972D01*
X112779Y110972D01*
X111779D01*
Y109972D01*
X112779Y108972D01*
X111779Y107972D01*
Y106972D01*
Y86972D02*
X112779D01*
X113779Y87972D01*
X114779Y86972D01*
X115779D01*
Y87972D01*
X114779Y88972D01*
X115779Y89972D01*
Y90972D01*
X114779D01*
X113779Y89972D01*
X112779Y90972D01*
X111779D01*
Y89972D01*
X112779Y88972D01*
X111779Y87972D01*
Y86972D01*
X106780Y76972D02*
X107780D01*
X108780Y77972D01*
X109780Y76972D01*
X110780D01*
Y77972D01*
X109780Y78972D01*
X110780Y79972D01*
Y80972D01*
X109780D01*
X108780Y79972D01*
X107780Y80972D01*
X106780D01*
Y79972D01*
X107780Y78972D01*
X106780Y77972D01*
Y76972D01*
X111779Y66972D02*
X112779D01*
X113779Y67972D01*
X114779Y66972D01*
X115779D01*
Y67972D01*
X114779Y68972D01*
X115779Y69972D01*
Y70972D01*
X114779D01*
X113779Y69972D01*
X112779Y70972D01*
X111779D01*
Y69972D01*
X112779Y68972D01*
X111779Y67972D01*
Y66972D01*
X106780Y56972D02*
X107780D01*
X108780Y57972D01*
X109780Y56972D01*
X110780D01*
Y57972D01*
X109780Y58972D01*
X110780Y59972D01*
Y60972D01*
X109780D01*
X108780Y59972D01*
X107780Y60972D01*
X106780D01*
Y59972D01*
X107780Y58972D01*
X106780Y57972D01*
Y56972D01*
X111779Y46972D02*
X112779D01*
X113779Y47972D01*
X114779Y46972D01*
X115779D01*
Y47972D01*
X114779Y48972D01*
X115779Y49972D01*
Y50972D01*
X114779D01*
X113779Y49972D01*
X112779Y50972D01*
X111779D01*
Y49972D01*
X112779Y48972D01*
X111779Y47972D01*
Y46972D01*
X106780Y36972D02*
X107780D01*
X108780Y37972D01*
X109780Y36972D01*
X110780D01*
Y37972D01*
X109780Y38972D01*
X110780Y39972D01*
Y40972D01*
X109780D01*
X108780Y39972D01*
X107780Y40972D01*
X106780D01*
Y39972D01*
X107780Y38972D01*
X106780Y37972D01*
Y36972D01*
X111779Y26972D02*
X112779D01*
X113779Y27972D01*
X114779Y26972D01*
X115779D01*
Y27972D01*
X114779Y28972D01*
X115779Y29972D01*
Y30972D01*
X114779D01*
X113779Y29972D01*
X112779Y30972D01*
X111779D01*
Y29972D01*
X112779Y28972D01*
X111779Y27972D01*
Y26972D01*
X106780Y16972D02*
X107780D01*
X108780Y17972D01*
X109780Y16972D01*
X110780D01*
Y17972D01*
X109780Y18972D01*
X110780Y19972D01*
Y20972D01*
X109780D01*
X108780Y19972D01*
X107780Y20972D01*
X106780D01*
Y19972D01*
X107780Y18972D01*
X106780Y17972D01*
Y16972D01*
X101779Y366972D02*
X102779D01*
X103779Y367972D01*
X104780Y366972D01*
X105780D01*
Y367972D01*
X104780Y368972D01*
X105780Y369972D01*
Y370972D01*
X104780D01*
X103779Y369972D01*
X102779Y370972D01*
X101779D01*
Y369972D01*
X102779Y368972D01*
X101779Y367972D01*
Y366972D01*
X96780Y356972D02*
X97780D01*
X98779Y357972D01*
X99779Y356972D01*
X100779D01*
Y357972D01*
X99779Y358972D01*
X100779Y359972D01*
Y360972D01*
X99779D01*
X98779Y359972D01*
X97780Y360972D01*
X96780D01*
Y359972D01*
X97780Y358972D01*
X96780Y357972D01*
Y356972D01*
Y336972D02*
X97780D01*
X98779Y337972D01*
X99779Y336972D01*
X100779D01*
Y337972D01*
X99779Y338972D01*
X100779Y339972D01*
Y340972D01*
X99779D01*
X98779Y339972D01*
X97780Y340972D01*
X96780D01*
Y339972D01*
X97780Y338972D01*
X96780Y337972D01*
Y336972D01*
X101779Y326972D02*
X102779D01*
X103779Y327972D01*
X104780Y326972D01*
X105780D01*
Y327972D01*
X104780Y328972D01*
X105780Y329972D01*
Y330972D01*
X104780D01*
X103779Y329972D01*
X102779Y330972D01*
X101779D01*
Y329972D01*
X102779Y328972D01*
X101779Y327972D01*
Y326972D01*
X96780Y316972D02*
X97780D01*
X98779Y317972D01*
X99779Y316972D01*
X100779D01*
Y317972D01*
X99779Y318972D01*
X100779Y319972D01*
Y320972D01*
X99779D01*
X98779Y319972D01*
X97780Y320972D01*
X96780D01*
Y319972D01*
X97780Y318972D01*
X96780Y317972D01*
Y316972D01*
X101779Y266972D02*
X102779D01*
X103779Y267972D01*
X104780Y266972D01*
X105780D01*
Y267972D01*
X104780Y268972D01*
X105780Y269972D01*
Y270972D01*
X104780D01*
X103779Y269972D01*
X102779Y270972D01*
X101779D01*
Y269972D01*
X102779Y268972D01*
X101779Y267972D01*
Y266972D01*
X96780Y256972D02*
X97780D01*
X98779Y257972D01*
X99779Y256972D01*
X100779D01*
Y257972D01*
X99779Y258972D01*
X100779Y259972D01*
Y260972D01*
X99779D01*
X98779Y259972D01*
X97780Y260972D01*
X96780D01*
Y259972D01*
X97780Y258972D01*
X96780Y257972D01*
Y256972D01*
Y156972D02*
X97780D01*
X98779Y157972D01*
X99779Y156972D01*
X100779D01*
Y157972D01*
X99779Y158972D01*
X100779Y159972D01*
Y160972D01*
X99779D01*
X98779Y159972D01*
X97780Y160972D01*
X96780D01*
Y159972D01*
X97780Y158972D01*
X96780Y157972D01*
Y156972D01*
Y116972D02*
X97780D01*
X98779Y117972D01*
X99779Y116972D01*
X100779D01*
Y117972D01*
X99779Y118972D01*
X100779Y119972D01*
Y120972D01*
X99779D01*
X98779Y119972D01*
X97780Y120972D01*
X96780D01*
Y119972D01*
X97780Y118972D01*
X96780Y117972D01*
Y116972D01*
X101779Y106972D02*
X102779D01*
X103779Y107972D01*
X104780Y106972D01*
X105780D01*
Y107972D01*
X104780Y108972D01*
X105780Y109972D01*
Y110972D01*
X104780D01*
X103779Y109972D01*
X102779Y110972D01*
X101779D01*
Y109972D01*
X102779Y108972D01*
X101779Y107972D01*
Y106972D01*
Y86972D02*
X102779D01*
X103779Y87972D01*
X104780Y86972D01*
X105780D01*
Y87972D01*
X104780Y88972D01*
X105780Y89972D01*
Y90972D01*
X104780D01*
X103779Y89972D01*
X102779Y90972D01*
X101779D01*
Y89972D01*
X102779Y88972D01*
X101779Y87972D01*
Y86972D01*
X96780Y76972D02*
X97780D01*
X98779Y77972D01*
X99779Y76972D01*
X100779D01*
Y77972D01*
X99779Y78972D01*
X100779Y79972D01*
Y80972D01*
X99779D01*
X98779Y79972D01*
X97780Y80972D01*
X96780D01*
Y79972D01*
X97780Y78972D01*
X96780Y77972D01*
Y76972D01*
X101779Y66972D02*
X102779D01*
X103779Y67972D01*
X104780Y66972D01*
X105780D01*
Y67972D01*
X104780Y68972D01*
X105780Y69972D01*
Y70972D01*
X104780D01*
X103779Y69972D01*
X102779Y70972D01*
X101779D01*
Y69972D01*
X102779Y68972D01*
X101779Y67972D01*
Y66972D01*
X96780Y56972D02*
X97780D01*
X98779Y57972D01*
X99779Y56972D01*
X100779D01*
Y57972D01*
X99779Y58972D01*
X100779Y59972D01*
Y60972D01*
X99779D01*
X98779Y59972D01*
X97780Y60972D01*
X96780D01*
Y59972D01*
X97780Y58972D01*
X96780Y57972D01*
Y56972D01*
X101779Y46972D02*
X102779D01*
X103779Y47972D01*
X104780Y46972D01*
X105780D01*
Y47972D01*
X104780Y48972D01*
X105780Y49972D01*
Y50972D01*
X104780D01*
X103779Y49972D01*
X102779Y50972D01*
X101779D01*
Y49972D01*
X102779Y48972D01*
X101779Y47972D01*
Y46972D01*
X96780Y36972D02*
X97780D01*
X98779Y37972D01*
X99779Y36972D01*
X100779D01*
Y37972D01*
X99779Y38972D01*
X100779Y39972D01*
Y40972D01*
X99779D01*
X98779Y39972D01*
X97780Y40972D01*
X96780D01*
Y39972D01*
X97780Y38972D01*
X96780Y37972D01*
Y36972D01*
X101779Y26972D02*
X102779D01*
X103779Y27972D01*
X104780Y26972D01*
X105780D01*
Y27972D01*
X104780Y28972D01*
X105780Y29972D01*
Y30972D01*
X104780D01*
X103779Y29972D01*
X102779Y30972D01*
X101779D01*
Y29972D01*
X102779Y28972D01*
X101779Y27972D01*
Y26972D01*
X96780Y16972D02*
X97780D01*
X98779Y17972D01*
X99779Y16972D01*
X100779D01*
Y17972D01*
X99779Y18972D01*
X100779Y19972D01*
Y20972D01*
X99779D01*
X98779Y19972D01*
X97780Y20972D01*
X96780D01*
Y19972D01*
X97780Y18972D01*
X96780Y17972D01*
Y16972D01*
X91780Y366972D02*
X92779D01*
X93779Y367972D01*
X94779Y366972D01*
X95780D01*
Y367972D01*
X94779Y368972D01*
X95780Y369972D01*
Y370972D01*
X94779D01*
X93779Y369972D01*
X92779Y370972D01*
X91780D01*
Y369972D01*
X92779Y368972D01*
X91780Y367972D01*
Y366972D01*
X86779Y356972D02*
X87779D01*
X88779Y357972D01*
X89780Y356972D01*
X90780D01*
Y357972D01*
X89780Y358972D01*
X90780Y359972D01*
Y360972D01*
X89780D01*
X88779Y359972D01*
X87779Y360972D01*
X86779D01*
Y359972D01*
X87779Y358972D01*
X86779Y357972D01*
Y356972D01*
X91780Y326972D02*
X92779D01*
X93779Y327972D01*
X94779Y326972D01*
X95780D01*
Y327972D01*
X94779Y328972D01*
X95780Y329972D01*
Y330972D01*
X94779D01*
X93779Y329972D01*
X92779Y330972D01*
X91780D01*
Y329972D01*
X92779Y328972D01*
X91780Y327972D01*
Y326972D01*
Y306972D02*
X92779D01*
X93779Y307972D01*
X94779Y306972D01*
X95780D01*
Y307972D01*
X94779Y308972D01*
X95780Y309972D01*
Y310972D01*
X94779D01*
X93779Y309972D01*
X92779Y310972D01*
X91780D01*
Y309972D01*
X92779Y308972D01*
X91780Y307972D01*
Y306972D01*
Y146972D02*
X92779D01*
X93779Y147972D01*
X94779Y146972D01*
X95780D01*
Y147972D01*
X94779Y148972D01*
X95780Y149972D01*
Y150972D01*
X94779D01*
X93779Y149972D01*
X92779Y150972D01*
X91780D01*
Y149972D01*
X92779Y148972D01*
X91780Y147972D01*
Y146972D01*
X86779Y136972D02*
X87779D01*
X88779Y137972D01*
X89780Y136972D01*
X90780D01*
Y137972D01*
X89780Y138972D01*
X90780Y139972D01*
Y140972D01*
X89780D01*
X88779Y139972D01*
X87779Y140972D01*
X86779D01*
Y139972D01*
X87779Y138972D01*
X86779Y137972D01*
Y136972D01*
Y116972D02*
X87779D01*
X88779Y117972D01*
X89780Y116972D01*
X90780D01*
Y117972D01*
X89780Y118972D01*
X90780Y119972D01*
Y120972D01*
X89780D01*
X88779Y119972D01*
X87779Y120972D01*
X86779D01*
Y119972D01*
X87779Y118972D01*
X86779Y117972D01*
Y116972D01*
X91780Y106972D02*
X92779D01*
X93779Y107972D01*
X94779Y106972D01*
X95780D01*
Y107972D01*
X94779Y108972D01*
X95780Y109972D01*
Y110972D01*
X94779D01*
X93779Y109972D01*
X92779Y110972D01*
X91780D01*
Y109972D01*
X92779Y108972D01*
X91780Y107972D01*
Y106972D01*
Y86972D02*
X92779D01*
X93779Y87972D01*
X94779Y86972D01*
X95780D01*
Y87972D01*
X94779Y88972D01*
X95780Y89972D01*
Y90972D01*
X94779D01*
X93779Y89972D01*
X92779Y90972D01*
X91780D01*
Y89972D01*
X92779Y88972D01*
X91780Y87972D01*
Y86972D01*
X86779Y76972D02*
X87779D01*
X88779Y77972D01*
X89780Y76972D01*
X90780D01*
Y77972D01*
X89780Y78972D01*
X90780Y79972D01*
Y80972D01*
X89780D01*
X88779Y79972D01*
X87779Y80972D01*
X86779D01*
Y79972D01*
X87779Y78972D01*
X86779Y77972D01*
Y76972D01*
X91780Y66972D02*
X92779D01*
X93779Y67972D01*
X94779Y66972D01*
X95780D01*
Y67972D01*
X94779Y68972D01*
X95780Y69972D01*
Y70972D01*
X94779D01*
X93779Y69972D01*
X92779Y70972D01*
X91780D01*
Y69972D01*
X92779Y68972D01*
X91780Y67972D01*
Y66972D01*
X86779Y56972D02*
X87779D01*
X88779Y57972D01*
X89780Y56972D01*
X90780D01*
Y57972D01*
X89780Y58972D01*
X90780Y59972D01*
Y60972D01*
X89780D01*
X88779Y59972D01*
X87779Y60972D01*
X86779D01*
Y59972D01*
X87779Y58972D01*
X86779Y57972D01*
Y56972D01*
X91780Y46972D02*
X92779D01*
X93779Y47972D01*
X94779Y46972D01*
X95780D01*
Y47972D01*
X94779Y48972D01*
X95780Y49972D01*
Y50972D01*
X94779D01*
X93779Y49972D01*
X92779Y50972D01*
X91780D01*
Y49972D01*
X92779Y48972D01*
X91780Y47972D01*
Y46972D01*
X86779Y36972D02*
X87779D01*
X88779Y37972D01*
X89780Y36972D01*
X90780D01*
Y37972D01*
X89780Y38972D01*
X90780Y39972D01*
Y40972D01*
X89780D01*
X88779Y39972D01*
X87779Y40972D01*
X86779D01*
Y39972D01*
X87779Y38972D01*
X86779Y37972D01*
Y36972D01*
X91780Y26972D02*
X92779D01*
X93779Y27972D01*
X94779Y26972D01*
X95780D01*
Y27972D01*
X94779Y28972D01*
X95780Y29972D01*
Y30972D01*
X94779D01*
X93779Y29972D01*
X92779Y30972D01*
X91780D01*
Y29972D01*
X92779Y28972D01*
X91780Y27972D01*
Y26972D01*
X86779Y16972D02*
X87779D01*
X88779Y17972D01*
X89780Y16972D01*
X90780D01*
Y17972D01*
X89780Y18972D01*
X90780Y19972D01*
Y20972D01*
X89780D01*
X88779Y19972D01*
X87779Y20972D01*
X86779D01*
Y19972D01*
X87779Y18972D01*
X86779Y17972D01*
Y16972D01*
X81779Y366972D02*
X82780D01*
X83780Y367972D01*
X84780Y366972D01*
X85780D01*
Y367972D01*
X84780Y368972D01*
X85780Y369972D01*
Y370972D01*
X84780D01*
X83780Y369972D01*
X82780Y370972D01*
X81779D01*
Y369972D01*
X82780Y368972D01*
X81779Y367972D01*
Y366972D01*
X76780Y356972D02*
X77780D01*
X78780Y357972D01*
X79779Y356972D01*
X80779D01*
Y357972D01*
X79779Y358972D01*
X80779Y359972D01*
Y360972D01*
X79779D01*
X78780Y359972D01*
X77780Y360972D01*
X76780D01*
Y359972D01*
X77780Y358972D01*
X76780Y357972D01*
Y356972D01*
Y336972D02*
X77780D01*
X78780Y337972D01*
X79779Y336972D01*
X80779D01*
Y337972D01*
X79779Y338972D01*
X80779Y339972D01*
Y340972D01*
X79779D01*
X78780Y339972D01*
X77780Y340972D01*
X76780D01*
Y339972D01*
X77780Y338972D01*
X76780Y337972D01*
Y336972D01*
X81779Y326972D02*
X82780D01*
X83780Y327972D01*
X84780Y326972D01*
X85780D01*
Y327972D01*
X84780Y328972D01*
X85780Y329972D01*
Y330972D01*
X84780D01*
X83780Y329972D01*
X82780Y330972D01*
X81779D01*
Y329972D01*
X82780Y328972D01*
X81779Y327972D01*
Y326972D01*
X76780Y136972D02*
X77780D01*
X78780Y137972D01*
X79779Y136972D01*
X80779D01*
Y137972D01*
X79779Y138972D01*
X80779Y139972D01*
Y140972D01*
X79779D01*
X78780Y139972D01*
X77780Y140972D01*
X76780D01*
Y139972D01*
X77780Y138972D01*
X76780Y137972D01*
Y136972D01*
Y116972D02*
X77780D01*
X78780Y117972D01*
X79779Y116972D01*
X80779D01*
Y117972D01*
X79779Y118972D01*
X80779Y119972D01*
Y120972D01*
X79779D01*
X78780Y119972D01*
X77780Y120972D01*
X76780D01*
Y119972D01*
X77780Y118972D01*
X76780Y117972D01*
Y116972D01*
X81779Y106972D02*
X82780D01*
X83780Y107972D01*
X84780Y106972D01*
X85780D01*
Y107972D01*
X84780Y108972D01*
X85780Y109972D01*
Y110972D01*
X84780D01*
X83780Y109972D01*
X82780Y110972D01*
X81779D01*
Y109972D01*
X82780Y108972D01*
X81779Y107972D01*
Y106972D01*
Y86972D02*
X82780D01*
X83780Y87972D01*
X84780Y86972D01*
X85780D01*
Y87972D01*
X84780Y88972D01*
X85780Y89972D01*
Y90972D01*
X84780D01*
X83780Y89972D01*
X82780Y90972D01*
X81779D01*
Y89972D01*
X82780Y88972D01*
X81779Y87972D01*
Y86972D01*
X76780Y76972D02*
X77780D01*
X78780Y77972D01*
X79779Y76972D01*
X80779D01*
Y77972D01*
X79779Y78972D01*
X80779Y79972D01*
Y80972D01*
X79779D01*
X78780Y79972D01*
X77780Y80972D01*
X76780D01*
Y79972D01*
X77780Y78972D01*
X76780Y77972D01*
Y76972D01*
X81779Y66972D02*
X82780D01*
X83780Y67972D01*
X84780Y66972D01*
X85780D01*
Y67972D01*
X84780Y68972D01*
X85780Y69972D01*
Y70972D01*
X84780D01*
X83780Y69972D01*
X82780Y70972D01*
X81779D01*
Y69972D01*
X82780Y68972D01*
X81779Y67972D01*
Y66972D01*
X76780Y56972D02*
X77780D01*
X78780Y57972D01*
X79779Y56972D01*
X80779D01*
Y57972D01*
X79779Y58972D01*
X80779Y59972D01*
Y60972D01*
X79779D01*
X78780Y59972D01*
X77780Y60972D01*
X76780D01*
Y59972D01*
X77780Y58972D01*
X76780Y57972D01*
Y56972D01*
X81779Y46972D02*
X82780D01*
X83780Y47972D01*
X84780Y46972D01*
X85780D01*
Y47972D01*
X84780Y48972D01*
X85780Y49972D01*
Y50972D01*
X84780D01*
X83780Y49972D01*
X82780Y50972D01*
X81779D01*
Y49972D01*
X82780Y48972D01*
X81779Y47972D01*
Y46972D01*
X76780Y36972D02*
X77780D01*
X78780Y37972D01*
X79779Y36972D01*
X80779D01*
Y37972D01*
X79779Y38972D01*
X80779Y39972D01*
Y40972D01*
X79779D01*
X78780Y39972D01*
X77780Y40972D01*
X76780D01*
Y39972D01*
X77780Y38972D01*
X76780Y37972D01*
Y36972D01*
X81779Y26972D02*
X82780D01*
X83780Y27972D01*
X84780Y26972D01*
X85780D01*
Y27972D01*
X84780Y28972D01*
X85780Y29972D01*
Y30972D01*
X84780D01*
X83780Y29972D01*
X82780Y30972D01*
X81779D01*
Y29972D01*
X82780Y28972D01*
X81779Y27972D01*
Y26972D01*
X76780Y16972D02*
X77780D01*
X78780Y17972D01*
X79779Y16972D01*
X80779D01*
Y17972D01*
X79779Y18972D01*
X80779Y19972D01*
Y20972D01*
X79779D01*
X78780Y19972D01*
X77780Y20972D01*
X76780D01*
Y19972D01*
X77780Y18972D01*
X76780Y17972D01*
Y16972D01*
X71780Y366972D02*
X72780D01*
X73779Y367972D01*
X74779Y366972D01*
X75779D01*
Y367972D01*
X74779Y368972D01*
X75779Y369972D01*
Y370972D01*
X74779D01*
X73779Y369972D01*
X72780Y370972D01*
X71780D01*
Y369972D01*
X72780Y368972D01*
X71780Y367972D01*
Y366972D01*
X66780Y356972D02*
X67779D01*
X68779Y357972D01*
X69779Y356972D01*
X70780D01*
Y357972D01*
X69779Y358972D01*
X70780Y359972D01*
Y360972D01*
X69779D01*
X68779Y359972D01*
X67779Y360972D01*
X66780D01*
Y359972D01*
X67779Y358972D01*
X66780Y357972D01*
Y356972D01*
X71780Y326972D02*
X72780D01*
X73779Y327972D01*
X74779Y326972D01*
X75779D01*
Y327972D01*
X74779Y328972D01*
X75779Y329972D01*
Y330972D01*
X74779D01*
X73779Y329972D01*
X72780Y330972D01*
X71780D01*
Y329972D01*
X72780Y328972D01*
X71780Y327972D01*
Y326972D01*
Y286972D02*
X72780D01*
X73779Y287972D01*
X74779Y286972D01*
X75779D01*
Y287972D01*
X74779Y288972D01*
X75779Y289972D01*
Y290972D01*
X74779D01*
X73779Y289972D01*
X72780Y290972D01*
X71780D01*
Y289972D01*
X72780Y288972D01*
X71780Y287972D01*
Y286972D01*
Y226972D02*
X72780D01*
X73779Y227972D01*
X74779Y226972D01*
X75779D01*
Y227972D01*
X74779Y228972D01*
X75779Y229972D01*
Y230972D01*
X74779D01*
X73779Y229972D01*
X72780Y230972D01*
X71780D01*
Y229972D01*
X72780Y228972D01*
X71780Y227972D01*
Y226972D01*
X66780Y136972D02*
X67779D01*
X68779Y137972D01*
X69779Y136972D01*
X70780D01*
Y137972D01*
X69779Y138972D01*
X70780Y139972D01*
Y140972D01*
X69779D01*
X68779Y139972D01*
X67779Y140972D01*
X66780D01*
Y139972D01*
X67779Y138972D01*
X66780Y137972D01*
Y136972D01*
Y116972D02*
X67779D01*
X68779Y117972D01*
X69779Y116972D01*
X70780D01*
Y117972D01*
X69779Y118972D01*
X70780Y119972D01*
Y120972D01*
X69779D01*
X68779Y119972D01*
X67779Y120972D01*
X66780D01*
Y119972D01*
X67779Y118972D01*
X66780Y117972D01*
Y116972D01*
X71780Y106972D02*
X72780D01*
X73779Y107972D01*
X74779Y106972D01*
X75779D01*
Y107972D01*
X74779Y108972D01*
X75779Y109972D01*
Y110972D01*
X74779D01*
X73779Y109972D01*
X72780Y110972D01*
X71780D01*
Y109972D01*
X72780Y108972D01*
X71780Y107972D01*
Y106972D01*
Y86972D02*
X72780D01*
X73779Y87972D01*
X74779Y86972D01*
X75779D01*
Y87972D01*
X74779Y88972D01*
X75779Y89972D01*
Y90972D01*
X74779D01*
X73779Y89972D01*
X72780Y90972D01*
X71780D01*
Y89972D01*
X72780Y88972D01*
X71780Y87972D01*
Y86972D01*
X66780Y76972D02*
X67779D01*
X68779Y77972D01*
X69779Y76972D01*
X70780D01*
Y77972D01*
X69779Y78972D01*
X70780Y79972D01*
Y80972D01*
X69779D01*
X68779Y79972D01*
X67779Y80972D01*
X66780D01*
Y79972D01*
X67779Y78972D01*
X66780Y77972D01*
Y76972D01*
X71780Y66972D02*
X72780D01*
X73779Y67972D01*
X74779Y66972D01*
X75779D01*
Y67972D01*
X74779Y68972D01*
X75779Y69972D01*
Y70972D01*
X74779D01*
X73779Y69972D01*
X72780Y70972D01*
X71780D01*
Y69972D01*
X72780Y68972D01*
X71780Y67972D01*
Y66972D01*
X66780Y56972D02*
X67779D01*
X68779Y57972D01*
X69779Y56972D01*
X70780D01*
Y57972D01*
X69779Y58972D01*
X70780Y59972D01*
Y60972D01*
X69779D01*
X68779Y59972D01*
X67779Y60972D01*
X66780D01*
Y59972D01*
X67779Y58972D01*
X66780Y57972D01*
Y56972D01*
X71780Y46972D02*
X72780D01*
X73779Y47972D01*
X74779Y46972D01*
X75779D01*
Y47972D01*
X74779Y48972D01*
X75779Y49972D01*
Y50972D01*
X74779D01*
X73779Y49972D01*
X72780Y50972D01*
X71780D01*
Y49972D01*
X72780Y48972D01*
X71780Y47972D01*
Y46972D01*
X66780Y36972D02*
X67779D01*
X68779Y37972D01*
X69779Y36972D01*
X70780D01*
Y37972D01*
X69779Y38972D01*
X70780Y39972D01*
Y40972D01*
X69779D01*
X68779Y39972D01*
X67779Y40972D01*
X66780D01*
Y39972D01*
X67779Y38972D01*
X66780Y37972D01*
Y36972D01*
X71780Y26972D02*
X72780D01*
X73779Y27972D01*
X74779Y26972D01*
X75779D01*
Y27972D01*
X74779Y28972D01*
X75779Y29972D01*
Y30972D01*
X74779D01*
X73779Y29972D01*
X72780Y30972D01*
X71780D01*
Y29972D01*
X72780Y28972D01*
X71780Y27972D01*
Y26972D01*
X66780Y16972D02*
X67779D01*
X68779Y17972D01*
X69779Y16972D01*
X70780D01*
Y17972D01*
X69779Y18972D01*
X70780Y19972D01*
Y20972D01*
X69779D01*
X68779Y19972D01*
X67779Y20972D01*
X66780D01*
Y19972D01*
X67779Y18972D01*
X66780Y17972D01*
Y16972D01*
X61779Y366972D02*
X62779D01*
X63779Y367972D01*
X64780Y366972D01*
X65780D01*
Y367972D01*
X64780Y368972D01*
X65780Y369972D01*
Y370972D01*
X64780D01*
X63779Y369972D01*
X62779Y370972D01*
X61779D01*
Y369972D01*
X62779Y368972D01*
X61779Y367972D01*
Y366972D01*
X56779Y356972D02*
X57780D01*
X58780Y357972D01*
X59780Y356972D01*
X60780D01*
Y357972D01*
X59780Y358972D01*
X60780Y359972D01*
Y360972D01*
X59780D01*
X58780Y359972D01*
X57780Y360972D01*
X56779D01*
Y359972D01*
X57780Y358972D01*
X56779Y357972D01*
Y356972D01*
Y336972D02*
X57780D01*
X58780Y337972D01*
X59780Y336972D01*
X60780D01*
Y337972D01*
X59780Y338972D01*
X60780Y339972D01*
Y340972D01*
X59780D01*
X58780Y339972D01*
X57780Y340972D01*
X56779D01*
Y339972D01*
X57780Y338972D01*
X56779Y337972D01*
Y336972D01*
X61779Y326972D02*
X62779D01*
X63779Y327972D01*
X64780Y326972D01*
X65780D01*
Y327972D01*
X64780Y328972D01*
X65780Y329972D01*
Y330972D01*
X64780D01*
X63779Y329972D01*
X62779Y330972D01*
X61779D01*
Y329972D01*
X62779Y328972D01*
X61779Y327972D01*
Y326972D01*
X56779Y316972D02*
X57780D01*
X58780Y317972D01*
X59780Y316972D01*
X60780D01*
Y317972D01*
X59780Y318972D01*
X60780Y319972D01*
Y320972D01*
X59780D01*
X58780Y319972D01*
X57780Y320972D01*
X56779D01*
Y319972D01*
X57780Y318972D01*
X56779Y317972D01*
Y316972D01*
X61779Y306972D02*
X62779D01*
X63779Y307972D01*
X64780Y306972D01*
X65780D01*
Y307972D01*
X64780Y308972D01*
X65780Y309972D01*
Y310972D01*
X64780D01*
X63779Y309972D01*
X62779Y310972D01*
X61779D01*
Y309972D01*
X62779Y308972D01*
X61779Y307972D01*
Y306972D01*
Y286972D02*
X62779D01*
X63779Y287972D01*
X64780Y286972D01*
X65780D01*
Y287972D01*
X64780Y288972D01*
X65780Y289972D01*
Y290972D01*
X64780D01*
X63779Y289972D01*
X62779Y290972D01*
X61779D01*
Y289972D01*
X62779Y288972D01*
X61779Y287972D01*
Y286972D01*
X56779Y276972D02*
X57780D01*
X58780Y277972D01*
X59780Y276972D01*
X60780D01*
Y277972D01*
X59780Y278972D01*
X60780Y279972D01*
Y280972D01*
X59780D01*
X58780Y279972D01*
X57780Y280972D01*
X56779D01*
Y279972D01*
X57780Y278972D01*
X56779Y277972D01*
Y276972D01*
Y236972D02*
X57780D01*
X58780Y237972D01*
X59780Y236972D01*
X60780D01*
Y237972D01*
X59780Y238972D01*
X60780Y239972D01*
Y240972D01*
X59780D01*
X58780Y239972D01*
X57780Y240972D01*
X56779D01*
Y239972D01*
X57780Y238972D01*
X56779Y237972D01*
Y236972D01*
X61779Y166972D02*
X62779D01*
X63779Y167972D01*
X64780Y166972D01*
X65780D01*
Y167972D01*
X64780Y168972D01*
X65780Y169972D01*
Y170972D01*
X64780D01*
X63779Y169972D01*
X62779Y170972D01*
X61779D01*
Y169972D01*
X62779Y168972D01*
X61779Y167972D01*
Y166972D01*
X56779Y156972D02*
X57780D01*
X58780Y157972D01*
X59780Y156972D01*
X60780D01*
Y157972D01*
X59780Y158972D01*
X60780Y159972D01*
Y160972D01*
X59780D01*
X58780Y159972D01*
X57780Y160972D01*
X56779D01*
Y159972D01*
X57780Y158972D01*
X56779Y157972D01*
Y156972D01*
Y136972D02*
X57780D01*
X58780Y137972D01*
X59780Y136972D01*
X60780D01*
Y137972D01*
X59780Y138972D01*
X60780Y139972D01*
Y140972D01*
X59780D01*
X58780Y139972D01*
X57780Y140972D01*
X56779D01*
Y139972D01*
X57780Y138972D01*
X56779Y137972D01*
Y136972D01*
Y116972D02*
X57780D01*
X58780Y117972D01*
X59780Y116972D01*
X60780D01*
Y117972D01*
X59780Y118972D01*
X60780Y119972D01*
Y120972D01*
X59780D01*
X58780Y119972D01*
X57780Y120972D01*
X56779D01*
Y119972D01*
X57780Y118972D01*
X56779Y117972D01*
Y116972D01*
X61779Y106972D02*
X62779D01*
X63779Y107972D01*
X64780Y106972D01*
X65780D01*
Y107972D01*
X64780Y108972D01*
X65780Y109972D01*
Y110972D01*
X64780D01*
X63779Y109972D01*
X62779Y110972D01*
X61779D01*
Y109972D01*
X62779Y108972D01*
X61779Y107972D01*
Y106972D01*
Y86972D02*
X62779D01*
X63779Y87972D01*
X64780Y86972D01*
X65780D01*
Y87972D01*
X64780Y88972D01*
X65780Y89972D01*
Y90972D01*
X64780D01*
X63779Y89972D01*
X62779Y90972D01*
X61779D01*
Y89972D01*
X62779Y88972D01*
X61779Y87972D01*
Y86972D01*
X56779Y76972D02*
X57780D01*
X58780Y77972D01*
X59780Y76972D01*
X60780D01*
Y77972D01*
X59780Y78972D01*
X60780Y79972D01*
Y80972D01*
X59780D01*
X58780Y79972D01*
X57780Y80972D01*
X56779D01*
Y79972D01*
X57780Y78972D01*
X56779Y77972D01*
Y76972D01*
X61779Y66972D02*
X62779D01*
X63779Y67972D01*
X64780Y66972D01*
X65780D01*
Y67972D01*
X64780Y68972D01*
X65780Y69972D01*
Y70972D01*
X64780D01*
X63779Y69972D01*
X62779Y70972D01*
X61779D01*
Y69972D01*
X62779Y68972D01*
X61779Y67972D01*
Y66972D01*
X56779Y56972D02*
X57780D01*
X58780Y57972D01*
X59780Y56972D01*
X60780D01*
Y57972D01*
X59780Y58972D01*
X60780Y59972D01*
Y60972D01*
X59780D01*
X58780Y59972D01*
X57780Y60972D01*
X56779D01*
Y59972D01*
X57780Y58972D01*
X56779Y57972D01*
Y56972D01*
X61779Y46972D02*
X62779D01*
X63779Y47972D01*
X64780Y46972D01*
X65780D01*
Y47972D01*
X64780Y48972D01*
X65780Y49972D01*
Y50972D01*
X64780D01*
X63779Y49972D01*
X62779Y50972D01*
X61779D01*
Y49972D01*
X62779Y48972D01*
X61779Y47972D01*
Y46972D01*
X56779Y36972D02*
X57780D01*
X58780Y37972D01*
X59780Y36972D01*
X60780D01*
Y37972D01*
X59780Y38972D01*
X60780Y39972D01*
Y40972D01*
X59780D01*
X58780Y39972D01*
X57780Y40972D01*
X56779D01*
Y39972D01*
X57780Y38972D01*
X56779Y37972D01*
Y36972D01*
X61779Y26972D02*
X62779D01*
X63779Y27972D01*
X64780Y26972D01*
X65780D01*
Y27972D01*
X64780Y28972D01*
X65780Y29972D01*
Y30972D01*
X64780D01*
X63779Y29972D01*
X62779Y30972D01*
X61779D01*
Y29972D01*
X62779Y28972D01*
X61779Y27972D01*
Y26972D01*
X56779Y16972D02*
X57780D01*
X58780Y17972D01*
X59780Y16972D01*
X60780D01*
Y17972D01*
X59780Y18972D01*
X60780Y19972D01*
Y20972D01*
X59780D01*
X58780Y19972D01*
X57780Y20972D01*
X56779D01*
Y19972D01*
X57780Y18972D01*
X56779Y17972D01*
Y16972D01*
X51780Y366972D02*
X52780D01*
X53780Y367972D01*
X54779Y366972D01*
X55779D01*
Y367972D01*
X54779Y368972D01*
X55779Y369972D01*
Y370972D01*
X54779D01*
X53780Y369972D01*
X52780Y370972D01*
X51780D01*
Y369972D01*
X52780Y368972D01*
X51780Y367972D01*
Y366972D01*
X46780Y336972D02*
X47780D01*
X48779Y337972D01*
X49779Y336972D01*
X50779D01*
Y337972D01*
X49779Y338972D01*
X50779Y339972D01*
Y340972D01*
X49779D01*
X48779Y339972D01*
X47780Y340972D01*
X46780D01*
Y339972D01*
X47780Y338972D01*
X46780Y337972D01*
Y336972D01*
X51780Y326972D02*
X52780D01*
X53780Y327972D01*
X54779Y326972D01*
X55779D01*
Y327972D01*
X54779Y328972D01*
X55779Y329972D01*
Y330972D01*
X54779D01*
X53780Y329972D01*
X52780Y330972D01*
X51780D01*
Y329972D01*
X52780Y328972D01*
X51780Y327972D01*
Y326972D01*
X46780Y316972D02*
X47780D01*
X48779Y317972D01*
X49779Y316972D01*
X50779D01*
Y317972D01*
X49779Y318972D01*
X50779Y319972D01*
Y320972D01*
X49779D01*
X48779Y319972D01*
X47780Y320972D01*
X46780D01*
Y319972D01*
X47780Y318972D01*
X46780Y317972D01*
Y316972D01*
X51780Y306972D02*
X52780D01*
X53780Y307972D01*
X54779Y306972D01*
X55779D01*
Y307972D01*
X54779Y308972D01*
X55779Y309972D01*
Y310972D01*
X54779D01*
X53780Y309972D01*
X52780Y310972D01*
X51780D01*
Y309972D01*
X52780Y308972D01*
X51780Y307972D01*
Y306972D01*
Y286972D02*
X52780D01*
X53780Y287972D01*
X54779Y286972D01*
X55779D01*
Y287972D01*
X54779Y288972D01*
X55779Y289972D01*
Y290972D01*
X54779D01*
X53780Y289972D01*
X52780Y290972D01*
X51780D01*
Y289972D01*
X52780Y288972D01*
X51780Y287972D01*
Y286972D01*
X46780Y276972D02*
X47780D01*
X48779Y277972D01*
X49779Y276972D01*
X50779D01*
Y277972D01*
X49779Y278972D01*
X50779Y279972D01*
Y280972D01*
X49779D01*
X48779Y279972D01*
X47780Y280972D01*
X46780D01*
Y279972D01*
X47780Y278972D01*
X46780Y277972D01*
Y276972D01*
X51780Y266972D02*
X52780D01*
X53780Y267972D01*
X54779Y266972D01*
X55779D01*
Y267972D01*
X54779Y268972D01*
X55779Y269972D01*
Y270972D01*
X54779D01*
X53780Y269972D01*
X52780Y270972D01*
X51780D01*
Y269972D01*
X52780Y268972D01*
X51780Y267972D01*
Y266972D01*
X46780Y236972D02*
X47780D01*
X48779Y237972D01*
X49779Y236972D01*
X50779D01*
Y237972D01*
X49779Y238972D01*
X50779Y239972D01*
Y240972D01*
X49779D01*
X48779Y239972D01*
X47780Y240972D01*
X46780D01*
Y239972D01*
X47780Y238972D01*
X46780Y237972D01*
Y236972D01*
X51780Y226972D02*
X52780D01*
X53780Y227972D01*
X54779Y226972D01*
X55779D01*
Y227972D01*
X54779Y228972D01*
X55779Y229972D01*
Y230972D01*
X54779D01*
X53780Y229972D01*
X52780Y230972D01*
X51780D01*
Y229972D01*
X52780Y228972D01*
X51780Y227972D01*
Y226972D01*
X46780Y156972D02*
X47780D01*
X48779Y157972D01*
X49779Y156972D01*
X50779D01*
Y157972D01*
X49779Y158972D01*
X50779Y159972D01*
Y160972D01*
X49779D01*
X48779Y159972D01*
X47780Y160972D01*
X46780D01*
Y159972D01*
X47780Y158972D01*
X46780Y157972D01*
Y156972D01*
X51780Y146972D02*
X52780D01*
X53780Y147972D01*
X54779Y146972D01*
X55779D01*
Y147972D01*
X54779Y148972D01*
X55779Y149972D01*
Y150972D01*
X54779D01*
X53780Y149972D01*
X52780Y150972D01*
X51780D01*
Y149972D01*
X52780Y148972D01*
X51780Y147972D01*
Y146972D01*
Y126972D02*
X52780D01*
X53780Y127972D01*
X54779Y126972D01*
X55779D01*
Y127972D01*
X54779Y128972D01*
X55779Y129972D01*
Y130972D01*
X54779D01*
X53780Y129972D01*
X52780Y130972D01*
X51780D01*
Y129972D01*
X52780Y128972D01*
X51780Y127972D01*
Y126972D01*
X46780Y116972D02*
X47780D01*
X48779Y117972D01*
X49779Y116972D01*
X50779D01*
Y117972D01*
X49779Y118972D01*
X50779Y119972D01*
Y120972D01*
X49779D01*
X48779Y119972D01*
X47780Y120972D01*
X46780D01*
Y119972D01*
X47780Y118972D01*
X46780Y117972D01*
Y116972D01*
X51780Y106972D02*
X52780D01*
X53780Y107972D01*
X54779Y106972D01*
X55779D01*
Y107972D01*
X54779Y108972D01*
X55779Y109972D01*
Y110972D01*
X54779D01*
X53780Y109972D01*
X52780Y110972D01*
X51780D01*
Y109972D01*
X52780Y108972D01*
X51780Y107972D01*
Y106972D01*
Y86972D02*
X52780D01*
X53780Y87972D01*
X54779Y86972D01*
X55779D01*
Y87972D01*
X54779Y88972D01*
X55779Y89972D01*
Y90972D01*
X54779D01*
X53780Y89972D01*
X52780Y90972D01*
X51780D01*
Y89972D01*
X52780Y88972D01*
X51780Y87972D01*
Y86972D01*
X46780Y76972D02*
X47780D01*
X48779Y77972D01*
X49779Y76972D01*
X50779D01*
Y77972D01*
X49779Y78972D01*
X50779Y79972D01*
Y80972D01*
X49779D01*
X48779Y79972D01*
X47780Y80972D01*
X46780D01*
Y79972D01*
X47780Y78972D01*
X46780Y77972D01*
Y76972D01*
X51780Y66972D02*
X52780D01*
X53780Y67972D01*
X54779Y66972D01*
X55779D01*
Y67972D01*
X54779Y68972D01*
X55779Y69972D01*
Y70972D01*
X54779D01*
X53780Y69972D01*
X52780Y70972D01*
X51780D01*
Y69972D01*
X52780Y68972D01*
X51780Y67972D01*
Y66972D01*
X46780Y56972D02*
X47780D01*
X48779Y57972D01*
X49779Y56972D01*
X50779D01*
Y57972D01*
X49779Y58972D01*
X50779Y59972D01*
Y60972D01*
X49779D01*
X48779Y59972D01*
X47780Y60972D01*
X46780D01*
Y59972D01*
X47780Y58972D01*
X46780Y57972D01*
Y56972D01*
X51780Y46972D02*
X52780D01*
X53780Y47972D01*
X54779Y46972D01*
X55779D01*
Y47972D01*
X54779Y48972D01*
X55779Y49972D01*
Y50972D01*
X54779D01*
X53780Y49972D01*
X52780Y50972D01*
X51780D01*
Y49972D01*
X52780Y48972D01*
X51780Y47972D01*
Y46972D01*
X46780Y36972D02*
X47780D01*
X48779Y37972D01*
X49779Y36972D01*
X50779D01*
Y37972D01*
X49779Y38972D01*
X50779Y39972D01*
Y40972D01*
X49779D01*
X48779Y39972D01*
X47780Y40972D01*
X46780D01*
Y39972D01*
X47780Y38972D01*
X46780Y37972D01*
Y36972D01*
X51780Y26972D02*
X52780D01*
X53780Y27972D01*
X54779Y26972D01*
X55779D01*
Y27972D01*
X54779Y28972D01*
X55779Y29972D01*
Y30972D01*
X54779D01*
X53780Y29972D01*
X52780Y30972D01*
X51780D01*
Y29972D01*
X52780Y28972D01*
X51780Y27972D01*
Y26972D01*
X46780Y16972D02*
X47780D01*
X48779Y17972D01*
X49779Y16972D01*
X50779D01*
Y17972D01*
X49779Y18972D01*
X50779Y19972D01*
Y20972D01*
X49779D01*
X48779Y19972D01*
X47780Y20972D01*
X46780D01*
Y19972D01*
X47780Y18972D01*
X46780Y17972D01*
Y16972D01*
X41780Y366972D02*
X42779D01*
X43780Y367972D01*
X44780Y366972D01*
X45779D01*
Y367972D01*
X44780Y368972D01*
X45779Y369972D01*
Y370972D01*
X44780D01*
X43780Y369972D01*
X42779Y370972D01*
X41780D01*
Y369972D01*
X42779Y368972D01*
X41780Y367972D01*
Y366972D01*
X36779Y356972D02*
X37780D01*
X38780Y357972D01*
X39779Y356972D01*
X40780D01*
Y357972D01*
X39779Y358972D01*
X40780Y359972D01*
Y360972D01*
X39779D01*
X38780Y359972D01*
X37780Y360972D01*
X36779D01*
Y359972D01*
X37780Y358972D01*
X36779Y357972D01*
Y356972D01*
X41780Y326972D02*
X42779D01*
X43780Y327972D01*
X44780Y326972D01*
X45779D01*
Y327972D01*
X44780Y328972D01*
X45779Y329972D01*
Y330972D01*
X44780D01*
X43780Y329972D01*
X42779Y330972D01*
X41780D01*
Y329972D01*
X42779Y328972D01*
X41780Y327972D01*
Y326972D01*
X36779Y316972D02*
X37780D01*
X38780Y317972D01*
X39779Y316972D01*
X40780D01*
Y317972D01*
X39779Y318972D01*
X40780Y319972D01*
Y320972D01*
X39779D01*
X38780Y319972D01*
X37780Y320972D01*
X36779D01*
Y319972D01*
X37780Y318972D01*
X36779Y317972D01*
Y316972D01*
X41780Y306972D02*
X42779D01*
X43780Y307972D01*
X44780Y306972D01*
X45779D01*
Y307972D01*
X44780Y308972D01*
X45779Y309972D01*
Y310972D01*
X44780D01*
X43780Y309972D01*
X42779Y310972D01*
X41780D01*
Y309972D01*
X42779Y308972D01*
X41780Y307972D01*
Y306972D01*
Y286972D02*
X42779D01*
X43780Y287972D01*
X44780Y286972D01*
X45779D01*
Y287972D01*
X44780Y288972D01*
X45779Y289972D01*
Y290972D01*
X44780D01*
X43780Y289972D01*
X42779Y290972D01*
X41780D01*
Y289972D01*
X42779Y288972D01*
X41780Y287972D01*
Y286972D01*
X36779Y276972D02*
X37780D01*
X38780Y277972D01*
X39779Y276972D01*
X40780D01*
Y277972D01*
X39779Y278972D01*
X40780Y279972D01*
Y280972D01*
X39779D01*
X38780Y279972D01*
X37780Y280972D01*
X36779D01*
Y279972D01*
X37780Y278972D01*
X36779Y277972D01*
Y276972D01*
X41780Y266972D02*
X42779D01*
X43780Y267972D01*
X44780Y266972D01*
X45779D01*
Y267972D01*
X44780Y268972D01*
X45779Y269972D01*
Y270972D01*
X44780D01*
X43780Y269972D01*
X42779Y270972D01*
X41780D01*
Y269972D01*
X42779Y268972D01*
X41780Y267972D01*
Y266972D01*
X36779Y256972D02*
X37780D01*
X38780Y257972D01*
X39779Y256972D01*
X40780D01*
Y257972D01*
X39779Y258972D01*
X40780Y259972D01*
Y260972D01*
X39779D01*
X38780Y259972D01*
X37780Y260972D01*
X36779D01*
Y259972D01*
X37780Y258972D01*
X36779Y257972D01*
Y256972D01*
X41780Y226972D02*
X42779D01*
X43780Y227972D01*
X44780Y226972D01*
X45779D01*
Y227972D01*
X44780Y228972D01*
X45779Y229972D01*
Y230972D01*
X44780D01*
X43780Y229972D01*
X42779Y230972D01*
X41780D01*
Y229972D01*
X42779Y228972D01*
X41780Y227972D01*
Y226972D01*
X36779Y176972D02*
X37780D01*
X38780Y177972D01*
X39779Y176972D01*
X40780D01*
Y177972D01*
X39779Y178972D01*
X40780Y179972D01*
Y180972D01*
X39779D01*
X38780Y179972D01*
X37780Y180972D01*
X36779D01*
Y179972D01*
X37780Y178972D01*
X36779Y177972D01*
Y176972D01*
X41780Y166972D02*
X42779D01*
X43780Y167972D01*
X44780Y166972D01*
X45779D01*
Y167972D01*
X44780Y168972D01*
X45779Y169972D01*
Y170972D01*
X44780D01*
X43780Y169972D01*
X42779Y170972D01*
X41780D01*
Y169972D01*
X42779Y168972D01*
X41780Y167972D01*
Y166972D01*
X36779Y156972D02*
X37780D01*
X38780Y157972D01*
X39779Y156972D01*
X40780D01*
Y157972D01*
X39779Y158972D01*
X40780Y159972D01*
Y160972D01*
X39779D01*
X38780Y159972D01*
X37780Y160972D01*
X36779D01*
Y159972D01*
X37780Y158972D01*
X36779Y157972D01*
Y156972D01*
Y136972D02*
X37780D01*
X38780Y137972D01*
X39779Y136972D01*
X40780D01*
Y137972D01*
X39779Y138972D01*
X40780Y139972D01*
Y140972D01*
X39779D01*
X38780Y139972D01*
X37780Y140972D01*
X36779D01*
Y139972D01*
X37780Y138972D01*
X36779Y137972D01*
Y136972D01*
X41780Y126972D02*
X42779D01*
X43780Y127972D01*
X44780Y126972D01*
X45779D01*
Y127972D01*
X44780Y128972D01*
X45779Y129972D01*
Y130972D01*
X44780D01*
X43780Y129972D01*
X42779Y130972D01*
X41780D01*
Y129972D01*
X42779Y128972D01*
X41780Y127972D01*
Y126972D01*
X36779Y116972D02*
X37780D01*
X38780Y117972D01*
X39779Y116972D01*
X40780D01*
Y117972D01*
X39779Y118972D01*
X40780Y119972D01*
Y120972D01*
X39779D01*
X38780Y119972D01*
X37780Y120972D01*
X36779D01*
Y119972D01*
X37780Y118972D01*
X36779Y117972D01*
Y116972D01*
X41780Y106972D02*
X42779D01*
X43780Y107972D01*
X44780Y106972D01*
X45779D01*
Y107972D01*
X44780Y108972D01*
X45779Y109972D01*
Y110972D01*
X44780D01*
X43780Y109972D01*
X42779Y110972D01*
X41780D01*
Y109972D01*
X42779Y108972D01*
X41780Y107972D01*
Y106972D01*
Y86972D02*
X42779D01*
X43780Y87972D01*
X44780Y86972D01*
X45779D01*
Y87972D01*
X44780Y88972D01*
X45779Y89972D01*
Y90972D01*
X44780D01*
X43780Y89972D01*
X42779Y90972D01*
X41780D01*
Y89972D01*
X42779Y88972D01*
X41780Y87972D01*
Y86972D01*
X36779Y76972D02*
X37780D01*
X38780Y77972D01*
X39779Y76972D01*
X40780D01*
Y77972D01*
X39779Y78972D01*
X40780Y79972D01*
Y80972D01*
X39779D01*
X38780Y79972D01*
X37780Y80972D01*
X36779D01*
Y79972D01*
X37780Y78972D01*
X36779Y77972D01*
Y76972D01*
X41780Y66972D02*
X42779D01*
X43780Y67972D01*
X44780Y66972D01*
X45779D01*
Y67972D01*
X44780Y68972D01*
X45779Y69972D01*
Y70972D01*
X44780D01*
X43780Y69972D01*
X42779Y70972D01*
X41780D01*
Y69972D01*
X42779Y68972D01*
X41780Y67972D01*
Y66972D01*
X36779Y56972D02*
X37780D01*
X38780Y57972D01*
X39779Y56972D01*
X40780D01*
Y57972D01*
X39779Y58972D01*
X40780Y59972D01*
Y60972D01*
X39779D01*
X38780Y59972D01*
X37780Y60972D01*
X36779D01*
Y59972D01*
X37780Y58972D01*
X36779Y57972D01*
Y56972D01*
X41780Y46972D02*
X42779D01*
X43780Y47972D01*
X44780Y46972D01*
X45779D01*
Y47972D01*
X44780Y48972D01*
X45779Y49972D01*
Y50972D01*
X44780D01*
X43780Y49972D01*
X42779Y50972D01*
X41780D01*
Y49972D01*
X42779Y48972D01*
X41780Y47972D01*
Y46972D01*
X36779Y36972D02*
X37780D01*
X38780Y37972D01*
X39779Y36972D01*
X40780D01*
Y37972D01*
X39779Y38972D01*
X40780Y39972D01*
Y40972D01*
X39779D01*
X38780Y39972D01*
X37780Y40972D01*
X36779D01*
Y39972D01*
X37780Y38972D01*
X36779Y37972D01*
Y36972D01*
X41780Y26972D02*
X42779D01*
X43780Y27972D01*
X44780Y26972D01*
X45779D01*
Y27972D01*
X44780Y28972D01*
X45779Y29972D01*
Y30972D01*
X44780D01*
X43780Y29972D01*
X42779Y30972D01*
X41780D01*
Y29972D01*
X42779Y28972D01*
X41780Y27972D01*
Y26972D01*
X36779Y16972D02*
X37780D01*
X38780Y17972D01*
X39779Y16972D01*
X40780D01*
Y17972D01*
X39779Y18972D01*
X40780Y19972D01*
Y20972D01*
X39779D01*
X38780Y19972D01*
X37780Y20972D01*
X36779D01*
Y19972D01*
X37780Y18972D01*
X36779Y17972D01*
Y16972D01*
X31780Y366972D02*
X32779D01*
X33779Y367972D01*
X34780Y366972D01*
X35780D01*
Y367972D01*
X34780Y368972D01*
X35780Y369972D01*
Y370972D01*
X34780D01*
X33779Y369972D01*
X32779Y370972D01*
X31780D01*
Y369972D01*
X32779Y368972D01*
X31780Y367972D01*
Y366972D01*
X26779Y356972D02*
X27779D01*
X28780Y357972D01*
X29779Y356972D01*
X30779D01*
Y357972D01*
X29779Y358972D01*
X30779Y359972D01*
Y360972D01*
X29779D01*
X28780Y359972D01*
X27779Y360972D01*
X26779D01*
Y359972D01*
X27779Y358972D01*
X26779Y357972D01*
Y356972D01*
Y336972D02*
X27779D01*
X28780Y337972D01*
X29779Y336972D01*
X30779D01*
Y337972D01*
X29779Y338972D01*
X30779Y339972D01*
Y340972D01*
X29779D01*
X28780Y339972D01*
X27779Y340972D01*
X26779D01*
Y339972D01*
X27779Y338972D01*
X26779Y337972D01*
Y336972D01*
X31780Y326972D02*
X32779D01*
X33779Y327972D01*
X34780Y326972D01*
X35780D01*
Y327972D01*
X34780Y328972D01*
X35780Y329972D01*
Y330972D01*
X34780D01*
X33779Y329972D01*
X32779Y330972D01*
X31780D01*
Y329972D01*
X32779Y328972D01*
X31780Y327972D01*
Y326972D01*
Y306972D02*
X32779D01*
X33779Y307972D01*
X34780Y306972D01*
X35780D01*
Y307972D01*
X34780Y308972D01*
X35780Y309972D01*
Y310972D01*
X34780D01*
X33779Y309972D01*
X32779Y310972D01*
X31780D01*
Y309972D01*
X32779Y308972D01*
X31780Y307972D01*
Y306972D01*
X26779Y276972D02*
X27779D01*
X28780Y277972D01*
X29779Y276972D01*
X30779D01*
Y277972D01*
X29779Y278972D01*
X30779Y279972D01*
Y280972D01*
X29779D01*
X28780Y279972D01*
X27779Y280972D01*
X26779D01*
Y279972D01*
X27779Y278972D01*
X26779Y277972D01*
Y276972D01*
X31780Y266972D02*
X32779D01*
X33779Y267972D01*
X34780Y266972D01*
X35780D01*
Y267972D01*
X34780Y268972D01*
X35780Y269972D01*
Y270972D01*
X34780D01*
X33779Y269972D01*
X32779Y270972D01*
X31780D01*
Y269972D01*
X32779Y268972D01*
X31780Y267972D01*
Y266972D01*
Y206972D02*
X32779D01*
X33779Y207972D01*
X34780Y206972D01*
X35780D01*
Y207972D01*
X34780Y208972D01*
X35780Y209972D01*
Y210972D01*
X34780D01*
X33779Y209972D01*
X32779Y210972D01*
X31780D01*
Y209972D01*
X32779Y208972D01*
X31780Y207972D01*
Y206972D01*
X26779Y176972D02*
X27779D01*
X28780Y177972D01*
X29779Y176972D01*
X30779D01*
Y177972D01*
X29779Y178972D01*
X30779Y179972D01*
Y180972D01*
X29779D01*
X28780Y179972D01*
X27779Y180972D01*
X26779D01*
Y179972D01*
X27779Y178972D01*
X26779Y177972D01*
Y176972D01*
X31780Y166972D02*
X32779D01*
X33779Y167972D01*
X34780Y166972D01*
X35780D01*
Y167972D01*
X34780Y168972D01*
X35780Y169972D01*
Y170972D01*
X34780D01*
X33779Y169972D01*
X32779Y170972D01*
X31780D01*
Y169972D01*
X32779Y168972D01*
X31780Y167972D01*
Y166972D01*
Y146972D02*
X32779D01*
X33779Y147972D01*
X34780Y146972D01*
X35780D01*
Y147972D01*
X34780Y148972D01*
X35780Y149972D01*
Y150972D01*
X34780D01*
X33779Y149972D01*
X32779Y150972D01*
X31780D01*
Y149972D01*
X32779Y148972D01*
X31780Y147972D01*
Y146972D01*
X26779Y136972D02*
X27779D01*
X28780Y137972D01*
X29779Y136972D01*
X30779D01*
Y137972D01*
X29779Y138972D01*
X30779Y139972D01*
Y140972D01*
X29779D01*
X28780Y139972D01*
X27779Y140972D01*
X26779D01*
Y139972D01*
X27779Y138972D01*
X26779Y137972D01*
Y136972D01*
X31780Y126972D02*
X32779D01*
X33779Y127972D01*
X34780Y126972D01*
X35780D01*
Y127972D01*
X34780Y128972D01*
X35780Y129972D01*
Y130972D01*
X34780D01*
X33779Y129972D01*
X32779Y130972D01*
X31780D01*
Y129972D01*
X32779Y128972D01*
X31780Y127972D01*
Y126972D01*
X26779Y116972D02*
X27779D01*
X28780Y117972D01*
X29779Y116972D01*
X30779D01*
Y117972D01*
X29779Y118972D01*
X30779Y119972D01*
Y120972D01*
X29779D01*
X28780Y119972D01*
X27779Y120972D01*
X26779D01*
Y119972D01*
X27779Y118972D01*
X26779Y117972D01*
Y116972D01*
X31780Y106972D02*
X32779D01*
X33779Y107972D01*
X34780Y106972D01*
X35780D01*
Y107972D01*
X34780Y108972D01*
X35780Y109972D01*
Y110972D01*
X34780D01*
X33779Y109972D01*
X32779Y110972D01*
X31780D01*
Y109972D01*
X32779Y108972D01*
X31780Y107972D01*
Y106972D01*
Y86972D02*
X32779D01*
X33779Y87972D01*
X34780Y86972D01*
X35780D01*
Y87972D01*
X34780Y88972D01*
X35780Y89972D01*
Y90972D01*
X34780D01*
X33779Y89972D01*
X32779Y90972D01*
X31780D01*
Y89972D01*
X32779Y88972D01*
X31780Y87972D01*
Y86972D01*
X26779Y76972D02*
X27779D01*
X28780Y77972D01*
X29779Y76972D01*
X30779D01*
Y77972D01*
X29779Y78972D01*
X30779Y79972D01*
Y80972D01*
X29779D01*
X28780Y79972D01*
X27779Y80972D01*
X26779D01*
Y79972D01*
X27779Y78972D01*
X26779Y77972D01*
Y76972D01*
X31780Y66972D02*
X32779D01*
X33779Y67972D01*
X34780Y66972D01*
X35780D01*
Y67972D01*
X34780Y68972D01*
X35780Y69972D01*
Y70972D01*
X34780D01*
X33779Y69972D01*
X32779Y70972D01*
X31780D01*
Y69972D01*
X32779Y68972D01*
X31780Y67972D01*
Y66972D01*
X26779Y56972D02*
X27779D01*
X28780Y57972D01*
X29779Y56972D01*
X30779D01*
Y57972D01*
X29779Y58972D01*
X30779Y59972D01*
Y60972D01*
X29779D01*
X28780Y59972D01*
X27779Y60972D01*
X26779D01*
Y59972D01*
X27779Y58972D01*
X26779Y57972D01*
Y56972D01*
X31780Y46972D02*
X32779D01*
X33779Y47972D01*
X34780Y46972D01*
X35780D01*
Y47972D01*
X34780Y48972D01*
X35780Y49972D01*
Y50972D01*
X34780D01*
X33779Y49972D01*
X32779Y50972D01*
X31780D01*
Y49972D01*
X32779Y48972D01*
X31780Y47972D01*
Y46972D01*
X26779Y36972D02*
X27779D01*
X28780Y37972D01*
X29779Y36972D01*
X30779D01*
Y37972D01*
X29779Y38972D01*
X30779Y39972D01*
Y40972D01*
X29779D01*
X28780Y39972D01*
X27779Y40972D01*
X26779D01*
Y39972D01*
X27779Y38972D01*
X26779Y37972D01*
Y36972D01*
X31780Y26972D02*
X32779D01*
X33779Y27972D01*
X34780Y26972D01*
X35780D01*
Y27972D01*
X34780Y28972D01*
X35780Y29972D01*
Y30972D01*
X34780D01*
X33779Y29972D01*
X32779Y30972D01*
X31780D01*
Y29972D01*
X32779Y28972D01*
X31780Y27972D01*
Y26972D01*
X21779Y326972D02*
X22780D01*
X23779Y327972D01*
X24780Y326972D01*
X25780D01*
Y327972D01*
X24780Y328972D01*
X25780Y329972D01*
Y330972D01*
X24780D01*
X23779Y329972D01*
X22780Y330972D01*
X21779D01*
Y329972D01*
X22780Y328972D01*
X21779Y327972D01*
Y326972D01*
X16780Y276972D02*
X17779D01*
X18779Y277972D01*
X19780Y276972D01*
X20779D01*
Y277972D01*
X19780Y278972D01*
X20779Y279972D01*
Y280972D01*
X19780D01*
X18779Y279972D01*
X17779Y280972D01*
X16780D01*
Y279972D01*
X17779Y278972D01*
X16780Y277972D01*
Y276972D01*
Y176972D02*
X17779D01*
X18779Y177972D01*
X19780Y176972D01*
X20779D01*
Y177972D01*
X19780Y178972D01*
X20779Y179972D01*
Y180972D01*
X19780D01*
X18779Y179972D01*
X17779Y180972D01*
X16780D01*
Y179972D01*
X17779Y178972D01*
X16780Y177972D01*
Y176972D01*
Y156972D02*
X17779D01*
X18779Y157972D01*
X19780Y156972D01*
X20779D01*
Y157972D01*
X19780Y158972D01*
X20779Y159972D01*
Y160972D01*
X19780D01*
X18779Y159972D01*
X17779Y160972D01*
X16780D01*
Y159972D01*
X17779Y158972D01*
X16780Y157972D01*
Y156972D01*
X21779Y146972D02*
X22780D01*
X23779Y147972D01*
X24780Y146972D01*
X25780D01*
Y147972D01*
X24780Y148972D01*
X25780Y149972D01*
Y150972D01*
X24780D01*
X23779Y149972D01*
X22780Y150972D01*
X21779D01*
Y149972D01*
X22780Y148972D01*
X21779Y147972D01*
Y146972D01*
X16780Y136972D02*
X17779D01*
X18779Y137972D01*
X19780Y136972D01*
X20779D01*
Y137972D01*
X19780Y138972D01*
X20779Y139972D01*
Y140972D01*
X19780D01*
X18779Y139972D01*
X17779Y140972D01*
X16780D01*
Y139972D01*
X17779Y138972D01*
X16780Y137972D01*
Y136972D01*
X21779Y126972D02*
X22780D01*
X23779Y127972D01*
X24780Y126972D01*
X25780D01*
Y127972D01*
X24780Y128972D01*
X25780Y129972D01*
Y130972D01*
X24780D01*
X23779Y129972D01*
X22780Y130972D01*
X21779D01*
Y129972D01*
X22780Y128972D01*
X21779Y127972D01*
Y126972D01*
X16780Y116972D02*
X17779D01*
X18779Y117972D01*
X19780Y116972D01*
X20779D01*
Y117972D01*
X19780Y118972D01*
X20779Y119972D01*
Y120972D01*
X19780D01*
X18779Y119972D01*
X17779Y120972D01*
X16780D01*
Y119972D01*
X17779Y118972D01*
X16780Y117972D01*
Y116972D01*
X21779Y106972D02*
X22780D01*
X23779Y107972D01*
X24780Y106972D01*
X25780D01*
Y107972D01*
X24780Y108972D01*
X25780Y109972D01*
Y110972D01*
X24780D01*
X23779Y109972D01*
X22780Y110972D01*
X21779D01*
Y109972D01*
X22780Y108972D01*
X21779Y107972D01*
Y106972D01*
Y86972D02*
X22780D01*
X23779Y87972D01*
X24780Y86972D01*
X25780D01*
Y87972D01*
X24780Y88972D01*
X25780Y89972D01*
Y90972D01*
X24780D01*
X23779Y89972D01*
X22780Y90972D01*
X21779D01*
Y89972D01*
X22780Y88972D01*
X21779Y87972D01*
Y86972D01*
X16780Y76972D02*
X17779D01*
X18779Y77972D01*
X19780Y76972D01*
X20779D01*
Y77972D01*
X19780Y78972D01*
X20779Y79972D01*
Y80972D01*
X19780D01*
X18779Y79972D01*
X17779Y80972D01*
X16780D01*
Y79972D01*
X17779Y78972D01*
X16780Y77972D01*
Y76972D01*
X21779Y66972D02*
X22780D01*
X23779Y67972D01*
X24780Y66972D01*
X25780D01*
Y67972D01*
X24780Y68972D01*
X25780Y69972D01*
Y70972D01*
X24780D01*
X23779Y69972D01*
X22780Y70972D01*
X21779D01*
Y69972D01*
X22780Y68972D01*
X21779Y67972D01*
Y66972D01*
X16780Y56972D02*
X17779D01*
X18779Y57972D01*
X19780Y56972D01*
X20779D01*
Y57972D01*
X19780Y58972D01*
X20779Y59972D01*
Y60972D01*
X19780D01*
X18779Y59972D01*
X17779Y60972D01*
X16780D01*
Y59972D01*
X17779Y58972D01*
X16780Y57972D01*
Y56972D01*
X21779Y46972D02*
X22780D01*
X23779Y47972D01*
X24780Y46972D01*
X25780D01*
Y47972D01*
X24780Y48972D01*
X25780Y49972D01*
Y50972D01*
X24780D01*
X23779Y49972D01*
X22780Y50972D01*
X21779D01*
Y49972D01*
X22780Y48972D01*
X21779Y47972D01*
Y46972D01*
X16780Y36972D02*
X17779D01*
X18779Y37972D01*
X19780Y36972D01*
X20779D01*
Y37972D01*
X19780Y38972D01*
X20779Y39972D01*
Y40972D01*
X19780D01*
X18779Y39972D01*
X17779Y40972D01*
X16780D01*
Y39972D01*
X17779Y38972D01*
X16780Y37972D01*
Y36972D01*
X21779Y26972D02*
X22780D01*
X23779Y27972D01*
X24780Y26972D01*
X25780D01*
Y27972D01*
X24780Y28972D01*
X25780Y29972D01*
Y30972D01*
X24780D01*
X23779Y29972D01*
X22780Y30972D01*
X21779D01*
Y29972D01*
X22780Y28972D01*
X21779Y27972D01*
Y26972D01*
X11779Y326972D02*
X12779D01*
X13780Y327972D01*
X14780Y326972D01*
X15779D01*
Y327972D01*
X14780Y328972D01*
X15779Y329972D01*
Y330972D01*
X14780D01*
X13780Y329972D01*
X12779Y330972D01*
X11779D01*
Y329972D01*
X12779Y328972D01*
X11779Y327972D01*
Y326972D01*
X6780Y196972D02*
X7779D01*
X8779Y197972D01*
X9780Y196972D01*
X10780D01*
Y197972D01*
X9780Y198972D01*
X10780Y199972D01*
Y200972D01*
X9780D01*
X8779Y199972D01*
X7779Y200972D01*
X6780D01*
Y199972D01*
X7779Y198972D01*
X6780Y197972D01*
Y196972D01*
X11779Y186972D02*
X12779D01*
X13780Y187972D01*
X14780Y186972D01*
X15779D01*
Y187972D01*
X14780Y188972D01*
X15779Y189972D01*
Y190972D01*
X14780D01*
X13780Y189972D01*
X12779Y190972D01*
X11779D01*
Y189972D01*
X12779Y188972D01*
X11779Y187972D01*
Y186972D01*
X6780Y176972D02*
X7779D01*
X8779Y177972D01*
X9780Y176972D01*
X10780D01*
Y177972D01*
X9780Y178972D01*
X10780Y179972D01*
Y180972D01*
X9780D01*
X8779Y179972D01*
X7779Y180972D01*
X6780D01*
Y179972D01*
X7779Y178972D01*
X6780Y177972D01*
Y176972D01*
X11779Y166972D02*
X12779D01*
X13780Y167972D01*
X14780Y166972D01*
X15779D01*
Y167972D01*
X14780Y168972D01*
X15779Y169972D01*
Y170972D01*
X14780D01*
X13780Y169972D01*
X12779Y170972D01*
X11779D01*
Y169972D01*
X12779Y168972D01*
X11779Y167972D01*
Y166972D01*
X6780Y156972D02*
X7779D01*
X8779Y157972D01*
X9780Y156972D01*
X10780D01*
Y157972D01*
X9780Y158972D01*
X10780Y159972D01*
Y160972D01*
X9780D01*
X8779Y159972D01*
X7779Y160972D01*
X6780D01*
Y159972D01*
X7779Y158972D01*
X6780Y157972D01*
Y156972D01*
X11779Y146972D02*
X12779D01*
X13780Y147972D01*
X14780Y146972D01*
X15779D01*
Y147972D01*
X14780Y148972D01*
X15779Y149972D01*
Y150972D01*
X14780D01*
X13780Y149972D01*
X12779Y150972D01*
X11779D01*
Y149972D01*
X12779Y148972D01*
X11779Y147972D01*
Y146972D01*
X6780Y136972D02*
X7779D01*
X8779Y137972D01*
X9780Y136972D01*
X10780D01*
Y137972D01*
X9780Y138972D01*
X10780Y139972D01*
Y140972D01*
X9780D01*
X8779Y139972D01*
X7779Y140972D01*
X6780D01*
Y139972D01*
X7779Y138972D01*
X6780Y137972D01*
Y136972D01*
X11779Y126972D02*
X12779D01*
X13780Y127972D01*
X14780Y126972D01*
X15779D01*
Y127972D01*
X14780Y128972D01*
X15779Y129972D01*
Y130972D01*
X14780D01*
X13780Y129972D01*
X12779Y130972D01*
X11779D01*
Y129972D01*
X12779Y128972D01*
X11779Y127972D01*
Y126972D01*
X6780Y116972D02*
X7779D01*
X8779Y117972D01*
X9780Y116972D01*
X10780D01*
Y117972D01*
X9780Y118972D01*
X10780Y119972D01*
Y120972D01*
X9780D01*
X8779Y119972D01*
X7779Y120972D01*
X6780D01*
Y119972D01*
X7779Y118972D01*
X6780Y117972D01*
Y116972D01*
Y76972D02*
X7779D01*
X8779Y77972D01*
X9780Y76972D01*
X10780D01*
Y77972D01*
X9780Y78972D01*
X10780Y79972D01*
Y80972D01*
X9780D01*
X8779Y79972D01*
X7779Y80972D01*
X6780D01*
Y79972D01*
X7779Y78972D01*
X6780Y77972D01*
Y76972D01*
X11779Y66972D02*
X12779D01*
X13780Y67972D01*
X14780Y66972D01*
X15779D01*
Y67972D01*
X14780Y68972D01*
X15779Y69972D01*
Y70972D01*
X14780D01*
X13780Y69972D01*
X12779Y70972D01*
X11779D01*
Y69972D01*
X12779Y68972D01*
X11779Y67972D01*
Y66972D01*
X6780Y56972D02*
X7779D01*
X8779Y57972D01*
X9780Y56972D01*
X10780D01*
Y57972D01*
X9780Y58972D01*
X10780Y59972D01*
Y60972D01*
X9780D01*
X8779Y59972D01*
X7779Y60972D01*
X6780D01*
Y59972D01*
X7779Y58972D01*
X6780Y57972D01*
Y56972D01*
X11779Y46972D02*
X12779D01*
X13780Y47972D01*
X14780Y46972D01*
X15779D01*
Y47972D01*
X14780Y48972D01*
X15779Y49972D01*
Y50972D01*
X14780D01*
X13780Y49972D01*
X12779Y50972D01*
X11779D01*
Y49972D01*
X12779Y48972D01*
X11779Y47972D01*
Y46972D01*
X6780Y36972D02*
X7779D01*
X8779Y37972D01*
X9780Y36972D01*
X10780D01*
Y37972D01*
X9780Y38972D01*
X10780Y39972D01*
Y40972D01*
X9780D01*
X8779Y39972D01*
X7779Y40972D01*
X6780D01*
Y39972D01*
X7779Y38972D01*
X6780Y37972D01*
Y36972D01*
X11779Y26972D02*
X12779D01*
X13780Y27972D01*
X14780Y26972D01*
X15779D01*
Y27972D01*
X14780Y28972D01*
X15779Y29972D01*
Y30972D01*
X14780D01*
X13780Y29972D01*
X12779Y30972D01*
X11779D01*
Y29972D01*
X12779Y28972D01*
X11779Y27972D01*
Y26972D01*
X6780Y16972D02*
X7779D01*
X8779Y17972D01*
X9780Y16972D01*
X10780D01*
Y17972D01*
X9780Y18972D01*
X10780Y19972D01*
Y20972D01*
X9780D01*
X8779Y19972D01*
X7779Y20972D01*
X6780D01*
Y19972D01*
X7779Y18972D01*
X6780Y17972D01*
Y16972D01*
X200512Y289886D02*
X201512Y291886D01*
X200512Y293886D01*
X202512Y292886D01*
X204512Y293886D01*
X203512Y291886D01*
X204512Y289886D01*
X202512Y290886D01*
X200512Y289886D01*
X203660Y284375D02*
X204660Y286375D01*
X203660Y288375D01*
X205660Y287375D01*
X207660Y288375D01*
X206660Y286375D01*
X207660Y284375D01*
X205660Y285375D01*
X203660Y284375D01*
X206809D02*
X207809Y286375D01*
X206809Y288375D01*
X208809Y287375D01*
X210809Y288375D01*
X209809Y286375D01*
X210809Y284375D01*
X208809Y285375D01*
X206809Y284375D01*
Y281619D02*
X207809Y283619D01*
X206809Y285619D01*
X208809Y284619D01*
X210809Y285619D01*
X209809Y283619D01*
X210809Y281619D01*
X208809Y282619D01*
X206809Y281619D01*
X203660D02*
X204660Y283619D01*
X203660Y285619D01*
X205660Y284619D01*
X207660Y285619D01*
X206660Y283619D01*
X207660Y281619D01*
X205660Y282619D01*
X203660Y281619D01*
Y287131D02*
X204660Y289131D01*
X203660Y291131D01*
X205660Y290131D01*
X207660Y291131D01*
X206660Y289131D01*
X207660Y287131D01*
X205660Y288131D01*
X203660Y287131D01*
X206809D02*
X207809Y289131D01*
X206809Y291131D01*
X208809Y290131D01*
X210809Y291131D01*
X209809Y289131D01*
X210809Y287131D01*
X208809Y288131D01*
X206809Y287131D01*
Y289886D02*
X207809Y291886D01*
X206809Y293886D01*
X208809Y292886D01*
X210809Y293886D01*
X209809Y291886D01*
X210809Y289886D01*
X208809Y290886D01*
X206809Y289886D01*
X200510Y281619D02*
X201510Y283619D01*
X200510Y285619D01*
X202510Y284619D01*
X204510Y285619D01*
X203510Y283619D01*
X204510Y281619D01*
X202510Y282619D01*
X200510Y281619D01*
Y284375D02*
X201510Y286375D01*
X200510Y288375D01*
X202510Y287375D01*
X204510Y288375D01*
X203510Y286375D01*
X204510Y284375D01*
X202510Y285375D01*
X200510Y284375D01*
X203660Y289886D02*
X204660Y291886D01*
X203660Y293886D01*
X205660Y292886D01*
X207660Y293886D01*
X206660Y291886D01*
X207660Y289886D01*
X205660Y290886D01*
X203660Y289886D01*
X200512Y286963D02*
X201512Y288963D01*
X200512Y290963D01*
X202512Y289963D01*
X204512Y290963D01*
X203512Y288963D01*
X204512Y286963D01*
X202512Y287963D01*
X200512Y286963D01*
X209959Y289886D02*
X210959Y291886D01*
X209959Y293886D01*
X211959Y292886D01*
X213959Y293886D01*
X212959Y291886D01*
X213959Y289886D01*
X211959Y290886D01*
X209959Y289886D01*
Y284375D02*
X210959Y286375D01*
X209959Y288375D01*
X211959Y287375D01*
X213959Y288375D01*
X212959Y286375D01*
X213959Y284375D01*
X211959Y285375D01*
X209959Y284375D01*
Y287131D02*
X210959Y289131D01*
X209959Y291131D01*
X211959Y290131D01*
X213959Y291131D01*
X212959Y289131D01*
X213959Y287131D01*
X211959Y288131D01*
X209959Y287131D01*
Y281619D02*
X210959Y283619D01*
X209959Y285619D01*
X211959Y284619D01*
X213959Y285619D01*
X212959Y283619D01*
X213959Y281619D01*
X211959Y282619D01*
X209959Y281619D01*
X30787Y236453D02*
X31787D01*
X32787Y237453D01*
X33787Y236453D01*
X34787D01*
Y237453D01*
X33787Y238453D01*
X34787Y239453D01*
Y240453D01*
X33787D01*
X32787Y239453D01*
X31787Y240453D01*
X30787D01*
Y239453D01*
X31787Y238453D01*
X30787Y237453D01*
Y236453D01*
X83039Y271720D02*
X84039Y273720D01*
X83039Y275720D01*
X85039Y274720D01*
X87039Y275720D01*
X86039Y273720D01*
X87039Y271720D01*
X85039Y272720D01*
X83039Y271720D01*
X79496D02*
X80496Y273720D01*
X79496Y275720D01*
X81496Y274720D01*
X83496Y275720D01*
X82496Y273720D01*
X83496Y271720D01*
X81496Y272720D01*
X79496Y271720D01*
X74378Y249218D02*
X75378Y251218D01*
X74378Y253218D01*
X76378Y252218D01*
X78378Y253218D01*
X77378Y251218D01*
X78378Y249218D01*
X76378Y250218D01*
X74378Y249218D01*
X79496Y257782D02*
X80496Y259782D01*
X79496Y261782D01*
X81496Y260782D01*
X83496Y261782D01*
X82496Y259782D01*
X83496Y257782D01*
X81496Y258782D01*
X79496Y257782D01*
Y263293D02*
X80496Y265293D01*
X79496Y267293D01*
X81496Y266293D01*
X83496Y267293D01*
X82496Y265293D01*
X83496Y263293D01*
X81496Y264293D01*
X79496Y263293D01*
Y260537D02*
X80496Y262537D01*
X79496Y264537D01*
X81496Y263537D01*
X83496Y264537D01*
X82496Y262537D01*
X83496Y260537D01*
X81496Y261537D01*
X79496Y260537D01*
Y266048D02*
X80496Y268048D01*
X79496Y270048D01*
X81496Y269048D01*
X83496Y270048D01*
X82496Y268048D01*
X83496Y266048D01*
X81496Y267048D01*
X79496Y266048D01*
X70215Y263126D02*
X71215Y265126D01*
X70215Y267126D01*
X72215Y266126D01*
X74215Y267126D01*
X73215Y265126D01*
X74215Y263126D01*
X72215Y264126D01*
X70215Y263126D01*
X73197Y266048D02*
X74197Y268048D01*
X73197Y270048D01*
X75197Y269048D01*
X77197Y270048D01*
X76197Y268048D01*
X77197Y266048D01*
X75197Y267048D01*
X73197Y266048D01*
X70047Y260537D02*
X71047Y262537D01*
X70047Y264537D01*
X72047Y263537D01*
X74047Y264537D01*
X73047Y262537D01*
X74047Y260537D01*
X72047Y261537D01*
X70047Y260537D01*
Y257782D02*
X71047Y259782D01*
X70047Y261782D01*
X72047Y260782D01*
X74047Y261782D01*
X73047Y259782D01*
X74047Y257782D01*
X72047Y258782D01*
X70047Y257782D01*
X76346Y266048D02*
X77346Y268048D01*
X76346Y270048D01*
X78347Y269048D01*
X80347Y270048D01*
X79347Y268048D01*
X80347Y266048D01*
X78347Y267048D01*
X76346Y266048D01*
Y263293D02*
X77346Y265293D01*
X76346Y267293D01*
X78347Y266293D01*
X80347Y267293D01*
X79347Y265293D01*
X80347Y263293D01*
X78347Y264293D01*
X76346Y263293D01*
X73197D02*
X74197Y265293D01*
X73197Y267293D01*
X75197Y266293D01*
X77197Y267293D01*
X76197Y265293D01*
X77197Y263293D01*
X75197Y264293D01*
X73197Y263293D01*
Y257782D02*
X74197Y259782D01*
X73197Y261782D01*
X75197Y260782D01*
X77197Y261782D01*
X76197Y259782D01*
X77197Y257782D01*
X75197Y258782D01*
X73197Y257782D01*
X76346D02*
X77346Y259782D01*
X76346Y261782D01*
X78347Y260782D01*
X80347Y261782D01*
X79347Y259782D01*
X80347Y257782D01*
X78347Y258782D01*
X76346Y257782D01*
Y260537D02*
X77346Y262537D01*
X76346Y264537D01*
X78347Y263537D01*
X80347Y264537D01*
X79347Y262537D01*
X80347Y260537D01*
X78347Y261537D01*
X76346Y260537D01*
X73197D02*
X74197Y262537D01*
X73197Y264537D01*
X75197Y263537D01*
X77197Y264537D01*
X76197Y262537D01*
X77197Y260537D01*
X75197Y261537D01*
X73197Y260537D01*
X75362Y294457D02*
X76362Y296457D01*
X75362Y298457D01*
X77362Y297457D01*
X79362Y298457D01*
X78362Y296457D01*
X79362Y294457D01*
X77362Y295457D01*
X75362Y294457D01*
X75362Y303118D02*
X76362Y305118D01*
X75362Y307118D01*
X77362Y306118D01*
X79362Y307118D01*
X78362Y305118D01*
X79362Y303118D01*
X77362Y304118D01*
X75362Y303118D01*
Y300362D02*
X76362Y302362D01*
X75362Y304362D01*
X77362Y303362D01*
X79362Y304362D01*
X78362Y302362D01*
X79362Y300362D01*
X77362Y301362D01*
X75362Y300362D01*
Y305874D02*
X76362Y307874D01*
X75362Y309874D01*
X77362Y308874D01*
X79362Y309874D01*
X78362Y307874D01*
X79362Y305874D01*
X77362Y306874D01*
X75362Y305874D01*
X82350Y316896D02*
X83350Y318896D01*
X82350Y320896D01*
X84350Y319896D01*
X86350Y320896D01*
X85350Y318896D01*
X86350Y316896D01*
X84350Y317896D01*
X82350Y316896D01*
Y314142D02*
X83350Y316142D01*
X82350Y318142D01*
X84350Y317142D01*
X86350Y318142D01*
X85350Y316142D01*
X86350Y314142D01*
X84350Y315142D01*
X82350Y314142D01*
Y308630D02*
X83350Y310630D01*
X82350Y312630D01*
X84350Y311630D01*
X86350Y312630D01*
X85350Y310630D01*
X86350Y308630D01*
X84350Y309630D01*
X82350Y308630D01*
Y311386D02*
X83350Y313386D01*
X82350Y315386D01*
X84350Y314386D01*
X86350Y315386D01*
X85350Y313386D01*
X86350Y311386D01*
X84350Y312386D01*
X82350Y311386D01*
X68276Y316896D02*
X69276Y318896D01*
X68276Y320896D01*
X70276Y319896D01*
X72276Y320896D01*
X71276Y318896D01*
X72276Y316896D01*
X70276Y317896D01*
X68276Y316896D01*
Y314142D02*
X69276Y316142D01*
X68276Y318142D01*
X70276Y317142D01*
X72276Y318142D01*
X71276Y316142D01*
X72276Y314142D01*
X70276Y315142D01*
X68276Y314142D01*
Y308630D02*
X69276Y310630D01*
X68276Y312630D01*
X70276Y311630D01*
X72276Y312630D01*
X71276Y310630D01*
X72276Y308630D01*
X70276Y309630D01*
X68276Y308630D01*
Y311386D02*
X69276Y313386D01*
X68276Y315386D01*
X70276Y314386D01*
X72276Y315386D01*
X71276Y313386D01*
X72276Y311386D01*
X70276Y312386D01*
X68276Y311386D01*
X73732D02*
X74732Y313386D01*
X73732Y315386D01*
X75732Y314386D01*
X77732Y315386D01*
X76732Y313386D01*
X77732Y311386D01*
X75732Y312386D01*
X73732Y311386D01*
X77150D02*
X78150Y313386D01*
X77150Y315386D01*
X79150Y314386D01*
X81150Y315386D01*
X80150Y313386D01*
X81150Y311386D01*
X79150Y312386D01*
X77150Y311386D01*
Y308630D02*
X78150Y310630D01*
X77150Y312630D01*
X79150Y311630D01*
X81150Y312630D01*
X80150Y310630D01*
X81150Y308630D01*
X79150Y309630D01*
X77150Y308630D01*
X73732D02*
X74732Y310630D01*
X73732Y312630D01*
X75732Y311630D01*
X77732Y312630D01*
X76732Y310630D01*
X77732Y308630D01*
X75732Y309630D01*
X73732Y308630D01*
Y314142D02*
X74732Y316142D01*
X73732Y318142D01*
X75732Y317142D01*
X77732Y318142D01*
X76732Y316142D01*
X77732Y314142D01*
X75732Y315142D01*
X73732Y314142D01*
X77150D02*
X78150Y316142D01*
X77150Y318142D01*
X79150Y317142D01*
X81150Y318142D01*
X80150Y316142D01*
X81150Y314142D01*
X79150Y315142D01*
X77150Y314142D01*
Y316896D02*
X78150Y318896D01*
X77150Y320896D01*
X79150Y319896D01*
X81150Y320896D01*
X80150Y318896D01*
X81150Y316896D01*
X79150Y317896D01*
X77150Y316896D01*
X73732D02*
X74732Y318896D01*
X73732Y320896D01*
X75732Y319896D01*
X77732Y320896D01*
X76732Y318896D01*
X77732Y316896D01*
X75732Y317896D01*
X73732Y316896D01*
X157843Y366010D02*
X158843D01*
X159843Y367010D01*
X160843Y366010D01*
X161843D01*
Y367010D01*
X160843Y368010D01*
X161843Y369010D01*
Y370010D01*
X160843D01*
X159843Y369010D01*
X158843Y370010D01*
X157843D01*
Y369010D01*
X158843Y368010D01*
X157843Y367010D01*
Y366010D01*
X220133Y334933D02*
X221133D01*
X222133Y335933D01*
X223133Y334933D01*
X224133D01*
Y335933D01*
X223133Y336933D01*
X224133Y337933D01*
Y338933D01*
X223133D01*
X222133Y337933D01*
X221133Y338933D01*
X220133D01*
Y337933D01*
X221133Y336933D01*
X220133Y335933D01*
Y334933D01*
X184811Y362917D02*
X185811D01*
X186811Y363917D01*
X187811Y362917D01*
X188811D01*
Y363917D01*
X187811Y364917D01*
X188811Y365917D01*
Y366917D01*
X187811D01*
X186811Y365917D01*
X185811Y366917D01*
X184811D01*
Y365917D01*
X185811Y364917D01*
X184811Y363917D01*
Y362917D01*
X230283Y96425D02*
X231283D01*
X232283Y97425D01*
X233283Y96425D01*
X234283D01*
Y97425D01*
X233283Y98425D01*
X234283Y99425D01*
Y100425D01*
X233283D01*
X232283Y99425D01*
X231283Y100425D01*
X230283D01*
Y99425D01*
X231283Y98425D01*
X230283Y97425D01*
Y96425D01*
X45244D02*
X46244D01*
X47244Y97425D01*
X48244Y96425D01*
X49244D01*
Y97425D01*
X48244Y98425D01*
X49244Y99425D01*
Y100425D01*
X48244D01*
X47244Y99425D01*
X46244Y100425D01*
X45244D01*
Y99425D01*
X46244Y98425D01*
X45244Y97425D01*
Y96425D01*
X218926Y287327D02*
X219926D01*
X220926Y288327D01*
X221926Y287327D01*
X222926D01*
Y288327D01*
X221926Y289327D01*
X222926Y290326D01*
Y291326D01*
X221926D01*
X220926Y290326D01*
X219926Y291326D01*
X218926D01*
Y290326D01*
X219926Y289327D01*
X218926Y288327D01*
Y287327D01*
X186959Y287917D02*
X187959D01*
X188959Y288917D01*
X189959Y287917D01*
X190959D01*
Y288917D01*
X189959Y289917D01*
X190959Y290917D01*
Y291917D01*
X189959D01*
X188959Y290917D01*
X187959Y291917D01*
X186959D01*
Y290917D01*
X187959Y289917D01*
X186959Y288917D01*
Y287917D01*
X59456Y147382D02*
X61456Y149382D01*
X63456Y147382D01*
X61456Y145382D01*
X59456Y147382D01*
X216898Y320397D02*
X217898D01*
X218898Y321397D01*
X219898Y320397D01*
X220898D01*
Y321397D01*
X219898Y322397D01*
X220898Y323397D01*
Y324397D01*
X219898D01*
X218898Y323397D01*
X217898Y324397D01*
X216898D01*
Y323397D01*
X217898Y322397D01*
X216898Y321397D01*
Y320397D01*
X237173Y265279D02*
X238173D01*
X239173Y266279D01*
X240173Y265279D01*
X241173D01*
Y266279D01*
X240173Y267279D01*
X241173Y268279D01*
Y269279D01*
X240173D01*
X239173Y268279D01*
X238173Y269279D01*
X237173D01*
Y268279D01*
X238173Y267279D01*
X237173Y266279D01*
Y265279D01*
X97606Y182996D02*
X98606D01*
X99606Y183996D01*
X100606Y182996D01*
X101606D01*
Y183996D01*
X100606Y184996D01*
X101606Y185996D01*
Y186996D01*
X100606D01*
X99606Y185996D01*
X98606Y186996D01*
X97606D01*
Y185996D01*
X98606Y184996D01*
X97606Y183996D01*
Y182996D01*
X133039Y256618D02*
X134039D01*
X135039Y257618D01*
X136039Y256618D01*
X137039D01*
Y257618D01*
X136039Y258618D01*
X137039Y259618D01*
Y260618D01*
X136039D01*
X135039Y259618D01*
X134039Y260618D01*
X133039D01*
Y259618D01*
X134039Y258618D01*
X133039Y257618D01*
Y256618D01*
X200953Y258092D02*
X201953D01*
X202953Y259092D01*
X203953Y258092D01*
X204953D01*
Y259092D01*
X203953Y260092D01*
X204953Y261092D01*
Y262092D01*
X203953D01*
X202953Y261092D01*
X201953Y262092D01*
X200953D01*
Y261092D01*
X201953Y260092D01*
X200953Y259092D01*
Y258092D01*
X143669Y274193D02*
X144669D01*
X145669Y275193D01*
X146669Y274193D01*
X147669D01*
Y275193D01*
X146669Y276193D01*
X147669Y277193D01*
Y278193D01*
X146669D01*
X145669Y277193D01*
X144669Y278193D01*
X143669D01*
Y277193D01*
X144669Y276193D01*
X143669Y275193D01*
Y274193D01*
X137357Y275269D02*
X138357D01*
X139357Y276269D01*
X140357Y275269D01*
X141357D01*
Y276269D01*
X140357Y277269D01*
X141357Y278269D01*
Y279269D01*
X140357D01*
X139357Y278269D01*
X138357Y279269D01*
X137357D01*
Y278269D01*
X138357Y277269D01*
X137357Y276269D01*
Y275269D01*
X175953Y250122D02*
X176953D01*
X177953Y251122D01*
X178953Y250122D01*
X179953D01*
Y251122D01*
X178953Y252122D01*
X179953Y253122D01*
Y254122D01*
X178953D01*
X177953Y253122D01*
X176953Y254122D01*
X175953D01*
Y253122D01*
X176953Y252122D01*
X175953Y251122D01*
Y250122D01*
X89339Y290311D02*
X91339Y292311D01*
X93339Y290311D01*
X91339Y288311D01*
X89339Y290311D01*
X160992Y161571D02*
X162992Y163571D01*
X164992Y161571D01*
X162992Y159571D01*
X160992Y161571D01*
X176543Y155271D02*
X178543Y157271D01*
X180543Y155271D01*
X178543Y153271D01*
X176543Y155271D01*
X168669D02*
X170669Y157271D01*
X172669Y155271D01*
X170669Y153271D01*
X168669Y155271D01*
X192685Y177007D02*
X193685Y179007D01*
X192685Y181007D01*
X194685Y180007D01*
X196685Y181007D01*
X195685Y179007D01*
X196685Y177007D01*
X194685Y178007D01*
X192685Y177007D01*
X162567Y250770D02*
X163567Y252770D01*
X162567Y254770D01*
X164567Y253770D01*
X166567Y254770D01*
X165567Y252770D01*
X166567Y250770D01*
X164567Y251770D01*
X162567Y250770D01*
X162732Y239917D02*
X163732Y241917D01*
X162732Y243917D01*
X164732Y242917D01*
X166732Y243917D01*
X165732Y241917D01*
X166732Y239917D01*
X164732Y240917D01*
X162732Y239917D01*
X129102Y233193D02*
X130102D01*
X131102Y234193D01*
X132102Y233193D01*
X133102D01*
Y234193D01*
X132102Y235193D01*
X133102Y236193D01*
Y237193D01*
X132102D01*
X131102Y236193D01*
X130102Y237193D01*
X129102D01*
Y236193D01*
X130102Y235193D01*
X129102Y234193D01*
Y233193D01*
X132252Y238114D02*
X133252D01*
X134252Y239114D01*
X135252Y238114D01*
X136252D01*
Y239114D01*
X135252Y240114D01*
X136252Y241114D01*
Y242114D01*
X135252D01*
X134252Y241114D01*
X133252Y242114D01*
X132252D01*
Y241114D01*
X133252Y240114D01*
X132252Y239114D01*
Y238114D01*
X183039Y197366D02*
X184039D01*
X185039Y198366D01*
X186039Y197366D01*
X187039D01*
Y198366D01*
X186039Y199366D01*
X187039Y200366D01*
Y201366D01*
X186039D01*
X185039Y200366D01*
X184039Y201366D01*
X183039D01*
Y200366D01*
X184039Y199366D01*
X183039Y198366D01*
Y197366D01*
X188551Y190082D02*
X189551D01*
X190551Y191082D01*
X191551Y190082D01*
X192551D01*
Y191082D01*
X191551Y192082D01*
X192551Y193082D01*
Y194082D01*
X191551D01*
X190551Y193082D01*
X189551Y194082D01*
X188551D01*
Y193082D01*
X189551Y192082D01*
X188551Y191082D01*
Y190082D01*
X77866Y222877D02*
X78866D01*
X79866Y223877D01*
X80866Y222877D01*
X81866D01*
Y223877D01*
X80866Y224877D01*
X81866Y225877D01*
Y226877D01*
X80866D01*
X79866Y225877D01*
X78866Y226877D01*
X77866D01*
Y225877D01*
X78866Y224877D01*
X77866Y223877D01*
Y222877D01*
X151543Y241035D02*
X152543D01*
X153543Y242035D01*
X154543Y241035D01*
X155543D01*
Y242035D01*
X154543Y243035D01*
X155543Y244035D01*
Y245035D01*
X154543D01*
X153543Y244035D01*
X152543Y245035D01*
X151543D01*
Y244035D01*
X152543Y243035D01*
X151543Y242035D01*
Y241035D01*
X159221Y241225D02*
X160221D01*
X161221Y242225D01*
X162221Y241225D01*
X163221D01*
Y242225D01*
X162221Y243225D01*
X163221Y244225D01*
Y245225D01*
X162221D01*
X161221Y244225D01*
X160221Y245225D01*
X159221D01*
Y244225D01*
X160221Y243225D01*
X159221Y242225D01*
Y241225D01*
X122748Y256027D02*
X123748D01*
X124748Y257027D01*
X125748Y256027D01*
X126748D01*
Y257027D01*
X125748Y258027D01*
X126748Y259027D01*
Y260027D01*
X125748D01*
X124748Y259027D01*
X123748Y260027D01*
X122748D01*
Y259027D01*
X123748Y258027D01*
X122748Y257027D01*
Y256027D01*
X92276Y220971D02*
X93276D01*
X94276Y221971D01*
X95276Y220971D01*
X96276D01*
Y221971D01*
X95276Y222971D01*
X96276Y223971D01*
Y224971D01*
X95276D01*
X94276Y223971D01*
X93276Y224971D01*
X92276D01*
Y223971D01*
X93276Y222971D01*
X92276Y221971D01*
Y220971D01*
X52921Y211244D02*
X53921D01*
X54921Y212244D01*
X55921Y211244D01*
X56921D01*
Y212244D01*
X55921Y213244D01*
X56921Y214244D01*
Y215244D01*
X55921D01*
X54921Y214244D01*
X53921Y215244D01*
X52921D01*
Y214244D01*
X53921Y213244D01*
X52921Y212244D01*
Y211244D01*
X58236Y218626D02*
X59236D01*
X60236Y219626D01*
X61236Y218626D01*
X62236D01*
Y219626D01*
X61236Y220626D01*
X62236Y221626D01*
Y222626D01*
X61236D01*
X60236Y221626D01*
X59236Y222626D01*
X58236D01*
Y221626D01*
X59236Y220626D01*
X58236Y219626D01*
Y218626D01*
X149968Y246381D02*
X150968D01*
X151968Y247381D01*
X152968Y246381D01*
X153968D01*
Y247381D01*
X152968Y248381D01*
X153968Y249381D01*
Y250381D01*
X152968D01*
X151968Y249381D01*
X150968Y250381D01*
X149968D01*
Y249381D01*
X150968Y248381D01*
X149968Y247381D01*
Y246381D01*
X140126Y202236D02*
X141126D01*
X142126Y203236D01*
X143126Y202236D01*
X144126D01*
Y203236D01*
X143126Y204236D01*
X144126Y205236D01*
Y206236D01*
X143126D01*
X142126Y205236D01*
X141126Y206236D01*
X140126D01*
Y205236D01*
X141126Y204236D01*
X140126Y203236D01*
Y202236D01*
X108925Y227090D02*
X109925D01*
X110925Y228090D01*
X111925Y227090D01*
X112925D01*
Y228090D01*
X111925Y229090D01*
X112925Y230090D01*
Y231090D01*
X111925D01*
X110925Y230090D01*
X109925Y231090D01*
X108925D01*
Y230090D01*
X109925Y229090D01*
X108925Y228090D01*
Y227090D01*
X102331Y226106D02*
X103331D01*
X104331Y227106D01*
X105331Y226106D01*
X106331D01*
Y227106D01*
X105331Y228106D01*
X106331Y229106D01*
Y230106D01*
X105331D01*
X104331Y229106D01*
X103331Y230106D01*
X102331D01*
Y229106D01*
X103331Y228106D01*
X102331Y227106D01*
Y226106D01*
X112173Y230240D02*
X113173D01*
X114173Y231240D01*
X115173Y230240D01*
X116173D01*
Y231240D01*
X115173Y232240D01*
X116173Y233240D01*
Y234240D01*
X115173D01*
X114173Y233240D01*
X113173Y234240D01*
X112173D01*
Y233240D01*
X113173Y232240D01*
X112173Y231240D01*
Y230240D01*
X41385Y201958D02*
X42385D01*
X43385Y202958D01*
X44385Y201958D01*
X45385D01*
Y202958D01*
X44385Y203958D01*
X45385Y204958D01*
Y205958D01*
X44385D01*
X43385Y204958D01*
X42385Y205958D01*
X41385D01*
Y204958D01*
X42385Y203958D01*
X41385Y202958D01*
Y201958D01*
X99378Y164098D02*
X100378D01*
X101378Y165098D01*
X102378Y164098D01*
X103378D01*
Y165098D01*
X102378Y166098D01*
X103378Y167098D01*
Y168098D01*
X102378D01*
X101378Y167098D01*
X100378Y168098D01*
X99378D01*
Y167098D01*
X100378Y166098D01*
X99378Y165098D01*
Y164098D01*
X105205Y165476D02*
X106205D01*
X107205Y166476D01*
X108205Y165476D01*
X109205D01*
Y166476D01*
X108205Y167476D01*
X109205Y168476D01*
Y169476D01*
X108205D01*
X107205Y168476D01*
X106205Y169476D01*
X105205D01*
Y168476D01*
X106205Y167476D01*
X105205Y166476D01*
Y165476D01*
X50756Y199137D02*
X51756D01*
X52756Y200137D01*
X53756Y199137D01*
X54756D01*
Y200137D01*
X53756Y201137D01*
X54756Y202137D01*
Y203137D01*
X53756D01*
X52756Y202137D01*
X51756Y203137D01*
X50756D01*
Y202137D01*
X51756Y201137D01*
X50756Y200137D01*
Y199137D01*
X210332Y156022D02*
X211332D01*
X212332Y157022D01*
X213332Y156022D01*
X214332D01*
Y157022D01*
X213332Y158022D01*
X214332Y159022D01*
Y160022D01*
X213332D01*
X212332Y159022D01*
X211332Y160022D01*
X210332D01*
Y159022D01*
X211332Y158022D01*
X210332Y157022D01*
Y156022D01*
X101362Y194658D02*
X103362Y196658D01*
X105362Y194658D01*
X103362Y192658D01*
X101362Y194658D01*
X98590Y204452D02*
X99590D01*
X100591Y205452D01*
X101591Y204452D01*
X102591D01*
Y205452D01*
X101591Y206452D01*
X102591Y207453D01*
Y208453D01*
X101591D01*
X100591Y207453D01*
X99590Y208453D01*
X98590D01*
Y207453D01*
X99590Y206452D01*
X98590Y205452D01*
Y204452D01*
X83827Y177090D02*
X84826D01*
X85826Y178090D01*
X86826Y177090D01*
X87827D01*
Y178090D01*
X86826Y179090D01*
X87827Y180090D01*
Y181090D01*
X86826D01*
X85826Y180090D01*
X84826Y181090D01*
X83827D01*
Y180090D01*
X84826Y179090D01*
X83827Y178090D01*
Y177090D01*
X127528Y172957D02*
X128528D01*
X129528Y173957D01*
X130528Y172957D01*
X131528D01*
Y173957D01*
X130528Y174957D01*
X131528Y175956D01*
Y176956D01*
X130528D01*
X129528Y175956D01*
X128528Y176956D01*
X127528D01*
Y175956D01*
X128528Y174957D01*
X127528Y173957D01*
Y172957D01*
X216898Y225319D02*
X217898Y227319D01*
X216898Y229319D01*
X218898Y228319D01*
X220898Y229319D01*
X219898Y227319D01*
X220898Y225319D01*
X218898Y226319D01*
X216898Y225319D01*
X98394Y208752D02*
X99394D01*
X100394Y209752D01*
X101394Y208752D01*
X102394D01*
Y209752D01*
X101394Y210752D01*
X102394Y211752D01*
Y212752D01*
X101394D01*
X100394Y211752D01*
X99394Y212752D01*
X98394D01*
Y211752D01*
X99394Y210752D01*
X98394Y209752D01*
Y208752D01*
X121819Y194332D02*
X122819D01*
X123819Y195332D01*
X124819Y194332D01*
X125819D01*
Y195332D01*
X124819Y196332D01*
X125819Y197332D01*
Y198332D01*
X124819D01*
X123819Y197332D01*
X122819Y198332D01*
X121819D01*
Y197332D01*
X122819Y196332D01*
X121819Y195332D01*
Y194332D01*
X108157Y172169D02*
X109157D01*
X110157Y173169D01*
X111157Y172169D01*
X112157D01*
Y173169D01*
X111157Y174169D01*
X112157Y175169D01*
Y176169D01*
X111157D01*
X110157Y175169D01*
X109157Y176169D01*
X108157D01*
Y175169D01*
X109157Y174169D01*
X108157Y173169D01*
Y172169D01*
X100362Y185752D02*
X101362D01*
X102362Y186752D01*
X103362Y185752D01*
X104362D01*
Y186752D01*
X103362Y187752D01*
X104362Y188752D01*
Y189752D01*
X103362D01*
X102362Y188752D01*
X101362Y189752D01*
X100362D01*
Y188752D01*
X101362Y187752D01*
X100362Y186752D01*
Y185752D01*
X78315Y207799D02*
X79315D01*
X80315Y208799D01*
X81315Y207799D01*
X82315D01*
Y208799D01*
X81315Y209799D01*
X82315Y210799D01*
Y211799D01*
X81315D01*
X80315Y210799D01*
X79315Y211799D01*
X78315D01*
Y210799D01*
X79315Y209799D01*
X78315Y208799D01*
Y207799D01*
X74575Y205905D02*
X75575D01*
X76575Y206905D01*
X77575Y205905D01*
X78575D01*
Y206905D01*
X77575Y207905D01*
X78575Y208905D01*
Y209905D01*
X77575D01*
X76575Y208905D01*
X75575Y209905D01*
X74575D01*
Y208905D01*
X75575Y207905D01*
X74575Y206905D01*
Y205905D01*
X52331Y170594D02*
X53331D01*
X54331Y171594D01*
X55331Y170594D01*
X56331D01*
Y171594D01*
X55331Y172594D01*
X56331Y173594D01*
Y174594D01*
X55331D01*
X54331Y173594D01*
X53331Y174594D01*
X52331D01*
Y173594D01*
X53331Y172594D01*
X52331Y171594D01*
Y170594D01*
X70441Y191067D02*
X71441D01*
X72441Y192067D01*
X73441Y191067D01*
X74441D01*
Y192067D01*
X73441Y193067D01*
X74441Y194067D01*
Y195067D01*
X73441D01*
X72441Y194067D01*
X71441Y195067D01*
X70441D01*
Y194067D01*
X71441Y193067D01*
X70441Y192067D01*
Y191067D01*
X76717Y201334D02*
X78716Y203334D01*
X80717Y201334D01*
X78716Y199334D01*
X76717Y201334D01*
X62567Y184571D02*
X63567D01*
X64567Y185571D01*
X65567Y184571D01*
X66567D01*
Y185571D01*
X65567Y186571D01*
X66567Y187571D01*
Y188571D01*
X65567D01*
X64567Y187571D01*
X63567Y188571D01*
X62567D01*
Y187571D01*
X63567Y186571D01*
X62567Y185571D01*
Y184571D01*
X49968Y192248D02*
X50968D01*
X51968Y193248D01*
X52969Y192248D01*
X53969D01*
Y193248D01*
X52969Y194248D01*
X53969Y195248D01*
Y196248D01*
X52969D01*
X51968Y195248D01*
X50968Y196248D01*
X49968D01*
Y195248D01*
X50968Y194248D01*
X49968Y193248D01*
Y192248D01*
X68472Y199492D02*
X69472D01*
X70472Y200492D01*
X71472Y199492D01*
X72472D01*
Y200492D01*
X71472Y201492D01*
X72472Y202492D01*
Y203492D01*
X71472D01*
X70472Y202492D01*
X69472Y203492D01*
X68472D01*
Y202492D01*
X69472Y201492D01*
X68472Y200492D01*
Y199492D01*
X95638Y224531D02*
X96638D01*
X97638Y225531D01*
X98638Y224531D01*
X99638D01*
Y225531D01*
X98638Y226531D01*
X99638Y227531D01*
Y228531D01*
X98638D01*
X97638Y227531D01*
X96638Y228531D01*
X95638D01*
Y227531D01*
X96638Y226531D01*
X95638Y225531D01*
Y224531D01*
X29496Y203075D02*
X30496D01*
X31496Y204075D01*
X32496Y203075D01*
X33496D01*
Y204075D01*
X32496Y205075D01*
X33496Y206075D01*
Y207075D01*
X32496D01*
X31496Y206075D01*
X30496Y207075D01*
X29496D01*
Y206075D01*
X30496Y205075D01*
X29496Y204075D01*
Y203075D01*
X176543Y161964D02*
X178543Y163964D01*
X180543Y161964D01*
X178543Y159964D01*
X176543Y161964D01*
X168473D02*
X170473Y163964D01*
X172473Y161964D01*
X170473Y159964D01*
X168473Y161964D01*
X42685Y215476D02*
X43685D01*
X44685Y216476D01*
X45685Y215476D01*
X46685D01*
Y216476D01*
X45685Y217476D01*
X46685Y218476D01*
Y219476D01*
X45685D01*
X44685Y218476D01*
X43685Y219476D01*
X42685D01*
Y218476D01*
X43685Y217476D01*
X42685Y216476D01*
Y215476D01*
X22409Y209767D02*
X23409D01*
X24409Y210767D01*
X25409Y209767D01*
X26409D01*
Y210767D01*
X25409Y211767D01*
X26409Y212767D01*
Y213767D01*
X25409D01*
X24409Y212767D01*
X23409Y213767D01*
X22409D01*
Y212767D01*
X23409Y211767D01*
X22409Y210767D01*
Y209767D01*
X192980Y231815D02*
X193980Y233815D01*
X192980Y235815D01*
X194980Y234815D01*
X196980Y235815D01*
X195980Y233815D01*
X196980Y231815D01*
X194980Y232815D01*
X192980Y231815D01*
X205087Y193232D02*
X206087Y195232D01*
X205087Y197232D01*
X207087Y196232D01*
X209087Y197232D01*
X208087Y195232D01*
X209087Y193232D01*
X207087Y194232D01*
X205087Y193232D01*
X200953Y193823D02*
X201953Y195823D01*
X200953Y197823D01*
X202953Y196823D01*
X204953Y197823D01*
X203953Y195823D01*
X204953Y193823D01*
X202953Y194823D01*
X200953Y193823D01*
X209559Y193626D02*
X210559Y195626D01*
X209559Y197626D01*
X211559Y196626D01*
X213559Y197626D01*
X212559Y195626D01*
X213559Y193626D01*
X211559Y194626D01*
X209559Y193626D01*
X213748Y194019D02*
X214748Y196019D01*
X213748Y198020D01*
X215748Y197020D01*
X217748Y198020D01*
X216748Y196019D01*
X217748Y194019D01*
X215748Y195019D01*
X213748Y194019D01*
X86386Y147382D02*
X88386Y149382D01*
X90386Y147382D01*
X88386Y145382D01*
X86386Y147382D01*
X40913Y188508D02*
X41913D01*
X42913Y189508D01*
X43913Y188508D01*
X44913D01*
Y189508D01*
X43913Y190508D01*
X44913Y191508D01*
Y192508D01*
X43913D01*
X42913Y191508D01*
X41913Y192508D01*
X40913D01*
Y191508D01*
X41913Y190508D01*
X40913Y189508D01*
Y188508D01*
X170638Y188901D02*
X171638D01*
X172638Y189901D01*
X173638Y188901D01*
X174638D01*
Y189901D01*
X173638Y190901D01*
X174638Y191901D01*
Y192901D01*
X173638D01*
X172638Y191901D01*
X171638Y192901D01*
X170638D01*
Y191901D01*
X171638Y190901D01*
X170638Y189901D01*
Y188901D01*
X160598Y237327D02*
X161598Y239327D01*
X160598Y241327D01*
X162598Y240327D01*
X164598Y241327D01*
X163598Y239327D01*
X164598Y237327D01*
X162598Y238327D01*
X160598Y237327D01*
X194795Y203523D02*
X195795Y205523D01*
X194795Y207523D01*
X196795Y206523D01*
X198795Y207523D01*
X197795Y205523D01*
X198795Y203523D01*
X196795Y204523D01*
X194795Y203523D01*
X178260Y201075D02*
X179260Y203075D01*
X178260Y205075D01*
X180260Y204075D01*
X182260Y205075D01*
X181260Y203075D01*
X182260Y201075D01*
X180260Y202075D01*
X178260Y201075D01*
X202866Y219382D02*
X203866Y221382D01*
X202866Y223382D01*
X204866Y222382D01*
X206866Y223382D01*
X205866Y221382D01*
X206866Y219382D01*
X204866Y220382D01*
X202866Y219382D01*
X198929Y244185D02*
X199929Y246185D01*
X198929Y248185D01*
X200929Y247185D01*
X202929Y248185D01*
X201929Y246185D01*
X202929Y244185D01*
X200929Y245185D01*
X198929Y244185D01*
X195583Y240105D02*
X196583Y242105D01*
X195583Y244105D01*
X197583Y243105D01*
X199583Y244105D01*
X198583Y242105D01*
X199583Y240105D01*
X197583Y241105D01*
X195583Y240105D01*
X168024Y220169D02*
X169024Y222169D01*
X168024Y224169D01*
X170024Y223169D01*
X172024Y224169D01*
X171024Y222169D01*
X172024Y220169D01*
X170024Y221169D01*
X168024Y220169D01*
D145*
X19994Y214745D02*
G03*
X19994Y214745I-2000J0D01*
G01*
X19994Y197225D02*
G03*
X19994Y197225I-2000J0D01*
G01*
%TF.MD5,00aface1fc6f673a1a047bfbfc835b12*%
M02*
