%TF.GenerationSoftware,Altium Limited,Altium Designer,20.2.4 (192)*%
G04 Layer_Color=32768*
%FSLAX25Y25*%
%MOIN*%
%TF.SameCoordinates,A525E99E-696F-4D77-ADFC-FB6725D68D10*%
%TF.FilePolarity,Positive*%
%TF.FileFunction,Other,Mechanical_15*%
%TF.Part,Single*%
G01*
G75*
%TA.AperFunction,NonConductor*%
%ADD132C,0.00394*%
D132*
X236811Y278696D02*
Y295232D01*
X249409Y278696D02*
Y295232D01*
X236811D02*
X249409D01*
X236811Y278696D02*
X249409D01*
X241142Y286964D02*
X245079D01*
X243110Y284996D02*
Y288933D01*
X155850Y269305D02*
X168449D01*
X155850Y252770D02*
X168449D01*
X168449Y269305D01*
X155850D02*
X155850Y252770D01*
X162150Y259069D02*
Y263006D01*
X160181Y261038D02*
X164118D01*
X78882Y200153D02*
Y204090D01*
X76913Y202122D02*
X80850D01*
X58410Y222594D02*
X99354Y222594D01*
X58410Y181649D02*
X99354D01*
X58410D02*
Y222594D01*
X99354Y181649D02*
X99354Y222594D01*
X185039Y222004D02*
Y225941D01*
X183071Y223972D02*
X187008D01*
X172835Y236177D02*
X197244D01*
X172835Y211768D02*
X197244D01*
X172835D02*
Y236177D01*
X197244Y211768D02*
Y236177D01*
X142071Y337130D02*
Y341067D01*
X140102Y339098D02*
X144039D01*
X127406Y328468D02*
X156736D01*
X127406Y349728D02*
X156736D01*
Y328468D02*
Y349728D01*
X127406Y328468D02*
Y349728D01*
X40354Y364031D02*
X54134D01*
X40354Y349268D02*
X54134D01*
Y364031D01*
X40354Y349268D02*
Y364031D01*
X47244Y354681D02*
Y358618D01*
X45276Y356649D02*
X49213D01*
%TF.MD5,7b38f2a27902cf4e358237a9a564ebbc*%
M02*
