%TF.GenerationSoftware,Altium Limited,Altium Designer,20.2.4 (192)*%
G04 Layer_Color=128*
%FSLAX25Y25*%
%MOIN*%
%TF.SameCoordinates,DD73C85C-3220-4851-94E8-9B28512026BA*%
%TF.FilePolarity,Positive*%
%TF.FileFunction,Drillmap*%
%TF.Part,Single*%
G01*
G75*
%TA.AperFunction,NonConductor*%
%ADD125C,0.00500*%
D125*
X3840Y189883D02*
X7108D01*
X5474Y188249D02*
Y191517D01*
X3840Y222087D02*
X7108D01*
X5474Y220454D02*
Y223721D01*
X16714Y214745D02*
X19274D01*
X17994Y213465D02*
Y216024D01*
X16714Y197225D02*
X19274D01*
X17994Y195946D02*
Y198505D01*
X249213Y19685D02*
X262598D01*
X255906Y12992D02*
Y26378D01*
X12992Y19685D02*
X26378D01*
X19685Y12992D02*
Y26378D01*
X249213Y374016D02*
X262598D01*
X255906Y367323D02*
Y380709D01*
X12992Y374016D02*
X26378D01*
X19685Y367323D02*
Y380709D01*
X96780Y142358D02*
X100779D01*
X98779Y140358D02*
Y144358D01*
X96780Y132358D02*
X100779D01*
X98779Y130358D02*
Y134358D01*
X106780Y142358D02*
X110780D01*
X108780Y140358D02*
Y144358D01*
X106780Y132358D02*
X110780D01*
X108780Y130358D02*
Y134358D01*
X116779Y142358D02*
X120780D01*
X118780Y140358D02*
Y144358D01*
X116779Y132358D02*
X120780D01*
X118780Y130358D02*
Y134358D01*
X126779Y142358D02*
X130780D01*
X128779Y140358D02*
Y144358D01*
X126779Y132358D02*
X130780D01*
X128779Y130358D02*
Y134358D01*
X206244Y275208D02*
X207425D01*
X206835Y274618D02*
Y275799D01*
X242460Y289327D02*
X243760D01*
X243110Y288677D02*
Y289976D01*
X242460Y284602D02*
X243760D01*
X243110Y283952D02*
Y285252D01*
X179665Y228697D02*
X180965D01*
X180315Y228047D02*
Y229346D01*
X184390Y228697D02*
X185689D01*
X185039Y228047D02*
Y229346D01*
X189114Y228697D02*
X190413D01*
X189764Y228047D02*
Y229346D01*
X179665Y223972D02*
X180965D01*
X180315Y223323D02*
Y224622D01*
X184390Y223972D02*
X185689D01*
X185039Y223323D02*
Y224622D01*
X189114Y223972D02*
X190413D01*
X189764Y223323D02*
Y224622D01*
X179665Y219248D02*
X180965D01*
X180315Y218598D02*
Y219897D01*
X184390Y219248D02*
X185689D01*
X185039Y218598D02*
Y219897D01*
X189114Y219248D02*
X190413D01*
X189764Y218598D02*
Y219897D01*
X18301Y228948D02*
X19876D01*
X19089Y228160D02*
Y229735D01*
X23622Y245215D02*
X25197D01*
X24409Y244427D02*
Y246002D01*
X23622Y255451D02*
X25197D01*
X24409Y254663D02*
Y256238D01*
X23622Y236706D02*
X25197D01*
X24409Y235919D02*
Y237494D01*
X9427Y232710D02*
X11002D01*
X10214Y231923D02*
Y233498D01*
X23622Y264506D02*
X25197D01*
X24409Y263719D02*
Y265293D01*
X9427Y268048D02*
X11002D01*
X10214Y267260D02*
Y268835D01*
X9471Y320866D02*
X11045D01*
X10258Y320079D02*
Y321654D01*
X23622Y316142D02*
X25197D01*
X24409Y315354D02*
Y316929D01*
X9471Y283465D02*
X11045D01*
X10258Y282677D02*
Y284252D01*
X23622Y288342D02*
X25197D01*
X24409Y287555D02*
Y289130D01*
X23622Y307087D02*
X25197D01*
X24409Y306299D02*
Y307874D01*
X23622Y296850D02*
X25197D01*
X24409Y296063D02*
Y297638D01*
X267992Y358972D02*
X269567D01*
X268779Y358185D02*
Y359760D01*
X267992Y338972D02*
X269567D01*
X268779Y338185D02*
Y339760D01*
X267992Y318972D02*
X269567D01*
X268779Y318185D02*
Y319760D01*
X267992Y298972D02*
X269567D01*
X268779Y298185D02*
Y299760D01*
X267992Y278972D02*
X269567D01*
X268779Y278185D02*
Y279760D01*
X267992Y238972D02*
X269567D01*
X268779Y238185D02*
Y239760D01*
X267992Y218972D02*
X269567D01*
X268779Y218185D02*
Y219760D01*
X267992Y198972D02*
X269567D01*
X268779Y198185D02*
Y199760D01*
X267992Y178972D02*
X269567D01*
X268779Y178185D02*
Y179760D01*
X267992Y158972D02*
X269567D01*
X268779Y158185D02*
Y159760D01*
X267992Y138972D02*
X269567D01*
X268779Y138185D02*
Y139760D01*
X267992Y118972D02*
X269567D01*
X268779Y118185D02*
Y119760D01*
X267992Y78972D02*
X269567D01*
X268779Y78185D02*
Y79760D01*
X267992Y58972D02*
X269567D01*
X268779Y58185D02*
Y59760D01*
X267992Y38972D02*
X269567D01*
X268779Y38185D02*
Y39760D01*
X267992Y18972D02*
X269567D01*
X268779Y18185D02*
Y19760D01*
X257992Y358972D02*
X259567D01*
X258780Y358185D02*
Y359760D01*
X262992Y348972D02*
X264567D01*
X263779Y348185D02*
Y349760D01*
X257992Y338972D02*
X259567D01*
X258780Y338185D02*
Y339760D01*
X262992Y328972D02*
X264567D01*
X263779Y328185D02*
Y329760D01*
X257992Y318972D02*
X259567D01*
X258780Y318185D02*
Y319760D01*
X262992Y308972D02*
X264567D01*
X263779Y308185D02*
Y309760D01*
X257992Y298972D02*
X259567D01*
X258780Y298185D02*
Y299760D01*
X262992Y288972D02*
X264567D01*
X263779Y288185D02*
Y289760D01*
X257992Y238972D02*
X259567D01*
X258780Y238185D02*
Y239760D01*
X262992Y228972D02*
X264567D01*
X263779Y228185D02*
Y229760D01*
X257992Y218972D02*
X259567D01*
X258780Y218185D02*
Y219760D01*
X262992Y208972D02*
X264567D01*
X263779Y208185D02*
Y209760D01*
X257992Y198972D02*
X259567D01*
X258780Y198185D02*
Y199760D01*
X262992Y188972D02*
X264567D01*
X263779Y188185D02*
Y189760D01*
X257992Y178972D02*
X259567D01*
X258780Y178185D02*
Y179760D01*
X262992Y168972D02*
X264567D01*
X263779Y168185D02*
Y169760D01*
X257992Y158972D02*
X259567D01*
X258780Y158185D02*
Y159760D01*
X262992Y148972D02*
X264567D01*
X263779Y148185D02*
Y149760D01*
X257992Y138972D02*
X259567D01*
X258780Y138185D02*
Y139760D01*
X262992Y128972D02*
X264567D01*
X263779Y128185D02*
Y129760D01*
X257992Y118972D02*
X259567D01*
X258780Y118185D02*
Y119760D01*
X257992Y78972D02*
X259567D01*
X258780Y78185D02*
Y79760D01*
X262992Y68972D02*
X264567D01*
X263779Y68185D02*
Y69760D01*
X257992Y58972D02*
X259567D01*
X258780Y58185D02*
Y59760D01*
X262992Y48972D02*
X264567D01*
X263779Y48185D02*
Y49760D01*
X257992Y38972D02*
X259567D01*
X258780Y38185D02*
Y39760D01*
X262992Y28972D02*
X264567D01*
X263779Y28185D02*
Y29760D01*
X247992Y358972D02*
X249567D01*
X248780Y358185D02*
Y359760D01*
X252992Y348972D02*
X254567D01*
X253780Y348185D02*
Y349760D01*
X247992Y338972D02*
X249567D01*
X248780Y338185D02*
Y339760D01*
X252992Y328972D02*
X254567D01*
X253780Y328185D02*
Y329760D01*
X247992Y318972D02*
X249567D01*
X248780Y318185D02*
Y319760D01*
X247992Y298972D02*
X249567D01*
X248780Y298185D02*
Y299760D01*
X247992Y238972D02*
X249567D01*
X248780Y238185D02*
Y239760D01*
X252992Y228972D02*
X254567D01*
X253780Y228185D02*
Y229760D01*
X247992Y218972D02*
X249567D01*
X248780Y218185D02*
Y219760D01*
X252992Y208972D02*
X254567D01*
X253780Y208185D02*
Y209760D01*
X247992Y198972D02*
X249567D01*
X248780Y198185D02*
Y199760D01*
X252992Y188972D02*
X254567D01*
X253780Y188185D02*
Y189760D01*
X252992Y148972D02*
X254567D01*
X253780Y148185D02*
Y149760D01*
X247992Y138972D02*
X249567D01*
X248780Y138185D02*
Y139760D01*
X252992Y128972D02*
X254567D01*
X253780Y128185D02*
Y129760D01*
X247992Y118972D02*
X249567D01*
X248780Y118185D02*
Y119760D01*
X247992Y78972D02*
X249567D01*
X248780Y78185D02*
Y79760D01*
X252992Y68972D02*
X254567D01*
X253780Y68185D02*
Y69760D01*
X247992Y58972D02*
X249567D01*
X248780Y58185D02*
Y59760D01*
X252992Y48972D02*
X254567D01*
X253780Y48185D02*
Y49760D01*
X247992Y38972D02*
X249567D01*
X248780Y38185D02*
Y39760D01*
X252992Y28972D02*
X254567D01*
X253780Y28185D02*
Y29760D01*
X242992Y368972D02*
X244567D01*
X243779Y368185D02*
Y369760D01*
X237992Y358972D02*
X239567D01*
X238779Y358185D02*
Y359760D01*
X242992Y348972D02*
X244567D01*
X243779Y348185D02*
Y349760D01*
X237992Y338972D02*
X239567D01*
X238779Y338185D02*
Y339760D01*
X242992Y328972D02*
X244567D01*
X243779Y328185D02*
Y329760D01*
X242992Y308972D02*
X244567D01*
X243779Y308185D02*
Y309760D01*
X242992Y268972D02*
X244567D01*
X243779Y268185D02*
Y269760D01*
X242992Y248972D02*
X244567D01*
X243779Y248185D02*
Y249760D01*
X242992Y228972D02*
X244567D01*
X243779Y228185D02*
Y229760D01*
X242992Y208972D02*
X244567D01*
X243779Y208185D02*
Y209760D01*
X237992Y198972D02*
X239567D01*
X238779Y198185D02*
Y199760D01*
X242992Y188972D02*
X244567D01*
X243779Y188185D02*
Y189760D01*
X237992Y178972D02*
X239567D01*
X238779Y178185D02*
Y179760D01*
X242992Y148972D02*
X244567D01*
X243779Y148185D02*
Y149760D01*
X237992Y138972D02*
X239567D01*
X238779Y138185D02*
Y139760D01*
X242992Y128972D02*
X244567D01*
X243779Y128185D02*
Y129760D01*
X237992Y118972D02*
X239567D01*
X238779Y118185D02*
Y119760D01*
X242992Y108972D02*
X244567D01*
X243779Y108185D02*
Y109760D01*
X242992Y88972D02*
X244567D01*
X243779Y88185D02*
Y89760D01*
X237992Y78972D02*
X239567D01*
X238779Y78185D02*
Y79760D01*
X242992Y68972D02*
X244567D01*
X243779Y68185D02*
Y69760D01*
X237992Y58972D02*
X239567D01*
X238779Y58185D02*
Y59760D01*
X242992Y48972D02*
X244567D01*
X243779Y48185D02*
Y49760D01*
X237992Y38972D02*
X239567D01*
X238779Y38185D02*
Y39760D01*
X242992Y28972D02*
X244567D01*
X243779Y28185D02*
Y29760D01*
X237992Y18972D02*
X239567D01*
X238779Y18185D02*
Y19760D01*
X232992Y368972D02*
X234567D01*
X233780Y368185D02*
Y369760D01*
X227992Y358972D02*
X229567D01*
X228780Y358185D02*
Y359760D01*
X232992Y348972D02*
X234567D01*
X233780Y348185D02*
Y349760D01*
X227992Y338972D02*
X229567D01*
X228780Y338185D02*
Y339760D01*
X232992Y328972D02*
X234567D01*
X233780Y328185D02*
Y329760D01*
X227992Y298972D02*
X229567D01*
X228780Y298185D02*
Y299760D01*
X232992Y268972D02*
X234567D01*
X233780Y268185D02*
Y269760D01*
X232992Y248972D02*
X234567D01*
X233780Y248185D02*
Y249760D01*
X232992Y228972D02*
X234567D01*
X233780Y228185D02*
Y229760D01*
X232992Y188972D02*
X234567D01*
X233780Y188185D02*
Y189760D01*
X227992Y178972D02*
X229567D01*
X228780Y178185D02*
Y179760D01*
X227992Y158972D02*
X229567D01*
X228780Y158185D02*
Y159760D01*
X232992Y148972D02*
X234567D01*
X233780Y148185D02*
Y149760D01*
X227992Y138972D02*
X229567D01*
X228780Y138185D02*
Y139760D01*
X232992Y128972D02*
X234567D01*
X233780Y128185D02*
Y129760D01*
X227992Y118972D02*
X229567D01*
X228780Y118185D02*
Y119760D01*
X232992Y108972D02*
X234567D01*
X233780Y108185D02*
Y109760D01*
X232992Y88972D02*
X234567D01*
X233780Y88185D02*
Y89760D01*
X227992Y78972D02*
X229567D01*
X228780Y78185D02*
Y79760D01*
X232992Y68972D02*
X234567D01*
X233780Y68185D02*
Y69760D01*
X227992Y58972D02*
X229567D01*
X228780Y58185D02*
Y59760D01*
X232992Y48972D02*
X234567D01*
X233780Y48185D02*
Y49760D01*
X227992Y38972D02*
X229567D01*
X228780Y38185D02*
Y39760D01*
X232992Y28972D02*
X234567D01*
X233780Y28185D02*
Y29760D01*
X227992Y18972D02*
X229567D01*
X228780Y18185D02*
Y19760D01*
X222992Y368972D02*
X224567D01*
X223780Y368185D02*
Y369760D01*
X217992Y358972D02*
X219567D01*
X218779Y358185D02*
Y359760D01*
X222992Y348972D02*
X224567D01*
X223780Y348185D02*
Y349760D01*
X222992Y308972D02*
X224567D01*
X223780Y308185D02*
Y309760D01*
X222992Y268972D02*
X224567D01*
X223780Y268185D02*
Y269760D01*
X222992Y188972D02*
X224567D01*
X223780Y188185D02*
Y189760D01*
X217992Y158972D02*
X219567D01*
X218779Y158185D02*
Y159760D01*
X222992Y148972D02*
X224567D01*
X223780Y148185D02*
Y149760D01*
X217992Y138972D02*
X219567D01*
X218779Y138185D02*
Y139760D01*
X222992Y128972D02*
X224567D01*
X223780Y128185D02*
Y129760D01*
X217992Y118972D02*
X219567D01*
X218779Y118185D02*
Y119760D01*
X222992Y108972D02*
X224567D01*
X223780Y108185D02*
Y109760D01*
X222992Y88972D02*
X224567D01*
X223780Y88185D02*
Y89760D01*
X217992Y78972D02*
X219567D01*
X218779Y78185D02*
Y79760D01*
X222992Y68972D02*
X224567D01*
X223780Y68185D02*
Y69760D01*
X217992Y58972D02*
X219567D01*
X218779Y58185D02*
Y59760D01*
X222992Y48972D02*
X224567D01*
X223780Y48185D02*
Y49760D01*
X217992Y38972D02*
X219567D01*
X218779Y38185D02*
Y39760D01*
X222992Y28972D02*
X224567D01*
X223780Y28185D02*
Y29760D01*
X217992Y18972D02*
X219567D01*
X218779Y18185D02*
Y19760D01*
X212992Y368972D02*
X214567D01*
X213779Y368185D02*
Y369760D01*
X207992Y358972D02*
X209567D01*
X208780Y358185D02*
Y359760D01*
X212992Y348972D02*
X214567D01*
X213779Y348185D02*
Y349760D01*
X212992Y328972D02*
X214567D01*
X213779Y328185D02*
Y329760D01*
X212992Y308972D02*
X214567D01*
X213779Y308185D02*
Y309760D01*
X207992Y138972D02*
X209567D01*
X208780Y138185D02*
Y139760D01*
X212992Y128972D02*
X214567D01*
X213779Y128185D02*
Y129760D01*
X207992Y118972D02*
X209567D01*
X208780Y118185D02*
Y119760D01*
X212992Y108972D02*
X214567D01*
X213779Y108185D02*
Y109760D01*
X212992Y88972D02*
X214567D01*
X213779Y88185D02*
Y89760D01*
X207992Y78972D02*
X209567D01*
X208780Y78185D02*
Y79760D01*
X212992Y68972D02*
X214567D01*
X213779Y68185D02*
Y69760D01*
X207992Y58972D02*
X209567D01*
X208780Y58185D02*
Y59760D01*
X212992Y48972D02*
X214567D01*
X213779Y48185D02*
Y49760D01*
X207992Y38972D02*
X209567D01*
X208780Y38185D02*
Y39760D01*
X212992Y28972D02*
X214567D01*
X213779Y28185D02*
Y29760D01*
X207992Y18972D02*
X209567D01*
X208780Y18185D02*
Y19760D01*
X202992Y368972D02*
X204567D01*
X203780Y368185D02*
Y369760D01*
X202992Y348972D02*
X204567D01*
X203780Y348185D02*
Y349760D01*
X202992Y328972D02*
X204567D01*
X203780Y328185D02*
Y329760D01*
X202992Y308972D02*
X204567D01*
X203780Y308185D02*
Y309760D01*
X202992Y268972D02*
X204567D01*
X203780Y268185D02*
Y269760D01*
X197992Y138972D02*
X199567D01*
X198779Y138185D02*
Y139760D01*
X202992Y128972D02*
X204567D01*
X203780Y128185D02*
Y129760D01*
X197992Y118972D02*
X199567D01*
X198779Y118185D02*
Y119760D01*
X202992Y108972D02*
X204567D01*
X203780Y108185D02*
Y109760D01*
X202992Y88972D02*
X204567D01*
X203780Y88185D02*
Y89760D01*
X197992Y78972D02*
X199567D01*
X198779Y78185D02*
Y79760D01*
X202992Y68972D02*
X204567D01*
X203780Y68185D02*
Y69760D01*
X197992Y58972D02*
X199567D01*
X198779Y58185D02*
Y59760D01*
X202992Y48972D02*
X204567D01*
X203780Y48185D02*
Y49760D01*
X197992Y38972D02*
X199567D01*
X198779Y38185D02*
Y39760D01*
X202992Y28972D02*
X204567D01*
X203780Y28185D02*
Y29760D01*
X197992Y18972D02*
X199567D01*
X198779Y18185D02*
Y19760D01*
X192992Y368972D02*
X194567D01*
X193780Y368185D02*
Y369760D01*
X192992Y348972D02*
X194567D01*
X193780Y348185D02*
Y349760D01*
X192992Y328972D02*
X194567D01*
X193780Y328185D02*
Y329760D01*
X192992Y308972D02*
X194567D01*
X193780Y308185D02*
Y309760D01*
X192992Y288972D02*
X194567D01*
X193780Y288185D02*
Y289760D01*
X192992Y268972D02*
X194567D01*
X193780Y268185D02*
Y269760D01*
X192992Y168972D02*
X194567D01*
X193780Y168185D02*
Y169760D01*
X192992Y148972D02*
X194567D01*
X193780Y148185D02*
Y149760D01*
X192992Y128972D02*
X194567D01*
X193780Y128185D02*
Y129760D01*
X187992Y118972D02*
X189567D01*
X188779Y118185D02*
Y119760D01*
X192992Y108972D02*
X194567D01*
X193780Y108185D02*
Y109760D01*
X192992Y88972D02*
X194567D01*
X193780Y88185D02*
Y89760D01*
X187992Y78972D02*
X189567D01*
X188779Y78185D02*
Y79760D01*
X192992Y68972D02*
X194567D01*
X193780Y68185D02*
Y69760D01*
X187992Y58972D02*
X189567D01*
X188779Y58185D02*
Y59760D01*
X192992Y48972D02*
X194567D01*
X193780Y48185D02*
Y49760D01*
X187992Y38972D02*
X189567D01*
X188779Y38185D02*
Y39760D01*
X192992Y28972D02*
X194567D01*
X193780Y28185D02*
Y29760D01*
X187992Y18972D02*
X189567D01*
X188779Y18185D02*
Y19760D01*
X182992Y348972D02*
X184567D01*
X183780Y348185D02*
Y349760D01*
X182992Y328972D02*
X184567D01*
X183780Y328185D02*
Y329760D01*
X182992Y308972D02*
X184567D01*
X183780Y308185D02*
Y309760D01*
X182992Y288972D02*
X184567D01*
X183780Y288185D02*
Y289760D01*
X182992Y268972D02*
X184567D01*
X183780Y268185D02*
Y269760D01*
X177992Y138972D02*
X179567D01*
X178779Y138185D02*
Y139760D01*
X177992Y118972D02*
X179567D01*
X178779Y118185D02*
Y119760D01*
X182992Y108972D02*
X184567D01*
X183780Y108185D02*
Y109760D01*
X182992Y88972D02*
X184567D01*
X183780Y88185D02*
Y89760D01*
X177992Y78972D02*
X179567D01*
X178779Y78185D02*
Y79760D01*
X182992Y68972D02*
X184567D01*
X183780Y68185D02*
Y69760D01*
X177992Y58972D02*
X179567D01*
X178779Y58185D02*
Y59760D01*
X182992Y48972D02*
X184567D01*
X183780Y48185D02*
Y49760D01*
X177992Y38972D02*
X179567D01*
X178779Y38185D02*
Y39760D01*
X182992Y28972D02*
X184567D01*
X183780Y28185D02*
Y29760D01*
X177992Y18972D02*
X179567D01*
X178779Y18185D02*
Y19760D01*
X172992Y328972D02*
X174567D01*
X173779Y328185D02*
Y329760D01*
X172992Y308972D02*
X174567D01*
X173779Y308185D02*
Y309760D01*
X172992Y288972D02*
X174567D01*
X173779Y288185D02*
Y289760D01*
X172992Y268972D02*
X174567D01*
X173779Y268185D02*
Y269760D01*
X167992Y198972D02*
X169567D01*
X168780Y198185D02*
Y199760D01*
X172992Y148972D02*
X174567D01*
X173779Y148185D02*
Y149760D01*
X167992Y138972D02*
X169567D01*
X168780Y138185D02*
Y139760D01*
X172992Y128972D02*
X174567D01*
X173779Y128185D02*
Y129760D01*
X167992Y118972D02*
X169567D01*
X168780Y118185D02*
Y119760D01*
X172992Y108972D02*
X174567D01*
X173779Y108185D02*
Y109760D01*
X172992Y88972D02*
X174567D01*
X173779Y88185D02*
Y89760D01*
X167992Y78972D02*
X169567D01*
X168780Y78185D02*
Y79760D01*
X172992Y68972D02*
X174567D01*
X173779Y68185D02*
Y69760D01*
X167992Y58972D02*
X169567D01*
X168780Y58185D02*
Y59760D01*
X172992Y48972D02*
X174567D01*
X173779Y48185D02*
Y49760D01*
X167992Y38972D02*
X169567D01*
X168780Y38185D02*
Y39760D01*
X172992Y28972D02*
X174567D01*
X173779Y28185D02*
Y29760D01*
X167992Y18972D02*
X169567D01*
X168780Y18185D02*
Y19760D01*
X162992Y348972D02*
X164567D01*
X163779Y348185D02*
Y349760D01*
X162992Y328972D02*
X164567D01*
X163779Y328185D02*
Y329760D01*
X162992Y308972D02*
X164567D01*
X163779Y308185D02*
Y309760D01*
X157992Y298972D02*
X159567D01*
X158780Y298185D02*
Y299760D01*
X162992Y288972D02*
X164567D01*
X163779Y288185D02*
Y289760D01*
X157992Y198972D02*
X159567D01*
X158780Y198185D02*
Y199760D01*
X157992Y178972D02*
X159567D01*
X158780Y178185D02*
Y179760D01*
X157992Y138972D02*
X159567D01*
X158780Y138185D02*
Y139760D01*
X162992Y128972D02*
X164567D01*
X163779Y128185D02*
Y129760D01*
X157992Y118972D02*
X159567D01*
X158780Y118185D02*
Y119760D01*
X162992Y108972D02*
X164567D01*
X163779Y108185D02*
Y109760D01*
X162992Y88972D02*
X164567D01*
X163779Y88185D02*
Y89760D01*
X157992Y78972D02*
X159567D01*
X158780Y78185D02*
Y79760D01*
X162992Y68972D02*
X164567D01*
X163779Y68185D02*
Y69760D01*
X157992Y58972D02*
X159567D01*
X158780Y58185D02*
Y59760D01*
X162992Y48972D02*
X164567D01*
X163779Y48185D02*
Y49760D01*
X157992Y38972D02*
X159567D01*
X158780Y38185D02*
Y39760D01*
X162992Y28972D02*
X164567D01*
X163779Y28185D02*
Y29760D01*
X157992Y18972D02*
X159567D01*
X158780Y18185D02*
Y19760D01*
X152992Y368972D02*
X154567D01*
X153779Y368185D02*
Y369760D01*
X152992Y308972D02*
X154567D01*
X153779Y308185D02*
Y309760D01*
X147992Y298972D02*
X149567D01*
X148779Y298185D02*
Y299760D01*
X147992Y278972D02*
X149567D01*
X148779Y278185D02*
Y279760D01*
X152992Y268972D02*
X154567D01*
X153779Y268185D02*
Y269760D01*
X152992Y228972D02*
X154567D01*
X153779Y228185D02*
Y229760D01*
X147992Y218972D02*
X149567D01*
X148779Y218185D02*
Y219760D01*
X152992Y208972D02*
X154567D01*
X153779Y208185D02*
Y209760D01*
X147992Y178972D02*
X149567D01*
X148779Y178185D02*
Y179760D01*
X147992Y138972D02*
X149567D01*
X148779Y138185D02*
Y139760D01*
X152992Y128972D02*
X154567D01*
X153779Y128185D02*
Y129760D01*
X147992Y118972D02*
X149567D01*
X148779Y118185D02*
Y119760D01*
X152992Y108972D02*
X154567D01*
X153779Y108185D02*
Y109760D01*
X152992Y88972D02*
X154567D01*
X153779Y88185D02*
Y89760D01*
X147992Y78972D02*
X149567D01*
X148779Y78185D02*
Y79760D01*
X152992Y68972D02*
X154567D01*
X153779Y68185D02*
Y69760D01*
X147992Y58972D02*
X149567D01*
X148779Y58185D02*
Y59760D01*
X152992Y48972D02*
X154567D01*
X153779Y48185D02*
Y49760D01*
X147992Y38972D02*
X149567D01*
X148779Y38185D02*
Y39760D01*
X152992Y28972D02*
X154567D01*
X153779Y28185D02*
Y29760D01*
X147992Y18972D02*
X149567D01*
X148779Y18185D02*
Y19760D01*
X142992Y368972D02*
X144567D01*
X143780Y368185D02*
Y369760D01*
X137992Y298972D02*
X139567D01*
X138779Y298185D02*
Y299760D01*
X142992Y288972D02*
X144567D01*
X143780Y288185D02*
Y289760D01*
X142992Y228972D02*
X144567D01*
X143780Y228185D02*
Y229760D01*
X137992Y218972D02*
X139567D01*
X138779Y218185D02*
Y219760D01*
X142992Y168972D02*
X144567D01*
X143780Y168185D02*
Y169760D01*
X142992Y128972D02*
X144567D01*
X143780Y128185D02*
Y129760D01*
X137992Y118972D02*
X139567D01*
X138779Y118185D02*
Y119760D01*
X142992Y108972D02*
X144567D01*
X143780Y108185D02*
Y109760D01*
X142992Y88972D02*
X144567D01*
X143780Y88185D02*
Y89760D01*
X137992Y78972D02*
X139567D01*
X138779Y78185D02*
Y79760D01*
X142992Y68972D02*
X144567D01*
X143780Y68185D02*
Y69760D01*
X137992Y58972D02*
X139567D01*
X138779Y58185D02*
Y59760D01*
X142992Y48972D02*
X144567D01*
X143780Y48185D02*
Y49760D01*
X137992Y38972D02*
X139567D01*
X138779Y38185D02*
Y39760D01*
X142992Y28972D02*
X144567D01*
X143780Y28185D02*
Y29760D01*
X137992Y18972D02*
X139567D01*
X138779Y18185D02*
Y19760D01*
X132992Y368972D02*
X134567D01*
X133780Y368185D02*
Y369760D01*
X127992Y358972D02*
X129567D01*
X128779Y358185D02*
Y359760D01*
X132992Y308972D02*
X134567D01*
X133780Y308185D02*
Y309760D01*
X127992Y298972D02*
X129567D01*
X128779Y298185D02*
Y299760D01*
X132992Y288972D02*
X134567D01*
X133780Y288185D02*
Y289760D01*
X127992Y278972D02*
X129567D01*
X128779Y278185D02*
Y279760D01*
X132992Y248972D02*
X134567D01*
X133780Y248185D02*
Y249760D01*
X132992Y208972D02*
X134567D01*
X133780Y208185D02*
Y209760D01*
X127992Y198972D02*
X129567D01*
X128779Y198185D02*
Y199760D01*
X127992Y178972D02*
X129567D01*
X128779Y178185D02*
Y179760D01*
X127992Y118972D02*
X129567D01*
X128779Y118185D02*
Y119760D01*
X132992Y108972D02*
X134567D01*
X133780Y108185D02*
Y109760D01*
X132992Y88972D02*
X134567D01*
X133780Y88185D02*
Y89760D01*
X127992Y78972D02*
X129567D01*
X128779Y78185D02*
Y79760D01*
X132992Y68972D02*
X134567D01*
X133780Y68185D02*
Y69760D01*
X127992Y58972D02*
X129567D01*
X128779Y58185D02*
Y59760D01*
X132992Y48972D02*
X134567D01*
X133780Y48185D02*
Y49760D01*
X127992Y38972D02*
X129567D01*
X128779Y38185D02*
Y39760D01*
X132992Y28972D02*
X134567D01*
X133780Y28185D02*
Y29760D01*
X127992Y18972D02*
X129567D01*
X128779Y18185D02*
Y19760D01*
X122992Y368972D02*
X124567D01*
X123779Y368185D02*
Y369760D01*
X117992Y358972D02*
X119567D01*
X118780Y358185D02*
Y359760D01*
X122992Y308972D02*
X124567D01*
X123779Y308185D02*
Y309760D01*
X117992Y298972D02*
X119567D01*
X118780Y298185D02*
Y299760D01*
X122992Y288972D02*
X124567D01*
X123779Y288185D02*
Y289760D01*
X117992Y278972D02*
X119567D01*
X118780Y278185D02*
Y279760D01*
X122992Y268972D02*
X124567D01*
X123779Y268185D02*
Y269760D01*
X122992Y248972D02*
X124567D01*
X123779Y248185D02*
Y249760D01*
X117992Y178972D02*
X119567D01*
X118780Y178185D02*
Y179760D01*
X117992Y118972D02*
X119567D01*
X118780Y118185D02*
Y119760D01*
X122992Y108972D02*
X124567D01*
X123779Y108185D02*
Y109760D01*
X122992Y88972D02*
X124567D01*
X123779Y88185D02*
Y89760D01*
X117992Y78972D02*
X119567D01*
X118780Y78185D02*
Y79760D01*
X122992Y68972D02*
X124567D01*
X123779Y68185D02*
Y69760D01*
X117992Y58972D02*
X119567D01*
X118780Y58185D02*
Y59760D01*
X122992Y48972D02*
X124567D01*
X123779Y48185D02*
Y49760D01*
X117992Y38972D02*
X119567D01*
X118780Y38185D02*
Y39760D01*
X122992Y28972D02*
X124567D01*
X123779Y28185D02*
Y29760D01*
X117992Y18972D02*
X119567D01*
X118780Y18185D02*
Y19760D01*
X112992Y368972D02*
X114567D01*
X113779Y368185D02*
Y369760D01*
X107992Y358972D02*
X109567D01*
X108780Y358185D02*
Y359760D01*
X112992Y328972D02*
X114567D01*
X113779Y328185D02*
Y329760D01*
X107992Y278972D02*
X109567D01*
X108780Y278185D02*
Y279760D01*
X112992Y268972D02*
X114567D01*
X113779Y268185D02*
Y269760D01*
X107992Y258972D02*
X109567D01*
X108780Y258185D02*
Y259760D01*
X112992Y148972D02*
X114567D01*
X113779Y148185D02*
Y149760D01*
X107992Y118972D02*
X109567D01*
X108780Y118185D02*
Y119760D01*
X112992Y108972D02*
X114567D01*
X113779Y108185D02*
Y109760D01*
X112992Y88972D02*
X114567D01*
X113779Y88185D02*
Y89760D01*
X107992Y78972D02*
X109567D01*
X108780Y78185D02*
Y79760D01*
X112992Y68972D02*
X114567D01*
X113779Y68185D02*
Y69760D01*
X107992Y58972D02*
X109567D01*
X108780Y58185D02*
Y59760D01*
X112992Y48972D02*
X114567D01*
X113779Y48185D02*
Y49760D01*
X107992Y38972D02*
X109567D01*
X108780Y38185D02*
Y39760D01*
X112992Y28972D02*
X114567D01*
X113779Y28185D02*
Y29760D01*
X107992Y18972D02*
X109567D01*
X108780Y18185D02*
Y19760D01*
X102992Y368972D02*
X104567D01*
X103779Y368185D02*
Y369760D01*
X97992Y358972D02*
X99567D01*
X98779Y358185D02*
Y359760D01*
X97992Y338972D02*
X99567D01*
X98779Y338185D02*
Y339760D01*
X102992Y328972D02*
X104567D01*
X103779Y328185D02*
Y329760D01*
X97992Y318972D02*
X99567D01*
X98779Y318185D02*
Y319760D01*
X102992Y268972D02*
X104567D01*
X103779Y268185D02*
Y269760D01*
X97992Y258972D02*
X99567D01*
X98779Y258185D02*
Y259760D01*
X97992Y158972D02*
X99567D01*
X98779Y158185D02*
Y159760D01*
X97992Y118972D02*
X99567D01*
X98779Y118185D02*
Y119760D01*
X102992Y108972D02*
X104567D01*
X103779Y108185D02*
Y109760D01*
X102992Y88972D02*
X104567D01*
X103779Y88185D02*
Y89760D01*
X97992Y78972D02*
X99567D01*
X98779Y78185D02*
Y79760D01*
X102992Y68972D02*
X104567D01*
X103779Y68185D02*
Y69760D01*
X97992Y58972D02*
X99567D01*
X98779Y58185D02*
Y59760D01*
X102992Y48972D02*
X104567D01*
X103779Y48185D02*
Y49760D01*
X97992Y38972D02*
X99567D01*
X98779Y38185D02*
Y39760D01*
X102992Y28972D02*
X104567D01*
X103779Y28185D02*
Y29760D01*
X97992Y18972D02*
X99567D01*
X98779Y18185D02*
Y19760D01*
X92992Y368972D02*
X94567D01*
X93779Y368185D02*
Y369760D01*
X87992Y358972D02*
X89567D01*
X88779Y358185D02*
Y359760D01*
X92992Y328972D02*
X94567D01*
X93779Y328185D02*
Y329760D01*
X92992Y308972D02*
X94567D01*
X93779Y308185D02*
Y309760D01*
X92992Y148972D02*
X94567D01*
X93779Y148185D02*
Y149760D01*
X87992Y138972D02*
X89567D01*
X88779Y138185D02*
Y139760D01*
X87992Y118972D02*
X89567D01*
X88779Y118185D02*
Y119760D01*
X92992Y108972D02*
X94567D01*
X93779Y108185D02*
Y109760D01*
X92992Y88972D02*
X94567D01*
X93779Y88185D02*
Y89760D01*
X87992Y78972D02*
X89567D01*
X88779Y78185D02*
Y79760D01*
X92992Y68972D02*
X94567D01*
X93779Y68185D02*
Y69760D01*
X87992Y58972D02*
X89567D01*
X88779Y58185D02*
Y59760D01*
X92992Y48972D02*
X94567D01*
X93779Y48185D02*
Y49760D01*
X87992Y38972D02*
X89567D01*
X88779Y38185D02*
Y39760D01*
X92992Y28972D02*
X94567D01*
X93779Y28185D02*
Y29760D01*
X87992Y18972D02*
X89567D01*
X88779Y18185D02*
Y19760D01*
X82992Y368972D02*
X84567D01*
X83780Y368185D02*
Y369760D01*
X77992Y358972D02*
X79567D01*
X78780Y358185D02*
Y359760D01*
X77992Y338972D02*
X79567D01*
X78780Y338185D02*
Y339760D01*
X82992Y328972D02*
X84567D01*
X83780Y328185D02*
Y329760D01*
X77992Y138972D02*
X79567D01*
X78780Y138185D02*
Y139760D01*
X77992Y118972D02*
X79567D01*
X78780Y118185D02*
Y119760D01*
X82992Y108972D02*
X84567D01*
X83780Y108185D02*
Y109760D01*
X82992Y88972D02*
X84567D01*
X83780Y88185D02*
Y89760D01*
X77992Y78972D02*
X79567D01*
X78780Y78185D02*
Y79760D01*
X82992Y68972D02*
X84567D01*
X83780Y68185D02*
Y69760D01*
X77992Y58972D02*
X79567D01*
X78780Y58185D02*
Y59760D01*
X82992Y48972D02*
X84567D01*
X83780Y48185D02*
Y49760D01*
X77992Y38972D02*
X79567D01*
X78780Y38185D02*
Y39760D01*
X82992Y28972D02*
X84567D01*
X83780Y28185D02*
Y29760D01*
X77992Y18972D02*
X79567D01*
X78780Y18185D02*
Y19760D01*
X72992Y368972D02*
X74567D01*
X73779Y368185D02*
Y369760D01*
X67992Y358972D02*
X69567D01*
X68779Y358185D02*
Y359760D01*
X72992Y328972D02*
X74567D01*
X73779Y328185D02*
Y329760D01*
X72992Y288972D02*
X74567D01*
X73779Y288185D02*
Y289760D01*
X72992Y228972D02*
X74567D01*
X73779Y228185D02*
Y229760D01*
X67992Y138972D02*
X69567D01*
X68779Y138185D02*
Y139760D01*
X67992Y118972D02*
X69567D01*
X68779Y118185D02*
Y119760D01*
X72992Y108972D02*
X74567D01*
X73779Y108185D02*
Y109760D01*
X72992Y88972D02*
X74567D01*
X73779Y88185D02*
Y89760D01*
X67992Y78972D02*
X69567D01*
X68779Y78185D02*
Y79760D01*
X72992Y68972D02*
X74567D01*
X73779Y68185D02*
Y69760D01*
X67992Y58972D02*
X69567D01*
X68779Y58185D02*
Y59760D01*
X72992Y48972D02*
X74567D01*
X73779Y48185D02*
Y49760D01*
X67992Y38972D02*
X69567D01*
X68779Y38185D02*
Y39760D01*
X72992Y28972D02*
X74567D01*
X73779Y28185D02*
Y29760D01*
X67992Y18972D02*
X69567D01*
X68779Y18185D02*
Y19760D01*
X62992Y368972D02*
X64567D01*
X63779Y368185D02*
Y369760D01*
X57992Y358972D02*
X59567D01*
X58780Y358185D02*
Y359760D01*
X57992Y338972D02*
X59567D01*
X58780Y338185D02*
Y339760D01*
X62992Y328972D02*
X64567D01*
X63779Y328185D02*
Y329760D01*
X57992Y318972D02*
X59567D01*
X58780Y318185D02*
Y319760D01*
X62992Y308972D02*
X64567D01*
X63779Y308185D02*
Y309760D01*
X62992Y288972D02*
X64567D01*
X63779Y288185D02*
Y289760D01*
X57992Y278972D02*
X59567D01*
X58780Y278185D02*
Y279760D01*
X57992Y238972D02*
X59567D01*
X58780Y238185D02*
Y239760D01*
X62992Y168972D02*
X64567D01*
X63779Y168185D02*
Y169760D01*
X57992Y158972D02*
X59567D01*
X58780Y158185D02*
Y159760D01*
X57992Y138972D02*
X59567D01*
X58780Y138185D02*
Y139760D01*
X57992Y118972D02*
X59567D01*
X58780Y118185D02*
Y119760D01*
X62992Y108972D02*
X64567D01*
X63779Y108185D02*
Y109760D01*
X62992Y88972D02*
X64567D01*
X63779Y88185D02*
Y89760D01*
X57992Y78972D02*
X59567D01*
X58780Y78185D02*
Y79760D01*
X62992Y68972D02*
X64567D01*
X63779Y68185D02*
Y69760D01*
X57992Y58972D02*
X59567D01*
X58780Y58185D02*
Y59760D01*
X62992Y48972D02*
X64567D01*
X63779Y48185D02*
Y49760D01*
X57992Y38972D02*
X59567D01*
X58780Y38185D02*
Y39760D01*
X62992Y28972D02*
X64567D01*
X63779Y28185D02*
Y29760D01*
X57992Y18972D02*
X59567D01*
X58780Y18185D02*
Y19760D01*
X52992Y368972D02*
X54567D01*
X53780Y368185D02*
Y369760D01*
X47992Y338972D02*
X49567D01*
X48779Y338185D02*
Y339760D01*
X52992Y328972D02*
X54567D01*
X53780Y328185D02*
Y329760D01*
X47992Y318972D02*
X49567D01*
X48779Y318185D02*
Y319760D01*
X52992Y308972D02*
X54567D01*
X53780Y308185D02*
Y309760D01*
X52992Y288972D02*
X54567D01*
X53780Y288185D02*
Y289760D01*
X47992Y278972D02*
X49567D01*
X48779Y278185D02*
Y279760D01*
X52992Y268972D02*
X54567D01*
X53780Y268185D02*
Y269760D01*
X47992Y238972D02*
X49567D01*
X48779Y238185D02*
Y239760D01*
X52992Y228972D02*
X54567D01*
X53780Y228185D02*
Y229760D01*
X47992Y158972D02*
X49567D01*
X48779Y158185D02*
Y159760D01*
X52992Y148972D02*
X54567D01*
X53780Y148185D02*
Y149760D01*
X52992Y128972D02*
X54567D01*
X53780Y128185D02*
Y129760D01*
X47992Y118972D02*
X49567D01*
X48779Y118185D02*
Y119760D01*
X52992Y108972D02*
X54567D01*
X53780Y108185D02*
Y109760D01*
X52992Y88972D02*
X54567D01*
X53780Y88185D02*
Y89760D01*
X47992Y78972D02*
X49567D01*
X48779Y78185D02*
Y79760D01*
X52992Y68972D02*
X54567D01*
X53780Y68185D02*
Y69760D01*
X47992Y58972D02*
X49567D01*
X48779Y58185D02*
Y59760D01*
X52992Y48972D02*
X54567D01*
X53780Y48185D02*
Y49760D01*
X47992Y38972D02*
X49567D01*
X48779Y38185D02*
Y39760D01*
X52992Y28972D02*
X54567D01*
X53780Y28185D02*
Y29760D01*
X47992Y18972D02*
X49567D01*
X48779Y18185D02*
Y19760D01*
X42992Y368972D02*
X44567D01*
X43780Y368185D02*
Y369760D01*
X37992Y358972D02*
X39567D01*
X38780Y358185D02*
Y359760D01*
X42992Y328972D02*
X44567D01*
X43780Y328185D02*
Y329760D01*
X37992Y318972D02*
X39567D01*
X38780Y318185D02*
Y319760D01*
X42992Y308972D02*
X44567D01*
X43780Y308185D02*
Y309760D01*
X42992Y288972D02*
X44567D01*
X43780Y288185D02*
Y289760D01*
X37992Y278972D02*
X39567D01*
X38780Y278185D02*
Y279760D01*
X42992Y268972D02*
X44567D01*
X43780Y268185D02*
Y269760D01*
X37992Y258972D02*
X39567D01*
X38780Y258185D02*
Y259760D01*
X42992Y228972D02*
X44567D01*
X43780Y228185D02*
Y229760D01*
X37992Y178972D02*
X39567D01*
X38780Y178185D02*
Y179760D01*
X42992Y168972D02*
X44567D01*
X43780Y168185D02*
Y169760D01*
X37992Y158972D02*
X39567D01*
X38780Y158185D02*
Y159760D01*
X37992Y138972D02*
X39567D01*
X38780Y138185D02*
Y139760D01*
X42992Y128972D02*
X44567D01*
X43780Y128185D02*
Y129760D01*
X37992Y118972D02*
X39567D01*
X38780Y118185D02*
Y119760D01*
X42992Y108972D02*
X44567D01*
X43780Y108185D02*
Y109760D01*
X42992Y88972D02*
X44567D01*
X43780Y88185D02*
Y89760D01*
X37992Y78972D02*
X39567D01*
X38780Y78185D02*
Y79760D01*
X42992Y68972D02*
X44567D01*
X43780Y68185D02*
Y69760D01*
X37992Y58972D02*
X39567D01*
X38780Y58185D02*
Y59760D01*
X42992Y48972D02*
X44567D01*
X43780Y48185D02*
Y49760D01*
X37992Y38972D02*
X39567D01*
X38780Y38185D02*
Y39760D01*
X42992Y28972D02*
X44567D01*
X43780Y28185D02*
Y29760D01*
X37992Y18972D02*
X39567D01*
X38780Y18185D02*
Y19760D01*
X32992Y368972D02*
X34567D01*
X33779Y368185D02*
Y369760D01*
X27992Y358972D02*
X29567D01*
X28780Y358185D02*
Y359760D01*
X27992Y338972D02*
X29567D01*
X28780Y338185D02*
Y339760D01*
X32992Y328972D02*
X34567D01*
X33779Y328185D02*
Y329760D01*
X32992Y308972D02*
X34567D01*
X33779Y308185D02*
Y309760D01*
X27992Y278972D02*
X29567D01*
X28780Y278185D02*
Y279760D01*
X32992Y268972D02*
X34567D01*
X33779Y268185D02*
Y269760D01*
X32992Y208972D02*
X34567D01*
X33779Y208185D02*
Y209760D01*
X27992Y178972D02*
X29567D01*
X28780Y178185D02*
Y179760D01*
X32992Y168972D02*
X34567D01*
X33779Y168185D02*
Y169760D01*
X32992Y148972D02*
X34567D01*
X33779Y148185D02*
Y149760D01*
X27992Y138972D02*
X29567D01*
X28780Y138185D02*
Y139760D01*
X32992Y128972D02*
X34567D01*
X33779Y128185D02*
Y129760D01*
X27992Y118972D02*
X29567D01*
X28780Y118185D02*
Y119760D01*
X32992Y108972D02*
X34567D01*
X33779Y108185D02*
Y109760D01*
X32992Y88972D02*
X34567D01*
X33779Y88185D02*
Y89760D01*
X27992Y78972D02*
X29567D01*
X28780Y78185D02*
Y79760D01*
X32992Y68972D02*
X34567D01*
X33779Y68185D02*
Y69760D01*
X27992Y58972D02*
X29567D01*
X28780Y58185D02*
Y59760D01*
X32992Y48972D02*
X34567D01*
X33779Y48185D02*
Y49760D01*
X27992Y38972D02*
X29567D01*
X28780Y38185D02*
Y39760D01*
X32992Y28972D02*
X34567D01*
X33779Y28185D02*
Y29760D01*
X22992Y328972D02*
X24567D01*
X23779Y328185D02*
Y329760D01*
X17992Y278972D02*
X19567D01*
X18779Y278185D02*
Y279760D01*
X17992Y178972D02*
X19567D01*
X18779Y178185D02*
Y179760D01*
X17992Y158972D02*
X19567D01*
X18779Y158185D02*
Y159760D01*
X22992Y148972D02*
X24567D01*
X23779Y148185D02*
Y149760D01*
X17992Y138972D02*
X19567D01*
X18779Y138185D02*
Y139760D01*
X22992Y128972D02*
X24567D01*
X23779Y128185D02*
Y129760D01*
X17992Y118972D02*
X19567D01*
X18779Y118185D02*
Y119760D01*
X22992Y108972D02*
X24567D01*
X23779Y108185D02*
Y109760D01*
X22992Y88972D02*
X24567D01*
X23779Y88185D02*
Y89760D01*
X17992Y78972D02*
X19567D01*
X18779Y78185D02*
Y79760D01*
X22992Y68972D02*
X24567D01*
X23779Y68185D02*
Y69760D01*
X17992Y58972D02*
X19567D01*
X18779Y58185D02*
Y59760D01*
X22992Y48972D02*
X24567D01*
X23779Y48185D02*
Y49760D01*
X17992Y38972D02*
X19567D01*
X18779Y38185D02*
Y39760D01*
X22992Y28972D02*
X24567D01*
X23779Y28185D02*
Y29760D01*
X12992Y328972D02*
X14567D01*
X13780Y328185D02*
Y329760D01*
X7992Y198972D02*
X9567D01*
X8779Y198185D02*
Y199760D01*
X12992Y188972D02*
X14567D01*
X13780Y188185D02*
Y189760D01*
X7992Y178972D02*
X9567D01*
X8779Y178185D02*
Y179760D01*
X12992Y168972D02*
X14567D01*
X13780Y168185D02*
Y169760D01*
X7992Y158972D02*
X9567D01*
X8779Y158185D02*
Y159760D01*
X12992Y148972D02*
X14567D01*
X13780Y148185D02*
Y149760D01*
X7992Y138972D02*
X9567D01*
X8779Y138185D02*
Y139760D01*
X12992Y128972D02*
X14567D01*
X13780Y128185D02*
Y129760D01*
X7992Y118972D02*
X9567D01*
X8779Y118185D02*
Y119760D01*
X7992Y78972D02*
X9567D01*
X8779Y78185D02*
Y79760D01*
X12992Y68972D02*
X14567D01*
X13780Y68185D02*
Y69760D01*
X7992Y58972D02*
X9567D01*
X8779Y58185D02*
Y59760D01*
X12992Y48972D02*
X14567D01*
X13780Y48185D02*
Y49760D01*
X7992Y38972D02*
X9567D01*
X8779Y38185D02*
Y39760D01*
X12992Y28972D02*
X14567D01*
X13780Y28185D02*
Y29760D01*
X7992Y18972D02*
X9567D01*
X8779Y18185D02*
Y19760D01*
X201921Y291886D02*
X203102D01*
X202512Y291295D02*
Y292476D01*
X205069Y286375D02*
X206251D01*
X205660Y285785D02*
Y286966D01*
X208219Y286375D02*
X209400D01*
X208809Y285785D02*
Y286966D01*
X208219Y283619D02*
X209400D01*
X208809Y283029D02*
Y284210D01*
X205069Y283619D02*
X206251D01*
X205660Y283029D02*
Y284210D01*
X205069Y289131D02*
X206251D01*
X205660Y288541D02*
Y289722D01*
X208219Y289131D02*
X209400D01*
X208809Y288541D02*
Y289722D01*
X208219Y291886D02*
X209400D01*
X208809Y291295D02*
Y292476D01*
X201920Y283619D02*
X203101D01*
X202510Y283029D02*
Y284210D01*
X201920Y286375D02*
X203101D01*
X202510Y285785D02*
Y286966D01*
X205069Y291886D02*
X206251D01*
X205660Y291295D02*
Y292476D01*
X201921Y288963D02*
X203102D01*
X202512Y288373D02*
Y289554D01*
X211369Y291886D02*
X212550D01*
X211959Y291295D02*
Y292476D01*
X211369Y286375D02*
X212550D01*
X211959Y285785D02*
Y286966D01*
X211369Y289131D02*
X212550D01*
X211959Y288541D02*
Y289722D01*
X211369Y283619D02*
X212550D01*
X211959Y283029D02*
Y284210D01*
X31999Y238453D02*
X33574D01*
X32787Y237666D02*
Y239241D01*
X84449Y273720D02*
X85630D01*
X85039Y273130D02*
Y274311D01*
X80905Y273720D02*
X82087D01*
X81496Y273130D02*
Y274311D01*
X75787Y251218D02*
X76968D01*
X76378Y250628D02*
Y251809D01*
X80905Y259782D02*
X82087D01*
X81496Y259191D02*
Y260372D01*
X80905Y265293D02*
X82087D01*
X81496Y264703D02*
Y265884D01*
X80905Y262537D02*
X82087D01*
X81496Y261947D02*
Y263128D01*
X80905Y268048D02*
X82087D01*
X81496Y267457D02*
Y268638D01*
X71624Y265126D02*
X72806D01*
X72215Y264535D02*
Y265716D01*
X74606Y268048D02*
X75787D01*
X75197Y267457D02*
Y268638D01*
X71457Y262537D02*
X72638D01*
X72047Y261947D02*
Y263128D01*
X71457Y259782D02*
X72638D01*
X72047Y259191D02*
Y260372D01*
X77756Y268048D02*
X78937D01*
X78347Y267457D02*
Y268638D01*
X77756Y265293D02*
X78937D01*
X78347Y264703D02*
Y265884D01*
X74606Y265293D02*
X75787D01*
X75197Y264703D02*
Y265884D01*
X74606Y259782D02*
X75787D01*
X75197Y259191D02*
Y260372D01*
X77756Y259782D02*
X78937D01*
X78347Y259191D02*
Y260372D01*
X77756Y262537D02*
X78937D01*
X78347Y261947D02*
Y263128D01*
X74606Y262537D02*
X75787D01*
X75197Y261947D02*
Y263128D01*
X76772Y296457D02*
X77953D01*
X77362Y295866D02*
Y297047D01*
X76772Y305118D02*
X77953D01*
X77362Y304528D02*
Y305709D01*
X76772Y302362D02*
X77953D01*
X77362Y301772D02*
Y302953D01*
X76772Y307874D02*
X77953D01*
X77362Y307283D02*
Y308465D01*
X83760Y318896D02*
X84941D01*
X84350Y318306D02*
Y319487D01*
X83760Y316142D02*
X84941D01*
X84350Y315551D02*
Y316732D01*
X83760Y310630D02*
X84941D01*
X84350Y310039D02*
Y311221D01*
X83760Y313386D02*
X84941D01*
X84350Y312795D02*
Y313976D01*
X69685Y318896D02*
X70866D01*
X70276Y318306D02*
Y319487D01*
X69685Y316142D02*
X70866D01*
X70276Y315551D02*
Y316732D01*
X69685Y310630D02*
X70866D01*
X70276Y310039D02*
Y311221D01*
X69685Y313386D02*
X70866D01*
X70276Y312795D02*
Y313976D01*
X75142Y313386D02*
X76323D01*
X75732Y312795D02*
Y313976D01*
X78559Y313386D02*
X79740D01*
X79150Y312795D02*
Y313976D01*
X78559Y310630D02*
X79740D01*
X79150Y310039D02*
Y311221D01*
X75142Y310630D02*
X76323D01*
X75732Y310039D02*
Y311221D01*
X75142Y316142D02*
X76323D01*
X75732Y315551D02*
Y316732D01*
X78559Y316142D02*
X79740D01*
X79150Y315551D02*
Y316732D01*
X78559Y318896D02*
X79740D01*
X79150Y318306D02*
Y319487D01*
X75142Y318896D02*
X76323D01*
X75732Y318306D02*
Y319487D01*
X159055Y368010D02*
X160630D01*
X159843Y367222D02*
Y368797D01*
X221346Y336933D02*
X222921D01*
X222133Y336145D02*
Y337720D01*
X186024Y364917D02*
X187598D01*
X186811Y364130D02*
Y365704D01*
X231496Y98425D02*
X233071D01*
X232283Y97638D02*
Y99213D01*
X46457Y98425D02*
X48031D01*
X47244Y97638D02*
Y99213D01*
X220138Y289327D02*
X221713D01*
X220926Y288539D02*
Y290114D01*
X188171Y289917D02*
X189746D01*
X188959Y289130D02*
Y290704D01*
X60056Y147382D02*
X62856D01*
X61456Y145982D02*
Y148782D01*
X218110Y322397D02*
X219685D01*
X218898Y321610D02*
Y323185D01*
X238386Y267279D02*
X239961D01*
X239173Y266492D02*
Y268067D01*
X98819Y184996D02*
X100394D01*
X99606Y184208D02*
Y185783D01*
X134252Y258618D02*
X135827D01*
X135039Y257831D02*
Y259405D01*
X202165Y260092D02*
X203740D01*
X202953Y259305D02*
Y260879D01*
X144882Y276193D02*
X146457D01*
X145669Y275405D02*
Y276980D01*
X138569Y277269D02*
X140144D01*
X139357Y276482D02*
Y278057D01*
X177165Y252122D02*
X178740D01*
X177953Y251334D02*
Y252909D01*
X89939Y290311D02*
X92739D01*
X91339Y288911D02*
Y291711D01*
X161592Y161571D02*
X164392D01*
X162992Y160171D02*
Y162971D01*
X177143Y155271D02*
X179943D01*
X178543Y153871D02*
Y156671D01*
X169269Y155271D02*
X172069D01*
X170669Y153871D02*
Y156671D01*
X194095Y179007D02*
X195276D01*
X194685Y178417D02*
Y179598D01*
X163976Y252770D02*
X165157D01*
X164567Y252180D02*
Y253361D01*
X164142Y241917D02*
X165323D01*
X164732Y241326D02*
Y242508D01*
X130315Y235193D02*
X131890D01*
X131102Y234405D02*
Y235980D01*
X133464Y240114D02*
X135039D01*
X134252Y239326D02*
Y240901D01*
X184252Y199366D02*
X185827D01*
X185039Y198579D02*
Y200153D01*
X189764Y192082D02*
X191339D01*
X190551Y191295D02*
Y192870D01*
X79079Y224877D02*
X80654D01*
X79866Y224090D02*
Y225664D01*
X152756Y243035D02*
X154331D01*
X153543Y242248D02*
Y243823D01*
X160433Y243225D02*
X162008D01*
X161221Y242437D02*
Y244012D01*
X123961Y258027D02*
X125536D01*
X124748Y257240D02*
Y258815D01*
X93488Y222971D02*
X95063D01*
X94276Y222183D02*
Y223758D01*
X54134Y213244D02*
X55709D01*
X54921Y212456D02*
Y214031D01*
X59449Y220626D02*
X61024D01*
X60236Y219838D02*
Y221413D01*
X151181Y248381D02*
X152755D01*
X151968Y247594D02*
Y249169D01*
X141338Y204236D02*
X142913D01*
X142126Y203448D02*
Y205023D01*
X110138Y229090D02*
X111713D01*
X110925Y228303D02*
Y229878D01*
X103543Y228106D02*
X105118D01*
X104331Y227319D02*
Y228893D01*
X113385Y232240D02*
X114960D01*
X114173Y231452D02*
Y233027D01*
X42597Y203958D02*
X44172D01*
X43385Y203170D02*
Y204745D01*
X100591Y166098D02*
X102165D01*
X101378Y165311D02*
Y166886D01*
X106417Y167476D02*
X107992D01*
X107205Y166689D02*
Y168264D01*
X51968Y201137D02*
X53543D01*
X52756Y200350D02*
Y201925D01*
X211544Y158022D02*
X213119D01*
X212332Y157234D02*
Y158809D01*
X101962Y194658D02*
X104762D01*
X103362Y193258D02*
Y196058D01*
X99803Y206452D02*
X101378D01*
X100591Y205665D02*
Y207240D01*
X85039Y179090D02*
X86614D01*
X85826Y178303D02*
Y179878D01*
X128740Y174957D02*
X130315D01*
X129528Y174169D02*
Y175744D01*
X218307Y227319D02*
X219488D01*
X218898Y226728D02*
Y227909D01*
X99606Y210752D02*
X101181D01*
X100394Y209964D02*
Y211539D01*
X123031Y196332D02*
X124606D01*
X123819Y195544D02*
Y197119D01*
X109370Y174169D02*
X110945D01*
X110157Y173382D02*
Y174957D01*
X101575Y187752D02*
X103149D01*
X102362Y186964D02*
Y188539D01*
X79527Y209799D02*
X81102D01*
X80315Y209011D02*
Y210586D01*
X75787Y207905D02*
X77362D01*
X76575Y207117D02*
Y208692D01*
X53543Y172594D02*
X55118D01*
X54331Y171807D02*
Y173382D01*
X71653Y193067D02*
X73228D01*
X72441Y192279D02*
Y193854D01*
X77316Y201334D02*
X80116D01*
X78716Y199934D02*
Y202734D01*
X63779Y186571D02*
X65354D01*
X64567Y185783D02*
Y187358D01*
X51181Y194248D02*
X52756D01*
X51968Y193460D02*
Y195035D01*
X69685Y201492D02*
X71260D01*
X70472Y200704D02*
Y202279D01*
X96850Y226531D02*
X98425D01*
X97638Y225744D02*
Y227319D01*
X30709Y205075D02*
X32283D01*
X31496Y204287D02*
Y205862D01*
X177143Y161964D02*
X179943D01*
X178543Y160564D02*
Y163364D01*
X169072Y161964D02*
X171872D01*
X170473Y160564D02*
Y163364D01*
X43898Y217476D02*
X45472D01*
X44685Y216689D02*
Y218264D01*
X23622Y211767D02*
X25197D01*
X24409Y210980D02*
Y212555D01*
X194390Y233815D02*
X195571D01*
X194980Y233224D02*
Y234405D01*
X206496Y195232D02*
X207677D01*
X207087Y194641D02*
Y195823D01*
X202362D02*
X203543D01*
X202953Y195232D02*
Y196413D01*
X210968Y195626D02*
X212150D01*
X211559Y195035D02*
Y196216D01*
X215158Y196019D02*
X216339D01*
X215748Y195429D02*
Y196610D01*
X86986Y147382D02*
X89786D01*
X88386Y145982D02*
Y148782D01*
X42126Y190508D02*
X43701D01*
X42913Y189720D02*
Y191295D01*
X171850Y190901D02*
X173425D01*
X172638Y190114D02*
Y191689D01*
X162008Y239327D02*
X163189D01*
X162598Y238736D02*
Y239917D01*
X196205Y205523D02*
X197386D01*
X196795Y204933D02*
Y206114D01*
X179669Y203075D02*
X180850D01*
X180260Y202484D02*
Y203665D01*
X204276Y221382D02*
X205457D01*
X204866Y220791D02*
Y221972D01*
X200339Y246185D02*
X201520D01*
X200929Y245594D02*
Y246776D01*
X196992Y242105D02*
X198173D01*
X197583Y241514D02*
Y242695D01*
X169433Y222169D02*
X170614D01*
X170024Y221579D02*
Y222760D01*
%TF.MD5,2c0ff63e49fc882b96df9a35ced29789*%
M02*
