G04*
G04 #@! TF.GenerationSoftware,Altium Limited,Altium Designer,20.2.4 (192)*
G04*
G04 Layer_Physical_Order=1*
G04 Layer_Color=255*
%FSLAX25Y25*%
%MOIN*%
G70*
G04*
G04 #@! TF.SameCoordinates,2E8E0BC3-B8D5-4E9D-ADAA-81CF339668D3*
G04*
G04*
G04 #@! TF.FilePolarity,Positive*
G04*
G01*
G75*
%ADD10C,0.02362*%
%ADD11C,0.00984*%
%ADD15C,0.00787*%
%ADD20R,0.08268X0.12795*%
%ADD21R,0.16043X0.14370*%
%ADD22R,0.03543X0.02756*%
%ADD23R,0.01181X0.00591*%
%ADD24R,0.00591X0.01181*%
%ADD25R,0.02264X0.01181*%
%ADD26R,0.01181X0.02264*%
%ADD27R,0.09449X0.09449*%
%ADD28R,0.06890X0.02362*%
%ADD29R,0.03937X0.02362*%
%ADD30R,0.02756X0.03543*%
%ADD31R,0.04331X0.03937*%
%ADD32R,0.03543X0.19685*%
%ADD33R,0.03937X0.05512*%
G04:AMPARAMS|DCode=34|XSize=31.5mil|YSize=23.62mil|CornerRadius=5.91mil|HoleSize=0mil|Usage=FLASHONLY|Rotation=90.000|XOffset=0mil|YOffset=0mil|HoleType=Round|Shape=RoundedRectangle|*
%AMROUNDEDRECTD34*
21,1,0.03150,0.01181,0,0,90.0*
21,1,0.01968,0.02362,0,0,90.0*
1,1,0.01181,0.00591,0.00984*
1,1,0.01181,0.00591,-0.00984*
1,1,0.01181,-0.00591,-0.00984*
1,1,0.01181,-0.00591,0.00984*
%
%ADD34ROUNDEDRECTD34*%
%ADD35O,0.01181X0.06890*%
%ADD36O,0.06890X0.01181*%
%ADD37R,0.02362X0.05512*%
%ADD38R,0.07900X0.05900*%
%ADD39R,0.07900X0.15000*%
%ADD40O,0.06890X0.02362*%
%ADD41R,0.07480X0.04232*%
%ADD42R,0.07087X0.07087*%
%ADD43R,0.05906X0.01575*%
%ADD44R,0.02756X0.01968*%
%ADD45R,0.04000X0.04000*%
%ADD46R,0.02559X0.02756*%
%ADD47R,0.01772X0.02756*%
%ADD48R,0.04500X0.01500*%
%ADD49R,0.04724X0.07874*%
G04:AMPARAMS|DCode=50|XSize=78.74mil|YSize=47.24mil|CornerRadius=0mil|HoleSize=0mil|Usage=FLASHONLY|Rotation=270.000|XOffset=0mil|YOffset=0mil|HoleType=Round|Shape=Octagon|*
%AMOCTAGOND50*
4,1,8,-0.01181,-0.03937,0.01181,-0.03937,0.02362,-0.02756,0.02362,0.02756,0.01181,0.03937,-0.01181,0.03937,-0.02362,0.02756,-0.02362,-0.02756,-0.01181,-0.03937,0.0*
%
%ADD50OCTAGOND50*%

%ADD51R,0.07087X0.06299*%
%ADD52R,0.05906X0.05118*%
%ADD53R,0.03937X0.04331*%
%ADD54O,0.02362X0.01181*%
%ADD55R,0.03543X0.08268*%
%ADD56R,0.12992X0.12992*%
%ADD57O,0.00984X0.02559*%
%ADD58O,0.02559X0.00984*%
%ADD59O,0.01181X0.02362*%
%ADD60R,0.01575X0.03150*%
%ADD61R,0.03543X0.05118*%
%ADD62R,0.19685X0.06299*%
%ADD63R,0.19685X0.04724*%
%ADD64R,0.01496X0.01102*%
G04:AMPARAMS|DCode=65|XSize=27.56mil|YSize=35.43mil|CornerRadius=0mil|HoleSize=0mil|Usage=FLASHONLY|Rotation=225.000|XOffset=0mil|YOffset=0mil|HoleType=Round|Shape=Rectangle|*
%AMROTATEDRECTD65*
4,1,4,-0.00278,0.02227,0.02227,-0.00278,0.00278,-0.02227,-0.02227,0.00278,-0.00278,0.02227,0.0*
%
%ADD65ROTATEDRECTD65*%

%ADD66R,0.06299X0.07087*%
%ADD67R,0.01102X0.01496*%
%ADD68R,0.05118X0.05906*%
G04:AMPARAMS|DCode=69|XSize=74.8mil|YSize=49.21mil|CornerRadius=12.3mil|HoleSize=0mil|Usage=FLASHONLY|Rotation=0.000|XOffset=0mil|YOffset=0mil|HoleType=Round|Shape=RoundedRectangle|*
%AMROUNDEDRECTD69*
21,1,0.07480,0.02461,0,0,0.0*
21,1,0.05020,0.04921,0,0,0.0*
1,1,0.02461,0.02510,-0.01230*
1,1,0.02461,-0.02510,-0.01230*
1,1,0.02461,-0.02510,0.01230*
1,1,0.02461,0.02510,0.01230*
%
%ADD69ROUNDEDRECTD69*%
%ADD70C,0.04134*%
%ADD71R,0.06000X0.08000*%
%ADD72O,0.06000X0.08000*%
%ADD73C,0.02400*%
%ADD74C,0.03150*%
%ADD75C,0.05000*%
%ADD76C,0.02362*%
%ADD78C,0.00039*%
%ADD79C,0.03150*%
%ADD80C,0.01575*%
%ADD81C,0.00866*%
%ADD82C,0.03937*%
%ADD83C,0.02756*%
%ADD84C,0.01181*%
%ADD85C,0.01968*%
%ADD86C,0.02500*%
%ADD87C,0.02953*%
%ADD88C,0.05906*%
%ADD89C,0.01378*%
%ADD90C,0.07874*%
%ADD91C,0.01260*%
%ADD92R,0.09843X0.00886*%
%ADD93R,0.00689X0.09744*%
%ADD94R,0.09941X0.00886*%
%ADD95R,0.00886X0.09350*%
%ADD96R,0.00458X0.00024*%
%ADD97R,0.00398X0.00031*%
%ADD98R,0.00343X0.00047*%
%ADD99R,0.00325X0.00034*%
%ADD100R,0.00255X0.00030*%
%ADD101R,0.00218X0.00027*%
%ADD102R,0.00160X0.00031*%
%ADD103R,0.00118X0.00032*%
%ADD104R,0.00123X0.00057*%
%ADD105R,0.00251X0.00047*%
%ADD106R,0.00316X0.00051*%
%ADD107R,0.00313X0.00077*%
%ADD108R,0.00259X0.00066*%
%ADD109R,0.00207X0.00076*%
%ADD110R,0.00196X0.00071*%
%ADD111R,0.00188X0.00064*%
%ADD112R,0.00151X0.00081*%
%ADD113R,0.00082X0.00092*%
%ADD114R,0.00042X0.00114*%
%ADD115R,0.03543X0.04331*%
%ADD116R,0.29134X0.15158*%
%ADD117R,0.10827X0.06890*%
%ADD118R,0.17071X0.11417*%
%ADD119R,0.31194X0.06299*%
%ADD120R,0.13583X0.20227*%
%ADD121R,0.01762X0.03937*%
%ADD122R,0.02665X0.04163*%
%ADD123R,0.14938X0.09598*%
%ADD124C,0.14961*%
%ADD125C,0.02598*%
%ADD126C,0.02756*%
G36*
X275197Y276079D02*
X265618D01*
Y271929D01*
Y267779D01*
X275197D01*
Y264370D01*
X254291D01*
Y262336D01*
X250551D01*
Y265813D01*
X250421D01*
Y277194D01*
X253437Y280210D01*
X253937Y280003D01*
Y279134D01*
X255179D01*
X255315Y279107D01*
X255451Y279134D01*
X258661D01*
Y284252D01*
Y289764D01*
X253937D01*
Y288369D01*
X249768D01*
X249561Y288869D01*
X256555Y295863D01*
X256555Y295863D01*
X256781Y296201D01*
X256861Y296601D01*
Y301379D01*
X257785D01*
Y306088D01*
X258195D01*
Y308360D01*
X253439D01*
Y306088D01*
X253848D01*
Y304785D01*
X251969D01*
Y305997D01*
X251969Y306104D01*
Y306498D01*
X251969Y306604D01*
Y311222D01*
X249156D01*
X249103Y311232D01*
X237200Y323135D01*
X236862Y323362D01*
X236462Y323441D01*
X236462Y323441D01*
X220805D01*
X220459Y323959D01*
X219742Y324437D01*
X218898Y324605D01*
X218053Y324437D01*
X217337Y323959D01*
X216858Y323242D01*
X216690Y322397D01*
X216858Y321552D01*
X217337Y320836D01*
X218053Y320358D01*
X218898Y320190D01*
X219742Y320358D01*
X220459Y320836D01*
X220805Y321354D01*
X236030D01*
X247923Y309460D01*
X247923Y309460D01*
X248031Y309388D01*
Y306604D01*
X248031Y306498D01*
Y306104D01*
X248031Y305997D01*
Y301379D01*
X251969D01*
Y302698D01*
X253848D01*
Y301379D01*
X254773D01*
Y297033D01*
X249958Y292218D01*
X249416Y292383D01*
X249372Y292604D01*
X248965Y293213D01*
X224980Y317197D01*
X224372Y317604D01*
X223654Y317746D01*
X158410D01*
Y318429D01*
X152898D01*
Y313311D01*
X158410D01*
Y313993D01*
X222876D01*
X244309Y292560D01*
X244118Y292098D01*
X243610D01*
Y286964D01*
Y281830D01*
X245882D01*
X245882Y281830D01*
X246382Y281877D01*
X246654Y281823D01*
X247834D01*
X248295Y281915D01*
X248686Y282176D01*
X248947Y282566D01*
X249039Y283027D01*
X248947Y283488D01*
X248791Y283722D01*
X248981Y283849D01*
X249333Y284375D01*
X249357Y284496D01*
X247244D01*
Y285358D01*
X247835D01*
X248449Y285481D01*
X248472Y285496D01*
X249686D01*
X249738Y285559D01*
X253937D01*
Y283295D01*
X253130D01*
X252592Y283188D01*
X252136Y282883D01*
X248022Y278769D01*
X247718Y278313D01*
X247611Y277776D01*
Y265813D01*
X247480D01*
Y262349D01*
Y259199D01*
X250551D01*
Y259526D01*
X254291D01*
Y257677D01*
X275197D01*
Y254268D01*
X265618D01*
Y250118D01*
Y245969D01*
X275197D01*
Y113480D01*
X265618D01*
Y109331D01*
Y105181D01*
X275197D01*
Y101378D01*
X254685D01*
Y99429D01*
X234217D01*
X233845Y99986D01*
X233128Y100465D01*
X232283Y100633D01*
X231439Y100465D01*
X230722Y99986D01*
X230244Y99270D01*
X230076Y98425D01*
X230244Y97580D01*
X230722Y96864D01*
X231439Y96386D01*
X232283Y96217D01*
X233128Y96386D01*
X233845Y96864D01*
X234217Y97422D01*
X254685D01*
Y95473D01*
X275197D01*
Y91669D01*
X265618D01*
Y87520D01*
Y83370D01*
X275197D01*
Y11810D01*
X0Y11810D01*
X0Y83370D01*
X9579D01*
Y87520D01*
Y91669D01*
X0D01*
Y95473D01*
X20512D01*
Y97422D01*
X45310D01*
X45683Y96864D01*
X46399Y96386D01*
X47244Y96217D01*
X48089Y96386D01*
X48805Y96864D01*
X49284Y97580D01*
X49452Y98425D01*
X49284Y99270D01*
X48805Y99986D01*
X48089Y100465D01*
X47244Y100633D01*
X46399Y100465D01*
X45683Y99986D01*
X45310Y99429D01*
X20512D01*
Y101378D01*
X0D01*
X0Y105181D01*
X9579D01*
Y109331D01*
Y113480D01*
X0D01*
X0Y235732D01*
X9579D01*
Y239882D01*
Y244032D01*
X0D01*
Y247441D01*
X20906D01*
Y249370D01*
X41181D01*
Y249240D01*
X47795D01*
Y249370D01*
X50590D01*
Y249169D01*
X59313D01*
X59449Y249142D01*
X60791D01*
X61167Y248766D01*
X61623Y248462D01*
X62161Y248355D01*
X62205D01*
Y247413D01*
X62189D01*
Y245142D01*
X64567D01*
X66945D01*
Y247413D01*
X66929D01*
Y248355D01*
X67716D01*
Y248086D01*
X73113D01*
X73606Y248071D01*
X73722Y248071D01*
X75878D01*
Y251630D01*
X76878D01*
Y248071D01*
X79034D01*
X79150Y248071D01*
X79643Y248086D01*
X85039D01*
Y250225D01*
X87205D01*
Y248579D01*
X93110D01*
Y250323D01*
X95472D01*
Y249366D01*
X106102D01*
Y250323D01*
X106821D01*
X107359Y250430D01*
X107815Y250735D01*
X113702Y256622D01*
X116282D01*
Y256452D01*
X117266D01*
Y253893D01*
X118276D01*
X118303Y253875D01*
X118841Y253768D01*
X121262D01*
X121644Y253386D01*
X122100Y253081D01*
X122638Y252974D01*
X125787D01*
Y252319D01*
X131299D01*
X131299Y252712D01*
X136024D01*
Y253677D01*
X137100D01*
X137205Y253698D01*
X137635D01*
X137741Y253677D01*
X137848Y253698D01*
X139321D01*
Y253401D01*
X139354Y253322D01*
X139386Y253163D01*
X139476Y253029D01*
X139508Y252949D01*
X139588Y252917D01*
X139723Y252826D01*
X139845Y252802D01*
Y251779D01*
X141436D01*
Y250779D01*
X139845D01*
Y249185D01*
X137583D01*
Y247307D01*
X140354D01*
Y246807D01*
X140854D01*
Y244429D01*
X143126D01*
Y244838D01*
X147835D01*
Y245009D01*
X149713D01*
X149905Y244547D01*
X149704Y244347D01*
X149619Y244219D01*
X147581Y242181D01*
X143670D01*
X143271Y242102D01*
X142932Y241876D01*
X142932Y241876D01*
X129616Y228559D01*
X118639D01*
X118639Y228559D01*
X118239Y228480D01*
X117901Y228254D01*
X115096Y225449D01*
X105157D01*
X105157Y225449D01*
X104758Y225370D01*
X104420Y225143D01*
X104420Y225143D01*
X103002Y223726D01*
X102776Y223387D01*
X102697Y222988D01*
X102697Y222988D01*
Y222196D01*
X95570Y215069D01*
X95343Y214730D01*
X95264Y214331D01*
X94827Y214153D01*
X92071D01*
X91610Y214061D01*
X91219Y213800D01*
X90958Y213409D01*
X90867Y212948D01*
X90958Y212488D01*
X91064Y212329D01*
X91178Y211964D01*
X91064Y211599D01*
X90958Y211441D01*
X90867Y210980D01*
X90958Y210519D01*
X91219Y210128D01*
Y209863D01*
X90958Y209472D01*
X90867Y209012D01*
X90501Y208612D01*
X90144Y208604D01*
X90144Y208604D01*
X89428Y209083D01*
X88583Y209251D01*
X87738Y209083D01*
X87022Y208604D01*
X81959Y203542D01*
X80916D01*
X80275Y204034D01*
X79523Y204345D01*
X78716Y204452D01*
X77910Y204345D01*
X77756Y204282D01*
X76805Y205233D01*
X76969Y205775D01*
X77420Y205865D01*
X78136Y206344D01*
X78614Y207060D01*
X78732Y207651D01*
X79254Y207903D01*
X79470Y207759D01*
X80315Y207591D01*
X81160Y207759D01*
X81876Y208238D01*
X82354Y208954D01*
X82522Y209799D01*
X82354Y210644D01*
X81876Y211360D01*
X81160Y211839D01*
X80315Y212006D01*
X80130Y211970D01*
X79438Y212662D01*
X78982Y212967D01*
X78445Y213074D01*
X77085D01*
X75165Y214994D01*
Y218165D01*
Y221019D01*
X75073Y221480D01*
X74812Y221871D01*
X74422Y222132D01*
X73961Y222224D01*
X73500Y222132D01*
X73341Y222026D01*
X72976Y221912D01*
X72611Y222026D01*
X72453Y222132D01*
X71992Y222224D01*
X71531Y222132D01*
X71141Y221871D01*
X70880Y221480D01*
X70788Y221019D01*
Y218165D01*
Y213165D01*
X70694Y213025D01*
X70587Y212487D01*
X70669Y212076D01*
X70240Y211797D01*
X69360Y212678D01*
Y218165D01*
X69260Y218664D01*
X69259Y218666D01*
Y221019D01*
X69168Y221480D01*
X68907Y221871D01*
X68516Y222132D01*
X68055Y222224D01*
X67594Y222132D01*
X67204Y221871D01*
X66943Y221480D01*
X66851Y221019D01*
Y218666D01*
X66850Y218664D01*
X66751Y218165D01*
Y214264D01*
X66250Y213997D01*
X66154Y214061D01*
X65693Y214153D01*
X62937D01*
X62500Y214331D01*
X62420Y214730D01*
X62194Y215069D01*
X61280Y215983D01*
Y218719D01*
X61797Y219065D01*
X62276Y219781D01*
X62444Y220626D01*
X62276Y221471D01*
X61797Y222187D01*
X61081Y222666D01*
X60763Y222729D01*
X60618Y223207D01*
X72338Y234928D01*
X114024D01*
X114073Y234428D01*
X113806Y234374D01*
X113328Y234279D01*
X112612Y233801D01*
X112266Y233283D01*
X89653D01*
X89253Y233204D01*
X88915Y232978D01*
X88915Y232978D01*
X82168Y226230D01*
X81569Y226226D01*
X81427Y226438D01*
X80711Y226917D01*
X79866Y227085D01*
X79021Y226917D01*
X78305Y226438D01*
X77826Y225722D01*
X77658Y224877D01*
X77826Y224032D01*
X78305Y223316D01*
X78822Y222970D01*
Y222423D01*
X78375Y222142D01*
X78322Y222139D01*
X77898Y222224D01*
X77437Y222132D01*
X77046Y221871D01*
X76785Y221480D01*
X76693Y221019D01*
Y215311D01*
X76785Y214850D01*
X77046Y214459D01*
X77437Y214198D01*
X77898Y214106D01*
X78359Y214198D01*
X78517Y214304D01*
X78882Y214418D01*
X79247Y214304D01*
X79405Y214198D01*
X79866Y214106D01*
X80327Y214198D01*
X80485Y214304D01*
X80850Y214418D01*
X81215Y214304D01*
X81374Y214198D01*
X81835Y214106D01*
X82296Y214198D01*
X82454Y214304D01*
X82819Y214418D01*
X83184Y214304D01*
X83342Y214198D01*
X83803Y214106D01*
X84264Y214198D01*
X84655Y214459D01*
X85152Y214304D01*
X85311Y214198D01*
X85772Y214106D01*
X86233Y214198D01*
X86391Y214304D01*
X86756Y214418D01*
X87121Y214304D01*
X87279Y214198D01*
X87740Y214106D01*
X88201Y214198D01*
X88359Y214304D01*
X88857Y214459D01*
X89248Y214198D01*
X89709Y214106D01*
X90170Y214198D01*
X90560Y214459D01*
X90821Y214850D01*
X90913Y215311D01*
Y221019D01*
X90860Y221285D01*
X91502Y221927D01*
X92369D01*
X92714Y221410D01*
X93431Y220931D01*
X94276Y220763D01*
X95121Y220931D01*
X95837Y221410D01*
X96315Y222126D01*
X96483Y222971D01*
X96315Y223816D01*
X95837Y224532D01*
X96118Y224943D01*
X96793Y224492D01*
X97638Y224324D01*
X98483Y224492D01*
X99199Y224970D01*
X99677Y225686D01*
X99846Y226531D01*
X99677Y227376D01*
X99498Y227645D01*
X99734Y228086D01*
X102127D01*
X102291Y227261D01*
X102770Y226545D01*
X103486Y226066D01*
X104331Y225898D01*
X105176Y226066D01*
X105892Y226545D01*
X106370Y227261D01*
X106538Y228106D01*
X106370Y228951D01*
X106191Y229220D01*
X106426Y229661D01*
X108437D01*
X108754Y229274D01*
X108717Y229090D01*
X108886Y228245D01*
X109364Y227529D01*
X110080Y227051D01*
X110925Y226883D01*
X111770Y227051D01*
X112486Y227529D01*
X112965Y228245D01*
X113133Y229090D01*
X112986Y229827D01*
X113234Y230097D01*
X113385Y230188D01*
X114173Y230032D01*
X115018Y230200D01*
X115734Y230679D01*
X116213Y231395D01*
X116381Y232240D01*
X116213Y233085D01*
X115734Y233801D01*
X115018Y234279D01*
X114540Y234374D01*
X114272Y234428D01*
X114322Y234928D01*
X128947D01*
X129063Y234348D01*
X129541Y233632D01*
X130257Y233153D01*
X131102Y232985D01*
X131947Y233153D01*
X132664Y233632D01*
X133142Y234348D01*
X133237Y234826D01*
X133633Y235222D01*
X133850Y235547D01*
X133926Y235931D01*
X133850Y236315D01*
X133633Y236641D01*
X133307Y236858D01*
X132923Y236935D01*
X132393D01*
X131947Y237232D01*
X131102Y237401D01*
X130257Y237232D01*
X129812Y236935D01*
X72626D01*
X72419Y237435D01*
X74054Y239070D01*
X132345D01*
X132691Y238552D01*
X133407Y238074D01*
X134252Y237906D01*
X135097Y238074D01*
X135813Y238552D01*
X136291Y239269D01*
X136459Y240114D01*
X136291Y240958D01*
X135813Y241675D01*
X135097Y242153D01*
X134252Y242321D01*
X133407Y242153D01*
X132691Y241675D01*
X132345Y241157D01*
X73622D01*
X73622Y241157D01*
X73222Y241078D01*
X72884Y240852D01*
X72884Y240852D01*
X48868Y216836D01*
X48642Y216498D01*
X48563Y216098D01*
X48563Y216098D01*
Y207905D01*
X48563Y207905D01*
X48642Y207505D01*
X48868Y207167D01*
X49730Y206305D01*
X49730Y206305D01*
X50069Y206079D01*
X50468Y205999D01*
X58580D01*
X58862Y205551D01*
X58864Y205499D01*
X58780Y205075D01*
X58872Y204614D01*
X59133Y204223D01*
Y203958D01*
X58872Y203567D01*
X58780Y203106D01*
X58864Y202681D01*
X58862Y202629D01*
X58580Y202181D01*
X55339D01*
X55338Y202181D01*
X54663D01*
X54317Y202698D01*
X53601Y203177D01*
X52756Y203345D01*
X51911Y203177D01*
X51195Y202698D01*
X50716Y201982D01*
X50591Y201352D01*
X50072Y201164D01*
X48682Y202554D01*
Y206059D01*
X48602Y206458D01*
X48376Y206797D01*
X48376Y206797D01*
X40403Y214769D01*
X40065Y214996D01*
X39665Y215075D01*
X39665Y215075D01*
X39173D01*
Y217378D01*
X26969D01*
X26968Y212760D01*
X26968Y212564D01*
X26469Y212515D01*
X26449Y212612D01*
X25971Y213328D01*
X25254Y213807D01*
X24409Y213975D01*
X23564Y213807D01*
X22848Y213328D01*
X22370Y212612D01*
X22292Y212221D01*
X20945D01*
X20553Y212481D01*
X20506Y212981D01*
X20673Y213198D01*
X20982Y213944D01*
X21022Y214245D01*
X14966D01*
X15006Y213944D01*
X15315Y213198D01*
X15482Y212981D01*
X15235Y212481D01*
X13466D01*
Y209725D01*
X13466D01*
Y205213D01*
X13057D01*
Y203926D01*
X17010D01*
X20963D01*
Y204661D01*
X21552D01*
X21654Y204509D01*
Y202072D01*
X21703Y202122D01*
X23987D01*
X24961Y201148D01*
X24961Y201148D01*
X25256Y200951D01*
Y199760D01*
X26181D01*
Y198126D01*
X26181Y198126D01*
X26181Y198126D01*
X26181Y187555D01*
X26181Y187555D01*
X39173D01*
Y189070D01*
X41270D01*
X41352Y188946D01*
X42068Y188468D01*
X42913Y188300D01*
X43758Y188468D01*
X44169Y188743D01*
X44669Y188475D01*
Y186480D01*
X47335D01*
Y188949D01*
X45077D01*
X44810Y189448D01*
X44953Y189663D01*
X45121Y190508D01*
X44953Y191352D01*
X44475Y192069D01*
X43758Y192547D01*
X42913Y192715D01*
X42068Y192547D01*
X41352Y192069D01*
X40874Y191352D01*
X40835Y191158D01*
X39173D01*
Y194582D01*
X43307D01*
X43307Y194582D01*
X43706Y194661D01*
X44045Y194888D01*
X45314Y196157D01*
X50014D01*
X50271Y195734D01*
X50267Y195598D01*
X49929Y195093D01*
X49761Y194248D01*
X49929Y193403D01*
X50407Y192687D01*
X51124Y192208D01*
X51968Y192040D01*
X52813Y192208D01*
X53530Y192687D01*
X54008Y193403D01*
X54164Y194188D01*
X58134D01*
X58400Y193763D01*
X62839D01*
Y192763D01*
X58462D01*
X58486Y192643D01*
X58838Y192117D01*
X58687Y191616D01*
X55611Y188539D01*
X51772D01*
Y183421D01*
X53484D01*
Y181256D01*
X51772D01*
Y176137D01*
X53484D01*
Y174633D01*
X52770Y174155D01*
X52291Y173439D01*
X52123Y172594D01*
X52291Y171749D01*
X52770Y171033D01*
X53486Y170555D01*
X54331Y170387D01*
X55176Y170555D01*
X55892Y171033D01*
X56370Y171749D01*
X56538Y172594D01*
X56370Y173439D01*
X55892Y174155D01*
X55571Y174370D01*
Y176137D01*
X57283D01*
Y181256D01*
X55571D01*
Y183421D01*
X57283D01*
Y187260D01*
X60114Y190091D01*
X62161D01*
X62301Y189997D01*
X62839Y189890D01*
X66508D01*
X66698Y189928D01*
X66999Y189478D01*
X66943Y189394D01*
X66851Y188933D01*
Y187950D01*
X66351Y187798D01*
X66128Y188132D01*
X65412Y188610D01*
X64567Y188778D01*
X63722Y188610D01*
X63006Y188132D01*
X62527Y187416D01*
X62359Y186571D01*
X62527Y185726D01*
X63006Y185010D01*
X63722Y184531D01*
X64567Y184363D01*
X65412Y184531D01*
X66128Y185010D01*
X66351Y185343D01*
X66851Y185191D01*
Y183224D01*
X66943Y182763D01*
X67204Y182373D01*
X67594Y182112D01*
X68055Y182020D01*
X68516Y182112D01*
X68552Y182135D01*
X69005Y181853D01*
X69067Y181369D01*
X68766Y181068D01*
X68540Y180729D01*
X68460Y180330D01*
X68460Y180330D01*
Y172982D01*
X67094D01*
Y167801D01*
X72276D01*
Y172982D01*
X70548D01*
Y179898D01*
X71864Y181214D01*
X72034Y181468D01*
X72670Y182104D01*
X72678Y182117D01*
X72852Y182220D01*
X73346Y181999D01*
X73351Y181973D01*
X73577Y181634D01*
X74760Y180452D01*
Y172982D01*
X73394D01*
Y167801D01*
X78575D01*
Y172982D01*
X76847D01*
Y176086D01*
X77309Y176277D01*
X80141Y173444D01*
X79950Y172982D01*
X79512D01*
Y167801D01*
X84693D01*
Y170300D01*
X85155Y170491D01*
X94616Y161030D01*
X94616Y161030D01*
X94955Y160803D01*
X95354Y160724D01*
X120866D01*
Y160389D01*
X126119D01*
X126191Y160281D01*
X133022Y153450D01*
X133022Y153450D01*
X133361Y153224D01*
X133760Y153145D01*
X137301D01*
Y152128D01*
X140551D01*
Y151128D01*
X137301D01*
Y149878D01*
X137301D01*
Y149568D01*
X140551D01*
Y149068D01*
X141051D01*
Y147318D01*
X143801D01*
X144203Y147080D01*
Y146575D01*
X133740D01*
X131586Y148729D01*
X131131Y149034D01*
X130593Y149141D01*
X123094D01*
X122557Y149034D01*
X122101Y148729D01*
X120078Y146706D01*
X119717Y146856D01*
X118780Y146979D01*
X117842Y146856D01*
X116969Y146494D01*
X116219Y145919D01*
X115643Y145169D01*
X115281Y144295D01*
X115158Y143358D01*
Y141358D01*
X115281Y140421D01*
X115643Y139547D01*
X116219Y138797D01*
X116969Y138222D01*
X117842Y137860D01*
X118780Y137736D01*
X119717Y137860D01*
X120590Y138222D01*
X121340Y138797D01*
X121916Y139547D01*
X122278Y140421D01*
X122401Y141358D01*
Y143358D01*
X122278Y144295D01*
X122091Y144746D01*
X123676Y146331D01*
X126009D01*
X126151Y145831D01*
X125643Y145169D01*
X125281Y144295D01*
X125158Y143358D01*
Y141358D01*
X125281Y140421D01*
X125643Y139547D01*
X126219Y138797D01*
X126969Y138222D01*
X127842Y137860D01*
X128779Y137736D01*
X129717Y137860D01*
X130590Y138222D01*
X131340Y138797D01*
X131916Y139547D01*
X132278Y140421D01*
X132401Y141358D01*
Y143358D01*
X132386Y143473D01*
X132843Y143828D01*
X133157Y143765D01*
X145607D01*
X146145Y143872D01*
X146601Y144177D01*
X146906Y144633D01*
X147012Y145170D01*
Y157448D01*
X146906Y157985D01*
X146601Y158441D01*
X141169Y163874D01*
Y174149D01*
X141062Y174687D01*
X140757Y175143D01*
X137609Y178291D01*
X130129Y185791D01*
X130128Y185792D01*
X130127Y185793D01*
X127505Y188415D01*
Y194051D01*
X127398Y194589D01*
X127093Y195044D01*
X125990Y196148D01*
X126027Y196332D01*
X125859Y197177D01*
X125380Y197893D01*
X124664Y198372D01*
X123819Y198540D01*
X122974Y198372D01*
X122258Y197893D01*
X121779Y197177D01*
X121611Y196332D01*
X121779Y195487D01*
X122258Y194771D01*
X122974Y194292D01*
X123819Y194124D01*
X124003Y194161D01*
X124695Y193469D01*
Y187833D01*
X124802Y187295D01*
X125106Y186840D01*
X128139Y183807D01*
X135619Y176307D01*
X135620Y176306D01*
X135621Y176305D01*
X137295Y174631D01*
X137104Y174169D01*
X131890D01*
X131890Y174169D01*
X131814Y174626D01*
X131709Y175299D01*
X131618Y175545D01*
X131567Y175801D01*
X131471Y175945D01*
X131411Y176108D01*
X131234Y176300D01*
X131089Y176518D01*
X130945Y176614D01*
X130827Y176741D01*
X130590Y176851D01*
X130372Y176996D01*
X130203Y177030D01*
X130045Y177103D01*
X129784Y177113D01*
X129528Y177164D01*
X129358Y177130D01*
X129185Y177137D01*
X128939Y177047D01*
X128683Y176996D01*
X128539Y176900D01*
X128376Y176840D01*
X128184Y176663D01*
X127966Y176518D01*
X127870Y176374D01*
X127743Y176256D01*
X127633Y176019D01*
X127488Y175801D01*
X127454Y175631D01*
X127381Y175474D01*
X127371Y175213D01*
X127320Y174957D01*
X127354Y174787D01*
X127347Y174614D01*
X127357Y174549D01*
X127032Y174169D01*
X120866D01*
Y168132D01*
X120633Y168086D01*
X120295Y167860D01*
X120295Y167860D01*
X116770Y164335D01*
X103287D01*
X103020Y164835D01*
X103325Y165292D01*
X103485Y166098D01*
Y167657D01*
X104215D01*
Y170126D01*
X101050D01*
X97885D01*
Y167657D01*
X99270D01*
Y166098D01*
X99431Y165292D01*
X99736Y164835D01*
X99469Y164335D01*
X96323D01*
X93053Y167605D01*
X93244Y168067D01*
X97113D01*
Y173185D01*
X91601D01*
Y171669D01*
X91049D01*
X89083Y173635D01*
Y174023D01*
X89083Y174023D01*
X89004Y174422D01*
X88777Y174761D01*
X86911Y176627D01*
X86985Y177260D01*
X87388Y177529D01*
X87605Y177854D01*
X88105Y177702D01*
Y176594D01*
X90770D01*
Y179563D01*
X91270D01*
Y180063D01*
X94435D01*
Y180133D01*
X94914Y180341D01*
X95185Y180115D01*
X95207Y179841D01*
Y177004D01*
X100719D01*
Y181243D01*
X101181Y181435D01*
X105800Y176815D01*
Y169142D01*
X105644Y169037D01*
X105165Y168321D01*
X104997Y167476D01*
X105165Y166631D01*
X105644Y165915D01*
X106360Y165436D01*
X107205Y165268D01*
X108050Y165436D01*
X108766Y165915D01*
X109244Y166631D01*
X109412Y167476D01*
X109244Y168321D01*
X108766Y169037D01*
X108610Y169142D01*
Y172069D01*
X109051Y172304D01*
X109313Y172129D01*
X110157Y171961D01*
X111002Y172129D01*
X111719Y172608D01*
X112197Y173324D01*
X112365Y174169D01*
X112197Y175014D01*
X111719Y175730D01*
X111562Y175835D01*
Y179563D01*
X111455Y180101D01*
X111151Y180556D01*
X104468Y187239D01*
X104570Y187752D01*
X104402Y188596D01*
X103923Y189313D01*
X103207Y189791D01*
X102362Y189959D01*
X101517Y189791D01*
X100801Y189313D01*
X100322Y188596D01*
X100154Y187752D01*
X100202Y187509D01*
X99849Y187155D01*
X99606Y187204D01*
X98761Y187036D01*
X98045Y186557D01*
X97567Y185841D01*
X97399Y184996D01*
X97415Y184914D01*
X96954Y184668D01*
X93779Y187844D01*
X93088Y188305D01*
X92704Y188880D01*
Y189890D01*
X94925D01*
X95463Y189997D01*
X95603Y190091D01*
X97780D01*
X98240Y190182D01*
X98631Y190444D01*
X98892Y190834D01*
X98984Y191295D01*
X98892Y191756D01*
X98631Y192147D01*
Y192412D01*
X98892Y192803D01*
X98984Y193263D01*
X98892Y193724D01*
X98631Y194115D01*
Y194380D01*
X98892Y194771D01*
X98984Y195232D01*
X98892Y195693D01*
X98631Y196083D01*
Y196349D01*
X98892Y196740D01*
X98984Y197201D01*
X98899Y197625D01*
X98902Y197677D01*
X99183Y198125D01*
X106087D01*
Y194551D01*
X109449D01*
Y193551D01*
X106087D01*
Y189114D01*
X108843D01*
Y187267D01*
X112008D01*
X115173D01*
Y189225D01*
X115457Y189355D01*
X115945Y189068D01*
Y184208D01*
X121457D01*
Y189327D01*
X121063Y189523D01*
Y198579D01*
X117268D01*
X115939Y199907D01*
X115601Y200133D01*
X115201Y200213D01*
X115201Y200213D01*
X105335D01*
X105128Y200713D01*
X108506Y204090D01*
X110925D01*
X112401Y205567D01*
Y211669D01*
X111638Y212433D01*
X111845Y212933D01*
X114748D01*
Y209118D01*
X118110D01*
X121472D01*
Y213555D01*
X120016D01*
Y215401D01*
X116850D01*
Y216401D01*
X120016D01*
Y218870D01*
X119898D01*
Y220913D01*
X116732D01*
Y221913D01*
X119898D01*
Y224382D01*
X117634D01*
X117443Y224844D01*
X119071Y226472D01*
X130048D01*
X130049Y226472D01*
X130448Y226551D01*
X130786Y226778D01*
X144103Y240094D01*
X148013D01*
X148013Y240094D01*
X148413Y240173D01*
X148751Y240400D01*
X150919Y242567D01*
X151461Y242403D01*
X151504Y242191D01*
X151982Y241474D01*
X152045Y241432D01*
X151893Y240932D01*
X151847D01*
X151847Y240932D01*
X151233Y240810D01*
X150934Y240611D01*
X150567Y240537D01*
X150046Y240189D01*
X149652Y239796D01*
X149304Y239275D01*
X149216Y238834D01*
X147638D01*
Y234126D01*
X147228D01*
Y231854D01*
X149606D01*
Y231354D01*
X150106D01*
Y228583D01*
X151984D01*
Y230436D01*
X152202Y230846D01*
X154080D01*
Y233618D01*
X154580D01*
Y234118D01*
X156958D01*
Y236390D01*
X156548D01*
Y237721D01*
X158100D01*
X158394Y237342D01*
Y234874D01*
X161559D01*
X164724D01*
Y236832D01*
X165008Y236962D01*
X165496Y236674D01*
Y231815D01*
X167248D01*
Y229649D01*
X167325Y229265D01*
X167542Y228940D01*
X167868Y228722D01*
X168252Y228646D01*
X170417D01*
X170801Y228722D01*
X171127Y228940D01*
X172046Y229858D01*
X172606D01*
X172863Y229394D01*
X175098D01*
Y228394D01*
X172707D01*
X172495Y228094D01*
X160969D01*
X160584Y228017D01*
X160259Y227800D01*
X159471Y227013D01*
X159260Y226697D01*
X157622D01*
Y221185D01*
X162740D01*
Y226087D01*
X163528D01*
Y221185D01*
X167762D01*
X167858Y221166D01*
X168345D01*
X168538Y220966D01*
X168568Y220911D01*
X168313Y220413D01*
X166587D01*
Y217248D01*
Y214083D01*
X168914D01*
X169055Y214083D01*
X169414Y213741D01*
Y212752D01*
X165945D01*
Y207634D01*
X171186D01*
Y206846D01*
X165945D01*
Y201728D01*
X171457D01*
Y203372D01*
X171745Y203586D01*
X172228Y203365D01*
Y201441D01*
X175197D01*
Y200941D01*
X175697D01*
Y197775D01*
X177291D01*
Y196882D01*
X180260D01*
Y196382D01*
X180760D01*
Y193216D01*
X181290D01*
X181481Y192754D01*
X174904Y186177D01*
X171008D01*
Y181059D01*
X176520D01*
Y182614D01*
X178543D01*
Y179878D01*
X184843D01*
Y186964D01*
X179236D01*
X179029Y187464D01*
X188008Y196443D01*
X188508Y196236D01*
Y193122D01*
X188539Y192968D01*
X188512Y192927D01*
X188344Y192082D01*
X188512Y191237D01*
X188990Y190521D01*
X189706Y190043D01*
X190551Y189874D01*
X191396Y190043D01*
X192112Y190521D01*
X192591Y191237D01*
X192759Y192082D01*
X192591Y192927D01*
X192112Y193643D01*
X191396Y194122D01*
X190551Y194290D01*
X190515Y194319D01*
Y199941D01*
X191429D01*
Y202712D01*
X192429D01*
Y199941D01*
X193882D01*
Y199275D01*
X196351D01*
Y201941D01*
X194307D01*
Y202712D01*
X199409D01*
Y206518D01*
X199871Y206710D01*
X200838Y205743D01*
X201164Y205525D01*
X201548Y205449D01*
X202854D01*
Y204484D01*
X209350D01*
X209350Y204484D01*
X209547D01*
Y204484D01*
X209850Y204484D01*
X216043D01*
Y208421D01*
X214962D01*
X214883Y208540D01*
X211368Y212055D01*
X211575Y212555D01*
X212163D01*
X215235Y209483D01*
X215561Y209266D01*
X215945Y209189D01*
X225590D01*
X225975Y209266D01*
X226300Y209483D01*
X227875Y211058D01*
X228093Y211384D01*
X228169Y211768D01*
Y229287D01*
X228093Y229671D01*
X227875Y229997D01*
X226300Y231572D01*
X225975Y231789D01*
X225590Y231866D01*
X210827D01*
Y233421D01*
X206043D01*
X205857Y233858D01*
X206146Y234208D01*
X210827D01*
Y239327D01*
X209019D01*
Y239886D01*
X210968D01*
Y245004D01*
X205457D01*
Y239886D01*
X207012D01*
Y239327D01*
X205315D01*
Y236252D01*
X205000Y235997D01*
X204543Y236195D01*
Y236267D01*
X201378D01*
Y237267D01*
X204543D01*
Y239736D01*
X204276Y239886D01*
Y245004D01*
X202866D01*
X202583Y245413D01*
X202600Y245504D01*
X202736Y246185D01*
X202598Y246876D01*
X202206Y247462D01*
X201621Y247854D01*
X200929Y247991D01*
X200238Y247854D01*
X199652Y247462D01*
X199260Y246876D01*
X199123Y246185D01*
X199258Y245504D01*
X199276Y245413D01*
X198993Y245004D01*
X198764D01*
Y244041D01*
X198354Y243758D01*
X198264Y243776D01*
X197583Y243911D01*
X197402Y244060D01*
Y245094D01*
X194433D01*
Y245594D01*
X193933D01*
Y248760D01*
X192126D01*
Y249350D01*
X192142D01*
Y251622D01*
X187386D01*
Y249760D01*
X184358D01*
X183858Y249760D01*
X183858Y250260D01*
Y254484D01*
X179921D01*
Y253850D01*
X179421Y253745D01*
X178798Y254162D01*
X177953Y254330D01*
X177108Y254162D01*
X176392Y253683D01*
X175913Y252967D01*
X175745Y252122D01*
X175913Y251277D01*
X176392Y250561D01*
X177108Y250082D01*
X177953Y249914D01*
X178798Y250082D01*
X179197Y250349D01*
X179734Y250136D01*
X179767Y249916D01*
X179527Y249760D01*
Y249503D01*
X179527Y249503D01*
Y246498D01*
X179066Y246306D01*
X175941Y249431D01*
X173726Y251646D01*
Y257458D01*
X173619Y257995D01*
X173315Y258451D01*
X169735Y262031D01*
X169279Y262336D01*
X168742Y262443D01*
X168689Y262506D01*
X167511D01*
X167489Y262521D01*
X166874Y262644D01*
X166284D01*
Y263006D01*
X165784D01*
Y264628D01*
X165693D01*
X165329Y264964D01*
X165265Y265403D01*
X165616Y265929D01*
X165740Y266549D01*
Y266640D01*
X164118D01*
Y267140D01*
X163756D01*
Y267731D01*
X163633Y268345D01*
X163618Y268368D01*
Y269582D01*
X163555Y269634D01*
Y271019D01*
X164567D01*
Y276137D01*
Y277488D01*
X176014D01*
X176367Y277135D01*
Y276991D01*
X176352Y276498D01*
X176352Y276382D01*
Y274817D01*
X179320D01*
X182289D01*
Y276382D01*
X182289Y276498D01*
X182273Y276991D01*
Y281084D01*
X182273Y281206D01*
X182568Y281584D01*
X185241D01*
Y283265D01*
X180797D01*
X176352D01*
Y281700D01*
X176352Y281584D01*
X176367Y281091D01*
Y280298D01*
X164567D01*
Y281649D01*
X162493D01*
X162301Y282111D01*
X173724Y293534D01*
X197296D01*
X197296Y293534D01*
X197625Y293600D01*
X197819Y293523D01*
X198125Y293299D01*
Y282437D01*
X193547D01*
Y280446D01*
X192115D01*
Y281091D01*
X192131Y281584D01*
X192131Y281700D01*
Y283265D01*
X189163D01*
X186194D01*
Y281700D01*
X186194Y281584D01*
X186210Y281091D01*
Y276991D01*
X186194Y276498D01*
X186194Y276382D01*
Y274817D01*
X189163D01*
Y274317D01*
D01*
Y274817D01*
X192131D01*
Y276382D01*
X192131Y276498D01*
X192115Y276991D01*
Y277636D01*
X193547D01*
Y271807D01*
X198173D01*
Y271665D01*
X203685D01*
Y271665D01*
X204063Y271649D01*
Y271649D01*
X205063D01*
Y275208D01*
X208606D01*
Y271649D01*
X209606D01*
Y271649D01*
X209984Y271665D01*
Y271665D01*
X211335D01*
Y270429D01*
X209842D01*
Y263694D01*
X209842Y263342D01*
X209404Y263194D01*
X199711D01*
X199259Y263007D01*
X199072Y262555D01*
Y256256D01*
X199259Y255804D01*
X199711Y255616D01*
X204763D01*
Y253409D01*
X207732D01*
X210700D01*
Y255616D01*
X217185D01*
Y253606D01*
X219563D01*
Y253106D01*
X220062D01*
Y250334D01*
X221638D01*
Y250137D01*
X223516D01*
Y252909D01*
X224016D01*
Y253409D01*
X226394D01*
Y255616D01*
X230906D01*
X231358Y255804D01*
X231545Y256256D01*
Y262555D01*
X231358Y263007D01*
X230906Y263194D01*
X218155D01*
X217717Y263342D01*
X217717Y263694D01*
Y270429D01*
X214145D01*
Y271665D01*
X215496D01*
Y273803D01*
X227362D01*
Y272200D01*
X237992D01*
Y276925D01*
X237440D01*
X237249Y277387D01*
X239970Y280108D01*
X240274Y280564D01*
X240381Y281101D01*
Y281677D01*
X240610Y281830D01*
X242610D01*
Y286964D01*
Y292098D01*
X240610D01*
X240381Y292251D01*
Y294166D01*
X240274Y294704D01*
X239970Y295160D01*
X230636Y304493D01*
X230180Y304798D01*
X229643Y304905D01*
X110194D01*
Y305862D01*
X99564D01*
Y304905D01*
X95508D01*
Y306059D01*
X87634D01*
Y303527D01*
X86417D01*
Y305862D01*
X80634D01*
X80512Y305862D01*
X80134Y306157D01*
Y307782D01*
X81496D01*
X81948Y307969D01*
X82135Y308421D01*
Y321216D01*
X81948Y321668D01*
X81496Y321855D01*
X73228D01*
X72776Y321668D01*
X72589Y321216D01*
Y308421D01*
X72776Y307969D01*
X73228Y307782D01*
X74590D01*
Y306157D01*
X74213Y305862D01*
X74090Y305862D01*
X68307D01*
Y304511D01*
X66299D01*
Y305468D01*
X55669D01*
Y303625D01*
X50601D01*
Y303756D01*
X43986D01*
Y303625D01*
X21085D01*
Y305567D01*
X0D01*
Y308976D01*
X9758D01*
Y313126D01*
Y317275D01*
X0D01*
Y333308D01*
X9579D01*
Y337458D01*
Y341607D01*
X0D01*
Y345410D01*
X20512D01*
Y346945D01*
X39567D01*
Y345594D01*
X44685D01*
Y348363D01*
X45884Y349563D01*
X48173D01*
Y342642D01*
X54473D01*
Y349728D01*
X52380D01*
X52316Y349824D01*
X49016Y353124D01*
Y356256D01*
X45472D01*
Y353124D01*
X43454Y351106D01*
X39567D01*
Y349755D01*
X20512D01*
Y351316D01*
X0D01*
Y355119D01*
X9579D01*
Y359269D01*
Y363418D01*
X0D01*
Y381888D01*
X275197Y381888D01*
Y276079D01*
D02*
G37*
G36*
X79134Y298366D02*
X80018D01*
X80134Y298366D01*
X80627Y298382D01*
X86417D01*
Y300717D01*
X87634D01*
Y298972D01*
X88273D01*
Y298185D01*
X88028D01*
Y293616D01*
X87944Y293411D01*
Y273185D01*
X87823Y273004D01*
X87779D01*
Y270732D01*
X90158D01*
Y269732D01*
X87779D01*
Y267460D01*
X88189D01*
Y262752D01*
X88552D01*
Y261177D01*
X87598D01*
Y255665D01*
X92716D01*
Y261177D01*
X91763D01*
Y262507D01*
X92162Y262752D01*
X96099D01*
Y262752D01*
X96457D01*
Y262752D01*
X100394D01*
Y267476D01*
X100394D01*
Y267870D01*
X100394D01*
Y268828D01*
X100487Y268899D01*
X100897Y269434D01*
X101155Y270056D01*
X101243Y270724D01*
Y272546D01*
X102165D01*
X102617Y272733D01*
X102805Y273185D01*
Y284346D01*
X111821D01*
Y286521D01*
X112598D01*
Y287270D01*
X113732D01*
X113764Y286783D01*
X113764D01*
Y284511D01*
X116141D01*
X118520D01*
Y286783D01*
X118110D01*
Y288936D01*
X118149Y289130D01*
Y289277D01*
X118110Y289471D01*
Y291492D01*
X114173D01*
Y291284D01*
X112598D01*
Y292033D01*
X111821D01*
Y293460D01*
X102784D01*
X102617Y293864D01*
X102420Y293945D01*
Y295519D01*
X100041D01*
Y296020D01*
X99541D01*
Y298791D01*
X97824D01*
X97702Y301734D01*
X98049Y302095D01*
X99564D01*
Y301137D01*
X110194D01*
Y302095D01*
X229061D01*
X237571Y293584D01*
Y292251D01*
X237250Y292037D01*
X236902Y291516D01*
X236780Y290901D01*
X236865Y290476D01*
X236554Y289976D01*
X234449D01*
Y290114D01*
X233768D01*
X233268Y290114D01*
Y294051D01*
X228543D01*
Y294051D01*
X228150D01*
Y294051D01*
X224901D01*
X224138Y294814D01*
Y295718D01*
X224138Y295718D01*
X224059Y296117D01*
X223832Y296456D01*
X223832Y296456D01*
X222472Y297817D01*
X222133Y298043D01*
X221734Y298122D01*
X221734Y298122D01*
X162622D01*
X162622Y298122D01*
X162223Y298043D01*
X161884Y297817D01*
X161884Y297816D01*
X142381Y278313D01*
X141264D01*
X140918Y278831D01*
X140202Y279309D01*
X139357Y279477D01*
X138512Y279309D01*
X137796Y278831D01*
X137317Y278114D01*
X137149Y277269D01*
X137317Y276425D01*
X137796Y275708D01*
X138512Y275230D01*
X139357Y275062D01*
X140202Y275230D01*
X140918Y275708D01*
X141264Y276226D01*
X142813D01*
X142813Y276226D01*
X142977Y276258D01*
X143023Y276252D01*
X143466Y275976D01*
X143518Y275908D01*
X143630Y275348D01*
X144108Y274632D01*
X144824Y274153D01*
X145669Y273985D01*
X146514Y274153D01*
X147230Y274632D01*
X147576Y275149D01*
X154907D01*
X154907Y275149D01*
X155306Y275229D01*
X155645Y275455D01*
X159380Y279190D01*
X159843Y278999D01*
Y276137D01*
Y271019D01*
X160745D01*
Y269634D01*
X160681Y269582D01*
Y268368D01*
X160666Y268345D01*
X160544Y267731D01*
Y267140D01*
X160181D01*
Y266640D01*
X158559D01*
Y266549D01*
X158683Y265929D01*
X159034Y265403D01*
X158970Y264964D01*
X158606Y264628D01*
X158516D01*
Y263006D01*
X157516D01*
Y264628D01*
X157425D01*
X156805Y264505D01*
X156279Y264153D01*
X156250Y264110D01*
X154837D01*
Y264146D01*
X153205D01*
Y262556D01*
X152205D01*
Y264146D01*
X151190D01*
X151165Y264269D01*
X151075Y264404D01*
X151042Y264483D01*
X150963Y264516D01*
X150829Y264606D01*
X150706Y264630D01*
Y265640D01*
X149116D01*
Y266140D01*
X148616D01*
Y268271D01*
X148145D01*
Y268280D01*
X147055D01*
Y266148D01*
X146055D01*
Y268280D01*
X144964D01*
Y268280D01*
X144497D01*
Y266148D01*
X143497D01*
Y268280D01*
X142406D01*
Y268280D01*
X141937D01*
Y266148D01*
X141437D01*
Y265648D01*
X139846D01*
Y264631D01*
X139723Y264606D01*
X139588Y264516D01*
X139509Y264483D01*
X139476Y264404D01*
X139386Y264269D01*
X139354Y264110D01*
X139321Y264031D01*
Y263737D01*
X136125D01*
X136024Y264195D01*
Y264699D01*
X131299D01*
X131299Y265093D01*
X125787D01*
Y264136D01*
X123811D01*
X123274Y264029D01*
X122818Y263724D01*
X121381Y262287D01*
X118841D01*
X118303Y262180D01*
X118276Y262161D01*
X117266D01*
Y259602D01*
X116766Y259602D01*
X116282D01*
Y259432D01*
X113120D01*
X112583Y259325D01*
X112127Y259021D01*
X106602Y253496D01*
X106102Y253703D01*
Y254090D01*
X95472D01*
Y253133D01*
X93110D01*
Y254878D01*
X87205D01*
Y253035D01*
X85039D01*
Y255173D01*
X79643D01*
X79150Y255189D01*
X78859Y255510D01*
X78975Y256010D01*
X84350D01*
X84802Y256197D01*
X84990Y256649D01*
Y271019D01*
X84802Y271471D01*
X84350Y271659D01*
X68307D01*
X67855Y271471D01*
X67668Y271019D01*
Y256649D01*
X67855Y256197D01*
X68307Y256010D01*
X73889D01*
X73935Y255510D01*
X73614Y255189D01*
X73606D01*
X73113Y255173D01*
X67716D01*
Y251165D01*
X66929D01*
Y252516D01*
X62205D01*
Y252204D01*
X61705Y251886D01*
X61373Y251952D01*
X61220D01*
Y253893D01*
X50590D01*
Y252180D01*
X47795D01*
Y252311D01*
X41181D01*
Y252180D01*
X20906D01*
Y254134D01*
X0D01*
Y257543D01*
X9579D01*
Y261693D01*
Y265843D01*
X0D01*
Y287165D01*
X9758D01*
Y291315D01*
Y295464D01*
X0D01*
Y298874D01*
X21085D01*
Y300815D01*
X43971D01*
Y300752D01*
X43986D01*
Y300685D01*
X45719D01*
Y300252D01*
X46219D01*
Y298701D01*
X48368D01*
Y300252D01*
X48868D01*
Y300685D01*
X50601D01*
Y300752D01*
X50616D01*
Y300815D01*
X55669D01*
Y300744D01*
X66299D01*
Y301701D01*
X68307D01*
Y298382D01*
X74097D01*
X74590Y298366D01*
X74706Y298366D01*
X75590D01*
Y309208D01*
X79134D01*
Y298366D01*
D02*
G37*
G36*
X222051Y295286D02*
Y294382D01*
X222051Y294382D01*
X222130Y293982D01*
X222356Y293644D01*
X223425Y292575D01*
Y290114D01*
X224197D01*
Y288645D01*
X226969D01*
Y287645D01*
X224197D01*
Y285768D01*
Y284708D01*
X226969D01*
Y283708D01*
X224197D01*
Y282197D01*
X222966D01*
Y281272D01*
X220519D01*
X218069Y283722D01*
Y294064D01*
X218069Y294064D01*
X217990Y294463D01*
X217763Y294802D01*
X216992Y295573D01*
X217183Y296035D01*
X221301D01*
X222051Y295286D01*
D02*
G37*
G36*
X172893Y295542D02*
X172554Y295316D01*
X172554Y295316D01*
X154474Y277236D01*
X147576D01*
X147230Y277754D01*
X146514Y278233D01*
X146051Y278325D01*
X145887Y278867D01*
X163054Y296035D01*
X172806D01*
X172893Y295542D01*
D02*
G37*
G36*
X215982Y293194D02*
Y283290D01*
X215982Y283289D01*
X216061Y282890D01*
X216287Y282551D01*
X219349Y279490D01*
X219687Y279264D01*
X220087Y279185D01*
X222966D01*
Y278260D01*
X227690D01*
Y278260D01*
X228084D01*
Y278260D01*
X232808D01*
Y282197D01*
X233290Y282240D01*
X234449D01*
Y283952D01*
X236554D01*
X236865Y283452D01*
X236780Y283027D01*
X236902Y282413D01*
X237250Y281892D01*
X237298Y281410D01*
X234243Y278355D01*
X233938Y277899D01*
X233831Y277361D01*
Y276925D01*
X227362D01*
Y276613D01*
X215496D01*
Y278752D01*
X209984D01*
Y278752D01*
X209606Y278768D01*
X209261Y279089D01*
X209266Y279589D01*
X214807D01*
X215259Y279776D01*
X215446Y280228D01*
Y292951D01*
X215946Y293218D01*
X215982Y293194D01*
D02*
G37*
G36*
X163437Y258222D02*
X163696Y258049D01*
X164118Y257965D01*
X164518D01*
X164546Y257923D01*
X165072Y257571D01*
X165693Y257448D01*
X165784D01*
Y259069D01*
X166783D01*
Y257448D01*
X166874D01*
X167495Y257571D01*
X168021Y257923D01*
X168372Y258449D01*
X168416Y258669D01*
X168959Y258834D01*
X170916Y256876D01*
Y251646D01*
X168981Y249710D01*
X172600Y246091D01*
X173555Y245136D01*
X170802Y242382D01*
X170497Y241927D01*
X170405Y241460D01*
X169039D01*
X169039Y241067D01*
X166850D01*
X166469Y241567D01*
X166539Y241917D01*
X166401Y242608D01*
X166118Y243033D01*
Y251902D01*
X166236Y252079D01*
X166373Y252770D01*
X166236Y253461D01*
X166118Y253638D01*
Y254935D01*
X165995Y255550D01*
X165647Y256071D01*
X165126Y256419D01*
X164815Y256481D01*
X164579Y256639D01*
X164118Y256730D01*
X163657Y256639D01*
X163267Y256377D01*
X163001D01*
X162610Y256639D01*
X162150Y256730D01*
X161689Y256639D01*
X161298Y256377D01*
X161033D01*
X160642Y256639D01*
X160181Y256730D01*
X159720Y256639D01*
X159330Y256377D01*
X159069Y255987D01*
X158977Y255526D01*
Y255207D01*
X157805Y254035D01*
X157343Y254226D01*
Y254484D01*
X157263Y254883D01*
X157037Y255222D01*
X157037Y255222D01*
X154429Y257830D01*
Y258420D01*
X154822D01*
Y258613D01*
X155242Y258697D01*
X155353Y258771D01*
X155909Y258541D01*
X155927Y258449D01*
X156279Y257923D01*
X156805Y257571D01*
X157425Y257448D01*
X157516D01*
Y259069D01*
X158516D01*
Y257448D01*
X158606D01*
X159227Y257571D01*
X159753Y257923D01*
X159782Y257965D01*
X161756D01*
X162178Y258049D01*
X162437Y258222D01*
Y261038D01*
X163437D01*
Y258222D01*
D02*
G37*
G36*
X179527Y244570D02*
Y244248D01*
X181053D01*
X183069Y242231D01*
X183525Y241927D01*
X183606Y241911D01*
Y240675D01*
X183106Y240413D01*
X182654Y240503D01*
X174551D01*
Y241460D01*
X174507D01*
X174316Y241922D01*
X175542Y243149D01*
X176497Y242193D01*
X179066Y244762D01*
X179527Y244570D01*
D02*
G37*
G36*
X182650Y237115D02*
Y236182D01*
X182150Y235792D01*
X182087Y235805D01*
X181664Y235720D01*
X181440Y235571D01*
X181102Y235515D01*
X180765Y235571D01*
X180541Y235720D01*
X180118Y235805D01*
X179696Y235720D01*
X179472Y235571D01*
X179134Y235515D01*
X178796Y235571D01*
X178572Y235720D01*
X178150Y235805D01*
X177727Y235720D01*
X177369Y235481D01*
X177130Y235123D01*
X177089Y234917D01*
X173106D01*
X172722Y234840D01*
X172397Y234623D01*
X171508Y233734D01*
X171008Y233941D01*
Y236736D01*
X174551D01*
Y237693D01*
X182072D01*
X182650Y237115D01*
D02*
G37*
G36*
X226162Y228871D02*
Y212183D01*
X225175Y211196D01*
X216361D01*
X213779Y213777D01*
Y217260D01*
X215923D01*
X216732Y216451D01*
Y212555D01*
X221850D01*
Y218067D01*
X217988D01*
X217733Y218381D01*
X217931Y218838D01*
X218791D01*
Y221504D01*
X216323D01*
Y219267D01*
X206835D01*
X206451Y219191D01*
X206125Y218973D01*
X204825Y217673D01*
X204482D01*
X203017Y219139D01*
X202974Y219167D01*
X202596Y219546D01*
Y220988D01*
X202519Y221372D01*
X202302Y221698D01*
X200489Y223510D01*
X200680Y223972D01*
X201730D01*
X203370Y222332D01*
X203197Y222073D01*
X203060Y221382D01*
X203197Y220690D01*
X203589Y220104D01*
X204175Y219713D01*
X204866Y219575D01*
X205557Y219713D01*
X206143Y220104D01*
X206535Y220690D01*
X206673Y221382D01*
X206535Y222073D01*
X206143Y222659D01*
X205557Y223051D01*
X205625Y223547D01*
X205632Y223563D01*
X205799D01*
Y225941D01*
X206299D01*
Y226441D01*
X209071D01*
Y228303D01*
X210827D01*
Y229858D01*
X225175D01*
X226162Y228871D01*
D02*
G37*
G36*
X177543Y221485D02*
Y216476D01*
X180583D01*
X180624Y216345D01*
X180602Y216267D01*
X180240Y215898D01*
X180118Y215923D01*
X179696Y215839D01*
X179472Y215689D01*
X179134Y215633D01*
X178796Y215689D01*
X178572Y215839D01*
X178150Y215923D01*
X177727Y215839D01*
X177369Y215599D01*
X177130Y215241D01*
X177046Y214819D01*
Y213244D01*
X177130Y212821D01*
X177369Y212463D01*
X177727Y212224D01*
X178150Y212140D01*
X178572Y212224D01*
X178615Y212252D01*
X178781Y212222D01*
X179146Y212006D01*
X179191Y211777D01*
X179409Y211452D01*
X182755Y208105D01*
X183016Y207931D01*
Y206856D01*
X181990Y205831D01*
X177756D01*
Y210390D01*
X176301D01*
Y216061D01*
X176308Y216063D01*
X176666Y216302D01*
X176906Y216660D01*
X176990Y217083D01*
X176906Y217505D01*
X176666Y217863D01*
Y218270D01*
X176906Y218629D01*
X176990Y219051D01*
X176906Y219473D01*
X176666Y219831D01*
X176756Y220373D01*
X176906Y220597D01*
X176990Y221020D01*
X176965Y221141D01*
X177334Y221503D01*
X177412Y221526D01*
X177543Y221485D01*
D02*
G37*
G36*
X107283Y221651D02*
X105983Y220351D01*
X105766Y220025D01*
X105744Y219915D01*
X102834Y217005D01*
X102616Y216679D01*
X102540Y216295D01*
Y212338D01*
X102040Y212186D01*
X101955Y212313D01*
X101239Y212792D01*
X100394Y212960D01*
X99549Y212792D01*
X99449Y212725D01*
X99192Y212848D01*
X98972Y213008D01*
X98892Y213409D01*
X98631Y213800D01*
X98240Y214061D01*
X98224Y214064D01*
X98060Y214607D01*
X104478Y221025D01*
X104478Y221025D01*
X104704Y221364D01*
X104784Y221763D01*
Y222556D01*
X105590Y223362D01*
X107283D01*
Y221651D01*
D02*
G37*
G36*
X58133Y220099D02*
X58197Y219781D01*
X58675Y219065D01*
X59193Y218719D01*
Y215551D01*
X59193Y215551D01*
X59272Y215152D01*
X59498Y214813D01*
X59704Y214607D01*
X59540Y214064D01*
X59523Y214061D01*
X59133Y213800D01*
X58872Y213409D01*
X58780Y212948D01*
X58872Y212488D01*
X58874Y212484D01*
X58607Y211984D01*
X57601D01*
X56998Y212586D01*
X57129Y213244D01*
X56961Y214089D01*
X56482Y214805D01*
X55766Y215283D01*
X54921Y215452D01*
X54076Y215283D01*
X53669Y215011D01*
X53169Y215279D01*
Y215758D01*
X57655Y220244D01*
X58133Y220099D01*
D02*
G37*
G36*
X192745Y229378D02*
X193113Y229015D01*
X193089Y228893D01*
X193173Y228471D01*
X193323Y228247D01*
X193379Y227909D01*
X193323Y227572D01*
X193173Y227347D01*
X193089Y226925D01*
X193173Y226502D01*
X193323Y226278D01*
X193379Y225941D01*
X193323Y225603D01*
X193173Y225379D01*
X193089Y224956D01*
X193173Y224534D01*
X193323Y224310D01*
X193379Y223972D01*
X193323Y223634D01*
X193173Y223410D01*
X193089Y222988D01*
X193173Y222566D01*
X193323Y222341D01*
X193379Y222004D01*
X193323Y221666D01*
X193173Y221442D01*
X193089Y221020D01*
X193173Y220597D01*
X193412Y220239D01*
X193323Y219697D01*
X193173Y219473D01*
X193089Y219051D01*
X193173Y218629D01*
X193412Y218270D01*
Y217863D01*
X193173Y217505D01*
X193089Y217083D01*
X193173Y216660D01*
X193412Y216302D01*
X193771Y216063D01*
X193977Y216022D01*
Y213020D01*
X194053Y212636D01*
X194271Y212310D01*
X197895Y208686D01*
X197704Y208224D01*
X194291D01*
X193898Y208481D01*
Y210193D01*
X192933D01*
Y212797D01*
X192949Y212821D01*
X193033Y213244D01*
Y214819D01*
X192949Y215241D01*
X192710Y215599D01*
X192352Y215839D01*
X191929Y215923D01*
X191807Y215898D01*
X191445Y216267D01*
X191423Y216345D01*
X191464Y216476D01*
X192535D01*
Y223472D01*
X185039D01*
Y224472D01*
X192535D01*
Y229359D01*
X192667Y229400D01*
X192745Y229378D01*
D02*
G37*
G36*
X107402Y218027D02*
Y213342D01*
X107462D01*
X107669Y212842D01*
X106496Y211669D01*
Y205567D01*
X106820Y205243D01*
X104986Y203409D01*
X104525Y203655D01*
X104547Y203764D01*
Y215879D01*
X106902Y218234D01*
X107402Y218027D01*
D02*
G37*
G36*
X46594Y205627D02*
Y202122D01*
X46594Y202122D01*
X46674Y201722D01*
X46900Y201384D01*
X49578Y198706D01*
X49386Y198244D01*
X44882D01*
X44882Y198244D01*
X44482Y198165D01*
X44144Y197939D01*
X42875Y196669D01*
X39173D01*
Y198185D01*
X33661D01*
Y198126D01*
X32480D01*
Y198185D01*
X28641D01*
X28268Y198558D01*
Y199760D01*
X29193D01*
Y202122D01*
X29488D01*
Y203282D01*
X29748Y203417D01*
X29988Y203478D01*
X30651Y203035D01*
X31496Y202867D01*
X32341Y203035D01*
X33057Y203514D01*
X33536Y204230D01*
X33704Y205075D01*
X33536Y205920D01*
X33057Y206636D01*
X32341Y207114D01*
X31496Y207282D01*
X30651Y207114D01*
X29988Y206671D01*
X29748Y206732D01*
X29488Y206867D01*
Y208835D01*
X29488Y208835D01*
X29193Y209212D01*
Y209265D01*
X29203Y209318D01*
X30419Y210533D01*
X30419Y210533D01*
X30645Y210872D01*
X30724Y211271D01*
X30724Y211271D01*
Y212260D01*
X39173D01*
Y212340D01*
X39673Y212547D01*
X46594Y205627D01*
D02*
G37*
G36*
X93914Y205238D02*
X93882Y205072D01*
X93934Y204810D01*
X93711Y204419D01*
X93603Y204310D01*
X92071D01*
X91610Y204219D01*
X91219Y203958D01*
X90958Y203567D01*
X90867Y203106D01*
X90958Y202645D01*
X91064Y202487D01*
X91178Y202122D01*
X91064Y201757D01*
X90958Y201598D01*
X90867Y201137D01*
X90958Y200677D01*
X91219Y200286D01*
X91064Y199788D01*
X90958Y199630D01*
X90867Y199169D01*
X90958Y198708D01*
X91219Y198318D01*
Y198052D01*
X90958Y197661D01*
X90867Y197201D01*
X90958Y196740D01*
X91219Y196349D01*
Y196083D01*
X90958Y195693D01*
X90867Y195232D01*
X90958Y194771D01*
X91219Y194380D01*
Y194115D01*
X90958Y193724D01*
X90911Y193488D01*
X90387Y193305D01*
X84408Y199284D01*
X84531Y199869D01*
X90144Y205482D01*
X90144Y205482D01*
X90315Y205738D01*
X93583D01*
X93914Y205238D01*
D02*
G37*
G36*
X76017Y199776D02*
X76512Y199130D01*
X77158Y198635D01*
X77910Y198323D01*
X78716Y198217D01*
X79171Y198277D01*
X86684Y190765D01*
X86633Y190229D01*
X86300Y190001D01*
X86233Y190045D01*
X85772Y190137D01*
X85311Y190045D01*
X85307Y190043D01*
X84807Y190310D01*
Y190502D01*
X84730Y190886D01*
X84513Y191212D01*
X83523Y192201D01*
X83198Y192419D01*
X82814Y192495D01*
X74929D01*
X74612Y192882D01*
X74649Y193067D01*
X74481Y193912D01*
X74002Y194628D01*
X73286Y195106D01*
X72441Y195274D01*
X71596Y195106D01*
X71334Y194931D01*
X70893Y195167D01*
Y195750D01*
X75073Y199929D01*
X75953D01*
X76017Y199776D01*
D02*
G37*
G36*
X130631Y162801D02*
X130631Y162801D01*
X130969Y162575D01*
X131369Y162495D01*
X131890D01*
Y160389D01*
X136515D01*
Y157303D01*
X136515Y157303D01*
X136595Y156904D01*
X136821Y156565D01*
X137376Y156010D01*
X137376Y156010D01*
X137711Y155787D01*
Y155232D01*
X134193D01*
X127963Y161461D01*
X127953Y161514D01*
Y164826D01*
X128415Y165017D01*
X130631Y162801D01*
D02*
G37*
%LPC*%
G36*
X159984Y362327D02*
X153685D01*
Y360188D01*
X151323D01*
Y361342D01*
X145811D01*
Y356724D01*
X145811Y356224D01*
X145811D01*
Y356224D01*
X145811D01*
Y351106D01*
X149139D01*
X151001Y349245D01*
Y348405D01*
X150142D01*
X149451Y348267D01*
X148864Y347876D01*
X148473Y347289D01*
X148335Y346598D01*
X148473Y345907D01*
X148864Y345321D01*
X149451Y344929D01*
X150142Y344792D01*
X154669D01*
X155361Y344929D01*
X155947Y345321D01*
X156338Y345907D01*
X156476Y346598D01*
X156338Y347289D01*
X155947Y347876D01*
X155361Y348267D01*
X154669Y348405D01*
X153811D01*
Y349827D01*
X153703Y350364D01*
X153399Y350820D01*
X151323Y352896D01*
Y355724D01*
X151323Y356224D01*
X151323D01*
Y356224D01*
X151323D01*
Y357378D01*
X153685D01*
Y355240D01*
X159984D01*
Y362327D01*
D02*
G37*
G36*
X20921Y363418D02*
X10579D01*
Y359769D01*
X20921D01*
Y363418D01*
D02*
G37*
G36*
X145039Y361752D02*
X142374D01*
Y359283D01*
X145039D01*
Y361752D01*
D02*
G37*
G36*
X141374D02*
X138709D01*
Y359283D01*
X141374D01*
Y361752D01*
D02*
G37*
G36*
X167465Y362327D02*
X161165D01*
Y355240D01*
X167465D01*
Y357278D01*
X168545D01*
Y356093D01*
X173726D01*
Y361274D01*
X168545D01*
Y360088D01*
X167465D01*
Y362327D01*
D02*
G37*
G36*
X20921Y358769D02*
X10579D01*
Y355119D01*
X20921D01*
Y358769D01*
D02*
G37*
G36*
X145039Y358283D02*
X141874D01*
X138709D01*
Y355815D01*
Y354165D01*
X141874D01*
X145039D01*
Y355815D01*
Y358283D01*
D02*
G37*
G36*
X159843Y370217D02*
X158998Y370049D01*
X158281Y369571D01*
X157803Y368854D01*
X157635Y368010D01*
X157803Y367165D01*
X158281Y366448D01*
X158998Y365970D01*
X159843Y365802D01*
X160687Y365970D01*
X161404Y366448D01*
X161776Y367006D01*
X181322D01*
X181458Y366506D01*
X180992Y366194D01*
X179971Y365174D01*
X177345D01*
Y359993D01*
X182526D01*
Y362619D01*
X183018Y363111D01*
X185617D01*
X185966Y362877D01*
X186811Y362709D01*
X187656Y362877D01*
X188372Y363356D01*
X188851Y364072D01*
X189019Y364917D01*
X188851Y365762D01*
X188372Y366478D01*
X188330Y366506D01*
X188482Y367006D01*
X189386D01*
X194808Y361584D01*
Y357405D01*
X193055D01*
Y352287D01*
X198567D01*
Y357405D01*
X196815D01*
Y362000D01*
X196738Y362384D01*
X196521Y362710D01*
X190511Y368719D01*
X190186Y368937D01*
X189802Y369013D01*
X161776D01*
X161404Y369571D01*
X160687Y370049D01*
X159843Y370217D01*
D02*
G37*
G36*
X182526Y357574D02*
X177345D01*
Y352393D01*
X182526D01*
Y353441D01*
X186362D01*
Y352287D01*
X191874D01*
Y357405D01*
X186362D01*
Y356251D01*
X182526D01*
Y357574D01*
D02*
G37*
G36*
X145039Y353165D02*
X142374D01*
Y350697D01*
X145039D01*
Y353165D01*
D02*
G37*
G36*
X141374D02*
X138709D01*
Y350697D01*
X141374D01*
Y353165D01*
D02*
G37*
G36*
X90299Y349728D02*
X89906Y349531D01*
X84787D01*
Y347196D01*
X83213D01*
Y349335D01*
X76913D01*
Y342248D01*
X83213D01*
Y344386D01*
X84787D01*
Y344020D01*
X89906D01*
X90299Y343763D01*
Y342642D01*
X96599D01*
Y349728D01*
X90299D01*
Y349728D01*
D02*
G37*
G36*
X203291Y346775D02*
X197780D01*
Y345621D01*
X195417D01*
Y346775D01*
X189906D01*
Y341657D01*
X195417D01*
Y342811D01*
X197780D01*
Y341657D01*
X199130D01*
Y339689D01*
X197780D01*
Y334571D01*
X203291D01*
Y339689D01*
X201940D01*
Y341657D01*
X203291D01*
Y346775D01*
D02*
G37*
G36*
X123764Y349138D02*
X118252D01*
Y344020D01*
X123764D01*
Y345174D01*
X128416D01*
X128781Y344929D01*
X129472Y344792D01*
X134000D01*
X134691Y344929D01*
X135277Y345321D01*
X135669Y345907D01*
X135806Y346598D01*
X135669Y347289D01*
X135277Y347876D01*
X134691Y348267D01*
X134000Y348405D01*
X129472D01*
X128781Y348267D01*
X128357Y347984D01*
X123764D01*
Y349138D01*
D02*
G37*
G36*
X134000Y343405D02*
X129472D01*
X128781Y343267D01*
X128386Y343003D01*
X124158D01*
Y343232D01*
X118646D01*
Y338114D01*
X124158D01*
Y340193D01*
X128386D01*
X128781Y339929D01*
X129472Y339792D01*
X134000D01*
X134691Y339929D01*
X135277Y340321D01*
X135669Y340907D01*
X135806Y341598D01*
X135669Y342289D01*
X135277Y342876D01*
X134691Y343267D01*
X134000Y343405D01*
D02*
G37*
G36*
X61953Y349728D02*
X55654D01*
Y342642D01*
X61953D01*
Y344780D01*
X63528D01*
Y344020D01*
X68646D01*
Y344780D01*
X69433D01*
Y342248D01*
X75732D01*
Y349335D01*
X69433D01*
Y347590D01*
X68646D01*
Y349531D01*
X63528D01*
Y347590D01*
X61953D01*
Y349728D01*
D02*
G37*
G36*
X45094Y344823D02*
X42626D01*
Y342157D01*
X45094D01*
Y344823D01*
D02*
G37*
G36*
X41626D02*
X39157D01*
Y342157D01*
X41626D01*
Y344823D01*
D02*
G37*
G36*
X181047Y347563D02*
X173961D01*
Y341264D01*
X181047D01*
Y343008D01*
X183213D01*
Y341657D01*
X188725D01*
Y346775D01*
X183213D01*
Y345818D01*
X181047D01*
Y347563D01*
D02*
G37*
G36*
X108107Y342854D02*
X105638D01*
Y340189D01*
X108107D01*
Y342854D01*
D02*
G37*
G36*
X154669Y343405D02*
X150142D01*
X149451Y343267D01*
X148864Y342876D01*
X148473Y342289D01*
X148335Y341598D01*
X148473Y340907D01*
X148864Y340321D01*
X149451Y339929D01*
X150142Y339792D01*
X154669D01*
X155361Y339929D01*
X155947Y340321D01*
X156338Y340907D01*
X156476Y341598D01*
X156338Y342289D01*
X155947Y342876D01*
X155361Y343267D01*
X154669Y343405D01*
D02*
G37*
G36*
X45094Y341157D02*
X42626D01*
Y338492D01*
X45094D01*
Y341157D01*
D02*
G37*
G36*
X41626D02*
X39157D01*
Y338492D01*
X41626D01*
Y341157D01*
D02*
G37*
G36*
X181047Y340083D02*
X173961D01*
Y338141D01*
X171795D01*
Y339295D01*
X166284D01*
Y334177D01*
X171795D01*
Y335331D01*
X173961D01*
Y333783D01*
X181047D01*
Y335528D01*
X183213D01*
Y334571D01*
X188725D01*
Y339689D01*
X183213D01*
Y338338D01*
X181047D01*
Y340083D01*
D02*
G37*
G36*
X165102Y339295D02*
X159591D01*
Y338003D01*
X155755D01*
X155361Y338267D01*
X154669Y338405D01*
X150142D01*
X149451Y338267D01*
X148864Y337876D01*
X148473Y337290D01*
X148335Y336598D01*
X148473Y335907D01*
X148864Y335321D01*
X149451Y334929D01*
X150142Y334792D01*
X154669D01*
X155361Y334929D01*
X155755Y335193D01*
X159591D01*
Y334177D01*
X165102D01*
Y339295D01*
D02*
G37*
G36*
X20921Y341607D02*
X10579D01*
Y337958D01*
X20921D01*
Y341607D01*
D02*
G37*
G36*
X117874Y340173D02*
X115209D01*
Y337705D01*
X117874D01*
Y340173D01*
D02*
G37*
G36*
X210394Y340098D02*
X207728D01*
Y337630D01*
X210394D01*
Y340098D01*
D02*
G37*
G36*
X206728D02*
X204063D01*
Y337630D01*
X206728D01*
Y340098D01*
D02*
G37*
G36*
X134000Y338822D02*
X132236D01*
Y337098D01*
X136124D01*
X136055Y337449D01*
X135573Y338171D01*
X134851Y338653D01*
X134000Y338822D01*
D02*
G37*
G36*
X131236D02*
X129472D01*
X128621Y338653D01*
X127900Y338171D01*
X127418Y337449D01*
X127348Y337098D01*
X131236D01*
Y338822D01*
D02*
G37*
G36*
X104079Y349728D02*
X97780D01*
Y342642D01*
X104079D01*
Y344780D01*
X106047D01*
Y343626D01*
X111043D01*
X111165Y343626D01*
X111514Y343354D01*
X111520Y343215D01*
X111174Y342854D01*
X109107D01*
Y339689D01*
Y336524D01*
X111575D01*
Y337705D01*
X114209D01*
Y340673D01*
X114709D01*
Y341173D01*
X117874D01*
Y343642D01*
X117366D01*
X117071Y344020D01*
X117071Y344142D01*
Y349138D01*
X111559D01*
Y349138D01*
X111165D01*
Y349138D01*
X106047D01*
Y347590D01*
X104079D01*
Y349728D01*
D02*
G37*
G36*
X108107Y339189D02*
X105638D01*
Y336524D01*
X108107D01*
Y339189D01*
D02*
G37*
G36*
X209984Y346775D02*
X204472D01*
Y341657D01*
X209984D01*
Y342811D01*
X213921D01*
Y342248D01*
X218539D01*
X218646Y342248D01*
X219039D01*
X219146Y342248D01*
X221130D01*
Y338867D01*
X220572Y338494D01*
X220093Y337778D01*
X219925Y336933D01*
X220093Y336088D01*
X220572Y335372D01*
X221288Y334893D01*
X222133Y334725D01*
X222978Y334893D01*
X223694Y335372D01*
X224173Y336088D01*
X224341Y336933D01*
X224173Y337778D01*
X223694Y338494D01*
X223137Y338867D01*
Y342248D01*
X223764D01*
Y346185D01*
X219146D01*
X219039Y346185D01*
X218646D01*
X218539Y346185D01*
X213921D01*
Y345621D01*
X209984D01*
Y346775D01*
D02*
G37*
G36*
X136124Y336098D02*
X132236D01*
Y334374D01*
X134000D01*
X134851Y334544D01*
X135573Y335026D01*
X136055Y335747D01*
X136124Y336098D01*
D02*
G37*
G36*
X131236D02*
X127348D01*
X127418Y335747D01*
X127900Y335026D01*
X128621Y334544D01*
X129472Y334374D01*
X131236D01*
Y336098D01*
D02*
G37*
G36*
X210394Y336630D02*
X207728D01*
Y334161D01*
X210394D01*
Y336630D01*
D02*
G37*
G36*
X206728D02*
X204063D01*
Y334161D01*
X206728D01*
Y336630D01*
D02*
G37*
G36*
X20921Y336958D02*
X10579D01*
Y333308D01*
X20921D01*
Y336958D01*
D02*
G37*
G36*
X151732Y326319D02*
X149067D01*
Y323850D01*
X151732D01*
Y326319D01*
D02*
G37*
G36*
X148067D02*
X145402D01*
Y323850D01*
X148067D01*
Y326319D01*
D02*
G37*
G36*
X144449Y326712D02*
X140996D01*
Y323653D01*
X144449D01*
Y326712D01*
D02*
G37*
G36*
X139996D02*
X136543D01*
Y323653D01*
X139996D01*
Y326712D01*
D02*
G37*
G36*
X154669Y333405D02*
X150142D01*
X149451Y333267D01*
X148864Y332876D01*
X148473Y332290D01*
X148335Y331598D01*
X148473Y330907D01*
X148864Y330321D01*
X149451Y329929D01*
X150142Y329792D01*
X152225D01*
X153855Y328162D01*
Y325909D01*
X152504D01*
Y320791D01*
X158016D01*
Y325909D01*
X156665D01*
Y328744D01*
X156558Y329282D01*
X156253Y329737D01*
X155922Y330069D01*
X155947Y330321D01*
X156338Y330907D01*
X156476Y331598D01*
X156338Y332290D01*
X155947Y332876D01*
X155361Y333267D01*
X154669Y333405D01*
D02*
G37*
G36*
X134000D02*
X129472D01*
X128781Y333267D01*
X128195Y332876D01*
X127804Y332290D01*
X127666Y331598D01*
X127804Y330907D01*
X128195Y330321D01*
X128781Y329929D01*
X129472Y329792D01*
X130331D01*
Y326303D01*
X129669D01*
Y320791D01*
X134787D01*
Y326303D01*
X133141D01*
Y329792D01*
X134000D01*
X134691Y329929D01*
X135277Y330321D01*
X135669Y330907D01*
X135806Y331598D01*
X135669Y332290D01*
X135277Y332876D01*
X134691Y333267D01*
X134000Y333405D01*
D02*
G37*
G36*
X151732Y322850D02*
X149067D01*
Y320382D01*
X151732D01*
Y322850D01*
D02*
G37*
G36*
X148067D02*
X145402D01*
Y320382D01*
X148067D01*
Y322850D01*
D02*
G37*
G36*
X144449Y322653D02*
X140996D01*
Y319594D01*
X144449D01*
Y322653D01*
D02*
G37*
G36*
X139996D02*
X136543D01*
Y319594D01*
X139996D01*
Y322653D01*
D02*
G37*
G36*
X21101Y317275D02*
X10758D01*
Y313626D01*
X21101D01*
Y317275D01*
D02*
G37*
G36*
X134787Y319610D02*
X129669D01*
Y314098D01*
X134787D01*
Y315449D01*
X136953D01*
Y312524D01*
X144039D01*
Y315449D01*
X146205D01*
Y313311D01*
X151717D01*
Y318429D01*
X146205D01*
Y318259D01*
X144039D01*
Y318823D01*
X136953D01*
Y318259D01*
X134787D01*
Y319610D01*
D02*
G37*
G36*
X258195Y311631D02*
X256317D01*
Y309360D01*
X258195D01*
Y311631D01*
D02*
G37*
G36*
X255317D02*
X253439D01*
Y309360D01*
X255317D01*
Y311631D01*
D02*
G37*
G36*
X21101Y312626D02*
X10758D01*
Y308976D01*
X21101D01*
Y312626D01*
D02*
G37*
G36*
X188959Y291021D02*
X188536Y290937D01*
X188178Y290698D01*
X187939Y290339D01*
X187855Y289917D01*
Y285947D01*
X186194D01*
Y284265D01*
X189163D01*
X192131D01*
Y285947D01*
X190063D01*
Y289917D01*
X189979Y290339D01*
X189739Y290698D01*
X189381Y290937D01*
X188959Y291021D01*
D02*
G37*
G36*
X185241Y285947D02*
X181297D01*
Y284265D01*
X185241D01*
Y285947D01*
D02*
G37*
G36*
X180297D02*
X176352D01*
Y284265D01*
X180297D01*
Y285947D01*
D02*
G37*
G36*
X264618Y276079D02*
X254276D01*
Y272429D01*
X264618D01*
Y276079D01*
D02*
G37*
G36*
X192131Y273817D02*
X189663D01*
Y272136D01*
X192131D01*
Y273817D01*
D02*
G37*
G36*
X188663D02*
X186194D01*
Y272136D01*
X188663D01*
Y273817D01*
D02*
G37*
G36*
X182289Y273817D02*
X179820D01*
Y272136D01*
X182289D01*
Y273817D01*
D02*
G37*
G36*
X178820D02*
X176352D01*
Y272136D01*
X178820D01*
Y273817D01*
D02*
G37*
G36*
X264618Y271429D02*
X254276D01*
Y267779D01*
X264618D01*
Y271429D01*
D02*
G37*
G36*
X164618Y269253D02*
Y267640D01*
X165740D01*
Y267731D01*
X165616Y268351D01*
X165265Y268877D01*
X164739Y269229D01*
X164618Y269253D01*
D02*
G37*
G36*
X166874Y264628D02*
X166783D01*
Y263506D01*
X168396D01*
X168372Y263627D01*
X168021Y264153D01*
X167495Y264505D01*
X166874Y264628D01*
D02*
G37*
G36*
X192142Y254893D02*
X190264D01*
Y252622D01*
X192142D01*
Y254893D01*
D02*
G37*
G36*
X189264D02*
X187386D01*
Y252622D01*
X189264D01*
Y254893D01*
D02*
G37*
G36*
X264618Y254268D02*
X254276D01*
Y250618D01*
X264618D01*
Y254268D01*
D02*
G37*
G36*
X219062Y252606D02*
X217185D01*
Y250334D01*
X219062D01*
Y252606D01*
D02*
G37*
G36*
X226394Y252409D02*
X224516D01*
Y250137D01*
X226394D01*
Y252409D01*
D02*
G37*
G36*
X210700Y252409D02*
X208232D01*
Y249744D01*
X210700D01*
Y252409D01*
D02*
G37*
G36*
X207232D02*
X204763D01*
Y249744D01*
X207232D01*
Y252409D01*
D02*
G37*
G36*
X197402Y248760D02*
X194933D01*
Y246094D01*
X197402D01*
Y248760D01*
D02*
G37*
G36*
X264618Y249618D02*
X254276D01*
Y245969D01*
X264618D01*
Y249618D01*
D02*
G37*
G36*
X139854Y246307D02*
X137583D01*
Y244429D01*
X139854D01*
Y246307D01*
D02*
G37*
G36*
X66945Y244142D02*
X65067D01*
Y241870D01*
X66945D01*
Y244142D01*
D02*
G37*
G36*
X64067D02*
X62189D01*
Y241870D01*
X64067D01*
Y244142D01*
D02*
G37*
G36*
X20921Y244032D02*
X10579D01*
Y240382D01*
X20921D01*
Y244032D01*
D02*
G37*
G36*
Y239382D02*
X10579D01*
Y235732D01*
X20921D01*
Y239382D01*
D02*
G37*
G36*
X164724Y233874D02*
X162059D01*
Y231405D01*
X164724D01*
Y233874D01*
D02*
G37*
G36*
X161059D02*
X158394D01*
Y231405D01*
X161059D01*
Y233874D01*
D02*
G37*
G36*
X156958Y233118D02*
X155080D01*
Y230846D01*
X156958D01*
Y233118D01*
D02*
G37*
G36*
X149106Y230854D02*
X147228D01*
Y228583D01*
X149106D01*
Y230854D01*
D02*
G37*
G36*
X7984Y225592D02*
X5974D01*
Y222587D01*
X10258D01*
Y223318D01*
X10085Y224188D01*
X9592Y224926D01*
X8854Y225419D01*
X7984Y225592D01*
D02*
G37*
G36*
X4974D02*
X2964D01*
X2094Y225419D01*
X1357Y224926D01*
X864Y224188D01*
X690Y223318D01*
Y222587D01*
X4974D01*
Y225592D01*
D02*
G37*
G36*
X10258Y221587D02*
X690D01*
Y220857D01*
X734Y220637D01*
Y218837D01*
X10214D01*
Y220637D01*
X10258Y220857D01*
Y221587D01*
D02*
G37*
G36*
X159681Y220413D02*
X157213D01*
Y217748D01*
X159681D01*
Y220413D01*
D02*
G37*
G36*
X32787Y240661D02*
X31942Y240493D01*
X31225Y240014D01*
X30747Y239298D01*
X30579Y238453D01*
X30747Y237608D01*
X31225Y236892D01*
X31783Y236520D01*
Y229375D01*
X31859Y228991D01*
X32077Y228665D01*
X42608Y218134D01*
X42477Y217476D01*
X42645Y216631D01*
X43124Y215915D01*
X43840Y215437D01*
X44685Y215268D01*
X45530Y215437D01*
X46246Y215915D01*
X46725Y216631D01*
X46893Y217476D01*
X46725Y218321D01*
X46246Y219037D01*
X45530Y219516D01*
X44685Y219684D01*
X44027Y219553D01*
X33790Y229790D01*
Y236520D01*
X34348Y236892D01*
X34826Y237608D01*
X34994Y238453D01*
X34826Y239298D01*
X34348Y240014D01*
X33632Y240493D01*
X32787Y240661D01*
D02*
G37*
G36*
X18494Y217773D02*
Y215245D01*
X21022D01*
X20982Y215546D01*
X20673Y216292D01*
X20181Y216932D01*
X19541Y217424D01*
X18795Y217733D01*
X18494Y217773D01*
D02*
G37*
G36*
X17494D02*
X17193Y217733D01*
X16447Y217424D01*
X15807Y216932D01*
X15315Y216292D01*
X15006Y215546D01*
X14966Y215245D01*
X17494D01*
Y217773D01*
D02*
G37*
G36*
X159681Y216748D02*
X157213D01*
Y214083D01*
X159681D01*
Y216748D01*
D02*
G37*
G36*
X165587Y220413D02*
X160681D01*
Y217248D01*
Y214083D01*
X165587D01*
Y217248D01*
Y220413D01*
D02*
G37*
G36*
X10214Y217837D02*
X734D01*
Y215221D01*
X1208D01*
X1640Y215056D01*
X1640Y214721D01*
Y211013D01*
X10726D01*
Y215056D01*
X10646D01*
X10214Y215221D01*
X10214Y215556D01*
Y217837D01*
D02*
G37*
G36*
X165173Y213161D02*
X162508D01*
Y210693D01*
X165173D01*
Y213161D01*
D02*
G37*
G36*
X161508D02*
X158843D01*
Y210693D01*
X161508D01*
Y213161D01*
D02*
G37*
G36*
X165173Y209693D02*
X162008D01*
X158843D01*
Y207224D01*
Y204787D01*
X162008D01*
X165173D01*
Y207224D01*
Y209693D01*
D02*
G37*
G36*
X121472Y208118D02*
X118610D01*
Y203681D01*
X121472D01*
Y208118D01*
D02*
G37*
G36*
X117610D02*
X114748D01*
Y203681D01*
X117610D01*
Y208118D01*
D02*
G37*
G36*
X10726Y210013D02*
X1640D01*
Y205969D01*
Y201958D01*
X10726D01*
Y205969D01*
Y210013D01*
D02*
G37*
G36*
X20963Y202926D02*
X17010D01*
X13057D01*
Y201639D01*
Y201367D01*
X17010D01*
X20963D01*
Y201639D01*
Y202926D01*
D02*
G37*
G36*
X165173Y203787D02*
X162508D01*
Y201319D01*
X165173D01*
Y203787D01*
D02*
G37*
G36*
X161508D02*
X158843D01*
Y201319D01*
X161508D01*
Y203787D01*
D02*
G37*
G36*
X199819Y201941D02*
X197351D01*
Y199275D01*
X199819D01*
Y201941D01*
D02*
G37*
G36*
X174697Y200441D02*
X172228D01*
Y197775D01*
X174697D01*
Y200441D01*
D02*
G37*
G36*
X20963Y200367D02*
X17010D01*
X13057D01*
Y199080D01*
X14969D01*
X15235Y198580D01*
X15006Y198026D01*
X14966Y197725D01*
X21022D01*
X20982Y198026D01*
X20753Y198580D01*
X20963Y199080D01*
X20963D01*
Y200367D01*
D02*
G37*
G36*
X199819Y198275D02*
X197351D01*
Y195610D01*
X199819D01*
Y198275D01*
D02*
G37*
G36*
X196351D02*
X193882D01*
Y195610D01*
X196351D01*
Y198275D01*
D02*
G37*
G36*
X209547Y202122D02*
X209047Y202122D01*
X202854D01*
Y199759D01*
X202215Y199120D01*
X201989Y198781D01*
X201909Y198382D01*
X201909Y198382D01*
Y197256D01*
X201676Y197100D01*
X201284Y196514D01*
X201146Y195823D01*
X201284Y195131D01*
X201676Y194545D01*
X202261Y194154D01*
X202953Y194016D01*
X203644Y194154D01*
X204230Y194545D01*
X204622Y195131D01*
X204759Y195823D01*
X204622Y196514D01*
X204230Y197100D01*
X203996Y197256D01*
Y197949D01*
X204232Y198185D01*
X206043D01*
Y196666D01*
X205809Y196509D01*
X205418Y195923D01*
X205280Y195232D01*
X205418Y194541D01*
X205809Y193955D01*
X206395Y193563D01*
X207087Y193426D01*
X207778Y193563D01*
X208364Y193955D01*
X208755Y194541D01*
X208893Y195232D01*
X208755Y195923D01*
X208364Y196509D01*
X208130Y196666D01*
Y197831D01*
X208484Y198185D01*
X209350Y198185D01*
X209850Y198185D01*
X210515D01*
Y197059D01*
X210282Y196903D01*
X209890Y196317D01*
X209753Y195626D01*
X209890Y194934D01*
X210282Y194349D01*
X210868Y193957D01*
X211559Y193819D01*
X212250Y193957D01*
X212836Y194349D01*
X213228Y194934D01*
X213365Y195626D01*
X213228Y196317D01*
X212836Y196903D01*
X212603Y197059D01*
Y198185D01*
X214666D01*
X214704Y198146D01*
Y197453D01*
X214471Y197297D01*
X214079Y196711D01*
X213942Y196019D01*
X214079Y195328D01*
X214471Y194742D01*
X215057Y194351D01*
X215748Y194213D01*
X216439Y194351D01*
X217025Y194742D01*
X217417Y195328D01*
X217554Y196019D01*
X217417Y196711D01*
X217025Y197297D01*
X216792Y197453D01*
Y198578D01*
X216712Y198978D01*
X216486Y199316D01*
X216486Y199316D01*
X216043Y199759D01*
Y202122D01*
X209850D01*
X209547Y202122D01*
D02*
G37*
G36*
X21022Y196725D02*
X18494D01*
Y194198D01*
X18795Y194237D01*
X19541Y194546D01*
X20181Y195038D01*
X20673Y195679D01*
X20982Y196425D01*
X21022Y196725D01*
D02*
G37*
G36*
X17494D02*
X14966D01*
X15006Y196425D01*
X15315Y195679D01*
X15807Y195038D01*
X16447Y194546D01*
X17193Y194237D01*
X17494Y194198D01*
Y196725D01*
D02*
G37*
G36*
X10726Y200957D02*
X1640D01*
Y197249D01*
X1640Y196914D01*
X1208Y196749D01*
X734D01*
Y194133D01*
X10214D01*
X10214Y196749D01*
X10646Y196914D01*
X10726D01*
Y200957D01*
D02*
G37*
G36*
X179760Y195882D02*
X177291D01*
Y193216D01*
X179760D01*
Y195882D01*
D02*
G37*
G36*
X10214Y193133D02*
X734D01*
Y191333D01*
X690Y191113D01*
Y190383D01*
X10258D01*
Y191113D01*
X10214Y191333D01*
Y193133D01*
D02*
G37*
G36*
X165496Y194445D02*
X159197D01*
Y187358D01*
X165496D01*
Y189858D01*
X170731D01*
X171077Y189340D01*
X171793Y188862D01*
X172638Y188694D01*
X173483Y188862D01*
X174199Y189340D01*
X174678Y190057D01*
X174846Y190901D01*
X174678Y191746D01*
X174199Y192463D01*
X173483Y192941D01*
X172638Y193109D01*
X171793Y192941D01*
X171077Y192463D01*
X170731Y191945D01*
X165496D01*
Y194445D01*
D02*
G37*
G36*
X142126Y206443D02*
X141281Y206275D01*
X140565Y205797D01*
X140086Y205081D01*
X139918Y204236D01*
X140086Y203391D01*
X140565Y202675D01*
X141281Y202196D01*
X142126Y202028D01*
X142569Y202116D01*
X151717Y192969D01*
Y187358D01*
X158016D01*
Y194445D01*
X153193D01*
X144179Y203458D01*
X144334Y204236D01*
X144165Y205081D01*
X143687Y205797D01*
X142971Y206275D01*
X142126Y206443D01*
D02*
G37*
G36*
X51000Y188949D02*
X48335D01*
Y186480D01*
X51000D01*
Y188949D01*
D02*
G37*
G36*
X10258Y189383D02*
X5974D01*
Y186378D01*
X7984D01*
X8854Y186551D01*
X9592Y187045D01*
X10085Y187782D01*
X10258Y188652D01*
Y189383D01*
D02*
G37*
G36*
X4974D02*
X690D01*
Y188652D01*
X864Y187782D01*
X1357Y187045D01*
X2094Y186551D01*
X2964Y186378D01*
X4974D01*
Y189383D01*
D02*
G37*
G36*
X115173Y186267D02*
X112508D01*
Y183799D01*
X115173D01*
Y186267D01*
D02*
G37*
G36*
X111508D02*
X108843D01*
Y183799D01*
X111508D01*
Y186267D01*
D02*
G37*
G36*
X252575Y187177D02*
X248531D01*
Y183527D01*
X252575D01*
Y187177D01*
D02*
G37*
G36*
X247531D02*
X243488D01*
Y183527D01*
X247531D01*
Y187177D01*
D02*
G37*
G36*
X51000Y185480D02*
X48335D01*
Y183011D01*
X51000D01*
Y185480D01*
D02*
G37*
G36*
X47335D02*
X44669D01*
Y183011D01*
X47335D01*
Y185480D01*
D02*
G37*
G36*
X239173Y269487D02*
X238328Y269319D01*
X237612Y268840D01*
X237134Y268124D01*
X236965Y267279D01*
X237134Y266434D01*
X237612Y265718D01*
X238130Y265372D01*
Y213971D01*
X204209Y180051D01*
X196118D01*
X195962Y180284D01*
X195376Y180676D01*
X194685Y180814D01*
X193994Y180676D01*
X193634Y180436D01*
X192323Y181747D01*
Y186964D01*
X186024D01*
Y179878D01*
X191241D01*
X192849Y178269D01*
X192849Y178269D01*
X193188Y178043D01*
X193200Y178040D01*
X193408Y177730D01*
X193994Y177338D01*
X194685Y177201D01*
X195376Y177338D01*
X195962Y177730D01*
X196118Y177963D01*
X204641D01*
X204641Y177963D01*
X205041Y178043D01*
X205379Y178269D01*
X206881Y179771D01*
X207382Y179564D01*
Y176722D01*
X211831D01*
Y180172D01*
X207989D01*
X207782Y180672D01*
X239911Y212801D01*
X240138Y213140D01*
X240217Y213539D01*
X240217Y213539D01*
Y265372D01*
X240734Y265718D01*
X241213Y266434D01*
X241381Y267279D01*
X241213Y268124D01*
X240734Y268840D01*
X240018Y269319D01*
X239173Y269487D01*
D02*
G37*
G36*
X51000Y181665D02*
X48335D01*
Y179197D01*
X51000D01*
Y181665D01*
D02*
G37*
G36*
X47335D02*
X44669D01*
Y179197D01*
X47335D01*
Y181665D01*
D02*
G37*
G36*
X252575Y182527D02*
X248531D01*
Y178878D01*
X252575D01*
Y182527D01*
D02*
G37*
G36*
X247531D02*
X243488D01*
Y178878D01*
X247531D01*
Y182527D01*
D02*
G37*
G36*
X171653Y179494D02*
X171563D01*
Y177388D01*
X173275D01*
Y177872D01*
X173152Y178493D01*
X172800Y179019D01*
X172274Y179370D01*
X171653Y179494D01*
D02*
G37*
G36*
X217282Y180172D02*
X212831D01*
Y176722D01*
X217282D01*
Y180172D01*
D02*
G37*
G36*
X94435Y179063D02*
X91770D01*
Y176594D01*
X94435D01*
Y179063D01*
D02*
G37*
G36*
X51000Y178197D02*
X48335D01*
Y175728D01*
X51000D01*
Y178197D01*
D02*
G37*
G36*
X47335D02*
X44669D01*
Y175728D01*
X47335D01*
Y178197D01*
D02*
G37*
G36*
X252165Y175744D02*
X243898D01*
Y174761D01*
X241672D01*
Y175212D01*
X232591D01*
Y171688D01*
X212332D01*
X211150Y171533D01*
X210048Y171077D01*
X209552Y170696D01*
X200039D01*
X199114Y170574D01*
X198252Y170217D01*
X197512Y169649D01*
X197512Y169649D01*
X194323Y166460D01*
X193755Y165720D01*
X193586Y165311D01*
X192822D01*
Y158987D01*
X192468Y158634D01*
X191888Y158634D01*
X191809D01*
X191640Y159064D01*
Y165311D01*
X191190D01*
Y167870D01*
X191003Y168322D01*
X190551Y168509D01*
X173522D01*
X173196Y169009D01*
X173275Y169408D01*
Y169892D01*
X171063D01*
Y170392D01*
X170563D01*
Y172998D01*
X170473D01*
X169852Y172874D01*
X169566Y172683D01*
X168984Y172816D01*
X168962Y172835D01*
X168956Y172849D01*
X168504Y173037D01*
X157677D01*
X157225Y172849D01*
X157038Y172397D01*
Y169838D01*
X154530D01*
Y164970D01*
X153758D01*
Y166779D01*
X150593D01*
X147427D01*
Y164311D01*
X149787D01*
Y163092D01*
X152559D01*
Y162592D01*
X153059D01*
Y160214D01*
X155331D01*
Y160623D01*
X157035D01*
Y158091D01*
X155033D01*
Y155940D01*
X154624D01*
Y154690D01*
X157874D01*
Y153690D01*
X154624D01*
Y152440D01*
Y152130D01*
X157874D01*
Y151130D01*
X154624D01*
Y149880D01*
Y149570D01*
X157874D01*
Y149070D01*
X158374D01*
Y147320D01*
X161124D01*
X161402Y146935D01*
Y145807D01*
X163870D01*
Y148972D01*
X164370D01*
Y149472D01*
X167339D01*
Y152073D01*
X179739D01*
X180102Y151744D01*
X180102Y151573D01*
Y149079D01*
X183071D01*
X186039D01*
Y151573D01*
X186039Y151744D01*
X186403Y152073D01*
X190551D01*
X191003Y152260D01*
X191190Y152712D01*
Y157871D01*
X191227Y157907D01*
X191566Y157880D01*
X191809Y157622D01*
Y156165D01*
X194974D01*
X198139D01*
Y158224D01*
X199121D01*
Y161209D01*
X199378Y161406D01*
X201520Y163548D01*
X209552D01*
X210048Y163167D01*
X211150Y162711D01*
X212332Y162555D01*
X232591D01*
Y159031D01*
X241672D01*
Y163884D01*
X244685D01*
Y162752D01*
X249803D01*
Y163884D01*
X251575D01*
X252027Y164071D01*
X252214Y164523D01*
Y174122D01*
X252165Y174239D01*
Y175744D01*
D02*
G37*
G36*
X173275Y176388D02*
X171563D01*
Y174282D01*
X171653D01*
X172274Y174405D01*
X172800Y174757D01*
X173152Y175283D01*
X173275Y175904D01*
Y176388D01*
D02*
G37*
G36*
X169827Y186177D02*
X164315D01*
Y181059D01*
X165967D01*
Y179065D01*
X165563Y178985D01*
X165172Y178724D01*
X164911Y178333D01*
X164819Y177872D01*
Y175904D01*
X164911Y175443D01*
X165172Y175052D01*
X165563Y174791D01*
X166024Y174699D01*
X167205D01*
X167666Y174791D01*
X168056Y175052D01*
X168317Y175443D01*
X168375Y175733D01*
X168885D01*
X168974Y175283D01*
X169326Y174757D01*
X169852Y174405D01*
X170472Y174282D01*
X170563D01*
Y176888D01*
Y179494D01*
X170472D01*
X169852Y179370D01*
X169326Y179019D01*
X168974Y178493D01*
X168885Y178043D01*
X168375D01*
X168317Y178333D01*
X168175Y178546D01*
Y181059D01*
X169827D01*
Y186177D01*
D02*
G37*
G36*
X217282Y175722D02*
X212831D01*
Y172272D01*
X217282D01*
Y175722D01*
D02*
G37*
G36*
X211831D02*
X207382D01*
Y172272D01*
X211831D01*
Y175722D01*
D02*
G37*
G36*
X104215Y173594D02*
X101550D01*
Y171126D01*
X104215D01*
Y173594D01*
D02*
G37*
G36*
X100550D02*
X97885D01*
Y171126D01*
X100550D01*
Y173594D01*
D02*
G37*
G36*
X171653Y172998D02*
X171563D01*
Y170892D01*
X173275D01*
Y171376D01*
X173152Y171997D01*
X172800Y172523D01*
X172274Y172874D01*
X171653Y172998D01*
D02*
G37*
G36*
X153758Y170248D02*
X151093D01*
Y167779D01*
X153758D01*
Y170248D01*
D02*
G37*
G36*
X150093D02*
X147427D01*
Y167779D01*
X150093D01*
Y170248D01*
D02*
G37*
G36*
X152059Y162092D02*
X149787D01*
Y160214D01*
X152059D01*
Y162092D01*
D02*
G37*
G36*
X250213Y161980D02*
X247744D01*
Y159315D01*
X250213D01*
Y161980D01*
D02*
G37*
G36*
X246744D02*
X244275D01*
Y159315D01*
X246744D01*
Y161980D01*
D02*
G37*
G36*
X250213Y158315D02*
X247744D01*
Y155649D01*
X250213D01*
Y158315D01*
D02*
G37*
G36*
X246744D02*
X244275D01*
Y155649D01*
X246744D01*
Y158315D01*
D02*
G37*
G36*
X198139Y155165D02*
X195474D01*
Y152697D01*
X198139D01*
Y155165D01*
D02*
G37*
G36*
X194474D02*
X191809D01*
Y152697D01*
X194474D01*
Y155165D01*
D02*
G37*
G36*
X84693Y165182D02*
X79512D01*
Y160001D01*
X80858D01*
Y156831D01*
X79543D01*
Y151319D01*
X84661D01*
Y156831D01*
X83347D01*
Y160001D01*
X84693D01*
Y165182D01*
D02*
G37*
G36*
X78575D02*
X73394D01*
Y160001D01*
X74559D01*
Y156831D01*
X73244D01*
Y151319D01*
X78362D01*
Y156831D01*
X77047D01*
Y160001D01*
X78575D01*
Y165182D01*
D02*
G37*
G36*
X72276D02*
X67094D01*
Y160001D01*
X68260D01*
Y156831D01*
X66945D01*
Y151319D01*
X72063D01*
Y156831D01*
X70748D01*
Y160001D01*
X72276D01*
Y165182D01*
D02*
G37*
G36*
X88386Y150499D02*
X87579Y150393D01*
X86827Y150081D01*
X86186Y149589D01*
X84661D01*
Y150138D01*
X79543D01*
Y149589D01*
X78362D01*
Y150138D01*
X73244D01*
Y149589D01*
X72063D01*
Y150138D01*
X66945D01*
Y149589D01*
X63656D01*
X63015Y150081D01*
X62263Y150393D01*
X61456Y150499D01*
X60649Y150393D01*
X59898Y150081D01*
X59252Y149586D01*
X58757Y148940D01*
X58445Y148188D01*
X58339Y147382D01*
X58445Y146575D01*
X58757Y145823D01*
X59252Y145177D01*
X59898Y144682D01*
X60649Y144371D01*
X61456Y144264D01*
X62263Y144371D01*
X63015Y144682D01*
X63656Y145174D01*
X66945D01*
Y144626D01*
X72063D01*
Y145174D01*
X73244D01*
Y144626D01*
X78362D01*
Y145174D01*
X79543D01*
Y144626D01*
X84661D01*
Y145174D01*
X86186D01*
X86827Y144682D01*
X87579Y144371D01*
X88386Y144264D01*
X89193Y144371D01*
X89944Y144682D01*
X90590Y145177D01*
X91085Y145823D01*
X91397Y146575D01*
X91503Y147382D01*
X91397Y148188D01*
X91085Y148940D01*
X90590Y149586D01*
X89944Y150081D01*
X89193Y150393D01*
X88386Y150499D01*
D02*
G37*
G36*
X220685Y153319D02*
X217035D01*
Y149275D01*
X220685D01*
Y153319D01*
D02*
G37*
G36*
X211350Y161584D02*
X211182Y161562D01*
X207791D01*
Y158024D01*
X207675Y157935D01*
X202649Y152909D01*
X201772D01*
Y152032D01*
X176933Y127193D01*
X101605D01*
X101361Y127437D01*
Y128824D01*
X101916Y129547D01*
X102278Y130421D01*
X102401Y131358D01*
Y133358D01*
X102278Y134295D01*
X101916Y135169D01*
X101340Y135919D01*
X100590Y136494D01*
X99717Y136856D01*
X98779Y136979D01*
X97842Y136856D01*
X96969Y136494D01*
X96219Y135919D01*
X95643Y135169D01*
X95281Y134295D01*
X95158Y133358D01*
Y131358D01*
X95281Y130421D01*
X95643Y129547D01*
X96198Y128824D01*
Y126368D01*
X96286Y125700D01*
X96544Y125078D01*
X96954Y124543D01*
X98711Y122786D01*
X99246Y122376D01*
X99868Y122118D01*
X100536Y122030D01*
X178002D01*
X178670Y122118D01*
X179292Y122376D01*
X179827Y122787D01*
X201403Y144362D01*
X201772Y144641D01*
Y144641D01*
X201772Y144641D01*
X209252D01*
Y152212D01*
X210569Y153529D01*
X211973D01*
X212386Y153319D01*
X212386Y153029D01*
Y149275D01*
X216035D01*
Y153319D01*
X215498D01*
X215399Y153819D01*
X215534Y153875D01*
X216069Y154285D01*
X216219Y154481D01*
X216872D01*
Y161562D01*
X211518D01*
X211350Y161584D01*
D02*
G37*
G36*
X157374Y148570D02*
X154624D01*
Y147320D01*
X157374D01*
Y148570D01*
D02*
G37*
G36*
X140051Y148568D02*
X137301D01*
Y147318D01*
X140051D01*
Y148568D01*
D02*
G37*
G36*
X167339Y148472D02*
X164870D01*
Y145807D01*
X167339D01*
Y148472D01*
D02*
G37*
G36*
X186039Y148079D02*
X183571D01*
Y145413D01*
X186039D01*
Y148079D01*
D02*
G37*
G36*
X182571D02*
X180102D01*
Y145413D01*
X182571D01*
Y148079D01*
D02*
G37*
G36*
X220685Y148275D02*
X217035D01*
Y144232D01*
X220685D01*
Y148275D01*
D02*
G37*
G36*
X216035D02*
X212386D01*
Y144232D01*
X216035D01*
Y148275D01*
D02*
G37*
G36*
X108780Y146979D02*
X107842Y146856D01*
X106969Y146494D01*
X106219Y145919D01*
X105643Y145169D01*
X105281Y144295D01*
X105158Y143358D01*
Y141358D01*
X105281Y140421D01*
X105643Y139547D01*
X106219Y138797D01*
X106969Y138222D01*
X107842Y137860D01*
X108780Y137736D01*
X109717Y137860D01*
X110590Y138222D01*
X111340Y138797D01*
X111916Y139547D01*
X112278Y140421D01*
X112401Y141358D01*
Y143358D01*
X112278Y144295D01*
X111916Y145169D01*
X111340Y145919D01*
X110590Y146494D01*
X109717Y146856D01*
X108780Y146979D01*
D02*
G37*
G36*
X128779Y136979D02*
X127842Y136856D01*
X126969Y136494D01*
X126219Y135919D01*
X125643Y135169D01*
X125281Y134295D01*
X125158Y133358D01*
Y131358D01*
X125281Y130421D01*
X125643Y129547D01*
X126219Y128797D01*
X126969Y128222D01*
X127842Y127860D01*
X128779Y127736D01*
X129717Y127860D01*
X130590Y128222D01*
X131340Y128797D01*
X131916Y129547D01*
X132278Y130421D01*
X132401Y131358D01*
Y133358D01*
X132278Y134295D01*
X131916Y135169D01*
X131340Y135919D01*
X130590Y136494D01*
X129717Y136856D01*
X128779Y136979D01*
D02*
G37*
G36*
X118780D02*
X117842Y136856D01*
X116969Y136494D01*
X116219Y135919D01*
X115643Y135169D01*
X115281Y134295D01*
X115158Y133358D01*
Y131358D01*
X115281Y130421D01*
X115643Y129547D01*
X116219Y128797D01*
X116969Y128222D01*
X117842Y127860D01*
X118780Y127736D01*
X119717Y127860D01*
X120590Y128222D01*
X121340Y128797D01*
X121916Y129547D01*
X122278Y130421D01*
X122401Y131358D01*
Y133358D01*
X122278Y134295D01*
X121916Y135169D01*
X121340Y135919D01*
X120590Y136494D01*
X119717Y136856D01*
X118780Y136979D01*
D02*
G37*
G36*
X108780D02*
X107842Y136856D01*
X106969Y136494D01*
X106219Y135919D01*
X105643Y135169D01*
X105281Y134295D01*
X105158Y133358D01*
Y131358D01*
X105281Y130421D01*
X105643Y129547D01*
X106219Y128797D01*
X106969Y128222D01*
X107842Y127860D01*
X108780Y127736D01*
X109717Y127860D01*
X110590Y128222D01*
X111340Y128797D01*
X111916Y129547D01*
X112278Y130421D01*
X112401Y131358D01*
Y133358D01*
X112278Y134295D01*
X111916Y135169D01*
X111340Y135919D01*
X110590Y136494D01*
X109717Y136856D01*
X108780Y136979D01*
D02*
G37*
G36*
X20921Y113480D02*
X10579D01*
Y109831D01*
X20921D01*
Y113480D01*
D02*
G37*
G36*
X264618D02*
X254276D01*
Y109831D01*
X264618D01*
Y113480D01*
D02*
G37*
G36*
Y108831D02*
X254276D01*
Y105181D01*
X264618D01*
Y108831D01*
D02*
G37*
G36*
X20921Y108831D02*
X10579D01*
Y105181D01*
X20921D01*
Y108831D01*
D02*
G37*
G36*
Y91669D02*
X10579D01*
Y88020D01*
X20921D01*
Y91669D01*
D02*
G37*
G36*
X264618D02*
X254276D01*
Y88020D01*
X264618D01*
Y91669D01*
D02*
G37*
G36*
Y87020D02*
X254276D01*
Y83370D01*
X264618D01*
Y87020D01*
D02*
G37*
G36*
X20921Y87020D02*
X10579D01*
Y83370D01*
X20921D01*
Y87020D01*
D02*
G37*
G36*
X50616Y299752D02*
X49368D01*
Y298701D01*
X50616D01*
Y299752D01*
D02*
G37*
G36*
X45219D02*
X43971D01*
Y298701D01*
X45219D01*
Y299752D01*
D02*
G37*
G36*
X102420Y298791D02*
X100541D01*
Y296519D01*
X102420D01*
Y298791D01*
D02*
G37*
G36*
X21101Y295464D02*
X10758D01*
Y291815D01*
X21101D01*
Y295464D01*
D02*
G37*
G36*
Y290815D02*
X10758D01*
Y287165D01*
X21101D01*
Y290815D01*
D02*
G37*
G36*
X118520Y283511D02*
X116641D01*
Y281240D01*
X118520D01*
Y283511D01*
D02*
G37*
G36*
X115641D02*
X113764D01*
Y281240D01*
X115641D01*
Y283511D01*
D02*
G37*
G36*
X159681Y269253D02*
X159561Y269229D01*
X159034Y268877D01*
X158683Y268351D01*
X158559Y267731D01*
Y267640D01*
X159681D01*
Y269253D01*
D02*
G37*
G36*
X140937Y268280D02*
X139846D01*
Y266648D01*
X140937D01*
Y268280D01*
D02*
G37*
G36*
X150706Y268271D02*
X149616D01*
Y266640D01*
X150706D01*
Y268271D01*
D02*
G37*
G36*
X20921Y265843D02*
X10579D01*
Y262193D01*
X20921D01*
Y265843D01*
D02*
G37*
G36*
Y261193D02*
X10579D01*
Y257543D01*
X20921D01*
Y261193D01*
D02*
G37*
G36*
X209071Y225441D02*
X206799D01*
Y223563D01*
X209071D01*
Y225441D01*
D02*
G37*
G36*
X222260Y225169D02*
X219791D01*
Y222504D01*
X222260D01*
Y225169D01*
D02*
G37*
G36*
X218791D02*
X216323D01*
Y222504D01*
X218791D01*
Y225169D01*
D02*
G37*
G36*
X222260Y221504D02*
X219791D01*
Y218838D01*
X222260D01*
Y221504D01*
D02*
G37*
G36*
X39626Y210389D02*
X35689D01*
X35689Y207277D01*
X35280Y207059D01*
X35280Y207021D01*
X35280Y207021D01*
Y205574D01*
X37657D01*
X40035D01*
Y207021D01*
X40035Y207021D01*
Y207059D01*
X39626Y207277D01*
X39626Y207559D01*
Y210389D01*
D02*
G37*
G36*
X40035Y204574D02*
X37657D01*
X35280D01*
Y203128D01*
X35280Y203128D01*
Y203090D01*
X35689Y202872D01*
X35689Y202590D01*
Y199760D01*
X39626D01*
X39626Y202872D01*
X40035Y203090D01*
X40035Y203128D01*
X40035Y203128D01*
Y204574D01*
D02*
G37*
%LPD*%
D10*
X182269Y364917D02*
X186811D01*
X179936Y362583D02*
X182269Y364917D01*
X145284Y246816D02*
X150531D01*
X151554Y247838D01*
X151958D02*
X151968Y247849D01*
X151554Y247838D02*
X151958D01*
D11*
X243110Y286275D02*
X244390Y284996D01*
X187992Y226925D02*
X191929Y230862D01*
X187992Y226925D02*
Y233913D01*
X182087Y214031D02*
Y221020D01*
X175098Y222988D02*
X184055D01*
X149116Y262557D02*
X149117Y262556D01*
X150591D02*
X152705D01*
X149117D02*
X150591D01*
X149116Y264031D02*
Y266140D01*
Y262557D02*
Y264031D01*
X145275Y258716D02*
X149116Y262557D01*
X188959Y283969D02*
X189163Y283766D01*
X188959Y283969D02*
Y289917D01*
X161067Y261038D02*
X162937D01*
X159136Y262969D02*
X161067Y261038D01*
X158053Y262969D02*
X159136D01*
X158016Y263006D02*
X158053Y262969D01*
X162937Y261038D02*
Y261825D01*
X163232Y262120D01*
X164118D01*
X164966Y262969D01*
X166246D01*
X166284Y263006D01*
X158016Y259069D02*
X161756D01*
X162937Y260250D01*
X164118Y259069D02*
X166284D01*
X162937Y260250D02*
X164118Y259069D01*
X162937Y260250D02*
Y261038D01*
X164118Y264581D02*
Y267140D01*
Y264581D02*
X165693Y263006D01*
X166284D01*
X160181Y264581D02*
Y267140D01*
X158606Y263006D02*
X160181Y264581D01*
X158016Y263006D02*
X158606D01*
X153697D02*
X158016D01*
X153246Y262556D02*
X153697Y263006D01*
X152705Y262556D02*
X153246D01*
X149112Y251286D02*
X149114Y251284D01*
X146562Y251286D02*
X149112D01*
X146560Y251288D02*
X146562Y251286D01*
X146555Y251284D02*
X146560Y251288D01*
X144001Y251284D02*
X146555D01*
X143997Y251279D02*
X144001Y251284D01*
X143997Y251279D02*
X143997Y251279D01*
X141436Y251279D02*
X143997D01*
X141436Y251279D02*
X141436Y251279D01*
X90157Y270232D02*
X94130D01*
X94130Y270232D01*
X137847Y257430D02*
Y258618D01*
X141436Y251279D02*
X141441Y251284D01*
X137847Y258618D02*
Y259995D01*
X145275Y258716D02*
X149114Y254877D01*
X137741Y254781D02*
X137840Y254879D01*
X143997Y251279D02*
Y251284D01*
X141436Y254877D02*
X145275Y258716D01*
X166614Y176888D02*
X167071Y177345D01*
Y183618D01*
X243110Y286275D02*
Y286964D01*
X244390Y284996D02*
X247244D01*
X182087Y221020D02*
X184055Y222988D01*
X185039Y223972D01*
X180315Y228697D02*
X185039Y223972D01*
X180118Y228893D02*
X180315Y228697D01*
X175098Y228893D02*
X180118D01*
X185039Y223972D02*
X187992Y226925D01*
X191929Y230862D02*
X191929Y230862D01*
Y233913D01*
X191929Y230862D02*
X194980D01*
X189764Y219248D02*
X189961Y219051D01*
X185039Y223972D02*
X189764Y219248D01*
X189961Y214031D02*
Y219051D01*
X134453Y258618D02*
X135039D01*
X133863Y258027D02*
X134453Y258618D01*
X195910Y247268D02*
X196106D01*
X194433Y245791D02*
X195910Y247268D01*
X194433Y245594D02*
Y245791D01*
X189764Y240925D02*
X192760Y243921D01*
X192957D01*
X194433Y245397D01*
Y245594D01*
X189764Y237358D02*
Y240925D01*
X175197Y207634D02*
Y216984D01*
X175098Y217083D02*
X175197Y216984D01*
X187992Y233913D02*
Y235586D01*
X189764Y237358D01*
D15*
X253130Y281890D02*
X256299D01*
X249016Y277776D02*
X253130Y281890D01*
X249016Y264081D02*
Y277776D01*
X255315Y280512D02*
X256299Y281496D01*
Y281890D01*
X32787Y229375D02*
Y238453D01*
Y229375D02*
X44685Y217476D01*
X232283Y98425D02*
X265118D01*
X247244Y286964D02*
X256256D01*
X256299Y287008D01*
X249016Y260931D02*
Y264081D01*
X265420Y260931D02*
X265512Y261024D01*
X249016Y260931D02*
X265420D01*
X10079Y250787D02*
X10091Y250775D01*
X42913D01*
X10258Y302220D02*
X45719D01*
X10079Y98425D02*
X47244D01*
X159843Y368010D02*
X189802D01*
X195811Y362000D01*
X221402Y344216D02*
X222133Y343485D01*
Y336933D02*
Y343485D01*
X195811Y354846D02*
Y362000D01*
X208016Y236823D02*
Y242642D01*
X71923Y235931D02*
X132923D01*
X194490Y238901D02*
X197638Y242050D01*
X119094Y185433D02*
Y193067D01*
X186024Y241830D02*
Y242185D01*
X104058Y201062D02*
X111024Y208027D01*
X90784Y302122D02*
X91374Y302712D01*
X90157Y251728D02*
X98228D01*
X82283Y251630D02*
X90059D01*
X90157Y251728D01*
X172321Y249710D02*
X172600Y249431D01*
X172321Y249710D02*
Y257458D01*
X168742Y261038D02*
X172321Y257458D01*
X166284Y261038D02*
X168742D01*
X185968Y247004D02*
X189764D01*
X189764Y247004D01*
X171795Y239098D02*
Y241389D01*
X176219Y245813D01*
Y245813D01*
X182654Y239098D02*
X184055Y237697D01*
Y233913D02*
Y237697D01*
X171795Y239098D02*
X182654D01*
X186024Y233913D02*
Y241830D01*
X185968Y241886D02*
X186024Y241830D01*
X247244Y286964D02*
X247319Y287040D01*
X238976Y281101D02*
Y283027D01*
X235236Y274563D02*
Y277361D01*
X238976Y281101D01*
X212740Y275208D02*
X229472D01*
X230118Y274563D01*
X212740Y267925D02*
Y275208D01*
Y267925D02*
X213779Y266886D01*
X195910Y274563D02*
X200283D01*
X200929Y275208D01*
X189163Y279041D02*
X195270D01*
X195910Y279681D01*
X162205Y278893D02*
X179173D01*
X179320Y279041D01*
X162150Y267140D02*
Y273720D01*
X162205Y273775D01*
X152706Y259995D02*
X154704D01*
X155747Y261038D01*
X158016D01*
X133661Y254681D02*
X137100D01*
X137298Y254879D01*
X137840D01*
X133661Y262731D02*
X133836Y262556D01*
X137847D01*
X128242Y254379D02*
X128543Y254681D01*
X122638Y254379D02*
X128242D01*
X118841Y255173D02*
X121844D01*
X122638Y254379D01*
X123811Y262731D02*
X128543D01*
X121962Y260882D02*
X123811Y262731D01*
X118841Y260882D02*
X121962D01*
X113120Y258027D02*
X117561D01*
X106821Y251728D02*
X113120Y258027D01*
X103346Y251728D02*
X106821D01*
X64567Y249760D02*
X69094D01*
X70472Y251138D01*
Y251630D01*
X62161Y249760D02*
X64567D01*
X58464Y251531D02*
X59449Y250547D01*
X61373D01*
X62161Y249760D01*
X57539Y302220D02*
X58425Y303106D01*
X48868Y302220D02*
X57539D01*
X45719D02*
X48868D01*
X46063Y250775D02*
X52590D01*
X53346Y251531D01*
X42913Y250775D02*
X46063D01*
X238976Y290901D02*
Y294166D01*
X229643Y303500D02*
X238976Y294166D01*
X107438Y303500D02*
X229643D01*
X91571Y302516D02*
X92556Y303500D01*
X102320D01*
X83464Y302122D02*
X90784D01*
X63543Y303106D02*
X70276D01*
X70768Y302614D01*
X161221Y243225D02*
Y249836D01*
X161599Y250214D01*
Y253535D01*
X161953Y253889D01*
Y254041D01*
X162150Y254238D01*
Y254935D01*
X173961Y183618D02*
X181496D01*
X173764D02*
X173961D01*
X181496D02*
X181693Y183421D01*
X175536Y185390D02*
X187598Y197452D01*
X175536Y185193D02*
Y185390D01*
X173961Y183618D02*
X175536Y185193D01*
X187598Y197452D02*
Y210500D01*
X171630Y230862D02*
X175098D01*
X132185Y235193D02*
X132923Y235931D01*
X131102Y235193D02*
X132185D01*
X183465Y208815D02*
X184646D01*
X180118Y212161D02*
X183465Y208815D01*
X180118Y212161D02*
Y214031D01*
X184984Y208476D02*
Y210752D01*
Y207405D02*
Y208476D01*
X184646Y208815D02*
X184984Y208476D01*
X194433Y238901D02*
X194490D01*
X190551Y192082D02*
X190945Y191689D01*
X189512Y193122D02*
X190551Y192082D01*
X189512Y193122D02*
Y210949D01*
X52165Y216174D02*
X71923Y235931D01*
X54921Y213244D02*
X57185Y210980D01*
X62839D01*
X52165Y209473D02*
Y216174D01*
Y209473D02*
X53178Y208460D01*
X181890Y245398D02*
Y247004D01*
X184984Y243225D02*
X186024Y242185D01*
X181890Y245398D02*
X184063Y243225D01*
X184984D01*
X95000Y201062D02*
X104058D01*
X103082Y203303D02*
X103543Y203764D01*
X98083Y203303D02*
X103082D01*
X82814Y191492D02*
X83803Y190502D01*
X74016Y191492D02*
X82814D01*
X72441Y193067D02*
X74016Y191492D01*
X83803Y186078D02*
Y190502D01*
X118110Y194051D02*
X119094Y193067D01*
X109449Y208618D02*
X110157Y209327D01*
Y215901D01*
X103543Y203764D02*
Y216295D01*
X106693Y219445D01*
Y219641D01*
X108268Y221216D01*
X108465D01*
X97886Y203106D02*
X98083Y203303D01*
X94925Y203106D02*
X97886D01*
X53178Y208460D02*
X57162D01*
X57714Y209012D01*
X62839D01*
X186024Y212075D02*
X187598Y210500D01*
X94925Y201137D02*
X95000Y201062D01*
X193473Y238901D02*
X194433D01*
X189961Y235389D02*
X193473Y238901D01*
X189961Y233913D02*
Y235389D01*
X162598Y239327D02*
X162827Y239098D01*
X196795Y205523D02*
X196850Y205468D01*
X200929Y243035D02*
X201520Y242445D01*
X200929Y243035D02*
Y246185D01*
X197583Y242105D02*
X197638Y242050D01*
X204331Y215760D02*
Y216406D01*
Y215114D02*
Y215760D01*
X206835Y218264D01*
X216338D01*
X219291Y215311D01*
X211024Y215114D02*
X215945Y210193D01*
X225590D01*
X227165Y211768D01*
Y229287D01*
X225590Y230862D02*
X227165Y229287D01*
X208071Y230862D02*
X225590D01*
X194980Y213020D02*
X201548Y206452D01*
X204724D01*
X197386Y212563D02*
X200969Y208980D01*
X206246D01*
X207874Y207352D01*
Y206452D02*
Y207352D01*
X198764Y213134D02*
X201540Y210358D01*
X208890D01*
X211024Y208224D01*
Y206452D02*
Y208224D01*
X214173Y206452D02*
Y207831D01*
X210268Y211736D02*
X214173Y207831D01*
X202110Y211736D02*
X210268D01*
X187992Y212469D02*
Y214031D01*
Y212469D02*
X189512Y210949D01*
X186024Y212075D02*
Y214031D01*
X194980Y226925D02*
X200197D01*
X201181Y225941D01*
X204866Y221382D02*
Y222256D01*
X201181Y225941D02*
X204866Y222256D01*
X201592Y219130D02*
X202293Y218429D01*
X202307D01*
X204331Y216406D01*
X200142Y213705D02*
X202110Y211736D01*
X194980Y219051D02*
X196764D01*
X197386Y218429D01*
Y212563D02*
Y218429D01*
X194980Y213020D02*
Y217083D01*
Y224956D02*
X197624D01*
X194980Y221020D02*
X197551D01*
X198764Y219807D01*
Y213134D02*
Y219807D01*
X194980Y222988D02*
X197644D01*
X200142Y220490D01*
Y213705D02*
Y220490D01*
X197624Y224956D02*
X201592Y220988D01*
Y219130D02*
Y220988D01*
X191929Y207831D02*
Y214031D01*
X191929Y207831D02*
X191929Y207831D01*
X184055Y211681D02*
X184984Y210752D01*
X184055Y211681D02*
Y214031D01*
X173401Y219051D02*
X175098D01*
X172189Y217839D02*
X173401Y219051D01*
X172189Y205634D02*
Y217839D01*
X170843Y204287D02*
X172189Y205634D01*
X168701Y204287D02*
X170843D01*
X173205Y221020D02*
X175098D01*
X170417Y218232D02*
X173205Y221020D01*
X170417Y211909D02*
Y218232D01*
X168701Y210193D02*
X170417Y211909D01*
X166339Y224366D02*
X166929Y224956D01*
X174933Y227090D02*
X175098Y226925D01*
X160969Y227090D02*
X174933D01*
X160181Y226303D02*
X160969Y227090D01*
X160181Y223941D02*
Y226303D01*
X173106Y233913D02*
X178150D01*
X171992Y232799D02*
X173106Y233913D01*
X171992Y231224D02*
Y232799D01*
X170417Y229649D02*
X171630Y230862D01*
X171992Y231224D01*
X168252Y229649D02*
X170417D01*
X168252D02*
Y234374D01*
X168252Y234374D02*
X168252Y234374D01*
X194980Y228893D02*
X199409D01*
X201378Y230862D01*
X207283Y236768D01*
X208071D01*
X191929Y207831D02*
X192827D01*
X194827Y205831D01*
X180654Y203075D02*
X184984Y207405D01*
X180260Y203075D02*
X180654D01*
X166929Y224956D02*
X175098D01*
X167858Y222169D02*
X170024D01*
X166087Y223941D02*
X167858Y222169D01*
X208016Y236823D02*
X208071Y236768D01*
D20*
X77362Y314819D02*
D03*
D21*
X76329Y263834D02*
D03*
X206785Y287413D02*
D03*
D22*
X128543Y262731D02*
D03*
X133661D02*
D03*
X128543Y254681D02*
D03*
X133661D02*
D03*
X145472Y246807D02*
D03*
X140354D02*
D03*
X201181Y225941D02*
D03*
X206299D02*
D03*
X53346Y251531D02*
D03*
X58464D02*
D03*
X103346Y251728D02*
D03*
X98228D02*
D03*
X232087Y284208D02*
D03*
X226969D02*
D03*
X232087Y288145D02*
D03*
X226969D02*
D03*
X221402Y344216D02*
D03*
X216283D02*
D03*
X171795Y239098D02*
D03*
X166677D02*
D03*
X225787Y292082D02*
D03*
X230906D02*
D03*
X225328Y280228D02*
D03*
X230446D02*
D03*
X235236Y274563D02*
D03*
X230118D02*
D03*
X157677Y162592D02*
D03*
X152559D02*
D03*
X63543Y303106D02*
D03*
X58425D02*
D03*
X107438Y303500D02*
D03*
X102320D02*
D03*
D23*
X118841Y260882D02*
D03*
Y255173D02*
D03*
D24*
X120121Y258027D02*
D03*
X117561D02*
D03*
D25*
X152706Y254878D02*
D03*
X152707Y257439D02*
D03*
X152706Y259995D02*
D03*
X152705Y262556D02*
D03*
X137847D02*
D03*
X137847Y259995D02*
D03*
Y257430D02*
D03*
X137840Y254879D02*
D03*
D26*
X149116Y266140D02*
D03*
X146555Y266148D02*
D03*
X143997Y266148D02*
D03*
X141437Y266148D02*
D03*
X141436Y251279D02*
D03*
X143997Y251279D02*
D03*
X146560Y251288D02*
D03*
X149114Y251284D02*
D03*
D27*
X145275Y258716D02*
D03*
D28*
X180797Y283766D02*
D03*
D29*
X179320Y279041D02*
D03*
D03*
X179320Y274317D02*
D03*
X189163D02*
D03*
X189163Y279041D02*
D03*
X189163Y283766D02*
D03*
D30*
X116142Y284012D02*
D03*
Y289130D02*
D03*
X98425Y270232D02*
D03*
Y265114D02*
D03*
X191929Y207831D02*
D03*
Y202712D02*
D03*
X185968Y247004D02*
D03*
Y241886D02*
D03*
X94130Y265114D02*
D03*
Y270232D02*
D03*
X154580Y238736D02*
D03*
Y233618D02*
D03*
X149606Y236472D02*
D03*
Y231354D02*
D03*
X162205Y278893D02*
D03*
Y273775D02*
D03*
X64567Y249760D02*
D03*
Y244641D02*
D03*
X256299Y281890D02*
D03*
Y287008D02*
D03*
X255817Y303742D02*
D03*
Y308860D02*
D03*
X181890Y247004D02*
D03*
Y252122D02*
D03*
X189764Y252122D02*
D03*
Y247004D02*
D03*
X250000Y308860D02*
D03*
Y303742D02*
D03*
X184984Y207405D02*
D03*
Y202287D02*
D03*
X195910Y274563D02*
D03*
Y279681D02*
D03*
X219563Y253106D02*
D03*
Y258224D02*
D03*
X224016Y252909D02*
D03*
Y258027D02*
D03*
X90157Y270232D02*
D03*
Y265114D02*
D03*
X100042Y296020D02*
D03*
Y290901D02*
D03*
X105118Y283224D02*
D03*
Y288342D02*
D03*
D31*
X155260Y323350D02*
D03*
X148567D02*
D03*
X168252Y234374D02*
D03*
X161559D02*
D03*
X168701Y204287D02*
D03*
X162008D02*
D03*
X208071Y236768D02*
D03*
X201378D02*
D03*
X201378Y230862D02*
D03*
X208071D02*
D03*
X173764Y183618D02*
D03*
X167071Y183618D02*
D03*
X157285Y167279D02*
D03*
X150593D02*
D03*
X54527Y185980D02*
D03*
X47835D02*
D03*
X54527Y178697D02*
D03*
X47835D02*
D03*
X118701Y186767D02*
D03*
X112008D02*
D03*
X110157Y215901D02*
D03*
X116850D02*
D03*
X110039Y221413D02*
D03*
X116732D02*
D03*
X188281Y155665D02*
D03*
X194974D02*
D03*
X141874Y353665D02*
D03*
X148567D02*
D03*
Y358783D02*
D03*
X141874D02*
D03*
X121008Y346579D02*
D03*
X114315D02*
D03*
X155654Y315870D02*
D03*
X148961D02*
D03*
X121402Y340673D02*
D03*
X114709D02*
D03*
X162346Y336736D02*
D03*
X169039D02*
D03*
X185969Y344216D02*
D03*
X192661D02*
D03*
X168701Y210193D02*
D03*
X162008D02*
D03*
X201520Y242445D02*
D03*
X208213D02*
D03*
X211024Y215114D02*
D03*
X204331D02*
D03*
X94357Y170626D02*
D03*
X101050D02*
D03*
X29724Y190114D02*
D03*
X36417D02*
D03*
X29724Y214819D02*
D03*
X36417D02*
D03*
X29724Y195626D02*
D03*
X36417D02*
D03*
X189118Y354846D02*
D03*
X195811D02*
D03*
X207228Y344216D02*
D03*
X200535D02*
D03*
X207228Y337130D02*
D03*
X200535D02*
D03*
X192661D02*
D03*
X185969D02*
D03*
X91270Y179563D02*
D03*
X97963D02*
D03*
D32*
X77362Y309208D02*
D03*
D33*
X71260Y302122D02*
D03*
X83464D02*
D03*
D34*
X166614Y170392D02*
D03*
X171063Y170392D02*
D03*
X171063Y176888D02*
D03*
X166614D02*
D03*
D35*
X89709Y186079D02*
D03*
X87740Y186078D02*
D03*
X85772D02*
D03*
X83803D02*
D03*
X81835D02*
D03*
X79866D02*
D03*
X77898Y186079D02*
D03*
X75929D02*
D03*
X73961Y186078D02*
D03*
X71992D02*
D03*
X70024D02*
D03*
X68055D02*
D03*
Y218165D02*
D03*
X70024Y218165D02*
D03*
X71992D02*
D03*
X73961D02*
D03*
X75929Y218165D02*
D03*
X77898D02*
D03*
X79866D02*
D03*
X81835D02*
D03*
X83803D02*
D03*
X85772Y218165D02*
D03*
X87740D02*
D03*
X89709Y218165D02*
D03*
D36*
X62839Y191295D02*
D03*
Y193263D02*
D03*
Y195232D02*
D03*
X62839Y197201D02*
D03*
Y199169D02*
D03*
Y201137D02*
D03*
X62839Y203106D02*
D03*
Y205075D02*
D03*
X62839Y207043D02*
D03*
Y209012D02*
D03*
Y210980D02*
D03*
Y212948D02*
D03*
X94925D02*
D03*
Y210980D02*
D03*
Y209012D02*
D03*
Y207043D02*
D03*
Y205075D02*
D03*
Y203106D02*
D03*
Y201137D02*
D03*
Y199169D02*
D03*
Y197201D02*
D03*
Y195232D02*
D03*
Y193263D02*
D03*
Y191295D02*
D03*
D37*
X50984Y360389D02*
D03*
X43504D02*
D03*
X47244Y352909D02*
D03*
D38*
X212332Y158022D02*
D03*
Y167122D02*
D03*
Y176222D02*
D03*
D39*
X237132Y167122D02*
D03*
D40*
X152406Y331598D02*
D03*
Y336598D02*
D03*
Y341598D02*
D03*
Y346598D02*
D03*
X131736Y331598D02*
D03*
Y336598D02*
D03*
Y341598D02*
D03*
Y346598D02*
D03*
D41*
X5474Y193633D02*
D03*
Y218337D02*
D03*
D42*
X6183Y201458D02*
D03*
Y210513D02*
D03*
D43*
X17010Y200867D02*
D03*
Y203426D02*
D03*
Y205985D02*
D03*
Y208544D02*
D03*
X17010Y211103D02*
D03*
D44*
X27224Y201334D02*
D03*
Y205075D02*
D03*
Y208815D02*
D03*
X37657D02*
D03*
Y205075D02*
D03*
Y201334D02*
D03*
D45*
X171135Y358683D02*
D03*
X179936Y362583D02*
D03*
Y354983D02*
D03*
X69685Y170392D02*
D03*
Y162592D02*
D03*
X75984Y170392D02*
D03*
Y162592D02*
D03*
X82102Y170392D02*
D03*
Y162592D02*
D03*
D46*
X204724Y200153D02*
D03*
Y206452D02*
D03*
X214173Y200153D02*
D03*
Y206452D02*
D03*
D47*
X207874Y200153D02*
D03*
Y206452D02*
D03*
X211024Y200153D02*
D03*
Y206452D02*
D03*
D48*
X157874Y156750D02*
D03*
Y154190D02*
D03*
Y151630D02*
D03*
Y149070D02*
D03*
X140551Y149068D02*
D03*
X140551Y151628D02*
D03*
X140551Y154188D02*
D03*
Y156748D02*
D03*
D49*
X118110Y208618D02*
D03*
X118110Y194051D02*
D03*
X109449Y194051D02*
D03*
D50*
Y208618D02*
D03*
D51*
X248031Y172004D02*
D03*
Y183027D02*
D03*
D52*
X135433Y163539D02*
D03*
Y171019D02*
D03*
X91571Y302516D02*
D03*
Y295035D02*
D03*
X140496Y323153D02*
D03*
Y315673D02*
D03*
X124409Y171019D02*
D03*
Y163539D02*
D03*
X213779Y266886D02*
D03*
Y259405D02*
D03*
X177504Y344413D02*
D03*
Y336933D02*
D03*
D53*
X110039Y289277D02*
D03*
Y282584D02*
D03*
X219291Y215311D02*
D03*
Y222004D02*
D03*
X90157Y251728D02*
D03*
Y258421D02*
D03*
X196850Y205468D02*
D03*
Y198775D02*
D03*
X180260Y203075D02*
D03*
Y196382D02*
D03*
X194433Y238901D02*
D03*
Y245594D02*
D03*
X160181Y223941D02*
D03*
Y217248D02*
D03*
X175197Y207634D02*
D03*
Y200941D02*
D03*
X166087Y223941D02*
D03*
Y217248D02*
D03*
X164370Y155665D02*
D03*
X164370Y148972D02*
D03*
X183071Y155271D02*
D03*
Y148579D02*
D03*
X132228Y316854D02*
D03*
Y323547D02*
D03*
X66087Y340083D02*
D03*
Y346775D02*
D03*
X87347Y340083D02*
D03*
Y346775D02*
D03*
X69504Y147382D02*
D03*
Y154075D02*
D03*
X75803Y147382D02*
D03*
Y154075D02*
D03*
X82102Y147382D02*
D03*
Y154075D02*
D03*
X108606Y346382D02*
D03*
Y339689D02*
D03*
X42126Y348350D02*
D03*
Y341657D02*
D03*
X207732Y259602D02*
D03*
Y252909D02*
D03*
X247244Y158815D02*
D03*
Y165508D02*
D03*
D54*
X238976Y290901D02*
D03*
Y288933D02*
D03*
Y286964D02*
D03*
Y284996D02*
D03*
Y283027D02*
D03*
X247244D02*
D03*
Y284996D02*
D03*
Y286964D02*
D03*
Y288933D02*
D03*
Y290901D02*
D03*
X158016Y263006D02*
D03*
Y261038D02*
D03*
Y259069D02*
D03*
X166284D02*
D03*
Y261038D02*
D03*
Y263006D02*
D03*
D55*
X243110Y286964D02*
D03*
D56*
X185039Y223972D02*
D03*
D57*
X191929Y214031D02*
D03*
X189961D02*
D03*
X187992D02*
D03*
X186024D02*
D03*
X184055D02*
D03*
X182087D02*
D03*
X180118D02*
D03*
X178150D02*
D03*
Y233913D02*
D03*
X180118D02*
D03*
X182087D02*
D03*
X184055D02*
D03*
X186024D02*
D03*
X187992D02*
D03*
X189961D02*
D03*
X191929D02*
D03*
D58*
X175098Y217083D02*
D03*
Y219051D02*
D03*
Y221020D02*
D03*
Y222988D02*
D03*
Y224956D02*
D03*
Y226925D02*
D03*
Y228893D02*
D03*
Y230862D02*
D03*
X194980D02*
D03*
Y228893D02*
D03*
Y226925D02*
D03*
Y224956D02*
D03*
Y222988D02*
D03*
Y221020D02*
D03*
Y219051D02*
D03*
Y217083D02*
D03*
D59*
X164118Y267140D02*
D03*
X162150D02*
D03*
X160181D02*
D03*
Y254935D02*
D03*
X162150D02*
D03*
X164118D02*
D03*
D60*
X162937Y261038D02*
D03*
D61*
X70472Y251630D02*
D03*
X82283D02*
D03*
X76378D02*
D03*
X206835Y275208D02*
D03*
X212740D02*
D03*
X200929D02*
D03*
D62*
X265118Y87520D02*
D03*
Y109331D02*
D03*
X10079Y261693D02*
D03*
Y239882D02*
D03*
X10258Y313126D02*
D03*
Y291315D02*
D03*
X265118Y250118D02*
D03*
Y271929D02*
D03*
X10079Y359269D02*
D03*
Y337458D02*
D03*
Y109331D02*
D03*
Y87520D02*
D03*
D63*
X265118Y98425D02*
D03*
X10079Y250787D02*
D03*
X10258Y302220D02*
D03*
X265118Y261024D02*
D03*
X10079Y348363D02*
D03*
Y98425D02*
D03*
D64*
X48868Y302220D02*
D03*
X45719D02*
D03*
Y300252D02*
D03*
X48868D02*
D03*
X46063Y248807D02*
D03*
X42913D02*
D03*
Y250775D02*
D03*
X46063D02*
D03*
D65*
X172600Y249431D02*
D03*
X176219Y245813D02*
D03*
D66*
X205512Y148775D02*
D03*
X216535D02*
D03*
D67*
X249016Y260931D02*
D03*
Y264081D02*
D03*
X247047D02*
D03*
Y260931D02*
D03*
D68*
X156835Y358783D02*
D03*
X164315D02*
D03*
X58803Y346185D02*
D03*
X51323D02*
D03*
X80063Y345791D02*
D03*
X72583D02*
D03*
X100929Y346185D02*
D03*
X93449D02*
D03*
X189173Y183421D02*
D03*
X181693D02*
D03*
X162346Y190901D02*
D03*
X154866D02*
D03*
X188491Y161767D02*
D03*
X195971D02*
D03*
D69*
X5474Y189883D02*
D03*
Y222087D02*
D03*
D70*
X17994Y214745D02*
D03*
X17994Y197225D02*
D03*
D71*
X98779Y142358D02*
D03*
D72*
Y132358D02*
D03*
X108780Y142358D02*
D03*
Y132358D02*
D03*
X118780Y142358D02*
D03*
Y132358D02*
D03*
X128779Y142358D02*
D03*
Y132358D02*
D03*
D73*
X206835Y275208D02*
D03*
X202512Y291886D02*
D03*
X205660Y286375D02*
D03*
X208809D02*
D03*
Y283619D02*
D03*
X205660D02*
D03*
Y289131D02*
D03*
X208809D02*
D03*
Y291886D02*
D03*
X202510Y283619D02*
D03*
Y286375D02*
D03*
X205660Y291886D02*
D03*
X202512Y288963D02*
D03*
X211959Y291886D02*
D03*
Y286375D02*
D03*
Y289131D02*
D03*
Y283619D02*
D03*
X85039Y273720D02*
D03*
X81496D02*
D03*
X76378Y251218D02*
D03*
X81496Y259782D02*
D03*
Y265293D02*
D03*
Y262537D02*
D03*
Y268048D02*
D03*
X72215Y265126D02*
D03*
X75197Y268048D02*
D03*
X72047Y262537D02*
D03*
Y259782D02*
D03*
X78347Y268048D02*
D03*
Y265293D02*
D03*
X75197D02*
D03*
Y259782D02*
D03*
X78347D02*
D03*
Y262537D02*
D03*
X75197D02*
D03*
X77362Y296457D02*
D03*
X77362Y305118D02*
D03*
Y302362D02*
D03*
Y307874D02*
D03*
X84350Y318896D02*
D03*
Y316142D02*
D03*
Y310630D02*
D03*
Y313386D02*
D03*
X70276Y318896D02*
D03*
Y316142D02*
D03*
Y310630D02*
D03*
Y313386D02*
D03*
X75732D02*
D03*
X79150D02*
D03*
Y310630D02*
D03*
X75732D02*
D03*
Y316142D02*
D03*
X79150D02*
D03*
Y318896D02*
D03*
X75732D02*
D03*
D74*
X19089Y228948D02*
D03*
X24409Y245215D02*
D03*
Y255451D02*
D03*
Y236706D02*
D03*
X10214Y232710D02*
D03*
X24409Y264506D02*
D03*
X10214Y268048D02*
D03*
X10258Y320866D02*
D03*
X24409Y316142D02*
D03*
X10258Y283465D02*
D03*
X24409Y288342D02*
D03*
Y307087D02*
D03*
Y296850D02*
D03*
X268779Y358972D02*
D03*
Y338972D02*
D03*
Y318972D02*
D03*
Y298972D02*
D03*
Y278972D02*
D03*
Y238972D02*
D03*
Y218972D02*
D03*
Y198972D02*
D03*
Y178972D02*
D03*
Y158972D02*
D03*
Y138972D02*
D03*
Y118972D02*
D03*
Y78972D02*
D03*
Y58972D02*
D03*
Y38972D02*
D03*
Y18972D02*
D03*
X258780Y358972D02*
D03*
X263779Y348972D02*
D03*
X258780Y338972D02*
D03*
X263779Y328972D02*
D03*
X258780Y318972D02*
D03*
X263779Y308972D02*
D03*
X258780Y298972D02*
D03*
X263779Y288972D02*
D03*
X258780Y238972D02*
D03*
X263779Y228972D02*
D03*
X258780Y218972D02*
D03*
X263779Y208972D02*
D03*
X258780Y198972D02*
D03*
X263779Y188972D02*
D03*
X258780Y178972D02*
D03*
X263779Y168972D02*
D03*
X258780Y158972D02*
D03*
X263779Y148972D02*
D03*
X258780Y138972D02*
D03*
X263779Y128972D02*
D03*
X258780Y118972D02*
D03*
Y78972D02*
D03*
X263779Y68972D02*
D03*
X258780Y58972D02*
D03*
X263779Y48972D02*
D03*
X258780Y38972D02*
D03*
X263779Y28972D02*
D03*
X248780Y358972D02*
D03*
X253780Y348972D02*
D03*
X248780Y338972D02*
D03*
X253780Y328972D02*
D03*
X248780Y318972D02*
D03*
Y298972D02*
D03*
Y238972D02*
D03*
X253780Y228972D02*
D03*
X248780Y218972D02*
D03*
X253780Y208972D02*
D03*
X248780Y198972D02*
D03*
X253780Y188972D02*
D03*
Y148972D02*
D03*
X248780Y138972D02*
D03*
X253780Y128972D02*
D03*
X248780Y118972D02*
D03*
Y78972D02*
D03*
X253780Y68972D02*
D03*
X248780Y58972D02*
D03*
X253780Y48972D02*
D03*
X248780Y38972D02*
D03*
X253780Y28972D02*
D03*
X243779Y368972D02*
D03*
X238779Y358972D02*
D03*
X243779Y348972D02*
D03*
X238779Y338972D02*
D03*
X243779Y328972D02*
D03*
Y308972D02*
D03*
Y268972D02*
D03*
Y248972D02*
D03*
Y228972D02*
D03*
Y208972D02*
D03*
X238779Y198972D02*
D03*
X243779Y188972D02*
D03*
X238779Y178972D02*
D03*
X243779Y148972D02*
D03*
X238779Y138972D02*
D03*
X243779Y128972D02*
D03*
X238779Y118972D02*
D03*
X243779Y108972D02*
D03*
Y88972D02*
D03*
X238779Y78972D02*
D03*
X243779Y68972D02*
D03*
X238779Y58972D02*
D03*
X243779Y48972D02*
D03*
X238779Y38972D02*
D03*
X243779Y28972D02*
D03*
X238779Y18972D02*
D03*
X233780Y368972D02*
D03*
X228780Y358972D02*
D03*
X233780Y348972D02*
D03*
X228780Y338972D02*
D03*
X233780Y328972D02*
D03*
X228780Y298972D02*
D03*
X233780Y268972D02*
D03*
Y248972D02*
D03*
Y228972D02*
D03*
Y188972D02*
D03*
X228780Y178972D02*
D03*
Y158972D02*
D03*
X233780Y148972D02*
D03*
X228780Y138972D02*
D03*
X233780Y128972D02*
D03*
X228780Y118972D02*
D03*
X233780Y108972D02*
D03*
Y88972D02*
D03*
X228780Y78972D02*
D03*
X233780Y68972D02*
D03*
X228780Y58972D02*
D03*
X233780Y48972D02*
D03*
X228780Y38972D02*
D03*
X233780Y28972D02*
D03*
X228780Y18972D02*
D03*
X223780Y368972D02*
D03*
X218779Y358972D02*
D03*
X223780Y348972D02*
D03*
Y308972D02*
D03*
Y268972D02*
D03*
Y188972D02*
D03*
X218779Y158972D02*
D03*
X223780Y148972D02*
D03*
X218779Y138972D02*
D03*
X223780Y128972D02*
D03*
X218779Y118972D02*
D03*
X223780Y108972D02*
D03*
Y88972D02*
D03*
X218779Y78972D02*
D03*
X223780Y68972D02*
D03*
X218779Y58972D02*
D03*
X223780Y48972D02*
D03*
X218779Y38972D02*
D03*
X223780Y28972D02*
D03*
X218779Y18972D02*
D03*
X213779Y368972D02*
D03*
X208780Y358972D02*
D03*
X213779Y348972D02*
D03*
Y328972D02*
D03*
Y308972D02*
D03*
X208780Y138972D02*
D03*
X213779Y128972D02*
D03*
X208780Y118972D02*
D03*
X213779Y108972D02*
D03*
Y88972D02*
D03*
X208780Y78972D02*
D03*
X213779Y68972D02*
D03*
X208780Y58972D02*
D03*
X213779Y48972D02*
D03*
X208780Y38972D02*
D03*
X213779Y28972D02*
D03*
X208780Y18972D02*
D03*
X203780Y368972D02*
D03*
Y348972D02*
D03*
Y328972D02*
D03*
Y308972D02*
D03*
Y268972D02*
D03*
X198779Y138972D02*
D03*
X203780Y128972D02*
D03*
X198779Y118972D02*
D03*
X203780Y108972D02*
D03*
Y88972D02*
D03*
X198779Y78972D02*
D03*
X203780Y68972D02*
D03*
X198779Y58972D02*
D03*
X203780Y48972D02*
D03*
X198779Y38972D02*
D03*
X203780Y28972D02*
D03*
X198779Y18972D02*
D03*
X193780Y368972D02*
D03*
Y348972D02*
D03*
Y328972D02*
D03*
Y308972D02*
D03*
Y288972D02*
D03*
Y268972D02*
D03*
Y168972D02*
D03*
Y148972D02*
D03*
Y128972D02*
D03*
X188779Y118972D02*
D03*
X193780Y108972D02*
D03*
Y88972D02*
D03*
X188779Y78972D02*
D03*
X193780Y68972D02*
D03*
X188779Y58972D02*
D03*
X193780Y48972D02*
D03*
X188779Y38972D02*
D03*
X193780Y28972D02*
D03*
X188779Y18972D02*
D03*
X183780Y348972D02*
D03*
Y328972D02*
D03*
Y308972D02*
D03*
Y288972D02*
D03*
Y268972D02*
D03*
X178779Y138972D02*
D03*
Y118972D02*
D03*
X183780Y108972D02*
D03*
Y88972D02*
D03*
X178779Y78972D02*
D03*
X183780Y68972D02*
D03*
X178779Y58972D02*
D03*
X183780Y48972D02*
D03*
X178779Y38972D02*
D03*
X183780Y28972D02*
D03*
X178779Y18972D02*
D03*
X173779Y328972D02*
D03*
Y308972D02*
D03*
Y288972D02*
D03*
Y268972D02*
D03*
X168780Y198972D02*
D03*
X173779Y148972D02*
D03*
X168780Y138972D02*
D03*
X173779Y128972D02*
D03*
X168780Y118972D02*
D03*
X173779Y108972D02*
D03*
Y88972D02*
D03*
X168780Y78972D02*
D03*
X173779Y68972D02*
D03*
X168780Y58972D02*
D03*
X173779Y48972D02*
D03*
X168780Y38972D02*
D03*
X173779Y28972D02*
D03*
X168780Y18972D02*
D03*
X163779Y348972D02*
D03*
Y328972D02*
D03*
Y308972D02*
D03*
X158780Y298972D02*
D03*
X163779Y288972D02*
D03*
X158780Y198972D02*
D03*
Y178972D02*
D03*
Y138972D02*
D03*
X163779Y128972D02*
D03*
X158780Y118972D02*
D03*
X163779Y108972D02*
D03*
Y88972D02*
D03*
X158780Y78972D02*
D03*
X163779Y68972D02*
D03*
X158780Y58972D02*
D03*
X163779Y48972D02*
D03*
X158780Y38972D02*
D03*
X163779Y28972D02*
D03*
X158780Y18972D02*
D03*
X153779Y368972D02*
D03*
Y308972D02*
D03*
X148779Y298972D02*
D03*
Y278972D02*
D03*
X153779Y268972D02*
D03*
Y228972D02*
D03*
X148779Y218972D02*
D03*
X153779Y208972D02*
D03*
X148779Y178972D02*
D03*
Y138972D02*
D03*
X153779Y128972D02*
D03*
X148779Y118972D02*
D03*
X153779Y108972D02*
D03*
Y88972D02*
D03*
X148779Y78972D02*
D03*
X153779Y68972D02*
D03*
X148779Y58972D02*
D03*
X153779Y48972D02*
D03*
X148779Y38972D02*
D03*
X153779Y28972D02*
D03*
X148779Y18972D02*
D03*
X143780Y368972D02*
D03*
X138779Y298972D02*
D03*
X143780Y288972D02*
D03*
Y228972D02*
D03*
X138779Y218972D02*
D03*
X143780Y168972D02*
D03*
Y128972D02*
D03*
X138779Y118972D02*
D03*
X143780Y108972D02*
D03*
Y88972D02*
D03*
X138779Y78972D02*
D03*
X143780Y68972D02*
D03*
X138779Y58972D02*
D03*
X143780Y48972D02*
D03*
X138779Y38972D02*
D03*
X143780Y28972D02*
D03*
X138779Y18972D02*
D03*
X133780Y368972D02*
D03*
X128779Y358972D02*
D03*
X133780Y308972D02*
D03*
X128779Y298972D02*
D03*
X133780Y288972D02*
D03*
X128779Y278972D02*
D03*
X133780Y248972D02*
D03*
Y208972D02*
D03*
X128779Y198972D02*
D03*
Y178972D02*
D03*
Y118972D02*
D03*
X133780Y108972D02*
D03*
Y88972D02*
D03*
X128779Y78972D02*
D03*
X133780Y68972D02*
D03*
X128779Y58972D02*
D03*
X133780Y48972D02*
D03*
X128779Y38972D02*
D03*
X133780Y28972D02*
D03*
X128779Y18972D02*
D03*
X123779Y368972D02*
D03*
X118780Y358972D02*
D03*
X123779Y308972D02*
D03*
X118780Y298972D02*
D03*
X123779Y288972D02*
D03*
X118780Y278972D02*
D03*
X123779Y268972D02*
D03*
Y248972D02*
D03*
X118780Y178972D02*
D03*
Y118972D02*
D03*
X123779Y108972D02*
D03*
Y88972D02*
D03*
X118780Y78972D02*
D03*
X123779Y68972D02*
D03*
X118780Y58972D02*
D03*
X123779Y48972D02*
D03*
X118780Y38972D02*
D03*
X123779Y28972D02*
D03*
X118780Y18972D02*
D03*
X113779Y368972D02*
D03*
X108780Y358972D02*
D03*
X113779Y328972D02*
D03*
X108780Y278972D02*
D03*
X113779Y268972D02*
D03*
X108780Y258972D02*
D03*
X113779Y148972D02*
D03*
X108780Y118972D02*
D03*
X113779Y108972D02*
D03*
Y88972D02*
D03*
X108780Y78972D02*
D03*
X113779Y68972D02*
D03*
X108780Y58972D02*
D03*
X113779Y48972D02*
D03*
X108780Y38972D02*
D03*
X113779Y28972D02*
D03*
X108780Y18972D02*
D03*
X103779Y368972D02*
D03*
X98779Y358972D02*
D03*
Y338972D02*
D03*
X103779Y328972D02*
D03*
X98779Y318972D02*
D03*
X103779Y268972D02*
D03*
X98779Y258972D02*
D03*
Y158972D02*
D03*
Y118972D02*
D03*
X103779Y108972D02*
D03*
Y88972D02*
D03*
X98779Y78972D02*
D03*
X103779Y68972D02*
D03*
X98779Y58972D02*
D03*
X103779Y48972D02*
D03*
X98779Y38972D02*
D03*
X103779Y28972D02*
D03*
X98779Y18972D02*
D03*
X93779Y368972D02*
D03*
X88779Y358972D02*
D03*
X93779Y328972D02*
D03*
Y308972D02*
D03*
Y148972D02*
D03*
X88779Y138972D02*
D03*
Y118972D02*
D03*
X93779Y108972D02*
D03*
Y88972D02*
D03*
X88779Y78972D02*
D03*
X93779Y68972D02*
D03*
X88779Y58972D02*
D03*
X93779Y48972D02*
D03*
X88779Y38972D02*
D03*
X93779Y28972D02*
D03*
X88779Y18972D02*
D03*
X83780Y368972D02*
D03*
X78780Y358972D02*
D03*
Y338972D02*
D03*
X83780Y328972D02*
D03*
X78780Y138972D02*
D03*
Y118972D02*
D03*
X83780Y108972D02*
D03*
Y88972D02*
D03*
X78780Y78972D02*
D03*
X83780Y68972D02*
D03*
X78780Y58972D02*
D03*
X83780Y48972D02*
D03*
X78780Y38972D02*
D03*
X83780Y28972D02*
D03*
X78780Y18972D02*
D03*
X73779Y368972D02*
D03*
X68779Y358972D02*
D03*
X73779Y328972D02*
D03*
Y288972D02*
D03*
Y228972D02*
D03*
X68779Y138972D02*
D03*
Y118972D02*
D03*
X73779Y108972D02*
D03*
Y88972D02*
D03*
X68779Y78972D02*
D03*
X73779Y68972D02*
D03*
X68779Y58972D02*
D03*
X73779Y48972D02*
D03*
X68779Y38972D02*
D03*
X73779Y28972D02*
D03*
X68779Y18972D02*
D03*
X63779Y368972D02*
D03*
X58780Y358972D02*
D03*
Y338972D02*
D03*
X63779Y328972D02*
D03*
X58780Y318972D02*
D03*
X63779Y308972D02*
D03*
Y288972D02*
D03*
X58780Y278972D02*
D03*
Y238972D02*
D03*
X63779Y168972D02*
D03*
X58780Y158972D02*
D03*
Y138972D02*
D03*
Y118972D02*
D03*
X63779Y108972D02*
D03*
Y88972D02*
D03*
X58780Y78972D02*
D03*
X63779Y68972D02*
D03*
X58780Y58972D02*
D03*
X63779Y48972D02*
D03*
X58780Y38972D02*
D03*
X63779Y28972D02*
D03*
X58780Y18972D02*
D03*
X53780Y368972D02*
D03*
X48779Y338972D02*
D03*
X53780Y328972D02*
D03*
X48779Y318972D02*
D03*
X53780Y308972D02*
D03*
Y288972D02*
D03*
X48779Y278972D02*
D03*
X53780Y268972D02*
D03*
X48779Y238972D02*
D03*
X53780Y228972D02*
D03*
X48779Y158972D02*
D03*
X53780Y148972D02*
D03*
Y128972D02*
D03*
X48779Y118972D02*
D03*
X53780Y108972D02*
D03*
Y88972D02*
D03*
X48779Y78972D02*
D03*
X53780Y68972D02*
D03*
X48779Y58972D02*
D03*
X53780Y48972D02*
D03*
X48779Y38972D02*
D03*
X53780Y28972D02*
D03*
X48779Y18972D02*
D03*
X43780Y368972D02*
D03*
X38780Y358972D02*
D03*
X43780Y328972D02*
D03*
X38780Y318972D02*
D03*
X43780Y308972D02*
D03*
Y288972D02*
D03*
X38780Y278972D02*
D03*
X43780Y268972D02*
D03*
X38780Y258972D02*
D03*
X43780Y228972D02*
D03*
X38780Y178972D02*
D03*
X43780Y168972D02*
D03*
X38780Y158972D02*
D03*
Y138972D02*
D03*
X43780Y128972D02*
D03*
X38780Y118972D02*
D03*
X43780Y108972D02*
D03*
Y88972D02*
D03*
X38780Y78972D02*
D03*
X43780Y68972D02*
D03*
X38780Y58972D02*
D03*
X43780Y48972D02*
D03*
X38780Y38972D02*
D03*
X43780Y28972D02*
D03*
X38780Y18972D02*
D03*
X33779Y368972D02*
D03*
X28780Y358972D02*
D03*
Y338972D02*
D03*
X33779Y328972D02*
D03*
Y308972D02*
D03*
X28780Y278972D02*
D03*
X33779Y268972D02*
D03*
Y208972D02*
D03*
X28780Y178972D02*
D03*
X33779Y168972D02*
D03*
Y148972D02*
D03*
X28780Y138972D02*
D03*
X33779Y128972D02*
D03*
X28780Y118972D02*
D03*
X33779Y108972D02*
D03*
Y88972D02*
D03*
X28780Y78972D02*
D03*
X33779Y68972D02*
D03*
X28780Y58972D02*
D03*
X33779Y48972D02*
D03*
X28780Y38972D02*
D03*
X33779Y28972D02*
D03*
X23779Y328972D02*
D03*
X18779Y278972D02*
D03*
Y178972D02*
D03*
Y158972D02*
D03*
X23779Y148972D02*
D03*
X18779Y138972D02*
D03*
X23779Y128972D02*
D03*
X18779Y118972D02*
D03*
X23779Y108972D02*
D03*
Y88972D02*
D03*
X18779Y78972D02*
D03*
X23779Y68972D02*
D03*
X18779Y58972D02*
D03*
X23779Y48972D02*
D03*
X18779Y38972D02*
D03*
X23779Y28972D02*
D03*
X13780Y328972D02*
D03*
X8779Y198972D02*
D03*
X13780Y188972D02*
D03*
X8779Y178972D02*
D03*
X13780Y168972D02*
D03*
X8779Y158972D02*
D03*
X13780Y148972D02*
D03*
X8779Y138972D02*
D03*
X13780Y128972D02*
D03*
X8779Y118972D02*
D03*
Y78972D02*
D03*
X13780Y68972D02*
D03*
X8779Y58972D02*
D03*
X13780Y48972D02*
D03*
X8779Y38972D02*
D03*
X13780Y28972D02*
D03*
X8779Y18972D02*
D03*
X32787Y238453D02*
D03*
X159843Y368010D02*
D03*
X222133Y336933D02*
D03*
X186811Y364917D02*
D03*
X232283Y98425D02*
D03*
X47244D02*
D03*
X220926Y289327D02*
D03*
X188959Y289917D02*
D03*
X218898Y322397D02*
D03*
X239173Y267279D02*
D03*
X99606Y184996D02*
D03*
X135039Y258618D02*
D03*
X202953Y260092D02*
D03*
X145669Y276193D02*
D03*
X139357Y277269D02*
D03*
X177953Y252122D02*
D03*
X131102Y235193D02*
D03*
X134252Y240114D02*
D03*
X190551Y192082D02*
D03*
X79866Y224877D02*
D03*
X153543Y243035D02*
D03*
X161221Y243225D02*
D03*
X124748Y258027D02*
D03*
X94276Y222971D02*
D03*
X54921Y213244D02*
D03*
X60236Y220626D02*
D03*
X151968Y248381D02*
D03*
X142126Y204236D02*
D03*
X110925Y229090D02*
D03*
X104331Y228106D02*
D03*
X114173Y232240D02*
D03*
X43385Y203958D02*
D03*
X101378Y166098D02*
D03*
X107205Y167476D02*
D03*
X52756Y201137D02*
D03*
X212332Y158022D02*
D03*
X100591Y206452D02*
D03*
X85826Y179090D02*
D03*
X129528Y174957D02*
D03*
X100394Y210752D02*
D03*
X123819Y196332D02*
D03*
X110157Y174169D02*
D03*
X102362Y187752D02*
D03*
X80315Y209799D02*
D03*
X76575Y207905D02*
D03*
X54331Y172594D02*
D03*
X72441Y193067D02*
D03*
X64567Y186571D02*
D03*
X51968Y194248D02*
D03*
X70472Y201492D02*
D03*
X97638Y226531D02*
D03*
X31496Y205075D02*
D03*
X44685Y217476D02*
D03*
X24409Y211767D02*
D03*
X42913Y190508D02*
D03*
X172638Y190901D02*
D03*
D75*
X61456Y147382D02*
D03*
X91339Y290311D02*
D03*
X162992Y161571D02*
D03*
X178543Y155271D02*
D03*
X170669D02*
D03*
X103362Y194658D02*
D03*
X78716Y201334D02*
D03*
X178543Y161964D02*
D03*
X170473D02*
D03*
X88386Y147382D02*
D03*
D76*
X194685Y179007D02*
D03*
X164567Y252770D02*
D03*
X164732Y241917D02*
D03*
X218898Y227319D02*
D03*
X194980Y233815D02*
D03*
X207087Y195232D02*
D03*
X202953Y195823D02*
D03*
X211559Y195626D02*
D03*
X215748Y196019D02*
D03*
X162598Y239327D02*
D03*
X196795Y205523D02*
D03*
X180260Y203075D02*
D03*
X204866Y221382D02*
D03*
X200929Y246185D02*
D03*
X197583Y242105D02*
D03*
X170024Y222169D02*
D03*
D78*
X150591Y254189D02*
G03*
X149803Y253401I0J-787D01*
G01*
X143997Y253401D02*
X146560D01*
X149114Y253401D01*
X139961Y253401D02*
X141436D01*
X143997D01*
X139961Y264031D02*
X139961Y253401D01*
X139961Y264031D02*
X149116D01*
X150591D01*
Y262556D02*
Y264031D01*
X149114Y253401D02*
X149803D01*
X150591Y254189D02*
Y262556D01*
D79*
X92014Y186079D02*
G03*
X92217Y186282I0J204D01*
G01*
X162067Y156059D02*
X172638D01*
X90496Y188004D02*
X91065Y187435D01*
X124016Y171413D02*
X124423Y171399D01*
X130118Y171203D01*
X159243Y157106D02*
Y162592D01*
X61456Y147382D02*
X69504D01*
X93898Y184602D02*
X97508Y180992D01*
X92217Y186282D02*
X93898Y184602D01*
X90496Y188004D02*
Y190074D01*
X97376Y179876D02*
X97508Y180992D01*
X130118Y171203D02*
X135433Y171019D01*
X129528Y174957D02*
X130118Y171203D01*
X124115Y171477D02*
X124129Y171486D01*
X124016Y171413D02*
X124115Y171477D01*
X161021Y157106D02*
X162067Y156059D01*
X187691Y156059D02*
Y156256D01*
X82874Y201334D02*
X88583Y207043D01*
X78716Y201334D02*
X79217D01*
X88583Y207043D02*
X88583Y207043D01*
X89275Y191295D02*
X90496Y190074D01*
X79217Y201334D02*
X80142Y200409D01*
X80161D01*
X79217Y201334D02*
X82874D01*
X80161Y200409D02*
X89275Y191295D01*
X82102Y147382D02*
X88386D01*
X75803D02*
X82102D01*
X69504D02*
X75803D01*
X159243Y157106D02*
X161021D01*
X187691Y156059D02*
X188084Y155665D01*
X188281D01*
D80*
X89709Y186079D02*
G03*
X91185Y184602I1476J0D01*
G01*
X10079Y348363D02*
X10092Y348350D01*
X42126D01*
X80063Y345791D02*
X93055D01*
X58803Y346185D02*
X72189D01*
X132228Y316854D02*
X147976D01*
X85772Y180271D02*
X86614Y179429D01*
X89709Y186079D02*
X92014D01*
X91185Y184602D02*
X93898D01*
X195079Y160980D02*
X196850Y162752D01*
X100929Y346185D02*
X113921D01*
X99606Y184996D02*
X107205Y177398D01*
X133157Y145170D02*
X145607D01*
X133157D02*
Y145171D01*
X123094Y147736D02*
X130593D01*
X118780Y143421D02*
X123094Y147736D01*
X118780Y142358D02*
Y143421D01*
X130593Y147736D02*
X133157Y145171D01*
X89275Y191295D02*
X94925D01*
X107205Y167476D02*
Y177398D01*
X196850Y162752D02*
Y163933D01*
X195079Y160586D02*
Y160980D01*
X85826Y179090D02*
X86276D01*
X86614Y179429D01*
X129134Y184799D02*
X136614Y177299D01*
X139764Y174149D01*
Y163292D02*
Y174149D01*
Y163292D02*
X145607Y157448D01*
X126100Y187833D02*
X129134Y184799D01*
X126100Y187833D02*
Y194051D01*
X100166Y210980D02*
X100394Y210752D01*
X94925Y210980D02*
X100166D01*
X123819Y196332D02*
X126100Y194051D01*
X145607Y145170D02*
Y157448D01*
X102362Y187358D02*
X110157Y179563D01*
Y174169D02*
Y179563D01*
X102362Y187358D02*
Y187752D01*
X85772Y180271D02*
Y186078D01*
X118780Y132358D02*
Y134555D01*
X76787Y211669D02*
X78445D01*
X80315Y209799D01*
X71992Y212487D02*
X76575Y207905D01*
X68055Y211996D02*
X78716Y201334D01*
X74491D02*
X78716D01*
X69488Y196332D02*
X74491Y201334D01*
X69488Y194275D02*
Y196332D01*
X66508Y191295D02*
X69488Y194275D01*
X62839Y191295D02*
X66508D01*
X43646Y349311D02*
X47244Y352909D01*
X51323Y348830D01*
Y346185D02*
Y348830D01*
X179936Y354983D02*
X180072Y354846D01*
X189118D01*
X164315Y358783D02*
X164415Y358683D01*
X171135D01*
X148567Y358783D02*
X156835D01*
X148567Y353665D02*
X152406Y349827D01*
Y346598D02*
Y349827D01*
X148567Y353665D02*
Y358783D01*
X207228Y344216D02*
X215496D01*
X200535Y337130D02*
Y344216D01*
X192661D02*
X200535D01*
X185772Y344413D02*
X185969Y344216D01*
X177504Y344413D02*
X185772D01*
Y336933D02*
X185969Y337130D01*
X177504Y336933D02*
X185772D01*
X177307Y336736D02*
X177504Y336933D01*
X169039Y336736D02*
X177307D01*
X162209Y336598D02*
X162346Y336736D01*
X152406Y336598D02*
X162209D01*
X152406Y331598D02*
X155260Y328744D01*
Y323350D02*
Y328744D01*
X147976Y316854D02*
X148961Y315870D01*
X131736Y324039D02*
X132228Y323547D01*
X131736Y324039D02*
Y331598D01*
X121402Y340673D02*
X122327Y341598D01*
X131736D01*
X131717Y346579D02*
X131736Y346598D01*
X121008Y346579D02*
X131717D01*
X113921Y346185D02*
X114315Y346579D01*
X93055Y345791D02*
X93449Y346185D01*
X72189D02*
X72583Y345791D01*
D81*
X184984Y199499D02*
G03*
X185039Y199366I188J0D01*
G01*
X250000Y308860D02*
Y309253D01*
X249055Y310198D02*
X250000Y309253D01*
X248661Y310198D02*
X249055D01*
X236462Y322397D02*
X248661Y310198D01*
X218898Y322397D02*
X236462D01*
X250000Y303742D02*
X255817D01*
X247244Y288933D02*
X247920D01*
X248274Y289287D01*
X248503D01*
X255817Y296601D01*
Y303742D01*
X36417Y214031D02*
X39665D01*
X92716Y170626D02*
X94094Y172004D01*
X27992Y197161D02*
X29724Y195429D01*
X231793Y288933D02*
X238976D01*
X142421Y203740D02*
Y204779D01*
X110394Y230704D02*
X111811Y229287D01*
X97047Y226334D02*
X97638Y226925D01*
X184984Y199499D02*
Y202287D01*
X117561Y216962D02*
X118425Y216098D01*
X116732Y217634D02*
X118268Y216098D01*
X229921Y279311D02*
X231299Y280689D01*
X220087Y280228D02*
X225328D01*
X217025Y283289D02*
X220087Y280228D01*
X217025Y283289D02*
Y294064D01*
X215467Y295622D02*
X217025Y294064D01*
X198340Y295622D02*
X215467D01*
X173292Y294578D02*
X197296D01*
X154907Y276193D02*
X173292Y294578D01*
X197296D02*
X198340Y295622D01*
X221734Y297079D02*
X223094Y295718D01*
Y294382D02*
Y295718D01*
X162622Y297079D02*
X221734D01*
X223094Y294382D02*
X225394Y292082D01*
X142813Y277269D02*
X162622Y297079D01*
X225394Y292082D02*
X225787D01*
X153543Y243035D02*
X155910D01*
X157976Y245102D02*
Y252731D01*
X155910Y243035D02*
X157976Y245102D01*
Y252731D02*
X160181Y254935D01*
X152895Y245634D02*
X156299Y249038D01*
Y254484D01*
X153501Y257282D02*
X156299Y254484D01*
X239173Y213539D02*
Y267279D01*
X204641Y179007D02*
X239173Y213539D01*
X145669Y276193D02*
X154907D01*
X194685Y179007D02*
X204641D01*
X139357Y277269D02*
X142813D01*
X230906Y289820D02*
Y292082D01*
X232480Y284996D02*
X232480Y284996D01*
X238976D01*
X231299Y280689D02*
Y283845D01*
X189173Y183421D02*
X193587Y179007D01*
X194685D01*
X150442Y243566D02*
Y243609D01*
X148013Y241138D02*
X150442Y243566D01*
X152467Y245634D02*
X152895D01*
X118639Y227516D02*
X130049D01*
X49606Y216098D02*
X73622Y240114D01*
X134252D01*
X230906Y289820D02*
X231793Y288933D01*
X79866Y218165D02*
Y224877D01*
X90178Y230704D02*
X110394D01*
X84198Y224724D02*
X90178Y230704D01*
X103307Y229130D02*
X104331Y228106D01*
X85654Y224121D02*
X90663Y229130D01*
X89769Y221670D02*
X91070Y222971D01*
X94276D01*
X89769Y218225D02*
Y221670D01*
X89709Y218165D02*
X89769Y218225D01*
X150442Y243609D02*
X152467Y245634D01*
X82741Y224077D02*
Y225328D01*
X89653Y232240D01*
X87740Y218165D02*
Y222593D01*
X91481Y226334D01*
X97047D01*
X84198Y223474D02*
Y224724D01*
X85654Y222870D02*
Y224121D01*
X85654Y222870D02*
X85654Y222870D01*
X85654Y221360D02*
Y222870D01*
X84158Y223434D02*
X84198Y223474D01*
X84158Y221459D02*
Y223434D01*
X82126Y223462D02*
X82741Y224077D01*
X82126Y218456D02*
Y223462D01*
X89653Y232240D02*
X114118D01*
X81835Y218165D02*
X82126Y218456D01*
X49606Y207905D02*
Y216098D01*
Y207905D02*
X50468Y207043D01*
X60236Y215551D02*
Y220626D01*
X85654Y221360D02*
X85711Y221302D01*
Y218225D02*
Y221302D01*
X83803Y221105D02*
X84158Y221459D01*
X83803Y218165D02*
Y221105D01*
X61456Y213094D02*
Y214331D01*
X60236Y215551D02*
X61456Y214331D01*
Y213094D02*
X61602Y212948D01*
X62839D01*
X247244Y288933D02*
X247304Y288993D01*
X143670Y241138D02*
X148013D01*
X130049Y227516D02*
X143670Y241138D01*
X105157Y224405D02*
X115529D01*
X103740Y222988D02*
X105157Y224405D01*
X90663Y229130D02*
X103307D01*
X152864Y257282D02*
X153501D01*
X152707Y257439D02*
X152864Y257282D01*
X115529Y224405D02*
X118639Y227516D01*
X103740Y221763D02*
Y222988D01*
X96308Y214331D02*
X103740Y221763D01*
X96308Y213094D02*
Y214331D01*
X96162Y212948D02*
X96308Y213094D01*
X94925Y212948D02*
X96162D01*
X116890Y221413D02*
X118425Y219878D01*
X116732Y221413D02*
X117561Y220584D01*
X118268Y216098D02*
X118425D01*
X116732Y221413D02*
X116890D01*
X90452Y179563D02*
X91270D01*
X90616Y170626D02*
X92716D01*
X88039Y173203D02*
X90616Y170626D01*
X88039Y173203D02*
Y174023D01*
X85733Y176329D02*
X88039Y174023D01*
X84913Y176329D02*
X85733D01*
X82189Y179053D02*
X84913Y176329D01*
X87740Y182275D02*
Y186078D01*
Y182275D02*
X90452Y179563D01*
X94094Y172004D02*
X94291D01*
X86583Y172599D02*
X95890Y163292D01*
X85126Y171996D02*
X95354Y161767D01*
X95890Y163292D02*
X117202D01*
X95354Y161767D02*
X122638D01*
X117202Y163292D02*
X121033Y167122D01*
X122638Y161767D02*
X124409Y163539D01*
X127786Y167122D02*
X131369Y163539D01*
X121033Y167122D02*
X127786D01*
X44882Y197201D02*
X50499D01*
X54435Y197082D02*
X54554Y197201D01*
X50617Y197082D02*
X54435D01*
X50499Y197201D02*
X50617Y197082D01*
X54554Y197201D02*
X62839D01*
X43307Y195626D02*
X44882Y197201D01*
X47638Y202122D02*
X51221Y198539D01*
X55339Y201137D02*
X55339Y201137D01*
X51221Y198539D02*
X53832D01*
X54462Y199169D02*
X62839D01*
X53832Y198539D02*
X54462Y199169D01*
X52756Y201137D02*
X55339D01*
X53571Y195232D02*
X62839D01*
X52586Y194248D02*
X53571Y195232D01*
X51968Y194248D02*
X52586D01*
X55339Y201137D02*
X62839D01*
X94925Y205075D02*
X99016Y205085D01*
X100591Y206452D01*
X86583Y172599D02*
Y173419D01*
X85130Y174872D02*
X86583Y173419D01*
X84310Y174872D02*
X85130D01*
X85126Y171996D02*
Y172816D01*
X84526Y173416D02*
X85126Y172816D01*
X83706Y173416D02*
X84526D01*
X77559Y177503D02*
Y181094D01*
X79016Y178106D02*
Y181700D01*
X80732Y178450D02*
Y182044D01*
X82189Y179053D02*
Y182784D01*
X80732Y178450D02*
X84310Y174872D01*
X79016Y178106D02*
X83706Y173416D01*
X77559Y177503D02*
X81890Y173172D01*
Y171216D02*
Y173172D01*
X94925Y199169D02*
X115201D01*
X118289Y194856D02*
Y196081D01*
X115201Y199169D02*
X118289Y196081D01*
X81835Y183139D02*
X82189Y182784D01*
X81835Y183139D02*
Y186078D01*
X80221Y182555D02*
X80732Y182044D01*
X80221Y182555D02*
Y182784D01*
X79866Y183139D02*
X80221Y182784D01*
X54331Y172594D02*
X54527Y172791D01*
Y178697D01*
X67910Y186571D02*
X68055Y186425D01*
X70472Y201492D02*
Y203024D01*
X68422Y205075D02*
X70472Y203024D01*
X68055Y186078D02*
Y186425D01*
X85711Y218225D02*
X85772Y218165D01*
X62839Y205075D02*
X68422D01*
X64567Y186571D02*
X67910D01*
X62778Y193203D02*
X62839Y193263D01*
X29681Y211271D02*
Y213987D01*
X28169Y209760D02*
X29681Y211271D01*
X28169Y209366D02*
Y209760D01*
X27618Y208815D02*
X28169Y209366D01*
X29681Y213987D02*
X29724Y214031D01*
X18996Y208716D02*
X27126D01*
X27224Y205075D02*
X31496D01*
X23791Y211767D02*
X24409D01*
X207087Y195232D02*
Y199366D01*
X202953Y195823D02*
Y198382D01*
X211559Y195626D02*
Y199618D01*
X215748Y196019D02*
Y198578D01*
X47638Y202122D02*
Y206059D01*
X39665Y214031D02*
X47638Y206059D01*
X50468Y207043D02*
X62839D01*
X142421Y203740D02*
X154866Y191295D01*
Y190901D02*
Y191295D01*
X202953Y198382D02*
X204724Y200153D01*
X207087Y199366D02*
X207874Y200153D01*
X211023Y200153D02*
X211559Y199618D01*
X214173Y200153D02*
X215748Y198578D01*
X211023Y200153D02*
X211024Y200153D01*
X138114Y156748D02*
X140551D01*
X137559Y157303D02*
X138114Y156748D01*
X137559Y157303D02*
Y161413D01*
X133760Y154188D02*
X140551D01*
X126929Y161019D02*
X133760Y154188D01*
X22500Y205085D02*
X25699Y201886D01*
X22500Y205085D02*
Y205197D01*
X21993Y205704D02*
X22500Y205197D01*
X19252Y205704D02*
X21993D01*
X27126Y208716D02*
X27224Y208815D01*
X18898Y206059D02*
X19252Y205704D01*
X26673Y201886D02*
X27224Y201334D01*
X25699Y201886D02*
X26673D01*
X27224Y208815D02*
X27618D01*
X18898Y208618D02*
X18996Y208716D01*
X18898Y211177D02*
X23201D01*
X23791Y211767D01*
X42520Y190114D02*
X42913Y190508D01*
X36417Y190114D02*
X42520D01*
X36417Y195626D02*
X43307D01*
X29724Y190114D02*
Y195429D01*
X27992Y197161D02*
Y197358D01*
X27224Y198126D02*
X27992Y197358D01*
X27224Y198126D02*
Y201334D01*
X69504Y171561D02*
Y180330D01*
X71126Y181952D01*
X75803Y171413D02*
Y180884D01*
X74315Y182372D02*
X75803Y180884D01*
X78252Y182555D02*
X78716Y182091D01*
Y181999D02*
Y182091D01*
Y181999D02*
X79016Y181700D01*
X131369Y163539D02*
X135433D01*
X79866Y183139D02*
Y186078D01*
X77260Y181394D02*
X77559Y181094D01*
X77260Y181394D02*
Y181488D01*
X76284Y182464D02*
X77260Y181488D01*
X78252Y182555D02*
Y182846D01*
X76284Y182464D02*
Y182785D01*
X74315Y182372D02*
Y182784D01*
X75929Y183139D02*
Y186079D01*
Y183139D02*
X76284Y182785D01*
X73961Y183139D02*
Y186078D01*
Y183139D02*
X74315Y182784D01*
X71126Y181952D02*
Y182036D01*
X71932Y182842D01*
Y186018D01*
X71992Y186078D01*
X70024Y183139D02*
Y186078D01*
X69669Y182784D02*
X70024Y183139D01*
X54527Y185980D02*
X54724D01*
X56260Y187515D01*
Y187712D01*
X59685Y191138D01*
X59742D01*
X59899Y191295D01*
X62839D01*
X54527Y178697D02*
Y185980D01*
X54527Y178697D02*
X54527Y178697D01*
X126929Y161019D02*
Y161413D01*
X124803Y163539D02*
X126929Y161413D01*
X124409Y163539D02*
X124803D01*
X135433D02*
X137559Y161413D01*
X170843Y190901D02*
X172638D01*
X170842Y190901D02*
X170843Y190901D01*
X162346Y190901D02*
X170842D01*
X90157Y265665D02*
Y265901D01*
D82*
X213386Y259208D02*
X213779D01*
X209500Y156110D02*
X214243D01*
X211350Y156846D02*
Y159003D01*
X178002Y124612D02*
X209500Y156110D01*
X91908Y289741D02*
X92084Y289917D01*
X92372Y289277D02*
X110039D01*
X91455Y290427D02*
Y295313D01*
X91690Y289523D02*
X91908Y289741D01*
X92372Y289277D01*
X91339Y290311D02*
X91908Y289741D01*
X92372Y289277D02*
X92520Y289130D01*
X213189Y259996D02*
X213779Y259405D01*
X100536Y124612D02*
X178002D01*
X98779Y126368D02*
X100536Y124612D01*
X91690Y289523D02*
X98661Y282552D01*
Y270724D02*
Y282552D01*
X91339Y290311D02*
X91455Y290427D01*
Y295313D02*
X91571Y295429D01*
X212332Y157828D02*
Y158022D01*
X211350Y156846D02*
X212332Y157828D01*
Y158022D02*
X214243Y156110D01*
X98779Y126368D02*
Y132358D01*
X211350Y159003D02*
X212332Y158022D01*
D83*
X110039Y289277D02*
X116142D01*
Y289130D02*
Y289277D01*
D84*
X152337Y248750D02*
Y254878D01*
X151968Y247849D02*
Y248381D01*
X152337Y248750D01*
Y254878D02*
X152706D01*
X73961Y214495D02*
Y218165D01*
Y214495D02*
X76787Y211669D01*
X71992Y212487D02*
Y218165D01*
D85*
X181496Y252122D02*
X181693Y251925D01*
X164512Y239468D02*
Y254935D01*
X151847Y239327D02*
X162598D01*
X135039Y258618D02*
X137847D01*
X120121Y258027D02*
X133863D01*
X90157Y265665D02*
X98425D01*
X177953Y252122D02*
X181496D01*
X90157Y265114D02*
Y265665D01*
Y258421D02*
Y265114D01*
X164370Y239327D02*
X164512Y239468D01*
X162598Y239327D02*
X164370D01*
X150787Y238267D02*
Y238660D01*
X151575Y239054D02*
X151847Y239327D01*
X150787Y238660D02*
X151181Y239054D01*
X151575D01*
X150628Y238108D02*
X150787Y238267D01*
X166677Y239098D02*
X167520Y238256D01*
Y235106D02*
Y238256D01*
Y235106D02*
X168252Y234374D01*
X162827Y239098D02*
X166677D01*
D86*
X223654Y315870D02*
X247638Y291886D01*
X155654Y315870D02*
X223654D01*
D87*
X101378Y166098D02*
Y170429D01*
D88*
X196850Y163933D02*
X200039Y167122D01*
X212332D01*
D89*
X68055Y211996D02*
Y218165D01*
X88583Y207043D02*
X94925D01*
D90*
X212332Y167122D02*
X237132D01*
D91*
X82102Y154075D02*
Y161395D01*
X75803Y154075D02*
Y161395D01*
X69504Y154075D02*
Y161395D01*
D92*
X144882Y253844D02*
D03*
D93*
X140305Y259159D02*
D03*
D94*
X145620Y263588D02*
D03*
D95*
X150148Y258864D02*
D03*
D96*
X150189Y254178D02*
D03*
D97*
X150150Y254157D02*
D03*
D98*
X150102Y254137D02*
D03*
D99*
X150062Y254108D02*
D03*
D100*
X150051Y254083D02*
D03*
D101*
X150050Y254065D02*
D03*
D102*
X150042Y254042D02*
D03*
D103*
X150031Y254026D02*
D03*
D104*
X150012Y254014D02*
D03*
D105*
X149926Y253982D02*
D03*
D106*
X149861Y253962D02*
D03*
D107*
X149836Y253942D02*
D03*
D108*
X149841Y253905D02*
D03*
D109*
X149833Y253874D02*
D03*
D110*
X149824Y253844D02*
D03*
D111*
X149818Y253823D02*
D03*
D112*
X149811Y253770D02*
D03*
D113*
X149814Y253713D02*
D03*
D114*
X149808Y253635D02*
D03*
D115*
X76378Y254779D02*
D03*
X206835Y278358D02*
D03*
D116*
X175984Y160291D02*
D03*
D117*
X163091Y168953D02*
D03*
D118*
X166213Y162161D02*
D03*
D119*
X215308Y259405D02*
D03*
D120*
X95374Y283298D02*
D03*
D121*
X198913Y236768D02*
D03*
D122*
X115990Y218741D02*
D03*
D123*
X244106Y169323D02*
D03*
D124*
X255906Y19685D02*
D03*
X19685D02*
D03*
X255906Y374016D02*
D03*
X19685D02*
D03*
D125*
X243110Y289327D02*
D03*
Y284602D02*
D03*
X180315Y228697D02*
D03*
X185039D02*
D03*
X189764D02*
D03*
X180315Y223972D02*
D03*
X185039D02*
D03*
X189764D02*
D03*
X180315Y219248D02*
D03*
X185039D02*
D03*
X189764D02*
D03*
D126*
X185039Y199366D02*
D03*
M02*
