G04*
G04 #@! TF.GenerationSoftware,Altium Limited,Altium Designer,20.2.4 (192)*
G04*
G04 Layer_Color=8421504*
%FSLAX25Y25*%
%MOIN*%
G70*
G04*
G04 #@! TF.SameCoordinates,2E8E0BC3-B8D5-4E9D-ADAA-81CF339668D3*
G04*
G04*
G04 #@! TF.FilePolarity,Positive*
G04*
G01*
G75*
%ADD20R,0.08268X0.12795*%
%ADD21R,0.16043X0.14370*%
%ADD22R,0.03543X0.02756*%
%ADD23R,0.01181X0.00591*%
%ADD24R,0.00591X0.01181*%
%ADD25R,0.02264X0.01181*%
%ADD26R,0.01181X0.02264*%
%ADD27R,0.09449X0.09449*%
%ADD28R,0.06890X0.02362*%
%ADD29R,0.03937X0.02362*%
%ADD30R,0.02756X0.03543*%
%ADD31R,0.04331X0.03937*%
%ADD32R,0.03543X0.19685*%
%ADD33R,0.03937X0.05512*%
G04:AMPARAMS|DCode=34|XSize=31.5mil|YSize=23.62mil|CornerRadius=5.91mil|HoleSize=0mil|Usage=FLASHONLY|Rotation=90.000|XOffset=0mil|YOffset=0mil|HoleType=Round|Shape=RoundedRectangle|*
%AMROUNDEDRECTD34*
21,1,0.03150,0.01181,0,0,90.0*
21,1,0.01968,0.02362,0,0,90.0*
1,1,0.01181,0.00591,0.00984*
1,1,0.01181,0.00591,-0.00984*
1,1,0.01181,-0.00591,-0.00984*
1,1,0.01181,-0.00591,0.00984*
%
%ADD34ROUNDEDRECTD34*%
%ADD35O,0.01181X0.06890*%
%ADD36O,0.06890X0.01181*%
%ADD37R,0.02362X0.05512*%
%ADD38R,0.07900X0.05900*%
%ADD39R,0.07900X0.15000*%
%ADD40O,0.06890X0.02362*%
%ADD41R,0.07480X0.04232*%
%ADD42R,0.07087X0.07087*%
%ADD43R,0.05906X0.01575*%
%ADD44R,0.02756X0.01968*%
%ADD45R,0.04000X0.04000*%
%ADD46R,0.02559X0.02756*%
%ADD47R,0.01772X0.02756*%
%ADD48R,0.04500X0.01500*%
%ADD49R,0.04724X0.07874*%
G04:AMPARAMS|DCode=50|XSize=78.74mil|YSize=47.24mil|CornerRadius=0mil|HoleSize=0mil|Usage=FLASHONLY|Rotation=270.000|XOffset=0mil|YOffset=0mil|HoleType=Round|Shape=Octagon|*
%AMOCTAGOND50*
4,1,8,-0.01181,-0.03937,0.01181,-0.03937,0.02362,-0.02756,0.02362,0.02756,0.01181,0.03937,-0.01181,0.03937,-0.02362,0.02756,-0.02362,-0.02756,-0.01181,-0.03937,0.0*
%
%ADD50OCTAGOND50*%

%ADD51R,0.07087X0.06299*%
%ADD52R,0.05906X0.05118*%
%ADD53R,0.03937X0.04331*%
%ADD54O,0.02362X0.01181*%
%ADD55R,0.03543X0.08268*%
%ADD56R,0.12992X0.12992*%
%ADD57O,0.00984X0.02559*%
%ADD58O,0.02559X0.00984*%
%ADD59O,0.01181X0.02362*%
%ADD60R,0.01575X0.03150*%
%ADD61R,0.03543X0.05118*%
%ADD62R,0.19685X0.06299*%
%ADD63R,0.19685X0.04724*%
%ADD64R,0.01496X0.01102*%
G04:AMPARAMS|DCode=65|XSize=27.56mil|YSize=35.43mil|CornerRadius=0mil|HoleSize=0mil|Usage=FLASHONLY|Rotation=225.000|XOffset=0mil|YOffset=0mil|HoleType=Round|Shape=Rectangle|*
%AMROTATEDRECTD65*
4,1,4,-0.00278,0.02227,0.02227,-0.00278,0.00278,-0.02227,-0.02227,0.00278,-0.00278,0.02227,0.0*
%
%ADD65ROTATEDRECTD65*%

%ADD66R,0.06299X0.07087*%
%ADD67R,0.01102X0.01496*%
%ADD68R,0.05118X0.05906*%
D20*
X77362Y314819D02*
D03*
D21*
X76329Y263834D02*
D03*
X206785Y287413D02*
D03*
D22*
X128543Y262731D02*
D03*
X133661D02*
D03*
X128543Y254681D02*
D03*
X133661D02*
D03*
X145472Y246807D02*
D03*
X140354D02*
D03*
X201181Y225941D02*
D03*
X206299D02*
D03*
X53346Y251531D02*
D03*
X58464D02*
D03*
X103346Y251728D02*
D03*
X98228D02*
D03*
X232087Y284208D02*
D03*
X226969D02*
D03*
X232087Y288145D02*
D03*
X226969D02*
D03*
X221402Y344216D02*
D03*
X216283D02*
D03*
X171795Y239098D02*
D03*
X166677D02*
D03*
X225787Y292082D02*
D03*
X230906D02*
D03*
X225328Y280228D02*
D03*
X230446D02*
D03*
X235236Y274563D02*
D03*
X230118D02*
D03*
X157677Y162592D02*
D03*
X152559D02*
D03*
X63543Y303106D02*
D03*
X58425D02*
D03*
X107438Y303500D02*
D03*
X102320D02*
D03*
D23*
X118841Y260882D02*
D03*
Y255173D02*
D03*
D24*
X120121Y258027D02*
D03*
X117561D02*
D03*
D25*
X152706Y254878D02*
D03*
X152707Y257439D02*
D03*
X152706Y259995D02*
D03*
X152705Y262556D02*
D03*
X137847D02*
D03*
X137847Y259995D02*
D03*
Y257430D02*
D03*
X137840Y254879D02*
D03*
D26*
X149116Y266140D02*
D03*
X146555Y266148D02*
D03*
X143997Y266148D02*
D03*
X141437Y266148D02*
D03*
X141436Y251279D02*
D03*
X143997Y251279D02*
D03*
X146560Y251288D02*
D03*
X149114Y251284D02*
D03*
D27*
X145275Y258716D02*
D03*
D28*
X180797Y283766D02*
D03*
D29*
X179320Y279041D02*
D03*
D03*
X179320Y274317D02*
D03*
X189163D02*
D03*
X189163Y279041D02*
D03*
X189163Y283766D02*
D03*
D30*
X116142Y284012D02*
D03*
Y289130D02*
D03*
X98425Y270232D02*
D03*
Y265114D02*
D03*
X191929Y207831D02*
D03*
Y202712D02*
D03*
X185968Y247004D02*
D03*
Y241886D02*
D03*
X94130Y265114D02*
D03*
Y270232D02*
D03*
X154580Y238736D02*
D03*
Y233618D02*
D03*
X149606Y236472D02*
D03*
Y231354D02*
D03*
X162205Y278893D02*
D03*
Y273775D02*
D03*
X64567Y249760D02*
D03*
Y244641D02*
D03*
X256299Y281890D02*
D03*
Y287008D02*
D03*
X255817Y303742D02*
D03*
Y308860D02*
D03*
X181890Y247004D02*
D03*
Y252122D02*
D03*
X189764Y252122D02*
D03*
Y247004D02*
D03*
X250000Y308860D02*
D03*
Y303742D02*
D03*
X184984Y207405D02*
D03*
Y202287D02*
D03*
X195910Y274563D02*
D03*
Y279681D02*
D03*
X219563Y253106D02*
D03*
Y258224D02*
D03*
X224016Y252909D02*
D03*
Y258027D02*
D03*
X90157Y270232D02*
D03*
Y265114D02*
D03*
X100042Y296020D02*
D03*
Y290901D02*
D03*
X105118Y283224D02*
D03*
Y288342D02*
D03*
D31*
X155260Y323350D02*
D03*
X148567D02*
D03*
X168252Y234374D02*
D03*
X161559D02*
D03*
X168701Y204287D02*
D03*
X162008D02*
D03*
X208071Y236768D02*
D03*
X201378D02*
D03*
X201378Y230862D02*
D03*
X208071D02*
D03*
X173764Y183618D02*
D03*
X167071Y183618D02*
D03*
X157285Y167279D02*
D03*
X150593D02*
D03*
X54527Y185980D02*
D03*
X47835D02*
D03*
X54527Y178697D02*
D03*
X47835D02*
D03*
X118701Y186767D02*
D03*
X112008D02*
D03*
X110157Y215901D02*
D03*
X116850D02*
D03*
X110039Y221413D02*
D03*
X116732D02*
D03*
X188281Y155665D02*
D03*
X194974D02*
D03*
X141874Y353665D02*
D03*
X148567D02*
D03*
Y358783D02*
D03*
X141874D02*
D03*
X121008Y346579D02*
D03*
X114315D02*
D03*
X155654Y315870D02*
D03*
X148961D02*
D03*
X121402Y340673D02*
D03*
X114709D02*
D03*
X162346Y336736D02*
D03*
X169039D02*
D03*
X185969Y344216D02*
D03*
X192661D02*
D03*
X168701Y210193D02*
D03*
X162008D02*
D03*
X201520Y242445D02*
D03*
X208213D02*
D03*
X211024Y215114D02*
D03*
X204331D02*
D03*
X94357Y170626D02*
D03*
X101050D02*
D03*
X29724Y190114D02*
D03*
X36417D02*
D03*
X29724Y214819D02*
D03*
X36417D02*
D03*
X29724Y195626D02*
D03*
X36417D02*
D03*
X189118Y354846D02*
D03*
X195811D02*
D03*
X207228Y344216D02*
D03*
X200535D02*
D03*
X207228Y337130D02*
D03*
X200535D02*
D03*
X192661D02*
D03*
X185969D02*
D03*
X91270Y179563D02*
D03*
X97963D02*
D03*
D32*
X77362Y309208D02*
D03*
D33*
X71260Y302122D02*
D03*
X83464D02*
D03*
D34*
X166614Y170392D02*
D03*
X171063Y170392D02*
D03*
X171063Y176888D02*
D03*
X166614D02*
D03*
D35*
X89709Y186079D02*
D03*
X87740Y186078D02*
D03*
X85772D02*
D03*
X83803D02*
D03*
X81835D02*
D03*
X79866D02*
D03*
X77898Y186079D02*
D03*
X75929D02*
D03*
X73961Y186078D02*
D03*
X71992D02*
D03*
X70024D02*
D03*
X68055D02*
D03*
Y218165D02*
D03*
X70024Y218165D02*
D03*
X71992D02*
D03*
X73961D02*
D03*
X75929Y218165D02*
D03*
X77898D02*
D03*
X79866D02*
D03*
X81835D02*
D03*
X83803D02*
D03*
X85772Y218165D02*
D03*
X87740D02*
D03*
X89709Y218165D02*
D03*
D36*
X62839Y191295D02*
D03*
Y193263D02*
D03*
Y195232D02*
D03*
X62839Y197201D02*
D03*
Y199169D02*
D03*
Y201137D02*
D03*
X62839Y203106D02*
D03*
Y205075D02*
D03*
X62839Y207043D02*
D03*
Y209012D02*
D03*
Y210980D02*
D03*
Y212948D02*
D03*
X94925D02*
D03*
Y210980D02*
D03*
Y209012D02*
D03*
Y207043D02*
D03*
Y205075D02*
D03*
Y203106D02*
D03*
Y201137D02*
D03*
Y199169D02*
D03*
Y197201D02*
D03*
Y195232D02*
D03*
Y193263D02*
D03*
Y191295D02*
D03*
D37*
X50984Y360389D02*
D03*
X43504D02*
D03*
X47244Y352909D02*
D03*
D38*
X212332Y158022D02*
D03*
Y167122D02*
D03*
Y176222D02*
D03*
D39*
X237132Y167122D02*
D03*
D40*
X152406Y331598D02*
D03*
Y336598D02*
D03*
Y341598D02*
D03*
Y346598D02*
D03*
X131736Y331598D02*
D03*
Y336598D02*
D03*
Y341598D02*
D03*
Y346598D02*
D03*
D41*
X5474Y193633D02*
D03*
Y218337D02*
D03*
D42*
X6183Y201458D02*
D03*
Y210513D02*
D03*
D43*
X17010Y200867D02*
D03*
Y203426D02*
D03*
Y205985D02*
D03*
Y208544D02*
D03*
X17010Y211103D02*
D03*
D44*
X27224Y201334D02*
D03*
Y205075D02*
D03*
Y208815D02*
D03*
X37657D02*
D03*
Y205075D02*
D03*
Y201334D02*
D03*
D45*
X171135Y358683D02*
D03*
X179936Y362583D02*
D03*
Y354983D02*
D03*
X69685Y170392D02*
D03*
Y162592D02*
D03*
X75984Y170392D02*
D03*
Y162592D02*
D03*
X82102Y170392D02*
D03*
Y162592D02*
D03*
D46*
X204724Y200153D02*
D03*
Y206452D02*
D03*
X214173Y200153D02*
D03*
Y206452D02*
D03*
D47*
X207874Y200153D02*
D03*
Y206452D02*
D03*
X211024Y200153D02*
D03*
Y206452D02*
D03*
D48*
X157874Y156750D02*
D03*
Y154190D02*
D03*
Y151630D02*
D03*
Y149070D02*
D03*
X140551Y149068D02*
D03*
X140551Y151628D02*
D03*
X140551Y154188D02*
D03*
Y156748D02*
D03*
D49*
X118110Y208618D02*
D03*
X118110Y194051D02*
D03*
X109449Y194051D02*
D03*
D50*
Y208618D02*
D03*
D51*
X248031Y172004D02*
D03*
Y183027D02*
D03*
D52*
X135433Y163539D02*
D03*
Y171019D02*
D03*
X91571Y302516D02*
D03*
Y295035D02*
D03*
X140496Y323153D02*
D03*
Y315673D02*
D03*
X124409Y171019D02*
D03*
Y163539D02*
D03*
X213779Y266886D02*
D03*
Y259405D02*
D03*
X177504Y344413D02*
D03*
Y336933D02*
D03*
D53*
X110039Y289277D02*
D03*
Y282584D02*
D03*
X219291Y215311D02*
D03*
Y222004D02*
D03*
X90157Y251728D02*
D03*
Y258421D02*
D03*
X196850Y205468D02*
D03*
Y198775D02*
D03*
X180260Y203075D02*
D03*
Y196382D02*
D03*
X194433Y238901D02*
D03*
Y245594D02*
D03*
X160181Y223941D02*
D03*
Y217248D02*
D03*
X175197Y207634D02*
D03*
Y200941D02*
D03*
X166087Y223941D02*
D03*
Y217248D02*
D03*
X164370Y155665D02*
D03*
X164370Y148972D02*
D03*
X183071Y155271D02*
D03*
Y148579D02*
D03*
X132228Y316854D02*
D03*
Y323547D02*
D03*
X66087Y340083D02*
D03*
Y346775D02*
D03*
X87347Y340083D02*
D03*
Y346775D02*
D03*
X69504Y147382D02*
D03*
Y154075D02*
D03*
X75803Y147382D02*
D03*
Y154075D02*
D03*
X82102Y147382D02*
D03*
Y154075D02*
D03*
X108606Y346382D02*
D03*
Y339689D02*
D03*
X42126Y348350D02*
D03*
Y341657D02*
D03*
X207732Y259602D02*
D03*
Y252909D02*
D03*
X247244Y158815D02*
D03*
Y165508D02*
D03*
D54*
X238976Y290901D02*
D03*
Y288933D02*
D03*
Y286964D02*
D03*
Y284996D02*
D03*
Y283027D02*
D03*
X247244D02*
D03*
Y284996D02*
D03*
Y286964D02*
D03*
Y288933D02*
D03*
Y290901D02*
D03*
X158016Y263006D02*
D03*
Y261038D02*
D03*
Y259069D02*
D03*
X166284D02*
D03*
Y261038D02*
D03*
Y263006D02*
D03*
D55*
X243110Y286964D02*
D03*
D56*
X185039Y223972D02*
D03*
D57*
X191929Y214031D02*
D03*
X189961D02*
D03*
X187992D02*
D03*
X186024D02*
D03*
X184055D02*
D03*
X182087D02*
D03*
X180118D02*
D03*
X178150D02*
D03*
Y233913D02*
D03*
X180118D02*
D03*
X182087D02*
D03*
X184055D02*
D03*
X186024D02*
D03*
X187992D02*
D03*
X189961D02*
D03*
X191929D02*
D03*
D58*
X175098Y217083D02*
D03*
Y219051D02*
D03*
Y221020D02*
D03*
Y222988D02*
D03*
Y224956D02*
D03*
Y226925D02*
D03*
Y228893D02*
D03*
Y230862D02*
D03*
X194980D02*
D03*
Y228893D02*
D03*
Y226925D02*
D03*
Y224956D02*
D03*
Y222988D02*
D03*
Y221020D02*
D03*
Y219051D02*
D03*
Y217083D02*
D03*
D59*
X164118Y267140D02*
D03*
X162150D02*
D03*
X160181D02*
D03*
Y254935D02*
D03*
X162150D02*
D03*
X164118D02*
D03*
D60*
X162937Y261038D02*
D03*
D61*
X70472Y251630D02*
D03*
X82283D02*
D03*
X76378D02*
D03*
X206835Y275208D02*
D03*
X212740D02*
D03*
X200929D02*
D03*
D62*
X265118Y87520D02*
D03*
Y109331D02*
D03*
X10079Y261693D02*
D03*
Y239882D02*
D03*
X10258Y313126D02*
D03*
Y291315D02*
D03*
X265118Y250118D02*
D03*
Y271929D02*
D03*
X10079Y359269D02*
D03*
Y337458D02*
D03*
Y109331D02*
D03*
Y87520D02*
D03*
D63*
X265118Y98425D02*
D03*
X10079Y250787D02*
D03*
X10258Y302220D02*
D03*
X265118Y261024D02*
D03*
X10079Y348363D02*
D03*
Y98425D02*
D03*
D64*
X48868Y302220D02*
D03*
X45719D02*
D03*
Y300252D02*
D03*
X48868D02*
D03*
X46063Y248807D02*
D03*
X42913D02*
D03*
Y250775D02*
D03*
X46063D02*
D03*
D65*
X172600Y249431D02*
D03*
X176219Y245813D02*
D03*
D66*
X205512Y148775D02*
D03*
X216535D02*
D03*
D67*
X249016Y260931D02*
D03*
Y264081D02*
D03*
X247047D02*
D03*
Y260931D02*
D03*
D68*
X156835Y358783D02*
D03*
X164315D02*
D03*
X58803Y346185D02*
D03*
X51323D02*
D03*
X80063Y345791D02*
D03*
X72583D02*
D03*
X100929Y346185D02*
D03*
X93449D02*
D03*
X189173Y183421D02*
D03*
X181693D02*
D03*
X162346Y190901D02*
D03*
X154866D02*
D03*
X188491Y161767D02*
D03*
X195971D02*
D03*
M02*
