M48
;Layer_Color=9474304
;FILE_FORMAT=2:5
INCH,TZ
;TYPE=PLATED
T1F00S00C0.01181
T2F00S00C0.01299
T3F00S00C0.01575
T4F00S00C0.02800
T5F00S00C0.04000
T6F00S00C0.13386
;TYPE=NON_PLATED
T7F00S00C0.02559
%
T01
X194685Y179007
X202953Y195823
X207087Y195232
X211559Y195626
X215748Y196019
X196795Y205523
X180260Y203075
X170024Y222169
X162598Y239327
X164732Y241917
X164567Y252770
X200929Y246185
X197583Y242105
X194980Y233815
X204866Y221382
X218898Y227319
X76378Y251218
X75197Y259782
X78347
X81496
X72047
Y262537
X72215Y265126
X75197Y265293
Y268048
X78347
Y265293
Y262537
X75197
X81496
Y265293
Y268048
Y273720
X85039
X77362Y296457
X77362Y302362
Y305118
Y307874
X75732Y310630
Y313386
Y316142
Y318896
X79150
Y316142
Y313386
Y310630
X84350
Y313386
Y316142
Y318896
X70276
Y316142
Y313386
Y310630
X202512Y291886
Y288963
X202510Y286375
Y283619
X205660
Y286375
Y289131
Y291886
X208809
Y289131
Y286375
Y283619
X211959
Y286375
Y289131
Y291886
X206835Y275208
T02
X180315Y219248
X185039
Y223972
Y228697
X180315
Y223972
X189764
Y228697
Y219248
X243110Y284602
Y289327
T03
X8779Y18972
X13780Y28972
X23779
X33779
X43780
X53780
X63779
X73779
X83780
X93779
X103779
X113779
X123779
X133780
X143780
X148779Y38972
X138779
X128779
X118780
X108780
X98779
X88779
X78780
X68779
X58780
X48779
X38780
X28780
X18779
X8779
X13780Y48972
X23779
X33779
X43780
X53780
X63779
X73779
X83780
X93779
X103779
X113779
X123779
X133780
X143780
X148779Y58972
X138779
X128779
X118780
X108780
X98779
X88779
X78780
X68779
X58780
X48779
X38780
X28780
X18779
X8779
X13780Y68972
X23779
X33779
X43780
X53780
X63779
X73779
X83780
X93779
X103779
X113779
X123779
X133780
X143780
X148779Y78972
X138779
X128779
X118780
X108780
X98779
X88779
X78780
X68779
X58780
X48779
X38780
X28780
X18779
X8779
X23779Y88972
X33779
X43780
X53780
X63779
X73779
X83780
X93779
X103779
X113779
X123779
X133780
X143780
X148779Y18972
X138779
X128779
X118780
X108780
X98779
X88779
X78780
X68779
X58780
X48779
X38780
X47244Y98425
X153779Y88972
X163779
X173779
X183780
X193780
X203780
X213779
X223780
X233780
X243779
X248780Y78972
X258780
X268779
X263779Y68972
X253780
X243779
X233780
X223780
X213779
X203780
X193780
X183780
X173779
X163779
X153779
X158780Y78972
X168780
X178779
X188779
X198779
X208780
X218779
X228780
X238779
Y58972
X248780
X258780
X268779
X263779Y48972
X253780
X243779
X233780
X223780
X213779
X203780
X193780
X183780
X173779
X163779
X153779
X158780Y58972
X168780
X178779
X188779
X198779
X208780
X218779
X228780
Y38972
X238779
X248780
X258780
X268779
X263779Y28972
X253780
X243779
X233780
X223780
X213779
X203780
X193780
X183780
X173779
X163779
X153779
X158780Y38972
X168780
X178779
X188779
X198779
X208780
X218779
Y18972
X228780
X238779
X268779
X208780
X198779
X188779
X178779
X168780
X158780
X232283Y98425
X233780Y108972
X243779
X248780Y118972
X258780
X268779
X263779Y128972
X253780
X243779
X233780
X223780
X213779
X203780
X193780
X198779Y138972
X208780
X218779
X228780
X238779
X248780
X258780
X268779
X263779Y148972
X253780
X243779
X233780
X223780
X228780Y158972
X218779
X212332Y158022
X193780Y148972
Y168972
X190551Y192082
X185039Y199366
X168780Y198972
X158780
X153779Y208972
Y228972
X153543Y243035
X151968Y248381
X161221Y243225
X177953Y252122
X202953Y260092
X233780Y248972
X243779
X248780Y238972
X258780
X268779
X263779Y228972
X253780
X243779
X233780
X248780Y218972
X258780
X268779
X263779Y208972
X253780
X243779
X248780Y198972
X258780
X268779
X263779Y188972
X253780
X243779
X233780
X223780
X228780Y178972
X238779
X258780
X268779
X263779Y168972
X268779Y158972
X258780
X238779Y198972
X172638Y190901
X158780Y178972
Y138972
X168780
X178779
X173779Y148972
Y128972
X163779
X153779
X158780Y118972
X168780
X178779
X188779
X198779
X208780
X218779
X228780
X238779
X223780Y108972
X213779
X203780
X193780
X183780
X173779
X163779
X153779
X143780
X133780
X123779
X113779
X103779
X93779
X83780
X73779
X63779
X53780
X43780
X33779
X23779
X28780Y118972
X38780
X48779
X58780
X68779
X78780
X88779
X98779
X108780
X118780
X128779
X138779
X148779
X143780Y128972
X148779Y138972
X143780Y168972
X148779Y178972
X128779
X129528Y174957
X118780Y178972
X110157Y174169
X107205Y167476
X101378Y166098
X98779Y158972
X93779Y148972
X88779Y138972
X78780
X68779
X58780
X53780Y148972
X58780Y158972
X48779
X38780
X43780Y168972
X33779
X38780Y178972
X28780
X18779
X8779
X13780Y188972
X8779Y198972
X24409Y211767
X33779Y208972
X31496Y205075
X43385Y203958
X52756Y201137
X51968Y194248
X42913Y190508
X64567Y186571
X72441Y193067
X70472Y201492
X76575Y207905
X80315Y209799
X79866Y224877
X73779Y228972
X53780
X43780
X44685Y217476
X54921Y213244
X60236Y220626
X58780Y238972
X48779
X32787Y238453
X24409Y236706
Y245215
Y255451
X38780Y258972
X19089Y228948
X10214Y232710
X13780Y168972
X18779Y158972
X8779
X13780Y148972
X23779
X33779
X38780Y138972
X28780
X18779
X8779
X13780Y128972
X23779
X33779
X43780
X53780
X54331Y172594
X63779Y168972
X85826Y179090
X99606Y184996
X102362Y187752
X100591Y206452
X100394Y210752
X94276Y222971
X97638Y226531
X104331Y228106
X110925Y229090
X114173Y232240
X131102Y235193
X134252Y240114
X133780Y248972
X123779
X124748Y258027
X135039Y258618
X108780Y258972
X98779
X143780Y228972
X148779Y218972
X138779
X133780Y208972
X142126Y204236
X128779Y198972
X123819Y196332
X113779Y148972
X18779Y118972
X8779
X10214Y268048
X10258Y283465
X18779Y278972
X28780
X38780
X48779
X58780
X63779Y288972
X73779
X53780
X43780
Y308972
X53780
X63779
X58780Y318972
X48779
X38780
X43780Y328972
X53780
X63779
X73779
X83780
X93779
X103779
X113779
X98779Y338972
Y358972
X108780
X118780
X128779
X133780Y368972
X143780
X123779
X113779
X103779
X93779
X83780
X73779
X63779
X53780
X43780
X33779
X38780Y358972
X28780
Y338972
X33779Y328972
X23779
X13780
X10258Y320866
X24409Y316142
Y307087
Y296850
Y288342
Y264506
X33779Y268972
X43780
X53780
X103779
X113779
X123779
X128779Y278972
X118780
X108780
X123779Y288972
X133780
X143780
X145669Y276193
X148779Y278972
X139357Y277269
X138779Y298972
X148779
X128779
X118780
X123779Y308972
X133780
X93779
X98779Y318972
X78780Y338972
Y358972
X88779
X68779
X58780
Y338972
X48779
X33779Y308972
X153779
X163779
X173779
X183780
X193780
X203780
X213779
X223780
X228780Y298972
X220926Y289327
X223780Y268972
X233780
X239173Y267279
X243779Y268972
X268779Y278972
X263779Y288972
X268779Y298972
X258780
X248780
X243779Y308972
X248780Y318972
X258780
X268779
X263779Y328972
X253780
X243779
X233780
X238779Y338972
X248780
X258780
X268779
X263779Y348972
X253780
X243779
X233780
X223780
X213779
X203780
X193780
X183780
X186811Y364917
X193780Y368972
X203780
X213779
X223780
X233780
X243779
X248780Y358972
X258780
X268779
X238779
X228780
X218779
X208780
X213779Y328972
X203780
X193780
X183780
X173779
X163779
Y348972
X159843Y368010
X153779Y368972
X158780Y298972
X163779Y288972
X173779
X183780
X188959Y289917
X193780Y288972
Y268972
X203780
X183780
X173779
X153779
X218898Y322397
X222133Y336933
X228780Y338972
X263779Y308972
T04
X162992Y161571
X170473Y161964
X170669Y155271
X178543
Y161964
X88386Y147382
X61456
X78716Y201334
X103362Y194658
X91339Y290311
T05
X98779Y132358
Y142358
X108780
Y132358
X118780
Y142358
X128779
Y132358
T06
X19685Y19685
X255906
X19685Y374016
X255906
T07
X17994Y197225
X17994Y214745
M30
