%TF.GenerationSoftware,Altium Limited,Altium Designer,20.2.4 (192)*%
G04 Layer_Physical_Order=4*
G04 Layer_Color=16711680*
%FSLAX25Y25*%
%MOIN*%
%TF.SameCoordinates,DD73C85C-3220-4851-94E8-9B28512026BA*%
%TF.FilePolarity,Positive*%
%TF.FileFunction,Copper,L4,Bot,Signal*%
%TF.Part,Single*%
G01*
G75*
%TA.AperFunction,Conductor*%
%ADD12C,0.01575*%
%ADD13C,0.00866*%
%TA.AperFunction,ConnectorPad*%
%ADD54R,0.19685X0.06299*%
%TA.AperFunction,Conductor*%
%ADD61C,0.00787*%
%ADD63C,0.03937*%
%TA.AperFunction,ComponentPad*%
G04:AMPARAMS|DCode=108|XSize=74.8mil|YSize=49.21mil|CornerRadius=12.3mil|HoleSize=0mil|Usage=FLASHONLY|Rotation=0.000|XOffset=0mil|YOffset=0mil|HoleType=Round|Shape=RoundedRectangle|*
%AMROUNDEDRECTD108*
21,1,0.07480,0.02461,0,0,0.0*
21,1,0.05020,0.04921,0,0,0.0*
1,1,0.02461,0.02510,-0.01230*
1,1,0.02461,-0.02510,-0.01230*
1,1,0.02461,-0.02510,0.01230*
1,1,0.02461,0.02510,0.01230*
%
%ADD108ROUNDEDRECTD108*%
%ADD109C,0.04134*%
%ADD110C,0.14961*%
%ADD111R,0.06000X0.08000*%
%ADD112O,0.06000X0.08000*%
%TA.AperFunction,ViaPad*%
%ADD113C,0.02400*%
%ADD114C,0.02598*%
%ADD115C,0.03150*%
%ADD116C,0.05000*%
%ADD117C,0.02362*%
%ADD118C,0.02756*%
G36*
X275197Y276079D02*
X265618D01*
Y271929D01*
Y267779D01*
X275197D01*
Y254268D01*
X265618D01*
Y250118D01*
Y245969D01*
X275197D01*
Y113480D01*
X265618D01*
Y109331D01*
Y105181D01*
X275197D01*
Y91669D01*
X265618D01*
Y87520D01*
Y83370D01*
X275197D01*
Y11810D01*
X0D01*
Y83370D01*
X9579D01*
Y87520D01*
Y91669D01*
X0D01*
Y105181D01*
X9579D01*
Y109331D01*
Y113480D01*
X0D01*
Y235732D01*
X9579D01*
Y239882D01*
Y244032D01*
X0D01*
Y257543D01*
X9579D01*
Y261693D01*
Y265843D01*
X0D01*
Y287165D01*
X9758D01*
Y291315D01*
Y295464D01*
X0D01*
Y308976D01*
X9758D01*
Y313126D01*
Y317275D01*
X0D01*
Y333308D01*
X9579D01*
Y337458D01*
Y341607D01*
X0D01*
Y355119D01*
X9579D01*
Y359269D01*
Y363418D01*
X0D01*
Y381888D01*
X275197D01*
Y276079D01*
D02*
G37*
%LPC*%
G36*
X20921Y363418D02*
X10579D01*
Y359769D01*
X20921D01*
Y363418D01*
D02*
G37*
G36*
Y358769D02*
X10579D01*
Y355119D01*
X20921D01*
Y358769D01*
D02*
G37*
G36*
Y341607D02*
X10579D01*
Y337958D01*
X20921D01*
Y341607D01*
D02*
G37*
G36*
Y336958D02*
X10579D01*
Y333308D01*
X20921D01*
Y336958D01*
D02*
G37*
G36*
X218898Y324605D02*
X218053Y324437D01*
X217337Y323959D01*
X216964Y323401D01*
X130512D01*
X130128Y323325D01*
X129802Y323107D01*
X92005Y285310D01*
X91787Y284984D01*
X91711Y284600D01*
Y257296D01*
X54212Y219796D01*
X53994Y219471D01*
X53918Y219087D01*
Y215177D01*
X53360Y214805D01*
X52882Y214089D01*
X52714Y213244D01*
X52882Y212399D01*
X53360Y211683D01*
X54076Y211204D01*
X54921Y211036D01*
X55766Y211204D01*
X56482Y211683D01*
X56961Y212399D01*
X57129Y213244D01*
X56961Y214089D01*
X56482Y214805D01*
X55925Y215177D01*
Y218671D01*
X57578Y220325D01*
X58121Y220160D01*
X58197Y219781D01*
X58675Y219065D01*
X59391Y218586D01*
X60236Y218418D01*
X61081Y218586D01*
X61797Y219065D01*
X62276Y219781D01*
X62444Y220626D01*
X62323Y221236D01*
X81960Y240874D01*
X103470D01*
X103677Y240373D01*
X99933Y236630D01*
X90575D01*
X90575Y236630D01*
X90176Y236551D01*
X89837Y236324D01*
X80476Y226963D01*
X79866Y227085D01*
X79021Y226917D01*
X78305Y226438D01*
X77826Y225722D01*
X77658Y224877D01*
X77826Y224032D01*
X78305Y223316D01*
X79021Y222837D01*
X79866Y222669D01*
X80711Y222837D01*
X81427Y223316D01*
X81906Y224032D01*
X82074Y224877D01*
X81953Y225487D01*
X91008Y234543D01*
X100366D01*
X100366Y234543D01*
X100765Y234622D01*
X101104Y234848D01*
X122888Y256632D01*
X122888Y256632D01*
X123114Y256971D01*
X123193Y257370D01*
Y258671D01*
X124104Y259582D01*
X126388D01*
X126388Y259582D01*
X126787Y259662D01*
X127126Y259888D01*
X142387Y275149D01*
X143762D01*
X144108Y274632D01*
X144824Y274153D01*
X145669Y273985D01*
X146514Y274153D01*
X147230Y274632D01*
X147709Y275348D01*
X147877Y276193D01*
X147709Y277038D01*
X147230Y277754D01*
X146514Y278233D01*
X145669Y278400D01*
X144824Y278233D01*
X144108Y277754D01*
X143762Y277236D01*
X142042D01*
X141565Y277270D01*
X141496Y277616D01*
X141396Y278114D01*
X140918Y278831D01*
X140202Y279309D01*
X139357Y279477D01*
X138512Y279309D01*
X137796Y278831D01*
X137317Y278114D01*
X137149Y277269D01*
X137270Y276659D01*
X123737Y263126D01*
X123068D01*
X123068Y263126D01*
X122669Y263047D01*
X122330Y262820D01*
X119955Y260445D01*
X119729Y260106D01*
X119649Y259707D01*
X119649Y259707D01*
Y259038D01*
X103572Y242961D01*
X81528D01*
X81528Y242961D01*
X81128Y242881D01*
X80790Y242655D01*
X61143Y223008D01*
X61004Y223043D01*
X60851Y223597D01*
X93424Y256170D01*
X93642Y256496D01*
X93718Y256880D01*
Y284184D01*
X130928Y321394D01*
X216964D01*
X217337Y320836D01*
X218053Y320358D01*
X218898Y320190D01*
X219742Y320358D01*
X220459Y320836D01*
X220937Y321552D01*
X221105Y322397D01*
X220937Y323242D01*
X220459Y323959D01*
X219742Y324437D01*
X218898Y324605D01*
D02*
G37*
G36*
X21101Y317275D02*
X10758D01*
Y313626D01*
X21101D01*
Y317275D01*
D02*
G37*
G36*
Y312626D02*
X10758D01*
Y308976D01*
X21101D01*
Y312626D01*
D02*
G37*
G36*
Y295464D02*
X10758D01*
Y291815D01*
X21101D01*
Y295464D01*
D02*
G37*
G36*
Y290815D02*
X10758D01*
Y287165D01*
X21101D01*
Y290815D01*
D02*
G37*
G36*
X264618Y276079D02*
X254276D01*
Y272429D01*
X264618D01*
Y276079D01*
D02*
G37*
G36*
Y271429D02*
X254276D01*
Y267779D01*
X264618D01*
Y271429D01*
D02*
G37*
G36*
X222133Y339141D02*
X221288Y338973D01*
X220572Y338494D01*
X220093Y337778D01*
X219925Y336933D01*
X220093Y336088D01*
X220572Y335372D01*
X221130Y334999D01*
Y325067D01*
X221206Y324683D01*
X221424Y324358D01*
X238130Y307652D01*
Y269186D01*
X237612Y268840D01*
X237134Y268124D01*
X236965Y267279D01*
X237134Y266434D01*
X237612Y265718D01*
X238328Y265240D01*
X239173Y265072D01*
X240018Y265240D01*
X240734Y265718D01*
X241213Y266434D01*
X241381Y267279D01*
X241213Y268124D01*
X240734Y268840D01*
X240217Y269186D01*
Y308027D01*
X240138Y308427D01*
X239911Y308765D01*
X239740Y308880D01*
X223137Y325483D01*
Y334999D01*
X223694Y335372D01*
X224173Y336088D01*
X224341Y336933D01*
X224173Y337778D01*
X223694Y338494D01*
X222978Y338973D01*
X222133Y339141D01*
D02*
G37*
G36*
X20921Y265843D02*
X10579D01*
Y262193D01*
X20921D01*
Y265843D01*
D02*
G37*
G36*
Y261193D02*
X10579D01*
Y257543D01*
X20921D01*
Y261193D01*
D02*
G37*
G36*
X164567Y254576D02*
X163876Y254439D01*
X163290Y254047D01*
X162898Y253461D01*
X162761Y252770D01*
X162898Y252079D01*
X163290Y251493D01*
X163876Y251101D01*
X164567Y250964D01*
X165258Y251101D01*
X165844Y251493D01*
X166236Y252079D01*
X166373Y252770D01*
X166236Y253461D01*
X165844Y254047D01*
X165258Y254439D01*
X164567Y254576D01*
D02*
G37*
G36*
X264618Y254268D02*
X254276D01*
Y250618D01*
X264618D01*
Y254268D01*
D02*
G37*
G36*
X177953Y254330D02*
X177108Y254162D01*
X176392Y253683D01*
X175913Y252967D01*
X175745Y252122D01*
X175913Y251277D01*
X176392Y250561D01*
X177108Y250082D01*
X177953Y249914D01*
X178798Y250082D01*
X179514Y250561D01*
X179992Y251277D01*
X180160Y252122D01*
X179992Y252967D01*
X179514Y253683D01*
X178798Y254162D01*
X177953Y254330D01*
D02*
G37*
G36*
X264618Y249618D02*
X254276D01*
Y245969D01*
X264618D01*
Y249618D01*
D02*
G37*
G36*
X161221Y245432D02*
X160376Y245264D01*
X159659Y244786D01*
X159287Y244228D01*
X158426D01*
X158042Y244152D01*
X157716Y243934D01*
X156123Y242341D01*
X155662Y242587D01*
X155751Y243035D01*
X155583Y243880D01*
X155104Y244597D01*
X154388Y245075D01*
X153543Y245243D01*
X152698Y245075D01*
X151982Y244597D01*
X151504Y243880D01*
X151455Y243635D01*
X148671Y240852D01*
X148573D01*
X148234Y241078D01*
X147835Y241157D01*
X147835Y241157D01*
X136159D01*
X135813Y241675D01*
X135097Y242153D01*
X134252Y242321D01*
X133407Y242153D01*
X132691Y241675D01*
X132212Y240958D01*
X132044Y240114D01*
X132212Y239269D01*
X132691Y238552D01*
X133407Y238074D01*
X134252Y237906D01*
X135097Y238074D01*
X135813Y238552D01*
X136159Y239070D01*
X147403D01*
X147884Y238589D01*
X147884Y238589D01*
X148223Y238362D01*
X148622Y238283D01*
X149021Y238362D01*
X149360Y238589D01*
X152140Y241369D01*
X152698Y240996D01*
X153543Y240828D01*
X153991Y240917D01*
X154238Y240456D01*
X149978Y236196D01*
X133036D01*
X132664Y236754D01*
X131947Y237232D01*
X131102Y237401D01*
X130257Y237232D01*
X129541Y236754D01*
X129063Y236038D01*
X128895Y235193D01*
X129063Y234348D01*
X129541Y233632D01*
X130257Y233153D01*
X131102Y232985D01*
X131947Y233153D01*
X132664Y233632D01*
X133036Y234189D01*
X150394D01*
X150778Y234266D01*
X151103Y234483D01*
X158820Y242200D01*
X159320Y242171D01*
X159659Y241664D01*
X160376Y241185D01*
X161081Y241045D01*
X161208Y240811D01*
X161262Y240649D01*
X161275Y240535D01*
X160930Y240018D01*
X160792Y239327D01*
X160930Y238635D01*
X161321Y238049D01*
X161907Y237658D01*
X162598Y237520D01*
X163290Y237658D01*
X163876Y238049D01*
X164267Y238635D01*
X164405Y239327D01*
X164334Y239680D01*
X164732Y240111D01*
X165424Y240248D01*
X166010Y240640D01*
X166401Y241226D01*
X166539Y241917D01*
X166401Y242608D01*
X166010Y243194D01*
X165424Y243586D01*
X164732Y243723D01*
X164041Y243586D01*
X163887Y243483D01*
X163331Y243713D01*
X163260Y244070D01*
X162782Y244786D01*
X162065Y245264D01*
X161221Y245432D01*
D02*
G37*
G36*
X20921Y244032D02*
X10579D01*
Y240382D01*
X20921D01*
Y244032D01*
D02*
G37*
G36*
X197583Y243911D02*
X196891Y243774D01*
X196305Y243382D01*
X195914Y242796D01*
X195776Y242105D01*
X195914Y241413D01*
X196305Y240827D01*
X196891Y240436D01*
X197583Y240298D01*
X198274Y240436D01*
X198860Y240827D01*
X199252Y241413D01*
X199389Y242105D01*
X199252Y242796D01*
X198860Y243382D01*
X198274Y243774D01*
X197583Y243911D01*
D02*
G37*
G36*
X20921Y239382D02*
X10579D01*
Y235732D01*
X20921D01*
Y239382D01*
D02*
G37*
G36*
X200929Y247991D02*
X200238Y247854D01*
X199652Y247462D01*
X199260Y246876D01*
X199123Y246185D01*
X199260Y245494D01*
X199652Y244908D01*
X199926Y244725D01*
Y239490D01*
X198994Y238558D01*
X175197D01*
X174813Y238482D01*
X174487Y238264D01*
X171283Y235060D01*
X171065Y234734D01*
X170989Y234350D01*
Y224553D01*
X170347Y223911D01*
X170024Y223976D01*
X169332Y223838D01*
X168746Y223446D01*
X168355Y222860D01*
X168217Y222169D01*
X168355Y221478D01*
X168746Y220892D01*
X169332Y220500D01*
X170024Y220363D01*
X170715Y220500D01*
X171301Y220892D01*
X171693Y221478D01*
X171830Y222169D01*
X171766Y222492D01*
X172702Y223428D01*
X172919Y223754D01*
X172996Y224138D01*
Y233935D01*
X175612Y236551D01*
X199409D01*
X199794Y236628D01*
X200119Y236845D01*
X201639Y238365D01*
X201856Y238691D01*
X201933Y239075D01*
Y244725D01*
X202206Y244908D01*
X202598Y245494D01*
X202736Y246185D01*
X202598Y246876D01*
X202206Y247462D01*
X201621Y247854D01*
X200929Y247991D01*
D02*
G37*
G36*
X7984Y225592D02*
X5974D01*
Y222587D01*
X10258D01*
Y223318D01*
X10085Y224188D01*
X9592Y224926D01*
X8854Y225419D01*
X7984Y225592D01*
D02*
G37*
G36*
X4974D02*
X2964D01*
X2094Y225419D01*
X1357Y224926D01*
X864Y224188D01*
X690Y223318D01*
Y222587D01*
X4974D01*
Y225592D01*
D02*
G37*
G36*
X204866Y223188D02*
X204175Y223051D01*
X203589Y222659D01*
X203197Y222073D01*
X203060Y221382D01*
X203197Y220690D01*
X203589Y220104D01*
X204175Y219713D01*
X204866Y219575D01*
X205557Y219713D01*
X206143Y220104D01*
X206535Y220690D01*
X206673Y221382D01*
X206535Y222073D01*
X206143Y222659D01*
X205557Y223051D01*
X204866Y223188D01*
D02*
G37*
G36*
X10258Y221587D02*
X5974D01*
Y218583D01*
X7984D01*
X8854Y218756D01*
X9592Y219249D01*
X10085Y219987D01*
X10258Y220857D01*
Y221587D01*
D02*
G37*
G36*
X4974D02*
X690D01*
Y220857D01*
X864Y219987D01*
X1357Y219249D01*
X2094Y218756D01*
X2964Y218583D01*
X4974D01*
Y221587D01*
D02*
G37*
G36*
X18494Y217773D02*
Y215245D01*
X21022D01*
X20982Y215546D01*
X20673Y216292D01*
X20181Y216932D01*
X19541Y217424D01*
X18795Y217733D01*
X18494Y217773D01*
D02*
G37*
G36*
X17494D02*
X17193Y217733D01*
X16447Y217424D01*
X15807Y216932D01*
X15315Y216292D01*
X15006Y215546D01*
X14966Y215245D01*
X17494D01*
Y217773D01*
D02*
G37*
G36*
X21022Y214245D02*
X18494D01*
Y211717D01*
X18795Y211757D01*
X19541Y212066D01*
X20181Y212558D01*
X20673Y213198D01*
X20982Y213944D01*
X21022Y214245D01*
D02*
G37*
G36*
X17494D02*
X14966D01*
X15006Y213944D01*
X15315Y213198D01*
X15807Y212558D01*
X16447Y212066D01*
X17193Y211757D01*
X17494Y211717D01*
Y214245D01*
D02*
G37*
G36*
X52756Y203345D02*
X51911Y203177D01*
X51195Y202698D01*
X50965Y202355D01*
X50683Y202299D01*
X50345Y202072D01*
X42175Y193903D01*
X41949Y193565D01*
X41870Y193165D01*
X41870Y193165D01*
Y192414D01*
X41352Y192069D01*
X40874Y191352D01*
X40706Y190508D01*
X40874Y189663D01*
X41352Y188946D01*
X42068Y188468D01*
X42913Y188300D01*
X43758Y188468D01*
X44475Y188946D01*
X44953Y189663D01*
X45121Y190508D01*
X44953Y191352D01*
X44475Y192069D01*
X44125Y192302D01*
X44084Y192860D01*
X50836Y199612D01*
X51195Y199576D01*
X51911Y199098D01*
X52756Y198930D01*
X53601Y199098D01*
X54317Y199576D01*
X54795Y200292D01*
X54963Y201137D01*
X54795Y201982D01*
X54317Y202698D01*
X53601Y203177D01*
X52756Y203345D01*
D02*
G37*
G36*
X18494Y200253D02*
Y197725D01*
X21022D01*
X20982Y198026D01*
X20673Y198772D01*
X20181Y199413D01*
X19541Y199904D01*
X18795Y200213D01*
X18494Y200253D01*
D02*
G37*
G36*
X17494D02*
X17193Y200213D01*
X16447Y199904D01*
X15807Y199413D01*
X15315Y198772D01*
X15006Y198026D01*
X14966Y197725D01*
X17494D01*
Y200253D01*
D02*
G37*
G36*
X165983Y263128D02*
X162898D01*
X162230Y263040D01*
X161607Y262782D01*
X161073Y262372D01*
X150143Y251443D01*
X149733Y250908D01*
X149475Y250286D01*
X149387Y249618D01*
Y248381D01*
X149475Y247713D01*
X149733Y247091D01*
X150143Y246556D01*
X150678Y246146D01*
X151300Y245888D01*
X151968Y245800D01*
X152636Y245888D01*
X153259Y246146D01*
X153793Y246556D01*
X154203Y247091D01*
X154461Y247713D01*
X154549Y248381D01*
Y248548D01*
X163967Y257966D01*
X165005D01*
X165147Y257857D01*
X165770Y257599D01*
X166438Y257511D01*
X201884D01*
X222616Y236779D01*
Y204569D01*
X217663Y199616D01*
X217253Y199082D01*
X216995Y198459D01*
X216930Y197962D01*
X216496Y197696D01*
X216407Y197695D01*
X215748Y197826D01*
X215057Y197688D01*
X214471Y197297D01*
X214079Y196711D01*
X213951Y196064D01*
X213910Y195999D01*
X213814Y195934D01*
X213258Y196164D01*
X213228Y196317D01*
X212836Y196903D01*
X212250Y197295D01*
X211559Y197432D01*
X210868Y197295D01*
X210282Y196903D01*
X209890Y196317D01*
X209753Y195626D01*
X209760Y195587D01*
X209354Y195181D01*
X208861Y195395D01*
X208755Y195923D01*
X208364Y196509D01*
X207778Y196901D01*
X207087Y197038D01*
X206811Y196984D01*
X199738Y204057D01*
X199399Y204283D01*
X199000Y204362D01*
X199000Y204362D01*
X198681D01*
X198470Y204756D01*
X198470Y204862D01*
X198602Y205523D01*
X198464Y206214D01*
X198073Y206801D01*
X197487Y207192D01*
X196795Y207330D01*
X196104Y207192D01*
X195518Y206801D01*
X195144Y206240D01*
X195068Y206165D01*
X194641Y206035D01*
X193683Y206994D01*
X193344Y207220D01*
X192945Y207299D01*
X192945Y207299D01*
X144330D01*
X118652Y232978D01*
X118313Y233204D01*
X117914Y233283D01*
X117914Y233283D01*
X116080D01*
X115734Y233801D01*
X115018Y234279D01*
X114173Y234447D01*
X113328Y234279D01*
X112612Y233801D01*
X112133Y233085D01*
X111965Y232240D01*
X112112Y231503D01*
X111864Y231233D01*
X111713Y231141D01*
X110925Y231298D01*
X110080Y231130D01*
X109364Y230651D01*
X108886Y229935D01*
X108791Y229458D01*
X108735Y229391D01*
X108241Y229116D01*
X108071Y229150D01*
X108071Y229150D01*
X106238D01*
X105892Y229667D01*
X105176Y230146D01*
X104331Y230314D01*
X103486Y230146D01*
X102770Y229667D01*
X102291Y228951D01*
X102123Y228106D01*
X102291Y227261D01*
X102471Y226992D01*
X102235Y226551D01*
X99842D01*
X99677Y227376D01*
X99199Y228092D01*
X98483Y228571D01*
X97638Y228739D01*
X96793Y228571D01*
X96077Y228092D01*
X95598Y227376D01*
X95430Y226531D01*
X95598Y225686D01*
X96077Y224970D01*
X95796Y224559D01*
X95121Y225010D01*
X94276Y225179D01*
X93431Y225010D01*
X92714Y224532D01*
X92236Y223816D01*
X92068Y222971D01*
X92236Y222126D01*
X92714Y221410D01*
X93431Y220931D01*
X94276Y220763D01*
X95121Y220931D01*
X95837Y221410D01*
X96154Y221884D01*
X100737Y221759D01*
X109936Y212560D01*
X109690Y212099D01*
X109399Y212157D01*
X102059D01*
X101955Y212313D01*
X101239Y212792D01*
X100394Y212960D01*
X99549Y212792D01*
X98833Y212313D01*
X98354Y211597D01*
X98186Y210752D01*
X98354Y209907D01*
X98833Y209191D01*
X99549Y208712D01*
X100394Y208544D01*
X101239Y208712D01*
X101955Y209191D01*
X102059Y209347D01*
X108817D01*
X121648Y196516D01*
X121611Y196332D01*
X121779Y195487D01*
X122258Y194771D01*
X122974Y194292D01*
X123819Y194124D01*
X124664Y194292D01*
X125380Y194771D01*
X125859Y195487D01*
X125932Y195857D01*
X126475Y196021D01*
X134931Y187565D01*
X134931Y187565D01*
X135270Y187339D01*
X135669Y187259D01*
X135669Y187259D01*
X208031D01*
X208032Y187259D01*
X208431Y187339D01*
X208769Y187565D01*
X209376Y188172D01*
X209706Y188036D01*
X209830Y187918D01*
X209750Y187314D01*
Y158022D01*
X209838Y157354D01*
X210096Y156731D01*
X210506Y156197D01*
X211041Y155787D01*
X211664Y155529D01*
X212332Y155441D01*
X213000Y155529D01*
X213622Y155787D01*
X214157Y156197D01*
X214567Y156731D01*
X214825Y157354D01*
X214913Y158022D01*
Y186244D01*
X221313Y192645D01*
X221724Y193180D01*
X221981Y193802D01*
X222069Y194470D01*
Y196722D01*
X227022Y201675D01*
X227432Y202209D01*
X227690Y202832D01*
X227778Y203500D01*
Y237848D01*
X227690Y238516D01*
X227432Y239139D01*
X227022Y239673D01*
X204778Y261917D01*
X204243Y262327D01*
X203621Y262585D01*
X202953Y262673D01*
X167416D01*
X167273Y262782D01*
X166651Y263040D01*
X165983Y263128D01*
D02*
G37*
G36*
X21022Y196725D02*
X18494D01*
Y194198D01*
X18795Y194237D01*
X19541Y194546D01*
X20181Y195038D01*
X20673Y195679D01*
X20982Y196425D01*
X21022Y196725D01*
D02*
G37*
G36*
X17494D02*
X14966D01*
X15006Y196425D01*
X15315Y195679D01*
X15807Y195038D01*
X16447Y194546D01*
X17193Y194237D01*
X17494Y194198D01*
Y196725D01*
D02*
G37*
G36*
X7984Y193387D02*
X5974D01*
Y190383D01*
X10258D01*
Y191113D01*
X10085Y191983D01*
X9592Y192721D01*
X8854Y193214D01*
X7984Y193387D01*
D02*
G37*
G36*
X4974D02*
X2964D01*
X2094Y193214D01*
X1357Y192721D01*
X864Y191983D01*
X690Y191113D01*
Y190383D01*
X4974D01*
Y193387D01*
D02*
G37*
G36*
X10258Y189383D02*
X5974D01*
Y186378D01*
X7984D01*
X8854Y186551D01*
X9592Y187045D01*
X10085Y187782D01*
X10258Y188652D01*
Y189383D01*
D02*
G37*
G36*
X4974D02*
X690D01*
Y188652D01*
X864Y187782D01*
X1357Y187045D01*
X2094Y186551D01*
X2964Y186378D01*
X4974D01*
Y189383D01*
D02*
G37*
G36*
X44685Y219684D02*
X43840Y219516D01*
X43124Y219037D01*
X42645Y218321D01*
X42477Y217476D01*
X42645Y216631D01*
X43124Y215915D01*
X43840Y215437D01*
X44685Y215268D01*
X45343Y215399D01*
X68385Y192357D01*
X68711Y192140D01*
X69095Y192063D01*
X70507D01*
X70880Y191506D01*
X71596Y191027D01*
X72441Y190859D01*
X73286Y191027D01*
X74002Y191506D01*
X74481Y192222D01*
X74649Y193067D01*
X74566Y193483D01*
X75027Y193729D01*
X87845Y180911D01*
X87845Y180911D01*
X88183Y180685D01*
X88583Y180606D01*
X88583Y180606D01*
X191611D01*
X192933Y179283D01*
X192879Y179007D01*
X193016Y178316D01*
X193408Y177730D01*
X193994Y177338D01*
X194685Y177201D01*
X195376Y177338D01*
X195962Y177730D01*
X196354Y178316D01*
X196491Y179007D01*
X196354Y179698D01*
X195962Y180284D01*
X195376Y180676D01*
X194685Y180814D01*
X194410Y180759D01*
X192781Y182387D01*
X192442Y182614D01*
X192043Y182693D01*
X192043Y182693D01*
X100957D01*
X100806Y183193D01*
X101167Y183435D01*
X101646Y184151D01*
X101814Y184996D01*
X101766Y185239D01*
X102119Y185592D01*
X102362Y185544D01*
X103207Y185712D01*
X103923Y186190D01*
X104402Y186907D01*
X104570Y187752D01*
X104402Y188596D01*
X103923Y189313D01*
X103207Y189791D01*
X102362Y189959D01*
X102178Y189923D01*
X82486Y209614D01*
X82522Y209799D01*
X82354Y210644D01*
X81876Y211360D01*
X81160Y211839D01*
X80315Y212006D01*
X79470Y211839D01*
X78754Y211360D01*
X78275Y210644D01*
X78158Y210053D01*
X77636Y209800D01*
X77420Y209945D01*
X76575Y210113D01*
X75730Y209945D01*
X75014Y209466D01*
X74535Y208750D01*
X74367Y207905D01*
X74535Y207060D01*
X75014Y206344D01*
X75730Y205865D01*
X76575Y205697D01*
X76759Y205734D01*
X77695Y204798D01*
X77578Y204208D01*
X77158Y204034D01*
X76512Y203539D01*
X76017Y202893D01*
X75705Y202141D01*
X75599Y201334D01*
X75705Y200528D01*
X76017Y199776D01*
X76512Y199130D01*
X77158Y198635D01*
X77910Y198323D01*
X78716Y198217D01*
X79523Y198323D01*
X80275Y198635D01*
X80921Y199130D01*
X81416Y199776D01*
X81590Y200196D01*
X82180Y200313D01*
X97415Y185078D01*
X97399Y184996D01*
X97567Y184151D01*
X98045Y183435D01*
X98407Y183193D01*
X98255Y182693D01*
X89015D01*
X72011Y199697D01*
X72034Y199931D01*
X72512Y200647D01*
X72680Y201492D01*
X72512Y202337D01*
X72034Y203053D01*
X71317Y203532D01*
X70472Y203700D01*
X69627Y203532D01*
X69360Y203352D01*
X69207Y203322D01*
X68868Y203096D01*
X68642Y202757D01*
X68612Y202605D01*
X68433Y202337D01*
X68265Y201492D01*
X68433Y200647D01*
X68911Y199931D01*
X69469Y199558D01*
X69508Y199360D01*
X69734Y199022D01*
X73104Y195652D01*
X72857Y195192D01*
X72441Y195274D01*
X71596Y195106D01*
X70880Y194628D01*
X70507Y194070D01*
X69510D01*
X46762Y216818D01*
X46893Y217476D01*
X46725Y218321D01*
X46246Y219037D01*
X45530Y219516D01*
X44685Y219684D01*
D02*
G37*
G36*
X129528Y177164D02*
X128683Y176996D01*
X127966Y176518D01*
X127488Y175801D01*
X127320Y174957D01*
X127488Y174112D01*
X127966Y173395D01*
X128683Y172917D01*
X129528Y172749D01*
X130372Y172917D01*
X131089Y173395D01*
X131567Y174112D01*
X131735Y174957D01*
X131567Y175801D01*
X131089Y176518D01*
X130372Y176996D01*
X129528Y177164D01*
D02*
G37*
G36*
X54331Y174802D02*
X53486Y174634D01*
X52770Y174155D01*
X52291Y173439D01*
X52123Y172594D01*
X52291Y171749D01*
X52770Y171033D01*
X53486Y170555D01*
X54331Y170387D01*
X55176Y170555D01*
X55892Y171033D01*
X56370Y171749D01*
X56538Y172594D01*
X56370Y173439D01*
X55892Y174155D01*
X55176Y174634D01*
X54331Y174802D01*
D02*
G37*
G36*
X85826Y181298D02*
X84982Y181130D01*
X84265Y180651D01*
X83787Y179935D01*
X83619Y179090D01*
X83787Y178245D01*
X84265Y177529D01*
X84982Y177050D01*
X85826Y176882D01*
X86668Y177050D01*
X89164Y174554D01*
X89620Y174249D01*
X90158Y174142D01*
X104022D01*
X108178Y169985D01*
X107914Y169543D01*
X107205Y169684D01*
X106360Y169516D01*
X105644Y169037D01*
X105165Y168321D01*
X104997Y167476D01*
X105165Y166631D01*
X105644Y165915D01*
X105800Y165811D01*
Y161787D01*
X105907Y161250D01*
X106211Y160794D01*
X108062Y158943D01*
X119634Y147371D01*
X119400Y146898D01*
X118780Y146979D01*
X117842Y146856D01*
X116969Y146494D01*
X116219Y145919D01*
X115643Y145169D01*
X115281Y144295D01*
X115158Y143358D01*
Y141358D01*
X115281Y140421D01*
X115643Y139547D01*
X116219Y138797D01*
X116969Y138222D01*
X117842Y137860D01*
X118780Y137736D01*
X119717Y137860D01*
X120590Y138222D01*
X121253Y138730D01*
X121753Y138587D01*
Y137980D01*
X121859Y137442D01*
X122164Y136987D01*
X125232Y133919D01*
X125158Y133358D01*
Y131358D01*
X125281Y130421D01*
X125643Y129547D01*
X126219Y128797D01*
X126969Y128222D01*
X127842Y127860D01*
X128779Y127736D01*
X129717Y127860D01*
X130590Y128222D01*
X131340Y128797D01*
X131916Y129547D01*
X132278Y130421D01*
X132401Y131358D01*
Y133358D01*
X132278Y134295D01*
X131916Y135169D01*
X131340Y135919D01*
X130590Y136494D01*
X129717Y136856D01*
X128779Y136979D01*
X127842Y136856D01*
X126969Y136494D01*
X126777Y136347D01*
X124562Y138562D01*
Y145835D01*
X124455Y146372D01*
X124151Y146828D01*
X110049Y160930D01*
X108610Y162369D01*
Y165811D01*
X108766Y165915D01*
X109244Y166631D01*
X109412Y167476D01*
X109271Y168185D01*
X109714Y168450D01*
X119786Y158378D01*
X120242Y158073D01*
X120780Y157966D01*
X121136D01*
X126381Y152721D01*
Y146044D01*
X126219Y145919D01*
X125643Y145169D01*
X125281Y144295D01*
X125158Y143358D01*
Y141358D01*
X125281Y140421D01*
X125643Y139547D01*
X126219Y138797D01*
X126969Y138222D01*
X127842Y137860D01*
X128779Y137736D01*
X129717Y137860D01*
X130590Y138222D01*
X131340Y138797D01*
X131916Y139547D01*
X132278Y140421D01*
X132401Y141358D01*
Y143358D01*
X132278Y144295D01*
X131916Y145169D01*
X131340Y145919D01*
X130590Y146494D01*
X129717Y146856D01*
X129191Y146925D01*
Y152495D01*
X129653Y152687D01*
X135012Y147327D01*
Y129082D01*
X131702Y125771D01*
X127354D01*
X122327Y130797D01*
X122401Y131358D01*
Y133358D01*
X122278Y134295D01*
X121916Y135169D01*
X121340Y135919D01*
X120590Y136494D01*
X119717Y136856D01*
X118780Y136979D01*
X117842Y136856D01*
X116969Y136494D01*
X116219Y135919D01*
X115643Y135169D01*
X115281Y134295D01*
X115158Y133358D01*
Y131358D01*
X115281Y130421D01*
X115643Y129547D01*
X116219Y128797D01*
X116969Y128222D01*
X117842Y127860D01*
X118780Y127736D01*
X119717Y127860D01*
X120590Y128222D01*
X120782Y128369D01*
X125778Y123372D01*
X126234Y123068D01*
X126772Y122961D01*
X132283D01*
X132821Y123068D01*
X133277Y123372D01*
X137411Y127506D01*
X137715Y127962D01*
X137822Y128500D01*
Y147909D01*
X137715Y148447D01*
X137411Y148903D01*
X112329Y173985D01*
X112365Y174169D01*
X112197Y175014D01*
X111719Y175730D01*
X111002Y176209D01*
X110157Y176377D01*
X109313Y176209D01*
X108596Y175730D01*
X108118Y175014D01*
X108056Y174705D01*
X107578Y174560D01*
X105597Y176541D01*
X105141Y176845D01*
X104604Y176952D01*
X90739D01*
X87894Y179798D01*
X87866Y179935D01*
X87388Y180651D01*
X86671Y181130D01*
X85826Y181298D01*
D02*
G37*
G36*
X162992Y164688D02*
X162185Y164582D01*
X161433Y164270D01*
X160788Y163775D01*
X160292Y163129D01*
X159981Y162377D01*
X159875Y161571D01*
X159981Y160764D01*
X160292Y160012D01*
X160788Y159366D01*
X161433Y158871D01*
X162185Y158560D01*
X162992Y158453D01*
X163799Y158560D01*
X164551Y158871D01*
X165196Y159366D01*
X165692Y160012D01*
X166003Y160764D01*
X166109Y161571D01*
X166003Y162377D01*
X165692Y163129D01*
X165196Y163775D01*
X164551Y164270D01*
X163799Y164582D01*
X162992Y164688D01*
D02*
G37*
G36*
X178543Y165082D02*
X177736Y164975D01*
X176985Y164664D01*
X176339Y164169D01*
X175844Y163523D01*
X175532Y162771D01*
X175426Y161964D01*
X175532Y161158D01*
X175844Y160406D01*
X176339Y159760D01*
X176985Y159265D01*
X177736Y158953D01*
X178225Y158889D01*
X178369Y158870D01*
Y158366D01*
X178225Y158347D01*
X177736Y158282D01*
X176985Y157971D01*
X176339Y157476D01*
X175844Y156830D01*
X175532Y156078D01*
X175426Y155271D01*
X175532Y154465D01*
X175844Y153713D01*
X176339Y153067D01*
X176985Y152572D01*
X177736Y152260D01*
X178543Y152154D01*
X179350Y152260D01*
X180102Y152572D01*
X180747Y153067D01*
X181243Y153713D01*
X181554Y154465D01*
X181660Y155271D01*
X181554Y156078D01*
X181243Y156830D01*
X180747Y157476D01*
X180102Y157971D01*
X179350Y158282D01*
X178862Y158347D01*
X178717Y158366D01*
Y158870D01*
X178862Y158889D01*
X179350Y158953D01*
X180102Y159265D01*
X180747Y159760D01*
X181243Y160406D01*
X181554Y161158D01*
X181660Y161964D01*
X181554Y162771D01*
X181243Y163523D01*
X180747Y164169D01*
X180102Y164664D01*
X179350Y164975D01*
X178543Y165082D01*
D02*
G37*
G36*
X170473D02*
X169666Y164975D01*
X168914Y164664D01*
X168268Y164169D01*
X167773Y163523D01*
X167461Y162771D01*
X167355Y161964D01*
X167461Y161158D01*
X167773Y160406D01*
X168268Y159760D01*
X168914Y159265D01*
X169666Y158953D01*
X170245Y158877D01*
X170397Y158857D01*
Y158353D01*
X170263Y158335D01*
X169862Y158282D01*
X169111Y157971D01*
X168465Y157476D01*
X167970Y156830D01*
X167658Y156078D01*
X167552Y155271D01*
X167658Y154465D01*
X167970Y153713D01*
X168465Y153067D01*
X169111Y152572D01*
X169862Y152260D01*
X170669Y152154D01*
X171476Y152260D01*
X172228Y152572D01*
X172873Y153067D01*
X173369Y153713D01*
X173680Y154465D01*
X173786Y155271D01*
X173680Y156078D01*
X173369Y156830D01*
X172873Y157476D01*
X172228Y157971D01*
X171476Y158282D01*
X170897Y158359D01*
X170745Y158379D01*
Y158883D01*
X170879Y158901D01*
X171279Y158953D01*
X172031Y159265D01*
X172677Y159760D01*
X173172Y160406D01*
X173483Y161158D01*
X173590Y161964D01*
X173483Y162771D01*
X173172Y163523D01*
X172677Y164169D01*
X172031Y164664D01*
X171279Y164975D01*
X170473Y165082D01*
D02*
G37*
G36*
X88386Y150499D02*
X87579Y150393D01*
X86827Y150081D01*
X86182Y149586D01*
X85686Y148940D01*
X85375Y148188D01*
X85269Y147382D01*
X85375Y146575D01*
X85686Y145823D01*
X86182Y145177D01*
X86827Y144682D01*
X87579Y144371D01*
X88386Y144264D01*
X89193Y144371D01*
X89944Y144682D01*
X90590Y145177D01*
X91085Y145823D01*
X91397Y146575D01*
X91503Y147382D01*
X91397Y148188D01*
X91085Y148940D01*
X90590Y149586D01*
X89944Y150081D01*
X89193Y150393D01*
X88386Y150499D01*
D02*
G37*
G36*
X61456D02*
X60649Y150393D01*
X59898Y150081D01*
X59252Y149586D01*
X58757Y148940D01*
X58445Y148188D01*
X58339Y147382D01*
X58445Y146575D01*
X58757Y145823D01*
X59252Y145177D01*
X59898Y144682D01*
X60649Y144371D01*
X61456Y144264D01*
X62263Y144371D01*
X63015Y144682D01*
X63661Y145177D01*
X64156Y145823D01*
X64467Y146575D01*
X64574Y147382D01*
X64467Y148188D01*
X64156Y148940D01*
X63661Y149586D01*
X63015Y150081D01*
X62263Y150393D01*
X61456Y150499D01*
D02*
G37*
G36*
X51968Y196456D02*
X51124Y196288D01*
X50407Y195809D01*
X49929Y195093D01*
X49761Y194248D01*
X49929Y193403D01*
X50407Y192687D01*
X51124Y192208D01*
X51968Y192040D01*
X52579Y192161D01*
X90601Y154140D01*
X90601Y154140D01*
X90939Y153913D01*
X91339Y153834D01*
X91339Y153834D01*
X94253D01*
X98081Y150006D01*
X98420Y149780D01*
X98819Y149700D01*
X103308D01*
X106443Y146565D01*
X106410Y146066D01*
X106219Y145919D01*
X105643Y145169D01*
X105281Y144295D01*
X105158Y143358D01*
Y141358D01*
X105281Y140421D01*
X105643Y139547D01*
X106219Y138797D01*
X106969Y138222D01*
X107842Y137860D01*
X108780Y137736D01*
X109717Y137860D01*
X110590Y138222D01*
X111259Y138735D01*
X111759Y138599D01*
Y138409D01*
X111759Y138409D01*
X111787Y138272D01*
Y136447D01*
X111294Y135954D01*
X110590Y136494D01*
X109717Y136856D01*
X108780Y136979D01*
X107842Y136856D01*
X106969Y136494D01*
X106219Y135919D01*
X105643Y135169D01*
X105281Y134295D01*
X105158Y133358D01*
Y131358D01*
X105281Y130421D01*
X105643Y129547D01*
X106219Y128797D01*
X106969Y128222D01*
X107842Y127860D01*
X108780Y127736D01*
X109717Y127860D01*
X110590Y128222D01*
X111340Y128797D01*
X111916Y129547D01*
X112278Y130421D01*
X112401Y131358D01*
Y133358D01*
X112313Y134026D01*
X112375Y134088D01*
X112388Y134097D01*
X113568Y135277D01*
X113568Y135277D01*
X113795Y135616D01*
X113874Y136015D01*
Y138382D01*
X113847Y138518D01*
Y145025D01*
X113847Y145025D01*
X113767Y145424D01*
X113541Y145763D01*
X113541Y145763D01*
X111184Y148120D01*
X110845Y148346D01*
X110446Y148425D01*
X110446Y148425D01*
X109595D01*
X105081Y152938D01*
X104743Y153165D01*
X104343Y153244D01*
X104343Y153244D01*
X99855D01*
X96026Y157072D01*
X95688Y157299D01*
X95315Y157373D01*
X66666Y186022D01*
X66775Y186571D01*
X66607Y187416D01*
X66128Y188132D01*
X65412Y188610D01*
X64567Y188778D01*
X63722Y188610D01*
X63006Y188132D01*
X62527Y187416D01*
X62359Y186571D01*
X62491Y185909D01*
X62030Y185662D01*
X54055Y193637D01*
X54176Y194248D01*
X54008Y195093D01*
X53530Y195809D01*
X52813Y196288D01*
X51968Y196456D01*
D02*
G37*
G36*
X159843Y370217D02*
X158998Y370049D01*
X158281Y369571D01*
X157803Y368854D01*
X157635Y368010D01*
X157765Y367352D01*
X32077Y241663D01*
X31859Y241338D01*
X31783Y240954D01*
Y240387D01*
X31225Y240014D01*
X30747Y239298D01*
X30579Y238453D01*
X30747Y237608D01*
X31225Y236892D01*
X31942Y236414D01*
X32787Y236245D01*
X33387Y236365D01*
X33633Y235904D01*
X22683Y224954D01*
X22273Y224419D01*
X22015Y223796D01*
X21927Y223128D01*
Y212461D01*
X21916Y212435D01*
X21828Y211767D01*
X21916Y211099D01*
X21927Y211074D01*
Y207634D01*
Y165409D01*
X22015Y164741D01*
X22273Y164119D01*
X22683Y163584D01*
X35675Y150592D01*
X35675Y150592D01*
X55734Y130533D01*
X56269Y130123D01*
X56891Y129865D01*
X57559Y129777D01*
X95548D01*
X95643Y129547D01*
X96219Y128797D01*
X96969Y128222D01*
X97842Y127860D01*
X98779Y127736D01*
X99717Y127860D01*
X100590Y128222D01*
X101340Y128797D01*
X101916Y129547D01*
X102278Y130421D01*
X102401Y131358D01*
Y133358D01*
X102278Y134295D01*
X101916Y135169D01*
X101340Y135919D01*
X100590Y136494D01*
X99717Y136856D01*
X98779Y136979D01*
X97842Y136856D01*
X96969Y136494D01*
X96219Y135919D01*
X95643Y135169D01*
X95548Y134939D01*
X58628D01*
X39325Y154242D01*
X39325Y154242D01*
X27089Y166478D01*
Y202494D01*
X31496D01*
X32164Y202581D01*
X32787Y202839D01*
X33321Y203250D01*
X33731Y203784D01*
X33989Y204406D01*
X34077Y205075D01*
X33989Y205743D01*
X33731Y206365D01*
X33321Y206900D01*
X32787Y207310D01*
X32164Y207568D01*
X31496Y207656D01*
X28136D01*
X27089Y208703D01*
Y211669D01*
X27076Y211767D01*
X27089Y211866D01*
Y222059D01*
X92460Y287430D01*
X92897Y287611D01*
X93543Y288107D01*
X94038Y288752D01*
X94219Y289190D01*
X126628Y321599D01*
X127039Y322133D01*
X127050Y322161D01*
X127078Y322173D01*
X127612Y322583D01*
X167366Y362336D01*
X186811D01*
X187479Y362424D01*
X188102Y362682D01*
X188636Y363092D01*
X189046Y363627D01*
X189304Y364249D01*
X189392Y364917D01*
X189304Y365585D01*
X189046Y366208D01*
X188636Y366742D01*
X188102Y367152D01*
X187479Y367410D01*
X186811Y367498D01*
X166297D01*
X165629Y367410D01*
X165006Y367152D01*
X164471Y366742D01*
X123962Y326233D01*
X123552Y325698D01*
X123540Y325671D01*
X123513Y325659D01*
X122978Y325249D01*
X91130Y293401D01*
X90532Y293322D01*
X89780Y293010D01*
X89134Y292515D01*
X88639Y291869D01*
X88328Y291118D01*
X88249Y290520D01*
X35336Y237607D01*
X34875Y237853D01*
X34994Y238453D01*
X34826Y239298D01*
X34348Y240014D01*
X34113Y240172D01*
X34057Y240805D01*
X159185Y365933D01*
X159843Y365802D01*
X160687Y365970D01*
X161404Y366448D01*
X161882Y367165D01*
X162050Y368010D01*
X161882Y368854D01*
X161404Y369571D01*
X160687Y370049D01*
X159843Y370217D01*
D02*
G37*
G36*
X20921Y113480D02*
X10579D01*
Y109831D01*
X20921D01*
Y113480D01*
D02*
G37*
G36*
X264618D02*
X254276D01*
Y109831D01*
X264618D01*
Y113480D01*
D02*
G37*
G36*
Y108831D02*
X254276D01*
Y105181D01*
X264618D01*
Y108831D01*
D02*
G37*
G36*
X20921Y108831D02*
X10579D01*
Y105181D01*
X20921D01*
Y108831D01*
D02*
G37*
G36*
X232283Y100633D02*
X231439Y100465D01*
X230722Y99986D01*
X230244Y99270D01*
X230076Y98425D01*
X230244Y97580D01*
X230722Y96864D01*
X231439Y96386D01*
X232283Y96217D01*
X233128Y96386D01*
X233845Y96864D01*
X234323Y97580D01*
X234491Y98425D01*
X234323Y99270D01*
X233845Y99986D01*
X233128Y100465D01*
X232283Y100633D01*
D02*
G37*
G36*
X47244D02*
X46399Y100465D01*
X45683Y99986D01*
X45204Y99270D01*
X45036Y98425D01*
X45204Y97580D01*
X45683Y96864D01*
X46399Y96386D01*
X47244Y96217D01*
X48089Y96386D01*
X48805Y96864D01*
X49284Y97580D01*
X49452Y98425D01*
X49284Y99270D01*
X48805Y99986D01*
X48089Y100465D01*
X47244Y100633D01*
D02*
G37*
G36*
X20921Y91669D02*
X10579D01*
Y88020D01*
X20921D01*
Y91669D01*
D02*
G37*
G36*
X264618D02*
X254276D01*
Y88020D01*
X264618D01*
Y91669D01*
D02*
G37*
G36*
Y87020D02*
X254276D01*
Y83370D01*
X264618D01*
Y87020D01*
D02*
G37*
G36*
X20921Y87020D02*
X10579D01*
Y83370D01*
X20921D01*
Y87020D01*
D02*
G37*
%LPD*%
G36*
X140277Y205366D02*
X140086Y205081D01*
X139918Y204236D01*
X140086Y203391D01*
X140565Y202675D01*
X141281Y202196D01*
X142126Y202028D01*
X142971Y202196D01*
X143687Y202675D01*
X144165Y203391D01*
X144334Y204236D01*
X144239Y204712D01*
X144633Y205212D01*
X179185D01*
X179246Y205128D01*
X179127Y204449D01*
X178983Y204352D01*
X178591Y203766D01*
X178454Y203075D01*
X178591Y202383D01*
X178983Y201797D01*
X179569Y201406D01*
X180260Y201268D01*
X180951Y201406D01*
X181537Y201797D01*
X181929Y202383D01*
X182066Y203075D01*
X181929Y203766D01*
X181537Y204352D01*
X181393Y204449D01*
X181273Y205128D01*
X181334Y205212D01*
X192513D01*
X195144Y202581D01*
X195144Y202581D01*
X195483Y202354D01*
X195882Y202275D01*
X198568D01*
X202745Y198098D01*
X202581Y197555D01*
X202261Y197492D01*
X201676Y197100D01*
X201519Y196866D01*
X192978D01*
X192969Y196875D01*
X192630Y197102D01*
X192231Y197181D01*
X192231Y197181D01*
X140472D01*
X111221Y226432D01*
X111386Y226974D01*
X111770Y227051D01*
X112486Y227529D01*
X112832Y228047D01*
X117597D01*
X140277Y205366D01*
D02*
G37*
G36*
X211317Y193737D02*
X211499Y193247D01*
X207599Y189347D01*
X174733D01*
X174498Y189788D01*
X174678Y190057D01*
X174846Y190901D01*
X174958Y191039D01*
X188644D01*
X188990Y190521D01*
X189706Y190043D01*
X190551Y189874D01*
X191396Y190043D01*
X192112Y190521D01*
X192591Y191237D01*
X192654Y191555D01*
X193133Y191700D01*
X193488Y191344D01*
X193488Y191344D01*
X193826Y191118D01*
X194226Y191039D01*
X207732D01*
X207732Y191039D01*
X208131Y191118D01*
X208470Y191344D01*
X210936Y193811D01*
X211317Y193737D01*
D02*
G37*
G36*
X98661Y224464D02*
X107757D01*
X139420Y192801D01*
X139758Y192575D01*
X140158Y192495D01*
X140158Y192495D01*
X170497D01*
X170765Y191995D01*
X170598Y191746D01*
X170430Y190901D01*
X170598Y190057D01*
X170778Y189788D01*
X170542Y189347D01*
X136102D01*
X101919Y223529D01*
X101762Y223634D01*
X101607Y223744D01*
X101593Y223747D01*
X101581Y223755D01*
X101395Y223792D01*
X101210Y223834D01*
X98641Y223904D01*
X98503Y224408D01*
X98609Y224475D01*
X98661Y224464D01*
D02*
G37*
G36*
X100191Y187936D02*
X100154Y187752D01*
X100202Y187509D01*
X99849Y187155D01*
X99606Y187204D01*
X99320Y187147D01*
X83999Y202467D01*
Y202941D01*
X83893Y203478D01*
X83794Y203625D01*
X84183Y203944D01*
X100191Y187936D01*
D02*
G37*
G36*
X93353Y156383D02*
X93161Y155921D01*
X91771D01*
X63658Y184034D01*
X63905Y184495D01*
X64567Y184363D01*
X65239Y184497D01*
X93353Y156383D01*
D02*
G37*
D12*
X99484Y184996D02*
X99606D01*
X82595Y201885D02*
X99484Y184996D01*
X90158Y175547D02*
X104604D01*
X86614Y179090D02*
X90158Y175547D01*
X104604D02*
X120780Y159371D01*
X121718D01*
X127786Y153303D01*
Y144351D02*
Y153303D01*
Y144351D02*
X128779Y143358D01*
X136417Y128500D02*
Y147909D01*
X110157Y174169D02*
X136417Y147909D01*
X123157Y137980D02*
Y145835D01*
X109055Y159937D02*
X123157Y145835D01*
X107205Y161787D02*
X109055Y159937D01*
X107205Y161787D02*
Y167476D01*
X85826Y179090D02*
X86614D01*
X100394Y210752D02*
X109399D01*
X123819Y196332D01*
X80315Y209799D02*
X102362Y187752D01*
X128779Y142358D02*
Y143358D01*
X132283Y124366D02*
X136417Y128500D01*
X126772Y124366D02*
X132283D01*
X118780Y132358D02*
X126772Y124366D01*
X123157Y137980D02*
X128779Y132358D01*
X82595Y201885D02*
Y202941D01*
X80323Y205212D02*
X82595Y202941D01*
X79267Y205212D02*
X80323D01*
X76575Y207905D02*
X79267Y205212D01*
D13*
X239173Y267279D02*
Y308027D01*
X94276Y222980D02*
X101181Y222791D01*
X94011Y222987D02*
X94276Y222980D01*
X192043Y181649D02*
X194685Y179007D01*
X88583Y181649D02*
X192043D01*
X70472Y199760D02*
X88583Y181649D01*
X141955Y276193D02*
X145669D01*
X123672Y260626D02*
X126388D01*
X124170Y262082D02*
X139357Y277269D01*
X126388Y260626D02*
X141955Y276193D01*
X123068Y262082D02*
X124170D01*
X120693Y259707D02*
X123068Y262082D01*
X120693Y258606D02*
Y259707D01*
X104004Y241917D02*
X120693Y258606D01*
X122150Y259104D02*
X123672Y260626D01*
X122150Y257370D02*
Y259104D01*
X100366Y235586D02*
X122150Y257370D01*
X90575Y235586D02*
X100366D01*
X135669Y188303D02*
X208032D01*
X148622Y239327D02*
X152362Y243067D01*
X134252Y240114D02*
X147835D01*
X148622Y239327D01*
X174287Y192082D02*
X190551D01*
X172742Y194681D02*
X191628D01*
X140040Y196137D02*
X192231D01*
X173106Y190901D02*
X174287Y192082D01*
X191628Y194681D02*
X194226Y192083D01*
X192231Y196137D02*
X192546Y195823D01*
X202953D01*
X208032Y188303D02*
X215748Y196019D01*
X98661Y225508D02*
X108189D01*
X97638Y226531D02*
X98661Y225508D01*
X117914Y232240D02*
X143898Y206256D01*
X114173Y232240D02*
X117914D01*
X79866Y224877D02*
X90575Y235586D01*
X94011Y222987D02*
X94276Y222971D01*
X101181Y222791D02*
X135669Y188303D01*
X81528Y241917D02*
X104004D01*
X60236Y220626D02*
X81528Y241917D01*
X142340Y204779D02*
X142421D01*
X118029Y229090D02*
X142340Y204779D01*
X110925Y229090D02*
X118029D01*
X108071Y228106D02*
X140040Y196137D01*
X104331Y228106D02*
X108071D01*
X108189Y225508D02*
X140158Y193539D01*
X171601D01*
X51280Y201137D02*
X52756D01*
X51083Y201334D02*
X51280Y201137D01*
X42913Y193165D02*
X51083Y201334D01*
X110446Y147382D02*
X112803Y145025D01*
X109162Y147382D02*
X110446D01*
X112803Y138409D02*
X112830Y138382D01*
X111650Y134835D02*
X112830Y136015D01*
Y138382D01*
X111646Y134835D02*
X111650D01*
X108780Y132358D02*
X109169D01*
X111646Y134835D01*
X112803Y138409D02*
Y145025D01*
X104343Y152200D02*
X109162Y147382D01*
X107797Y143340D02*
Y146687D01*
X103740Y150744D02*
X107797Y146687D01*
X98819Y150744D02*
X103740D01*
X107797Y143340D02*
X108780Y142358D01*
X99422Y152200D02*
X104343D01*
X95288Y156334D02*
X99422Y152200D01*
X94685Y154878D02*
X98819Y150744D01*
X94877Y156334D02*
X95288D01*
X64641Y186571D02*
X94877Y156334D01*
X91339Y154878D02*
X94685D01*
X64567Y186571D02*
X64641D01*
X51968Y194248D02*
X91339Y154878D01*
X54331Y172594D02*
Y172692D01*
X69606Y202358D02*
X70472Y201492D01*
Y199760D02*
Y201492D01*
X199000Y203319D02*
X207087Y195232D01*
X211275Y195626D02*
X211559D01*
X207732Y192083D02*
X211275Y195626D01*
X194226Y192083D02*
X207732D01*
X171601Y193539D02*
X172742Y194681D01*
X172638Y190901D02*
X173106D01*
X143898Y206256D02*
X192945D01*
X195882Y203319D01*
X199000D01*
X42913Y190508D02*
Y193165D01*
D54*
X265118Y87520D02*
D03*
Y109331D02*
D03*
X10079Y261693D02*
D03*
Y239882D02*
D03*
X10258Y313126D02*
D03*
Y291315D02*
D03*
X265118Y250118D02*
D03*
Y271929D02*
D03*
X10079Y359269D02*
D03*
Y337458D02*
D03*
Y109331D02*
D03*
Y87520D02*
D03*
D61*
X32787Y240954D02*
X159843Y368010D01*
X32787Y238453D02*
Y240954D01*
X54921Y219087D02*
X92714Y256880D01*
Y284600D02*
X130512Y322397D01*
X92714Y256880D02*
Y284600D01*
X222133Y325067D02*
X239173Y308027D01*
X222133Y325067D02*
Y336933D01*
X130512Y322397D02*
X218898D01*
X150394Y235193D02*
X158426Y243225D01*
X131102Y235193D02*
X150394D01*
X158426Y243225D02*
X161221D01*
X54921Y213244D02*
Y219087D01*
X44685Y217476D02*
X69095Y193067D01*
X72441D01*
X199409Y237555D02*
X200929Y239075D01*
X175197Y237555D02*
X199409D01*
X200929Y239075D02*
Y246185D01*
X171992Y234350D02*
X175197Y237555D01*
X171992Y224138D02*
Y234350D01*
X170024Y222169D02*
X171992Y224138D01*
D63*
X24508Y223128D02*
X91514Y290135D01*
X24508Y211866D02*
Y223128D01*
X91514Y290135D02*
X124803Y323424D01*
X166297Y364917D02*
X186811D01*
X225197Y203500D02*
Y237848D01*
X202953Y260092D02*
X225197Y237848D01*
X219488Y197791D02*
X225197Y203500D01*
X219488Y194470D02*
Y197791D01*
X212332Y187314D02*
X219488Y194470D01*
X212332Y158022D02*
Y187314D01*
X24508Y165409D02*
Y207634D01*
X24409Y211767D02*
X24508Y211866D01*
X166438Y260092D02*
X202953D01*
X165983Y260547D02*
X166438Y260092D01*
X162898Y260547D02*
X165983D01*
X151968Y249618D02*
X162898Y260547D01*
X151968Y248381D02*
Y249618D01*
X24508Y207634D02*
Y211669D01*
Y207634D02*
X27067Y205075D01*
X31496D01*
X37500Y152417D02*
X57559Y132358D01*
X98779D01*
X24508Y165409D02*
X37500Y152417D01*
X125787Y324408D02*
X166297Y364917D01*
X24409Y211767D02*
X24508Y211669D01*
D108*
X5474Y189883D02*
D03*
Y222087D02*
D03*
D109*
X17994Y214745D02*
D03*
X17994Y197225D02*
D03*
D110*
X255906Y19685D02*
D03*
X19685D02*
D03*
X255906Y374016D02*
D03*
X19685D02*
D03*
D111*
X98779Y142358D02*
D03*
D112*
Y132358D02*
D03*
X108780Y142358D02*
D03*
Y132358D02*
D03*
X118780Y142358D02*
D03*
Y132358D02*
D03*
X128779Y142358D02*
D03*
Y132358D02*
D03*
D113*
X206835Y275208D02*
D03*
X202512Y291886D02*
D03*
X205660Y286375D02*
D03*
X208809D02*
D03*
Y283619D02*
D03*
X205660D02*
D03*
Y289131D02*
D03*
X208809D02*
D03*
Y291886D02*
D03*
X202510Y283619D02*
D03*
Y286375D02*
D03*
X205660Y291886D02*
D03*
X202512Y288963D02*
D03*
X211959Y291886D02*
D03*
Y286375D02*
D03*
Y289131D02*
D03*
Y283619D02*
D03*
X85039Y273720D02*
D03*
X81496D02*
D03*
X76378Y251218D02*
D03*
X81496Y259782D02*
D03*
Y265293D02*
D03*
Y262537D02*
D03*
Y268048D02*
D03*
X72215Y265126D02*
D03*
X75197Y268048D02*
D03*
X72047Y262537D02*
D03*
Y259782D02*
D03*
X78347Y268048D02*
D03*
Y265293D02*
D03*
X75197D02*
D03*
Y259782D02*
D03*
X78347D02*
D03*
Y262537D02*
D03*
X75197D02*
D03*
X77362Y296457D02*
D03*
X77362Y305118D02*
D03*
Y302362D02*
D03*
Y307874D02*
D03*
X84350Y318896D02*
D03*
Y316142D02*
D03*
Y310630D02*
D03*
Y313386D02*
D03*
X70276Y318896D02*
D03*
Y316142D02*
D03*
Y310630D02*
D03*
Y313386D02*
D03*
X75732D02*
D03*
X79150D02*
D03*
Y310630D02*
D03*
X75732D02*
D03*
Y316142D02*
D03*
X79150D02*
D03*
Y318896D02*
D03*
X75732D02*
D03*
D114*
X243110Y289327D02*
D03*
Y284602D02*
D03*
X180315Y228697D02*
D03*
X185039D02*
D03*
X189764D02*
D03*
X180315Y223972D02*
D03*
X185039D02*
D03*
X189764D02*
D03*
X180315Y219248D02*
D03*
X185039D02*
D03*
X189764D02*
D03*
D115*
X19089Y228948D02*
D03*
X24409Y245215D02*
D03*
Y255451D02*
D03*
Y236706D02*
D03*
X10214Y232710D02*
D03*
X24409Y264506D02*
D03*
X10214Y268048D02*
D03*
X10258Y320866D02*
D03*
X24409Y316142D02*
D03*
X10258Y283465D02*
D03*
X24409Y288342D02*
D03*
Y307087D02*
D03*
Y296850D02*
D03*
X268779Y358972D02*
D03*
Y338972D02*
D03*
Y318972D02*
D03*
Y298972D02*
D03*
Y278972D02*
D03*
Y238972D02*
D03*
Y218972D02*
D03*
Y198972D02*
D03*
Y178972D02*
D03*
Y158972D02*
D03*
Y138972D02*
D03*
Y118972D02*
D03*
Y78972D02*
D03*
Y58972D02*
D03*
Y38972D02*
D03*
Y18972D02*
D03*
X258780Y358972D02*
D03*
X263779Y348972D02*
D03*
X258780Y338972D02*
D03*
X263779Y328972D02*
D03*
X258780Y318972D02*
D03*
X263779Y308972D02*
D03*
X258780Y298972D02*
D03*
X263779Y288972D02*
D03*
X258780Y238972D02*
D03*
X263779Y228972D02*
D03*
X258780Y218972D02*
D03*
X263779Y208972D02*
D03*
X258780Y198972D02*
D03*
X263779Y188972D02*
D03*
X258780Y178972D02*
D03*
X263779Y168972D02*
D03*
X258780Y158972D02*
D03*
X263779Y148972D02*
D03*
X258780Y138972D02*
D03*
X263779Y128972D02*
D03*
X258780Y118972D02*
D03*
Y78972D02*
D03*
X263779Y68972D02*
D03*
X258780Y58972D02*
D03*
X263779Y48972D02*
D03*
X258780Y38972D02*
D03*
X263779Y28972D02*
D03*
X248780Y358972D02*
D03*
X253780Y348972D02*
D03*
X248780Y338972D02*
D03*
X253780Y328972D02*
D03*
X248780Y318972D02*
D03*
Y298972D02*
D03*
Y238972D02*
D03*
X253780Y228972D02*
D03*
X248780Y218972D02*
D03*
X253780Y208972D02*
D03*
X248780Y198972D02*
D03*
X253780Y188972D02*
D03*
Y148972D02*
D03*
X248780Y138972D02*
D03*
X253780Y128972D02*
D03*
X248780Y118972D02*
D03*
Y78972D02*
D03*
X253780Y68972D02*
D03*
X248780Y58972D02*
D03*
X253780Y48972D02*
D03*
X248780Y38972D02*
D03*
X253780Y28972D02*
D03*
X243779Y368972D02*
D03*
X238779Y358972D02*
D03*
X243779Y348972D02*
D03*
X238779Y338972D02*
D03*
X243779Y328972D02*
D03*
Y308972D02*
D03*
Y268972D02*
D03*
Y248972D02*
D03*
Y228972D02*
D03*
Y208972D02*
D03*
X238779Y198972D02*
D03*
X243779Y188972D02*
D03*
X238779Y178972D02*
D03*
X243779Y148972D02*
D03*
X238779Y138972D02*
D03*
X243779Y128972D02*
D03*
X238779Y118972D02*
D03*
X243779Y108972D02*
D03*
Y88972D02*
D03*
X238779Y78972D02*
D03*
X243779Y68972D02*
D03*
X238779Y58972D02*
D03*
X243779Y48972D02*
D03*
X238779Y38972D02*
D03*
X243779Y28972D02*
D03*
X238779Y18972D02*
D03*
X233780Y368972D02*
D03*
X228780Y358972D02*
D03*
X233780Y348972D02*
D03*
X228780Y338972D02*
D03*
X233780Y328972D02*
D03*
X228780Y298972D02*
D03*
X233780Y268972D02*
D03*
Y248972D02*
D03*
Y228972D02*
D03*
Y188972D02*
D03*
X228780Y178972D02*
D03*
Y158972D02*
D03*
X233780Y148972D02*
D03*
X228780Y138972D02*
D03*
X233780Y128972D02*
D03*
X228780Y118972D02*
D03*
X233780Y108972D02*
D03*
Y88972D02*
D03*
X228780Y78972D02*
D03*
X233780Y68972D02*
D03*
X228780Y58972D02*
D03*
X233780Y48972D02*
D03*
X228780Y38972D02*
D03*
X233780Y28972D02*
D03*
X228780Y18972D02*
D03*
X223780Y368972D02*
D03*
X218779Y358972D02*
D03*
X223780Y348972D02*
D03*
Y308972D02*
D03*
Y268972D02*
D03*
Y188972D02*
D03*
X218779Y158972D02*
D03*
X223780Y148972D02*
D03*
X218779Y138972D02*
D03*
X223780Y128972D02*
D03*
X218779Y118972D02*
D03*
X223780Y108972D02*
D03*
Y88972D02*
D03*
X218779Y78972D02*
D03*
X223780Y68972D02*
D03*
X218779Y58972D02*
D03*
X223780Y48972D02*
D03*
X218779Y38972D02*
D03*
X223780Y28972D02*
D03*
X218779Y18972D02*
D03*
X213779Y368972D02*
D03*
X208780Y358972D02*
D03*
X213779Y348972D02*
D03*
Y328972D02*
D03*
Y308972D02*
D03*
X208780Y138972D02*
D03*
X213779Y128972D02*
D03*
X208780Y118972D02*
D03*
X213779Y108972D02*
D03*
Y88972D02*
D03*
X208780Y78972D02*
D03*
X213779Y68972D02*
D03*
X208780Y58972D02*
D03*
X213779Y48972D02*
D03*
X208780Y38972D02*
D03*
X213779Y28972D02*
D03*
X208780Y18972D02*
D03*
X203780Y368972D02*
D03*
Y348972D02*
D03*
Y328972D02*
D03*
Y308972D02*
D03*
Y268972D02*
D03*
X198779Y138972D02*
D03*
X203780Y128972D02*
D03*
X198779Y118972D02*
D03*
X203780Y108972D02*
D03*
Y88972D02*
D03*
X198779Y78972D02*
D03*
X203780Y68972D02*
D03*
X198779Y58972D02*
D03*
X203780Y48972D02*
D03*
X198779Y38972D02*
D03*
X203780Y28972D02*
D03*
X198779Y18972D02*
D03*
X193780Y368972D02*
D03*
Y348972D02*
D03*
Y328972D02*
D03*
Y308972D02*
D03*
Y288972D02*
D03*
Y268972D02*
D03*
Y168972D02*
D03*
Y148972D02*
D03*
Y128972D02*
D03*
X188779Y118972D02*
D03*
X193780Y108972D02*
D03*
Y88972D02*
D03*
X188779Y78972D02*
D03*
X193780Y68972D02*
D03*
X188779Y58972D02*
D03*
X193780Y48972D02*
D03*
X188779Y38972D02*
D03*
X193780Y28972D02*
D03*
X188779Y18972D02*
D03*
X183780Y348972D02*
D03*
Y328972D02*
D03*
Y308972D02*
D03*
Y288972D02*
D03*
Y268972D02*
D03*
X178779Y138972D02*
D03*
Y118972D02*
D03*
X183780Y108972D02*
D03*
Y88972D02*
D03*
X178779Y78972D02*
D03*
X183780Y68972D02*
D03*
X178779Y58972D02*
D03*
X183780Y48972D02*
D03*
X178779Y38972D02*
D03*
X183780Y28972D02*
D03*
X178779Y18972D02*
D03*
X173779Y328972D02*
D03*
Y308972D02*
D03*
Y288972D02*
D03*
Y268972D02*
D03*
X168780Y198972D02*
D03*
X173779Y148972D02*
D03*
X168780Y138972D02*
D03*
X173779Y128972D02*
D03*
X168780Y118972D02*
D03*
X173779Y108972D02*
D03*
Y88972D02*
D03*
X168780Y78972D02*
D03*
X173779Y68972D02*
D03*
X168780Y58972D02*
D03*
X173779Y48972D02*
D03*
X168780Y38972D02*
D03*
X173779Y28972D02*
D03*
X168780Y18972D02*
D03*
X163779Y348972D02*
D03*
Y328972D02*
D03*
Y308972D02*
D03*
X158780Y298972D02*
D03*
X163779Y288972D02*
D03*
X158780Y198972D02*
D03*
Y178972D02*
D03*
Y138972D02*
D03*
X163779Y128972D02*
D03*
X158780Y118972D02*
D03*
X163779Y108972D02*
D03*
Y88972D02*
D03*
X158780Y78972D02*
D03*
X163779Y68972D02*
D03*
X158780Y58972D02*
D03*
X163779Y48972D02*
D03*
X158780Y38972D02*
D03*
X163779Y28972D02*
D03*
X158780Y18972D02*
D03*
X153779Y368972D02*
D03*
Y308972D02*
D03*
X148779Y298972D02*
D03*
Y278972D02*
D03*
X153779Y268972D02*
D03*
Y228972D02*
D03*
X148779Y218972D02*
D03*
X153779Y208972D02*
D03*
X148779Y178972D02*
D03*
Y138972D02*
D03*
X153779Y128972D02*
D03*
X148779Y118972D02*
D03*
X153779Y108972D02*
D03*
Y88972D02*
D03*
X148779Y78972D02*
D03*
X153779Y68972D02*
D03*
X148779Y58972D02*
D03*
X153779Y48972D02*
D03*
X148779Y38972D02*
D03*
X153779Y28972D02*
D03*
X148779Y18972D02*
D03*
X143780Y368972D02*
D03*
X138779Y298972D02*
D03*
X143780Y288972D02*
D03*
Y228972D02*
D03*
X138779Y218972D02*
D03*
X143780Y168972D02*
D03*
Y128972D02*
D03*
X138779Y118972D02*
D03*
X143780Y108972D02*
D03*
Y88972D02*
D03*
X138779Y78972D02*
D03*
X143780Y68972D02*
D03*
X138779Y58972D02*
D03*
X143780Y48972D02*
D03*
X138779Y38972D02*
D03*
X143780Y28972D02*
D03*
X138779Y18972D02*
D03*
X133780Y368972D02*
D03*
X128779Y358972D02*
D03*
X133780Y308972D02*
D03*
X128779Y298972D02*
D03*
X133780Y288972D02*
D03*
X128779Y278972D02*
D03*
X133780Y248972D02*
D03*
Y208972D02*
D03*
X128779Y198972D02*
D03*
Y178972D02*
D03*
Y118972D02*
D03*
X133780Y108972D02*
D03*
Y88972D02*
D03*
X128779Y78972D02*
D03*
X133780Y68972D02*
D03*
X128779Y58972D02*
D03*
X133780Y48972D02*
D03*
X128779Y38972D02*
D03*
X133780Y28972D02*
D03*
X128779Y18972D02*
D03*
X123779Y368972D02*
D03*
X118780Y358972D02*
D03*
X123779Y308972D02*
D03*
X118780Y298972D02*
D03*
X123779Y288972D02*
D03*
X118780Y278972D02*
D03*
X123779Y268972D02*
D03*
Y248972D02*
D03*
X118780Y178972D02*
D03*
Y118972D02*
D03*
X123779Y108972D02*
D03*
Y88972D02*
D03*
X118780Y78972D02*
D03*
X123779Y68972D02*
D03*
X118780Y58972D02*
D03*
X123779Y48972D02*
D03*
X118780Y38972D02*
D03*
X123779Y28972D02*
D03*
X118780Y18972D02*
D03*
X113779Y368972D02*
D03*
X108780Y358972D02*
D03*
X113779Y328972D02*
D03*
X108780Y278972D02*
D03*
X113779Y268972D02*
D03*
X108780Y258972D02*
D03*
X113779Y148972D02*
D03*
X108780Y118972D02*
D03*
X113779Y108972D02*
D03*
Y88972D02*
D03*
X108780Y78972D02*
D03*
X113779Y68972D02*
D03*
X108780Y58972D02*
D03*
X113779Y48972D02*
D03*
X108780Y38972D02*
D03*
X113779Y28972D02*
D03*
X108780Y18972D02*
D03*
X103779Y368972D02*
D03*
X98779Y358972D02*
D03*
Y338972D02*
D03*
X103779Y328972D02*
D03*
X98779Y318972D02*
D03*
X103779Y268972D02*
D03*
X98779Y258972D02*
D03*
Y158972D02*
D03*
Y118972D02*
D03*
X103779Y108972D02*
D03*
Y88972D02*
D03*
X98779Y78972D02*
D03*
X103779Y68972D02*
D03*
X98779Y58972D02*
D03*
X103779Y48972D02*
D03*
X98779Y38972D02*
D03*
X103779Y28972D02*
D03*
X98779Y18972D02*
D03*
X93779Y368972D02*
D03*
X88779Y358972D02*
D03*
X93779Y328972D02*
D03*
Y308972D02*
D03*
Y148972D02*
D03*
X88779Y138972D02*
D03*
Y118972D02*
D03*
X93779Y108972D02*
D03*
Y88972D02*
D03*
X88779Y78972D02*
D03*
X93779Y68972D02*
D03*
X88779Y58972D02*
D03*
X93779Y48972D02*
D03*
X88779Y38972D02*
D03*
X93779Y28972D02*
D03*
X88779Y18972D02*
D03*
X83780Y368972D02*
D03*
X78780Y358972D02*
D03*
Y338972D02*
D03*
X83780Y328972D02*
D03*
X78780Y138972D02*
D03*
Y118972D02*
D03*
X83780Y108972D02*
D03*
Y88972D02*
D03*
X78780Y78972D02*
D03*
X83780Y68972D02*
D03*
X78780Y58972D02*
D03*
X83780Y48972D02*
D03*
X78780Y38972D02*
D03*
X83780Y28972D02*
D03*
X78780Y18972D02*
D03*
X73779Y368972D02*
D03*
X68779Y358972D02*
D03*
X73779Y328972D02*
D03*
Y288972D02*
D03*
Y228972D02*
D03*
X68779Y138972D02*
D03*
Y118972D02*
D03*
X73779Y108972D02*
D03*
Y88972D02*
D03*
X68779Y78972D02*
D03*
X73779Y68972D02*
D03*
X68779Y58972D02*
D03*
X73779Y48972D02*
D03*
X68779Y38972D02*
D03*
X73779Y28972D02*
D03*
X68779Y18972D02*
D03*
X63779Y368972D02*
D03*
X58780Y358972D02*
D03*
Y338972D02*
D03*
X63779Y328972D02*
D03*
X58780Y318972D02*
D03*
X63779Y308972D02*
D03*
Y288972D02*
D03*
X58780Y278972D02*
D03*
Y238972D02*
D03*
X63779Y168972D02*
D03*
X58780Y158972D02*
D03*
Y138972D02*
D03*
Y118972D02*
D03*
X63779Y108972D02*
D03*
Y88972D02*
D03*
X58780Y78972D02*
D03*
X63779Y68972D02*
D03*
X58780Y58972D02*
D03*
X63779Y48972D02*
D03*
X58780Y38972D02*
D03*
X63779Y28972D02*
D03*
X58780Y18972D02*
D03*
X53780Y368972D02*
D03*
X48779Y338972D02*
D03*
X53780Y328972D02*
D03*
X48779Y318972D02*
D03*
X53780Y308972D02*
D03*
Y288972D02*
D03*
X48779Y278972D02*
D03*
X53780Y268972D02*
D03*
X48779Y238972D02*
D03*
X53780Y228972D02*
D03*
X48779Y158972D02*
D03*
X53780Y148972D02*
D03*
Y128972D02*
D03*
X48779Y118972D02*
D03*
X53780Y108972D02*
D03*
Y88972D02*
D03*
X48779Y78972D02*
D03*
X53780Y68972D02*
D03*
X48779Y58972D02*
D03*
X53780Y48972D02*
D03*
X48779Y38972D02*
D03*
X53780Y28972D02*
D03*
X48779Y18972D02*
D03*
X43780Y368972D02*
D03*
X38780Y358972D02*
D03*
X43780Y328972D02*
D03*
X38780Y318972D02*
D03*
X43780Y308972D02*
D03*
Y288972D02*
D03*
X38780Y278972D02*
D03*
X43780Y268972D02*
D03*
X38780Y258972D02*
D03*
X43780Y228972D02*
D03*
X38780Y178972D02*
D03*
X43780Y168972D02*
D03*
X38780Y158972D02*
D03*
Y138972D02*
D03*
X43780Y128972D02*
D03*
X38780Y118972D02*
D03*
X43780Y108972D02*
D03*
Y88972D02*
D03*
X38780Y78972D02*
D03*
X43780Y68972D02*
D03*
X38780Y58972D02*
D03*
X43780Y48972D02*
D03*
X38780Y38972D02*
D03*
X43780Y28972D02*
D03*
X38780Y18972D02*
D03*
X33779Y368972D02*
D03*
X28780Y358972D02*
D03*
Y338972D02*
D03*
X33779Y328972D02*
D03*
Y308972D02*
D03*
X28780Y278972D02*
D03*
X33779Y268972D02*
D03*
Y208972D02*
D03*
X28780Y178972D02*
D03*
X33779Y168972D02*
D03*
Y148972D02*
D03*
X28780Y138972D02*
D03*
X33779Y128972D02*
D03*
X28780Y118972D02*
D03*
X33779Y108972D02*
D03*
Y88972D02*
D03*
X28780Y78972D02*
D03*
X33779Y68972D02*
D03*
X28780Y58972D02*
D03*
X33779Y48972D02*
D03*
X28780Y38972D02*
D03*
X33779Y28972D02*
D03*
X23779Y328972D02*
D03*
X18779Y278972D02*
D03*
Y178972D02*
D03*
Y158972D02*
D03*
X23779Y148972D02*
D03*
X18779Y138972D02*
D03*
X23779Y128972D02*
D03*
X18779Y118972D02*
D03*
X23779Y108972D02*
D03*
Y88972D02*
D03*
X18779Y78972D02*
D03*
X23779Y68972D02*
D03*
X18779Y58972D02*
D03*
X23779Y48972D02*
D03*
X18779Y38972D02*
D03*
X23779Y28972D02*
D03*
X13780Y328972D02*
D03*
X8779Y198972D02*
D03*
X13780Y188972D02*
D03*
X8779Y178972D02*
D03*
X13780Y168972D02*
D03*
X8779Y158972D02*
D03*
X13780Y148972D02*
D03*
X8779Y138972D02*
D03*
X13780Y128972D02*
D03*
X8779Y118972D02*
D03*
Y78972D02*
D03*
X13780Y68972D02*
D03*
X8779Y58972D02*
D03*
X13780Y48972D02*
D03*
X8779Y38972D02*
D03*
X13780Y28972D02*
D03*
X8779Y18972D02*
D03*
X32787Y238453D02*
D03*
X159843Y368010D02*
D03*
X222133Y336933D02*
D03*
X186811Y364917D02*
D03*
X232283Y98425D02*
D03*
X47244D02*
D03*
X220926Y289327D02*
D03*
X188959Y289917D02*
D03*
X218898Y322397D02*
D03*
X239173Y267279D02*
D03*
X99606Y184996D02*
D03*
X135039Y258618D02*
D03*
X202953Y260092D02*
D03*
X145669Y276193D02*
D03*
X139357Y277269D02*
D03*
X177953Y252122D02*
D03*
X131102Y235193D02*
D03*
X134252Y240114D02*
D03*
X190551Y192082D02*
D03*
X79866Y224877D02*
D03*
X153543Y243035D02*
D03*
X161221Y243225D02*
D03*
X124748Y258027D02*
D03*
X94276Y222971D02*
D03*
X54921Y213244D02*
D03*
X60236Y220626D02*
D03*
X151968Y248381D02*
D03*
X142126Y204236D02*
D03*
X110925Y229090D02*
D03*
X104331Y228106D02*
D03*
X114173Y232240D02*
D03*
X43385Y203958D02*
D03*
X101378Y166098D02*
D03*
X107205Y167476D02*
D03*
X52756Y201137D02*
D03*
X212332Y158022D02*
D03*
X100591Y206452D02*
D03*
X85826Y179090D02*
D03*
X129528Y174957D02*
D03*
X100394Y210752D02*
D03*
X123819Y196332D02*
D03*
X110157Y174169D02*
D03*
X102362Y187752D02*
D03*
X80315Y209799D02*
D03*
X76575Y207905D02*
D03*
X54331Y172594D02*
D03*
X72441Y193067D02*
D03*
X64567Y186571D02*
D03*
X51968Y194248D02*
D03*
X70472Y201492D02*
D03*
X97638Y226531D02*
D03*
X31496Y205075D02*
D03*
X44685Y217476D02*
D03*
X24409Y211767D02*
D03*
X42913Y190508D02*
D03*
X172638Y190901D02*
D03*
D116*
X61456Y147382D02*
D03*
X91339Y290311D02*
D03*
X162992Y161571D02*
D03*
X178543Y155271D02*
D03*
X170669D02*
D03*
X103362Y194658D02*
D03*
X78716Y201334D02*
D03*
X178543Y161964D02*
D03*
X170473D02*
D03*
X88386Y147382D02*
D03*
D117*
X194685Y179007D02*
D03*
X164567Y252770D02*
D03*
X164732Y241917D02*
D03*
X218898Y227319D02*
D03*
X194980Y233815D02*
D03*
X207087Y195232D02*
D03*
X202953Y195823D02*
D03*
X211559Y195626D02*
D03*
X215748Y196019D02*
D03*
X162598Y239327D02*
D03*
X196795Y205523D02*
D03*
X180260Y203075D02*
D03*
X204866Y221382D02*
D03*
X200929Y246185D02*
D03*
X197583Y242105D02*
D03*
X170024Y222169D02*
D03*
D118*
X185039Y199366D02*
D03*
%TF.MD5,5cd50dc64a2c730e29322f6450f758c6*%
M02*
